<svg width="183" height="231" viewBox="0 0 183 231" fill="none" xmlns="http://www.w3.org/2000/svg">
<path opacity="0.2" d="M182.984 77.7679C181.105 78.5925 178.443 77.0503 177.112 75.7982C168.218 67.568 159.073 32.2044 160.076 20.4165C161.031 9.102 170.864 -0.99095 183 0.0778991L183 77.7679L182.984 77.7679Z" fill="white"/>
<path opacity="0.2" d="M183 230.924C170.88 231.978 161.046 221.899 160.075 210.583C159.073 198.809 168.234 163.411 177.112 155.195C178.459 153.958 181.121 152.416 182.984 153.225L182.984 230.924L183 230.924Z" fill="white"/>
<path opacity="0.2" d="M183 135C168.884 135.045 160.095 122.57 163.882 109.298C165.837 102.474 172.733 97.1679 179.875 96.0556C180.86 95.9053 181.984 96.1158 183 96.0406L183 135Z" fill="white"/>
<path opacity="0.2" d="M91.0952 136.929C59.3822 138.985 57.0893 95.5594 87.8573 94.0294C99.8329 93.4267 132.088 102.189 141.384 109.978C145.923 113.795 146.341 116.685 141.771 120.734C132.383 129.063 103.644 136.11 91.0797 136.929L91.0952 136.929Z" fill="white"/>
<path opacity="0.2" d="M100.405 197.885C92.0967 190.268 92.2656 177.251 98.6389 168.495C105.411 159.217 129.83 145.722 140.825 142.075C146.369 140.228 156.766 137.043 156.997 146.168C157.289 157.909 137.954 191.284 128.401 198.316C120.262 204.317 108.099 204.948 100.405 197.885Z" fill="white"/>
<path opacity="0.2" d="M109.364 71.9944C103.33 67.6924 97.1269 62.6222 94.9874 55.1859C89.354 35.5504 108.902 21.2617 126.31 31.2946C136.608 37.2251 150.891 63.0524 154.816 74.3759C156.525 79.277 159.911 90.2471 151.861 90.9538C141.194 91.891 118.214 78.3244 109.348 72.0098L109.364 71.9944Z" fill="white"/>
<path opacity="0.2" d="M22.7286 130.494C20.9828 132.042 20.1331 134.303 18.2947 135.791C10.5701 141.999 1.68674 131.814 9.31867 125.06L13.8453 121.751C7.43386 123.299 -1.27951 122.601 0.157269 113.934C1.19237 107.619 9.19507 108.454 13.8453 109.35L9.31867 106.041C2.87634 100.926 8.03638 90.9533 16.0545 93.8676C19.2371 95.0212 20.473 98.4061 22.7286 100.592C20.8593 94.2623 21.9716 85.7926 30.685 87.1435C36.6793 88.0694 36.6484 96.6453 34.9799 100.956C38.286 97.0096 40.9433 91.5908 47.2002 93.8676C51.9431 95.598 52.592 101.336 49.6257 104.978C48.1426 106.8 45.7943 107.619 44.2339 109.335C49.1932 108.151 57.3195 107.938 57.9529 114.617C58.7099 122.616 50.1819 123.269 44.2339 121.72C45.7943 123.436 48.1426 124.255 49.6257 126.077C54.3378 131.875 49.3167 139.677 42.0247 137.187C38.7186 136.049 37.2818 132.421 34.9799 130.099C36.6329 134.956 36.8492 143.244 29.9743 143.942C21.6935 144.777 21.0137 136.444 22.7441 130.463L22.7286 130.494Z" fill="white"/>
<path opacity="0.2" d="M34.0154 175.385C35.1257 174.259 37.1919 173.94 38.7031 173.255C41.6637 171.932 45.9659 169.879 48.4177 167.872C52.5348 164.48 55.5263 156.967 57.3304 152.024C57.8547 151.629 59.2887 156.237 59.4738 156.647C65.4259 169.757 68.294 168.708 80.0902 174.639C80.4449 174.822 80.9692 174.852 81 175.369C76.4974 176.845 69.0495 179.78 65.6417 183.035C62.2339 186.289 60.1677 192.996 58.0705 197.103C57.9009 197.452 57.8392 197.97 57.315 198C55.0636 192.312 52.3343 184.844 47.0607 181.286C43.2828 178.731 38.3947 176.556 34 175.369L34.0154 175.385Z" fill="white"/>
<path opacity="0.2" d="M34 55.6222C38.5895 54.2083 45.6329 51.3654 49.1016 47.9751C52.5702 44.5848 54.9483 37.4545 57.084 33C59.3712 37.4393 61.4615 44.1135 64.8999 47.7774C68.3382 51.4414 74.9423 53.0833 79.3349 55.5462C79.653 55.7287 80.3346 55.8351 79.8045 56.352C79.6227 56.5192 75.9269 57.6291 75.0938 58.0091C65.839 62.2812 63.1883 65.0178 59.0228 74.3525C58.8411 74.763 57.4172 79.3847 56.9174 78.9742C55.1452 74.0028 52.237 66.5533 48.1624 63.1326C45.7541 61.1106 41.5281 59.0581 38.6198 57.7507C37.1354 57.0817 35.0906 56.7473 34.0152 55.6222L34 55.6222Z" fill="white"/>
<path opacity="0.2" d="M92.9917 80.8347C87.0033 87.2339 76.7594 78.0591 82.8872 71.3207C89.0149 64.5823 99.3825 73.9884 92.9917 80.8347Z" fill="white"/>
<path opacity="0.2" d="M89.1607 161.894C79.8116 163.334 78.0217 149.664 86.2681 148.161C96.2564 146.344 98.286 160.485 89.1607 161.894Z" fill="white"/>
<path opacity="0.2" d="M148.854 205C155.198 210.942 146.106 221.265 139.33 215.105C132.553 208.946 142.047 198.639 148.854 205Z" fill="white"/>
</svg>
