<?xml version="1.0" encoding="UTF-8"?>
<svg xmlns="http://www.w3.org/2000/svg" xmlns:xlink="http://www.w3.org/1999/xlink" viewBox="0 0 4281.22 235.02">
  <defs>
    <style>
      .cls-1 {
        fill: none;
      }

      .cls-2 {
        fill: #231f20;
      }

      .cls-3 {
        isolation: isolate;
      }

      .cls-4 {
        mix-blend-mode: multiply;
      }

      .cls-5 {
        clip-path: url(#clippath-1);
      }

      .cls-6 {
        clip-path: url(#clippath-3);
      }

      .cls-7 {
        clip-path: url(#clippath-4);
      }

      .cls-8 {
        clip-path: url(#clippath-2);
      }

      .cls-9 {
        clip-path: url(#clippath-7);
      }

      .cls-10 {
        clip-path: url(#clippath-6);
      }

      .cls-11 {
        clip-path: url(#clippath-5);
      }

      .cls-12 {
        opacity: .1;
      }

      .cls-13 {
        clip-path: url(#clippath);
      }
    </style>
    <clipPath id="clippath">
      <rect class="cls-1" width="966" height="235"/>
    </clipPath>
    <clipPath id="clippath-1">
      <rect class="cls-1" x="760" width="966" height="235"/>
    </clipPath>
    <clipPath id="clippath-2">
      <rect class="cls-1" x="1183.48" width="966" height="235"/>
    </clipPath>
    <clipPath id="clippath-3">
      <rect class="cls-1" x="1609.83" width="966" height="235"/>
    </clipPath>
    <clipPath id="clippath-4">
      <rect class="cls-1" x="2036.17" width="966" height="235"/>
    </clipPath>
    <clipPath id="clippath-5">
      <rect class="cls-1" x="2462.52" width="966" height="235"/>
    </clipPath>
    <clipPath id="clippath-6">
      <rect class="cls-1" x="2888.87" width="966" height="235"/>
    </clipPath>
    <clipPath id="clippath-7">
      <rect class="cls-1" x="3315.22" width="966" height="235"/>
    </clipPath>
  </defs>
  <g class="cls-3">
    <g id="Layer_1" data-name="Layer 1">
      <g class="cls-12">
        <g class="cls-13">
          <g class="cls-4">
            <path class="cls-2" d="M530.86,235c-1.07-2.38.93-5.74,2.55-7.43,10.64-11.25,56.38-22.82,71.62-21.55,14.63,1.21,27.68,13.65,26.3,29h-100.47v-.02Z"/>
            <path class="cls-2" d="M334.65,235c-1.36-15.33,11.67-27.77,26.3-29,15.22-1.27,61,10.32,71.62,21.55,1.6,1.7,3.59,5.07,2.55,7.43h-100.47v.02Z"/>
            <path class="cls-2" d="M829.9,235h-70.14c-.91-8.93,7.41-18.5,15.99-19.85,11.18-1.74,35.31,4.91,45.48,10.26,3.63,1.9,9.1,4.83,8.69,9.59h-.02Z"/>
            <path class="cls-2" d="M206.22,235h-70.14c-.41-4.77,5.06-7.68,8.69-9.59,10.35-5.43,33.96-11.9,45.38-10.16,8.87,1.37,16.84,10.58,16.09,19.75h-.02Z"/>
            <path class="cls-2" d="M457.4,235c-.06-18.16,16.33-29.47,33.77-24.6,8.96,2.51,15.94,11.39,17.4,20.58.2,1.27-.08,2.71.02,4.02h-51.18Z"/>
            <path class="cls-2" d="M85.37,235c.12-1.54.12-3.92.49-5.37.1-.38.73-.28.89-.71,2.51-6.69,5.15-9.51,12.01-11.15,7.52-1.82,14.63.87,19.27,7.13,1.38,1.86,2.41,4.73,2.84,7.03.18.95-.04,2.08.02,3.05h-35.54l.02.02Z"/>
            <path class="cls-2" d="M845.07,235c.06-.99-.14-2.1.02-3.05.32-1.82,1.2-3.54,1.86-4.89,2.73-5.55,8.89-9.57,14.91-10.14,3.89-.36,9.12,1.6,12.22,3.84,3.1,2.24,3.95,4.93,5.15,8.16.14.4.77.36.87.73.38,1.39.38,3.84.49,5.35h-35.54.02Z"/>
            <path class="cls-2" d="M455.64,116.72c-2.63-40.54,52.86-43.47,54.82-4.14.77,15.31-10.43,56.55-20.38,68.43-4.88,5.8-8.57,6.34-13.74.5-10.64-12-19.65-48.74-20.69-64.81v.02Z"/>
            <path class="cls-2" d="M377.01,128.68c9.77-10.72,26.48-10.5,37.72-2.28,11.91,8.73,29.23,40.23,33.9,54.41,2.37,7.15,6.46,20.56-5.25,20.86-15.07.38-57.9-24.56-66.92-36.88-7.7-10.5-8.51-26.18.55-36.11Z"/>
            <path class="cls-2" d="M539.11,140.11c5.53-7.76,12.05-15.75,21.6-18.5,25.24-7.25,43.6,17.9,30.71,40.3-7.62,13.25-40.82,31.63-55.37,36.68-6.3,2.2-20.4,6.56-21.31-3.8-1.2-13.73,16.23-43.3,24.35-54.71l.02.02Z"/>
            <path class="cls-2" d="M463.56,29.15c-2.01-2.24-4.96-3.33-6.89-5.68-8.08-9.9,5.17-21.29,13.96-11.51l4.3,5.8c-2.01-8.22-1.11-19.39,10.17-17.55,8.21,1.33,7.13,11.59,5.96,17.55l4.31-5.8c6.65-8.26,19.63-1.64,15.84,8.64-1.5,4.08-5.91,5.66-8.75,8.56,8.23-2.4,19.25-.97,17.49,10.2-1.2,7.68-12.36,7.65-17.97,5.51,5.13,4.24,12.18,7.65,9.22,15.67-2.25,6.08-9.72,6.91-14.46,3.11-2.37-1.9-3.44-4.91-5.67-6.91,1.54,6.36,1.82,16.78-6.87,17.59-10.41.97-11.26-9.96-9.24-17.59-2.23,2-3.3,5.01-5.67,6.91-7.54,6.04-17.69-.4-14.45-9.74,1.48-4.24,6.2-6.08,9.22-9.03-6.32,2.12-17.1,2.4-18.01-6.42-1.09-10.62,9.76-11.49,17.54-9.27l-.04-.02Z"/>
            <path class="cls-2" d="M845.07,80.97l-5.21-4.04c-8.87-7.39,1.78-20.32,10.45-12.85,2.03,1.74,3.22,4.63,5.19,6.44.16-2.36-.99-5.11-.99-7.37,0-7.19,7.98-11.53,13.74-6.62,4.34,3.68,2.41,9.15,1.93,13.98,1.84-1.43,2.67-3.86,4.24-5.49,8.12-8.36,19.47,1.92,12.6,10.73-1.78,2.28-4.5,3.19-6.4,5.21,4.01-.14,7.29-1.8,11.22-.08,6.54,2.85,6.48,12.52-.34,15.05-3.75,1.39-7.07.06-10.88-.22,3.02,2.57,7.15,4.38,8.2,8.64,2.25,9.07-8.39,14.02-14.38,7.29l-4.24-5.49c.39,4.71,2.29,10.06-1.64,13.81-4.42,4.2-11.33,2.49-13.43-3.21-1.4-3.82.47-6.75.38-10.6l-4.7,5.96c-8.55,7.58-19.21-2.97-11.65-11.69l5.94-4.73c-4.72.48-9.56,2.38-13.53-1.41-3.97-3.78-3.18-10.06,1.42-12.87,4.28-2.61,7.56-.65,12.08-.48l-.02.02Z"/>
            <path class="cls-2" d="M85.37,80.97c-1.24-1.58-3.26-2.26-4.74-3.55-9.77-8.6,1.6-20.96,10.45-12.85,1.88,1.72,2.74,4.34,4.72,5.96-1.97-6.64-.95-17.11,8.25-16.12,8.12.87,7.9,10.1,6.46,16.12,1.8-1.58,2.98-4.36,4.72-5.96,8.75-8.08,19.67,4.2,11.18,12.16l-5.47,4.26c6.12-1.45,15.09-1.7,16.07,6.46,1.11,9.17-9.54,10.28-16.07,8.28l5.94,4.73c7.56,8.71-3.1,19.27-11.65,11.68l-4.7-5.96c-.04,4.2,1.95,7.11.08,11.25-2.23,4.93-7.98,6.36-12.38,3.21-4.8-3.45-2.9-9.57-2.41-14.46l-4.25,5.49c-5.98,6.73-16.65,1.78-14.38-7.29,1.07-4.26,5.17-6.06,8.19-8.64-4.56.42-9.36,2.2-13.29-1.19-4.29-3.7-3.5-10.68,1.46-13.29,4.23-2.22,7.44-.48,11.83-.28l-.02-.02Z"/>
            <path class="cls-2" d="M785,177.11c-2.55-18.78,17.42-28.09,31.38-16.74,8.35,6.77,24.64,35.2,24.45,45.87-.18,9.51-12.99,4.28-18.28,2.14-11.71-4.75-35.7-17.65-37.56-31.25l.02-.02Z"/>
            <path class="cls-2" d="M125.29,208.02c-1.7-9.33,11.51-31.75,17.22-39.53,5.71-7.78,11.69-13.65,22.25-12.89,16.07,1.15,21.11,19.83,11.59,31.61-6.69,8.28-36.16,25.49-46.66,24.48-2.37-.22-3.95-1.23-4.38-3.68l-.02.02Z"/>
            <path class="cls-2" d="M84.08,152.84c-1.15-22.18,26.03-31.31,35.74-11.61,5.31,10.77-1.3,33.91-5.67,44.9-2.21,5.6-7.92,19.77-15.3,12.24-7.39-7.53-14.24-35.04-14.77-45.55v.02Z"/>
            <path class="cls-2" d="M844.26,157.14c-.69-7.09-.4-13.63,4.15-19.35,10.7-13.49,29.54-7.31,32.94,8.77,2.03,9.62-3.69,30.18-7.46,39.59-1.97,4.95-7.58,18.97-14.59,12.95-7.01-6.02-14.1-32.66-15.03-41.97Z"/>
            <path class="cls-2" d="M677.77,177.96c-.28-5.09,2.07-10.5,5.92-13.78,11.49-9.74,28.79-1.11,28.18,13.78,7.92-.81,17.3,2,20.38,9.98-18.48-.28-30.59,17.09-37.2,32.32-7.56-15.13-18.62-32.62-37.68-32.32,3.22-8.04,12.38-10.77,20.38-9.98h.02Z"/>
            <path class="cls-2" d="M254.08,177.96c-.61-14.91,16.67-23.53,28.18-13.78,3.85,3.27,6.22,8.69,5.92,13.78,8.02-.75,17.12,1.96,20.38,9.98-15.21-.48-26.24,11.78-33.25,23.93-.43.77-4.07,8.83-4.66,8.4-6.04-15.31-18.82-32.66-36.97-32.32,2.98-8,12.58-10.77,20.38-9.98h.02Z"/>
            <path class="cls-2" d="M711.54,152.41c-1.38-9.03,5.45-41.87,9.6-50.53,8.16-17.05,32.17-7.47,24.35,12.06-3.34,8.32-21.21,35.77-28.14,40.7-3.4,2.42-5.15,2.04-5.81-2.26v.02Z"/>
            <path class="cls-2" d="M298.91,149.24c-1.54,1.78-7.54,8.93-10.01,6.4-2.47-2.53-.67-14.99-.16-18.72,1.11-8.04,5.8-31.85,10.15-37.83,9.12-12.5,27.76-4.38,23.76,11.94-1.99,8.18-17.81,31.33-23.76,38.21h.02Z"/>
            <path class="cls-2" d="M645.25,98.26c6.1-8.89,18.84-5.57,23.22,3.21,4.38,8.77,9.2,33.63,9.77,43.43.26,4.34,1.12,14.5-5.65,9.94-6.77-4.56-25.33-33.29-28.47-41.32-2.05-5.23-2.11-10.54,1.15-15.29l-.02.02Z"/>
            <path class="cls-2" d="M219.13,109.61c-2.41-17.67,18.98-23.01,26.03-7.09,3.97,8.99,10.54,40.17,9.36,49.48-.3,2.26-.85,4.5-3.4,3.98-3.51-.71-10.27-9.96-12.58-13.05-4.72-6.3-18.44-26.38-19.39-33.31h-.02Z"/>
            <path class="cls-2" d="M681.21,98.65c.1-20.06,27.41-19.17,27.41-.32,0,10.16-5.59,40.76-10.57,49.34-2.76,4.79-4.46,3.82-6.79-.6-4.6-8.73-10.11-38.4-10.05-48.43Z"/>
            <path class="cls-2" d="M752.38,125.87c2.86-3.41,5.79-6.73,10.25-8.02,11.71-3.41,20.97,8.28,15.4,19.25-3.87,7.63-31.38,25.57-39.83,29.45-15.9,7.29-9.56-4.44-5.05-12.68,4.84-8.83,12.76-20.3,19.23-28.01Z"/>
            <path class="cls-2" d="M213.05,125.47c6.85,7.94,21.96,28.76,24.41,38.48,1.91,7.61-3.93,4.95-8.35,3.15-8.67-3.53-33.93-20.26-39.47-27.43-9.58-12.36,2.82-27.77,16.73-20.58,2.98,1.54,4.56,3.92,6.67,6.38h.02Z"/>
            <path class="cls-2" d="M257.54,99.61c-.34-21.25,26.99-20.36,27.31-1.33.16,9.8-5.53,39.79-9.95,48.49-2.59,5.09-4.52,5.53-7.31.32-4.82-8.99-9.87-37.02-10.03-47.46l-.02-.02Z"/>
            <path class="cls-2" d="M304.87,168.85c-1.01-2.02-.47-4.06.18-6.1,2.73-8.48,20.58-35.04,27.21-41.16,14.32-13.15,33.85,5.8,17.34,21.19-6.87,6.4-33.23,24.99-41.76,26.08-.97.12-2,.16-2.96,0v-.02Z"/>
            <path class="cls-2" d="M661.13,168.85c-2.78,1.74-13.51-4.42-16.37-6.02-7.19-4.08-28.53-18.12-32.39-24.56-8.77-14.6,8.69-28.28,21.35-16.66,6.65,6.1,24.49,32.66,27.21,41.16.65,2.04,1.18,4.08.18,6.1l.02-.02Z"/>
            <path class="cls-2" d="M406.21,42.96c1.46,1.43,1.88,4.08,2.77,6.02,1.72,3.8,4.38,9.33,6.99,12.48,4.4,5.29,14.16,9.13,20.58,11.45.51.67-5.47,2.52-6,2.75-17.02,7.65-15.66,11.33-23.36,26.48-.24.46-.28,1.13-.95,1.17-1.92-5.78-5.73-15.35-9.95-19.73-4.23-4.38-12.93-7.03-18.27-9.72-.45-.22-1.12-.3-1.17-.97,7.39-2.89,17.08-6.4,21.7-13.17,3.32-4.85,6.14-11.13,7.68-16.78l-.02.02Z"/>
            <path class="cls-2" d="M559.77,42.96c1.84,6,5.53,15.21,9.93,19.75,4.4,4.54,13.67,7.65,19.45,10.44-5.77,2.99-14.43,5.72-19.19,10.22-4.76,4.5-6.89,13.13-10.09,18.87-.24.42-.38,1.31-1.05.61-.22-.24-1.66-5.07-2.15-6.16-5.55-12.1-9.1-15.57-21.23-21.01-.53-.24-6.54-2.1-6-2.75,6.46-2.32,16.13-6.12,20.58-11.45,2.63-3.15,5.29-8.68,6.99-12.48.87-1.94,1.3-4.61,2.76-6.02v-.02Z"/>
            <path class="cls-2" d="M228.77,214.82c4.62-2.97,5.73-7.45,8.02-12.14,1.96,3.39,3.14,7.23,5.63,10.28l10.25,5.86c-5.55,2.04-9.7,4.08-12.8,9.27-1.22,2.02-1.74,4.6-3.32,6.42-2.27-8.24-7.35-13.41-15.64-15.69l7.86-4Z"/>
            <path class="cls-2" d="M723.59,212.96c2.76-2.77,3.46-7.27,5.85-10.28,1.3,3.05,3.06,8.2,5.43,10.5,2.17,2.1,7.33,4.22,10.21,5.21l-7.34,3.78c-4.46,2.46-6.67,7.74-8.29,12.36l-5.96-10.44c-3.22-2.02-6.46-4.14-10.15-5.25l10.25-5.86.02-.02Z"/>
            <path class="cls-2" d="M299.86,212.92c2.71-2.44,3.51-7.43,5.89-10.24,2.01,8.58,7.27,12.87,15.16,15.93-2.07,1.39-4.42,2.1-6.6,3.37-4.82,2.81-6.97,7.37-8.57,12.56-2.23-3.03-3.16-6.81-5.65-9.76-2.25-2.67-7.21-4.6-10.45-5.92,3.14-2.3,7.25-3.23,10.23-5.9l-.02-.02Z"/>
            <path class="cls-2" d="M660.24,202.68c2.21,2.65,2.86,6.6,4.94,9.33.83,1.11,3.52,2.79,4.78,3.51.61.36,6.71,2.89,6.4,3.33-3.79,1.53-8.55,3.35-11.1,6.7-2.09,2.73-2.92,6.36-5,8.99-1.6-5.19-3.75-9.74-8.57-12.56-2.15-1.25-4.52-1.98-6.59-3.37,7.9-3.05,13.13-7.35,15.16-15.93h-.02Z"/>
            <path class="cls-2" d="M527.24,119.31c-8.2-7.66,3.55-20.78,12.18-12.93,8.63,7.84-3.42,21.11-12.18,12.93Z"/>
            <path class="cls-2" d="M598.33,190.61c-8.14-8.71,5.21-20.72,12.89-12.22,7.68,8.5-5.23,20.44-12.89,12.22Z"/>
            <path class="cls-2" d="M423.87,114.38c-1.82-11.59,15.42-13.81,17.32-3.58,2.29,12.38-15.54,14.89-17.32,3.58Z"/>
            <path class="cls-2" d="M367.67,190.61c-7.58,8.14-20.75-3.52-12.89-12.22,7.86-8.69,21.01,3.49,12.89,12.22Z"/>
            <path class="cls-2" d="M332.44,78.27c.04-.1.57-.14.73-.51.38-.93.51-2.42,1.17-3.25.65-.83,2.45-1.49,3.26-2.1.47-.36,1.18-1.56,1.46-1.7.81-.42,6.93-2.28,7.37-2,1.26,2.34,1.23,5.15.97,7.72-.51,5.07-3.24,7.72-6.73,11.07l-8.37,3.01c.32-1.37-.77-2.46-.93-3.58-.3-2.3.34-6.42,1.09-8.64v-.02Z"/>
            <path class="cls-2" d="M204.14,71.68c.18.1,2.92,2.24,3.06,2.38,1.92,1.96,3.73,7.61,3.79,10.5.04,2.1-1.01,3.88-.99,5.94-.91.12-1.42-.65-2.23-.85-1.92-.48-4.03-.91-5.9-2.06-5.55-3.43-8.23-10.87-7.01-17.29.65-3.47,7.4.24,9.28,1.37v.02Z"/>
            <path class="cls-2" d="M756.13,78.27c.06-.22,1.93-3.37,2.23-3.66,1.13-1.15,3.53-2.12,4.38-3.92,2.17.18,6.93-3.6,8.16-1.11.39.79.41,6.73.28,7.88-.12.89-.89.61-.99,1.01-.16.69.14,1.51,0,2.2-.08.32-.71.32-.77.48-1.76,4.44-3.97,5.84-8.31,7.51-.4.16-.36.79-.71.89-1.38.38-3.02.16-4.38.97-1.05-4.14-1.12-8.08.16-12.22l-.04-.02Z"/>
            <path class="cls-2" d="M619.54,68.69c.42-.26,6.3,1.51,7.13,1.9.57.28,1.12,1.39,1.72,1.82.83.63,2.76,1.49,3.26,2.1.61.73.81,2.38,1.16,3.25,1.18,3.03,2.31,5.33,1.82,9.15-.16,1.13-1.23,2.22-.93,3.58l-8.37-3.01c-.79-1.66-3.63-3.07-4.44-4.34-1.68-2.65-2.78-8.54-2.31-11.88.12-.91.73-1.7.99-2.57h-.02Z"/>
            <path class="cls-2" d="M712.53,58.31c.1-.28,1.58-3.17,1.94-3.74.28-.46,5.43-5.78,5.83-5.88,2.49-.61,2.88,2.93,3.49,4.36.69,1.62,1.64,2.46,1.88,4.87.28,2.93-.61,7.31-2.07,9.63-.22.36-5.47,5.76-5.86,5.84-.61.12-1.54.14-2.05-.22-.3-.2-2.92-5.84-3.06-6.42-.35-1.37-.49-7.25-.06-8.44h-.02Z"/>
            <path class="cls-2" d="M808.1,105.71c-1.3,8.78-6.4,15.69-15.88,15.73-1.93,0-3.89-.87-5.92-.51-.26-.26,1.62-6.5,1.93-7.23.28-.59,4.13-5.47,4.84-5.94.26-.16,4.56-2.06,4.84-2.06h10.19v.02Z"/>
            <path class="cls-2" d="M157.88,105.71h10.19c1.54,0,6.52,3.41,7.62,4.93,2.05,2.83,3.44,6.67,3.99,10.28-3.59.1-7.48.77-11.04,0-.24-.06-3.51-1.88-4.11-2.26-3.59-2.3-6.08-8.83-6.65-12.95Z"/>
            <path class="cls-2" d="M736.22,64.01c.1-.2,2.45-3.09,2.65-3.29.53-.5,1.32-.51,1.74-.87,1.94-1.64,3.89-3.72,6.81-3.6.16,3.05,2.59,8.22,1.88,11.09-.08.36-.81.28-.91.65-.69,2.69-.79,4.28-2.71,6.67-1.91,2.4-6.02,3.88-8.39,5.37-2.96-3.15-2.92-12.38-1.07-16.02Z"/>
            <path class="cls-2" d="M240.5,56.39c.32-.67,1.42-2.61,1.7-3.35.59-1.53,1.22-5.55,3.85-4.04.55.32,5.21,5.13,5.63,5.76,2.94,4.73,2.57,11.55-.1,16.56-.51.95-2.25,2.42-3.54,1.92-.32-.12-4.54-4.6-4.82-4.99-1.92-2.69-4.15-8.77-2.73-11.86Z"/>
            <path class="cls-2" d="M665.14,53.56c.04-.12.55-.14.63-.3.41-1.01,1.44-4.34,2.41-4.58,1.6-.4,1.72.81,2.68,1.68,1.07.97,4.05,3.51,4.82,4.91,2.23,4,2.23,9.67.63,13.92-.1.26-1.76,2.48-1.84,2.65-.4,1.05.36,2.56-2.74,1.39-.32-.12-4.54-4.56-4.84-4.97-1.5-2.04-1.44-2.89-1.91-5.03-.08-.36-.85-.3-.93-.65-.43-1.8.43-7.19,1.11-9.05l-.02.02Z"/>
            <path class="cls-2" d="M290.75,54.55c1.22-1.78,4.34-3.78,5.61-5.74,2.33-1.09,3.18,2.85,3.85,4.46.06.16.65.14.77.5.59,1.78,1.24,6.62,1.01,8.48-.12.89-.89.61-.99,1.01-.45,2.14-.43,2.99-1.91,5.03-.32.44-4.72,5.01-5.06,5.09-3.22.71-2.09-.4-2.53-1.51-.16-.4-.69-.38-.77-.53-2.45-4.93-3.42-11.75,0-16.78h.02Z"/>
            <path class="cls-2" d="M218.54,56.25c.51-.51,4.68,1.62,5.49,2.1.45.26.93,1.33,1.28,1.54.43.28,1.2,0,1.64.26,1.01.57,3.77,6.3,3.93,7.72.42,3.74.36,9.33-2.17,12.16-1.09-.06-2.13-1.43-2.74-1.76-1.05-.57-3.32-1.37-4.38-2.26-2.61-2.16-3.24-5.09-3.99-8.02-.1-.38-.83-.32-.91-.65-.71-2.87,1.72-8.04,1.88-11.09h-.02Z"/>
            <path class="cls-2" d="M591.76,105.71c2.03.32,6.48,3.31,7.8,5.13,2.05,2.83,3.3,6.61,3.81,10.08-1.68-.44-3.55.5-5,.5-.91,0-5.39-.34-6.06-.5-.35-.08-.28-.85-.65-.93-.77-.18-1.54.16-2.41-.14-.87-.3-4.15-4.95-4.7-5.94-.24-.44-.83-.46-1.07-.97-.45-.97-2.11-7.23-.75-7.23,2.61,0,6.64-.38,9,0h.02Z"/>
            <path class="cls-2" d="M598.63,85.72c1.9.16,4.05-.24,5.9.02.57.08,6.97,2.63,7.29,2.91.24.2,0,1.15.57,1.58,1.32,1.03,2.23,2.08,3.04,4.06,1.22,2.99,1.5,6.28,1.68,9.49-4.84.44-10.45-.83-13.96-4.3-3.24-3.23-4.74-9.21-4.54-13.77h.02Z"/>
            <path class="cls-2" d="M383.23,105.71c.38.12.65.69.69,1.13.04.65-1.21,5.57-1.54,6.34-.08.16-.65.22-.79.48-.53,1.03-3.99,5.86-4.88,6.16s-1.64-.02-2.41.14c-.36.08-.3.85-.65.93-.67.16-5.15.51-6.06.5-1.44,0-3.32-.93-5-.5.51-3.49,1.78-7.25,3.81-10.08,1.15-1.58,6.16-5.13,7.8-5.13,1.95,0,7.66-.4,9.01,0l.02.04Z"/>
            <path class="cls-2" d="M351.46,92.59c.57-.99,1.66-1.82,2.37-2.63.28-.32.16-1.11.38-1.29.32-.26,1.11.06,1.42-.12,1.88-1.03,3.81-2.52,6.28-2.85,1.68-.22,3.73.2,5.47.02.49,2.44-.34,4.02-.85,6.06-.38,1.51-1.21,4.77-2.15,6.16-2.88,4.3-10.52,6.54-15.5,5.86.2-3.86.59-7.8,2.57-11.21h.02Z"/>
            <path class="cls-2" d="M772.56,103.8c.77-2.1.26-4.2.59-6.3.34-2.1,1.78-3.74,2.69-5.51.16-.3-.08-.99.14-1.39.12-.22,3.57-2.67,3.83-2.83,1.03-.61,4.32-1.05,4.5-1.21.22-.18.04-.83.08-.83h6.63c-.24,1.6.34,3.92,0,5.37-.08.36-.83.28-.93.67-.2.75.1,1.66-.24,2.54-2.15,5.57-5.11,6.58-10.09,8.68-.22.1-.08.81-.12.81h-7.11.02Z"/>
            <path class="cls-2" d="M311.59,65.91c.04-.12.57-.14.63-.3,1.88-4.67,3.87-6.12,8.35-8.42.3-.14.28-.83.67-.93.43-.1,2.37-.1,2.49,0,.28.28,1.42,6.95,1.44,7.82.2,6.36-2.39,10.58-7.5,13.96l-4.33,1.94c-1.99-2.57-2.76-11.37-1.76-14.1v.02Z"/>
            <path class="cls-2" d="M642.25,56.29c.12-.12,2.05-.12,2.49,0,.4.08.4.77.67.93,4.48,2.3,6.46,3.74,8.35,8.42.06.16.69.16.77.5.3,1.21.18,7.88,0,9.39-.08.65-1.46,4.26-1.88,4.54l-4.33-1.94c-2.74-1.78-3.18-2.48-5-5.05-2.09-3.01-2.65-4.65-2.51-8.91.02-.87,1.16-7.55,1.44-7.82l-.02-.04Z"/>
            <path class="cls-2" d="M174.94,85.74h6.63s-.2.85.32.97c.65.16,1.5-.16,2.21,0,.18.04,2.35,1.7,2.8,2.04.65.46,2.63,1.39,2.9,1.7.16.18,2.05,4,2.15,4.24,1.18,3.19.77,5.88,1.46,9.13-7.68.67-14.67-2.53-17.42-9.86-.26-.69,0-1.53-.14-2.14-.1-.4-.83-.32-.93-.65-.36-1.45.22-3.78,0-5.37v-.06Z"/>
            <path class="cls-2" d="M266.09,51.65c.93-.71,4.19-6.34,5.49-5.8,1.68,2.24,3.2,3.57,4.42,6.28,2.45,5.47,2.13,9.84-1.15,15.23-.97,1.6-2.51,2.5-3.24,4.12-.73.24-.63-.02-.95-.28-5.69-4.65-7.78-12.66-4.56-19.53l-.02-.02Z"/>
            <path class="cls-2" d="M688.83,54.49c.04-.12.61-.12.75-.5,1.32-3.64,2.17-5.51,5.02-8.2.36,0,3.2,2.75,3.53,3.23,2.78,3.9,4.05,9.67,2.84,14.52-.08.34-.71.34-.77.5-1.2,2.99-2.05,4.26-4.54,6.56-.51.48-.22,1.49-1.32.61-.22-.16-2.71-2.75-2.8-2.91-2.07-3.37-4.3-9.96-2.71-13.77v-.04Z"/>
            <path class="cls-2" d="M133.41,146.27c5.39-6.16,14.87,2.4,9.1,8.42-5.39,5.62-14.12-2.65-9.1-8.42Z"/>
            <path class="cls-2" d="M821.97,151.93c-1.58-7.72,8.63-10.6,11.61-4.04,3.53,7.76-9.89,12.46-11.61,4.04Z"/>
            <path class="cls-2" d="M892.09,152.43c-2.25-9.88,11.63-10.93,11.79-2.28.14,7.84-10.47,8.06-11.79,2.28Z"/>
            <path class="cls-2" d="M181.67,201.86c-2.13-9.27,11.39-11.11,11.77-2.28.36,7.94-10.43,8.18-11.77,2.28Z"/>
            <path class="cls-2" d="M772.66,201.86c-2.27-9.9,12.28-10.93,11.77-1.31-.36,6.83-10.47,7.05-11.77,1.31Z"/>
            <path class="cls-2" d="M473.63,38.8c-2.37-14.82,21.64-14.36,18.64.38-2.05,10.02-17.04,9.59-18.64-.38Z"/>
            <path class="cls-2" d="M854.67,91.09c-.93-4.56.87-10.08,5.92-10.95,13.25-2.26,14.34,15.65,3.08,16.89-3.4.38-8.29-2.44-9-5.94Z"/>
            <path class="cls-2" d="M94.47,89.17c-.77-7.9,9.24-12.48,14.85-6.77,2.59,2.63,3,7.55,1.09,10.64-4.36,7.03-15.15,4.14-15.94-3.86Z"/>
            <path class="cls-2" d="M895.8,234.84h70.14c.83-9.09-7.19-18.46-15.99-19.85-11.16-1.76-37.85,5.43-47.65,11.39-2.88,1.76-6.91,4.68-6.5,8.46Z"/>
            <path class="cls-2" d="M885.04,203.35c-.85,6.71,1.38,8.91,8.06,8.08,10.57-1.33,38.96-17.47,44.63-26.54,10.76-17.21-5.94-36.36-24.39-27.31-10.11,4.97-26.9,34.72-28.3,45.77Z"/>
          </g>
        </g>
        <g class="cls-5">
          <g class="cls-4">
            <path class="cls-2" d="M1290.86,235c-1.07-2.38.92-5.74,2.54-7.43,10.65-11.25,56.38-22.82,71.63-21.55,14.63,1.21,27.68,13.65,26.3,29h-100.47v-.02Z"/>
            <path class="cls-2" d="M1094.65,235c-1.36-15.33,11.67-27.77,26.3-29,15.23-1.27,61,10.32,71.63,21.55,1.6,1.7,3.59,5.07,2.54,7.43h-100.47v.02Z"/>
            <path class="cls-2" d="M1589.9,235h-70.14c-.91-8.93,7.41-18.5,16-19.85,11.17-1.74,35.31,4.91,45.48,10.26,3.63,1.9,9.1,4.83,8.68,9.59h-.02Z"/>
            <path class="cls-2" d="M1217.4,235c-.06-18.16,16.33-29.47,33.77-24.6,8.96,2.51,15.93,11.39,17.39,20.58.2,1.27-.08,2.71.02,4.02h-51.18Z"/>
            <path class="cls-2" d="M1215.64,116.72c-2.63-40.54,52.86-43.47,54.82-4.14.77,15.31-10.43,56.55-20.38,68.43-4.88,5.8-8.57,6.34-13.74.5-10.65-12-19.65-48.74-20.7-64.81v.02Z"/>
            <path class="cls-2" d="M1137.01,128.68c9.77-10.72,26.48-10.5,37.71-2.28,11.91,8.73,29.23,40.23,33.91,54.41,2.37,7.15,6.46,20.56-5.25,20.86-15.07.38-57.9-24.56-66.92-36.88-7.71-10.5-8.52-26.18.55-36.11Z"/>
            <path class="cls-2" d="M1299.11,140.11c5.53-7.76,12.05-15.75,21.6-18.5,25.24-7.25,43.61,17.9,30.71,40.3-7.62,13.25-40.82,31.63-55.37,36.68-6.3,2.2-20.4,6.56-21.31-3.8-1.2-13.73,16.24-43.3,24.35-54.71l.02.02Z"/>
            <path class="cls-2" d="M1223.56,29.15c-2.01-2.24-4.96-3.33-6.89-5.68-8.08-9.9,5.17-21.29,13.96-11.51l4.3,5.8c-2.01-8.22-1.1-19.39,10.17-17.55,8.22,1.33,7.13,11.59,5.97,17.55l4.3-5.8c6.66-8.26,19.63-1.64,15.84,8.64-1.5,4.08-5.91,5.66-8.75,8.56,8.24-2.4,19.25-.97,17.5,10.2-1.21,7.68-12.37,7.65-17.97,5.51,5.13,4.24,12.18,7.65,9.22,15.67-2.25,6.08-9.72,6.91-14.46,3.11-2.37-1.9-3.43-4.91-5.66-6.91,1.54,6.36,1.81,16.78-6.88,17.59-10.4.97-11.25-9.96-9.24-17.59-2.23,2-3.29,5.01-5.66,6.91-7.55,6.04-17.7-.4-14.46-9.74,1.48-4.24,6.2-6.08,9.22-9.03-6.32,2.12-17.1,2.4-18.01-6.42-1.08-10.62,9.76-11.49,17.54-9.27l-.04-.02Z"/>
            <path class="cls-2" d="M1437.77,177.96c-.27-5.09,2.08-10.5,5.93-13.78,11.49-9.74,28.79-1.11,28.18,13.78,7.92-.81,17.3,2,20.38,9.98-18.49-.28-30.59,17.09-37.21,32.32-7.56-15.13-18.62-32.62-37.67-32.32,3.21-8.04,12.38-10.77,20.37-9.98h.02Z"/>
            <path class="cls-2" d="M1014.08,177.96c-.61-14.91,16.67-23.53,28.18-13.78,3.85,3.27,6.22,8.69,5.92,13.78,8.02-.75,17.12,1.96,20.38,9.98-15.21-.48-26.24,11.78-33.25,23.93-.43.77-4.07,8.83-4.66,8.4-6.04-15.31-18.82-32.66-36.97-32.32,2.98-8,12.58-10.77,20.38-9.98h.02Z"/>
            <path class="cls-2" d="M1471.54,152.41c-1.38-9.03,5.45-41.87,9.6-50.53,8.15-17.05,32.17-7.47,24.35,12.06-3.34,8.32-21.21,35.77-28.14,40.7-3.4,2.42-5.16,2.04-5.81-2.26v.02Z"/>
            <path class="cls-2" d="M1058.91,149.24c-1.54,1.78-7.54,8.93-10.01,6.4-2.47-2.53-.67-14.99-.16-18.72,1.11-8.04,5.8-31.85,10.15-37.83,9.12-12.5,27.76-4.38,23.76,11.94-1.99,8.18-17.81,31.33-23.76,38.21h.02Z"/>
            <path class="cls-2" d="M1405.25,98.26c6.1-8.89,18.84-5.57,23.22,3.21,4.39,8.77,9.21,33.63,9.78,43.43.25,4.34,1.12,14.5-5.65,9.94-6.77-4.56-25.34-33.29-28.47-41.32-2.06-5.23-2.12-10.54,1.14-15.29l-.02.02Z"/>
            <path class="cls-2" d="M979.13,109.61c-2.41-17.67,18.98-23.01,26.03-7.09,3.97,8.99,10.54,40.17,9.36,49.48-.3,2.26-.85,4.5-3.4,3.98-3.52-.71-10.27-9.96-12.58-13.05-4.72-6.3-18.44-26.38-19.39-33.31h-.02Z"/>
            <path class="cls-2" d="M1441.21,98.65c.1-20.06,27.41-19.17,27.41-.32,0,10.16-5.59,40.76-10.57,49.34-2.76,4.79-4.46,3.82-6.79-.6-4.6-8.73-10.11-38.4-10.05-48.43Z"/>
            <path class="cls-2" d="M1512.38,125.87c2.86-3.41,5.78-6.73,10.25-8.02,11.71-3.41,20.97,8.28,15.4,19.25-3.87,7.63-31.38,25.57-39.83,29.45-15.9,7.29-9.56-4.44-5.06-12.68,4.84-8.83,12.76-20.3,19.24-28.01Z"/>
            <path class="cls-2" d="M973.05,125.47c6.85,7.94,21.96,28.76,24.41,38.48,1.92,7.61-3.93,4.95-8.35,3.15-8.67-3.53-33.92-20.26-39.47-27.43-9.58-12.36,2.82-27.77,16.72-20.58,2.98,1.54,4.56,3.92,6.68,6.38h.02Z"/>
            <path class="cls-2" d="M1017.54,99.61c-.34-21.25,26.99-20.36,27.31-1.33.16,9.8-5.53,39.79-9.95,48.49-2.59,5.09-4.52,5.53-7.31.32-4.82-8.99-9.87-37.02-10.03-47.46l-.02-.02Z"/>
            <path class="cls-2" d="M1064.87,168.85c-1.01-2.02-.47-4.06.18-6.1,2.72-8.48,20.58-35.04,27.21-41.16,14.32-13.15,33.85,5.8,17.34,21.19-6.87,6.4-33.23,24.99-41.76,26.08-.97.12-1.99.16-2.96,0v-.02Z"/>
            <path class="cls-2" d="M1421.13,168.85c-2.79,1.74-13.51-4.42-16.37-6.02-7.19-4.08-28.54-18.12-32.39-24.56-8.77-14.6,8.69-28.28,21.35-16.66,6.65,6.1,24.48,32.66,27.21,41.16.65,2.04,1.18,4.08.18,6.1l.02-.02Z"/>
            <path class="cls-2" d="M1166.21,42.96c1.47,1.43,1.88,4.08,2.77,6.02,1.72,3.8,4.38,9.33,6.99,12.48,4.4,5.29,14.16,9.13,20.58,11.45.51.67-5.47,2.52-6.01,2.75-17.02,7.65-15.66,11.33-23.36,26.48-.24.46-.27,1.13-.95,1.17-1.91-5.78-5.72-15.35-9.95-19.73-4.22-4.38-12.93-7.03-18.26-9.72-.46-.22-1.13-.3-1.17-.97,7.39-2.89,17.08-6.4,21.7-13.17,3.32-4.85,6.14-11.13,7.68-16.78l-.02.02Z"/>
            <path class="cls-2" d="M1319.77,42.96c1.83,6,5.53,15.21,9.93,19.75,4.4,4.54,13.66,7.65,19.45,10.44-5.77,2.99-14.44,5.72-19.19,10.22-4.76,4.5-6.9,13.13-10.1,18.87-.23.42-.37,1.31-1.04.61-.22-.24-1.66-5.07-2.15-6.16-5.55-12.1-9.11-15.57-21.23-21.01-.54-.24-6.54-2.1-6.01-2.75,6.46-2.32,16.14-6.12,20.58-11.45,2.63-3.15,5.29-8.68,6.99-12.48.87-1.94,1.3-4.61,2.77-6.02v-.02Z"/>
            <path class="cls-2" d="M988.77,214.82c4.62-2.97,5.73-7.45,8.02-12.14,1.96,3.39,3.14,7.23,5.63,10.28l10.25,5.86c-5.55,2.04-9.7,4.08-12.8,9.27-1.22,2.02-1.74,4.6-3.32,6.42-2.27-8.24-7.35-13.41-15.64-15.69l7.86-4Z"/>
            <path class="cls-2" d="M1483.59,212.96c2.76-2.77,3.45-7.27,5.84-10.28,1.31,3.05,3.06,8.2,5.43,10.5,2.17,2.1,7.33,4.22,10.21,5.21l-7.34,3.78c-4.47,2.46-6.68,7.74-8.3,12.36l-5.96-10.44c-3.22-2.02-6.46-4.14-10.15-5.25l10.25-5.86.02-.02Z"/>
            <path class="cls-2" d="M1059.86,212.92c2.71-2.44,3.52-7.43,5.89-10.24,2.01,8.58,7.27,12.87,15.16,15.93-2.07,1.39-4.42,2.1-6.59,3.37-4.82,2.81-6.97,7.37-8.57,12.56-2.23-3.03-3.16-6.81-5.65-9.76-2.25-2.67-7.21-4.6-10.45-5.92,3.14-2.3,7.25-3.23,10.23-5.9l-.02-.02Z"/>
            <path class="cls-2" d="M1420.24,202.68c2.21,2.65,2.86,6.6,4.94,9.33.82,1.11,3.51,2.79,4.77,3.51.62.36,6.72,2.89,6.4,3.33-3.79,1.53-8.55,3.35-11.1,6.7-2.09,2.73-2.92,6.36-4.99,8.99-1.6-5.19-3.75-9.74-8.57-12.56-2.15-1.25-4.52-1.98-6.6-3.37,7.9-3.05,13.13-7.35,15.17-15.93h-.02Z"/>
            <path class="cls-2" d="M1287.24,119.31c-8.19-7.66,3.56-20.78,12.19-12.93,8.63,7.84-3.42,21.11-12.19,12.93Z"/>
            <path class="cls-2" d="M1358.33,190.61c-8.13-8.71,5.22-20.72,12.9-12.22,7.68,8.5-5.24,20.44-12.9,12.22Z"/>
            <path class="cls-2" d="M1183.87,114.38c-1.82-11.59,15.42-13.81,17.32-3.58,2.29,12.38-15.55,14.89-17.32,3.58Z"/>
            <path class="cls-2" d="M1127.67,190.61c-7.58,8.14-20.76-3.52-12.9-12.22,7.86-8.69,21.01,3.49,12.9,12.22Z"/>
            <path class="cls-2" d="M1092.44,78.27c.04-.1.57-.14.73-.51.38-.93.51-2.42,1.17-3.25.65-.83,2.44-1.49,3.25-2.1.48-.36,1.19-1.56,1.46-1.7.81-.42,6.94-2.28,7.37-2,1.26,2.34,1.22,5.15.97,7.72-.52,5.07-3.24,7.72-6.74,11.07l-8.37,3.01c.32-1.37-.77-2.46-.93-3.58-.3-2.3.34-6.42,1.09-8.64v-.02Z"/>
            <path class="cls-2" d="M964.14,71.68c.18.1,2.92,2.24,3.06,2.38,1.91,1.96,3.73,7.61,3.79,10.5.04,2.1-1.01,3.88-.99,5.94-.91.12-1.42-.65-2.23-.85-1.91-.48-4.03-.91-5.9-2.06-5.55-3.43-8.23-10.87-7.01-17.29.65-3.47,7.41.24,9.28,1.37v.02Z"/>
            <path class="cls-2" d="M1516.13,78.27c.06-.22,1.93-3.37,2.23-3.66,1.13-1.15,3.54-2.12,4.38-3.92,2.18.18,6.94-3.6,8.16-1.11.4.79.41,6.73.28,7.88-.12.89-.89.61-.99,1.01-.16.69.14,1.51,0,2.2-.08.32-.71.32-.77.48-1.76,4.44-3.97,5.84-8.31,7.51-.4.16-.36.79-.72.89-1.38.38-3.02.16-4.38.97-1.05-4.14-1.12-8.08.16-12.22l-.04-.02Z"/>
            <path class="cls-2" d="M1379.54,68.69c.41-.26,6.3,1.51,7.13,1.9.57.28,1.12,1.39,1.72,1.82.83.63,2.76,1.49,3.25,2.1.62.73.81,2.38,1.17,3.25,1.18,3.03,2.31,5.33,1.82,9.15-.16,1.13-1.23,2.22-.93,3.58l-8.37-3.01c-.79-1.66-3.64-3.07-4.45-4.34-1.68-2.65-2.78-8.54-2.31-11.88.12-.91.73-1.7.99-2.57h-.02Z"/>
            <path class="cls-2" d="M1472.53,58.31c.1-.28,1.58-3.17,1.93-3.74.28-.46,5.43-5.78,5.83-5.88,2.49-.61,2.88,2.93,3.49,4.36.7,1.62,1.64,2.46,1.88,4.87.28,2.93-.61,7.31-2.07,9.63-.22.36-5.47,5.76-5.87,5.84-.61.12-1.54.14-2.05-.22-.3-.2-2.92-5.84-3.06-6.42-.36-1.37-.5-7.25-.06-8.44h-.02Z"/>
            <path class="cls-2" d="M917.88,105.71h10.19c1.54,0,6.52,3.41,7.62,4.93,2.05,2.83,3.44,6.67,3.99,10.28-3.59.1-7.48.77-11.04,0-.24-.06-3.51-1.88-4.11-2.26-3.59-2.3-6.08-8.83-6.65-12.95Z"/>
            <path class="cls-2" d="M1496.22,64.01c.1-.2,2.45-3.09,2.65-3.29.53-.5,1.32-.51,1.74-.87,1.93-1.64,3.89-3.72,6.81-3.6.16,3.05,2.59,8.22,1.88,11.09-.08.36-.81.28-.91.65-.69,2.69-.79,4.28-2.71,6.67-1.91,2.4-6.02,3.88-8.39,5.37-2.96-3.15-2.92-12.38-1.07-16.02Z"/>
            <path class="cls-2" d="M1000.5,56.39c.32-.67,1.42-2.61,1.7-3.35.59-1.53,1.22-5.55,3.85-4.04.55.32,5.21,5.13,5.63,5.76,2.94,4.73,2.57,11.55-.1,16.56-.51.95-2.25,2.42-3.53,1.92-.32-.12-4.54-4.6-4.82-4.99-1.92-2.69-4.15-8.77-2.73-11.86Z"/>
            <path class="cls-2" d="M1425.14,53.56c.04-.12.55-.14.63-.3.41-1.01,1.44-4.34,2.41-4.58,1.6-.4,1.71.81,2.68,1.68,1.07.97,4.05,3.51,4.82,4.91,2.23,4,2.23,9.67.63,13.92-.1.26-1.75,2.48-1.83,2.65-.4,1.05.35,2.56-2.75,1.39-.31-.12-4.54-4.56-4.84-4.97-1.5-2.04-1.44-2.89-1.91-5.03-.08-.36-.85-.3-.93-.65-.43-1.8.43-7.19,1.11-9.05l-.02.02Z"/>
            <path class="cls-2" d="M1050.75,54.55c1.22-1.78,4.34-3.78,5.61-5.74,2.33-1.09,3.18,2.85,3.85,4.46.06.16.65.14.77.5.59,1.78,1.24,6.62,1.01,8.48-.12.89-.89.61-.99,1.01-.45,2.14-.43,2.99-1.92,5.03-.32.44-4.72,5.01-5.05,5.09-3.22.71-2.09-.4-2.53-1.51-.16-.4-.69-.38-.77-.53-2.45-4.93-3.42-11.75,0-16.78h.02Z"/>
            <path class="cls-2" d="M978.54,56.25c.51-.51,4.68,1.62,5.49,2.1.45.26.93,1.33,1.28,1.54.43.28,1.21,0,1.64.26,1.01.57,3.77,6.3,3.93,7.72.42,3.74.36,9.33-2.17,12.16-1.09-.06-2.13-1.43-2.74-1.76-1.05-.57-3.32-1.37-4.38-2.26-2.61-2.16-3.24-5.09-3.99-8.02-.1-.38-.83-.32-.91-.65-.71-2.87,1.72-8.04,1.88-11.09h-.02Z"/>
            <path class="cls-2" d="M1351.76,105.71c2.03.32,6.47,3.31,7.8,5.13,2.05,2.83,3.29,6.61,3.81,10.08-1.68-.44-3.56.5-5,.5-.91,0-5.39-.34-6.06-.5-.36-.08-.28-.85-.65-.93-.77-.18-1.54.16-2.41-.14s-4.15-4.95-4.7-5.94c-.24-.44-.83-.46-1.07-.97-.45-.97-2.11-7.23-.75-7.23,2.61,0,6.64-.38,9.01,0h.02Z"/>
            <path class="cls-2" d="M1358.63,85.72c1.89.16,4.05-.24,5.9.02.58.08,6.97,2.63,7.29,2.91.24.2,0,1.15.57,1.58,1.32,1.03,2.23,2.08,3.04,4.06,1.23,2.99,1.5,6.28,1.68,9.49-4.84.44-10.44-.83-13.96-4.3-3.24-3.23-4.74-9.21-4.54-13.77h.02Z"/>
            <path class="cls-2" d="M1143.23,105.71c.37.12.65.69.69,1.13.04.65-1.2,5.57-1.54,6.34-.08.16-.65.22-.79.48-.53,1.03-3.99,5.86-4.88,6.16s-1.64-.02-2.41.14c-.35.08-.29.85-.65.93-.67.16-5.15.51-6.06.5-1.44,0-3.32-.93-5-.5.52-3.49,1.78-7.25,3.81-10.08,1.15-1.58,6.17-5.13,7.8-5.13,1.96,0,7.67-.4,9.01,0l.02.04Z"/>
            <path class="cls-2" d="M1111.46,92.59c.57-.99,1.65-1.82,2.37-2.63.27-.32.15-1.11.37-1.29.32-.26,1.11.06,1.42-.12,1.88-1.03,3.81-2.52,6.28-2.85,1.68-.22,3.73.2,5.47.02.5,2.44-.33,4.02-.85,6.06-.37,1.51-1.2,4.77-2.15,6.16-2.88,4.3-10.52,6.54-15.5,5.86.2-3.86.59-7.8,2.57-11.21h.02Z"/>
            <path class="cls-2" d="M1532.56,103.8c.77-2.1.26-4.2.59-6.3.34-2.1,1.78-3.74,2.69-5.51.16-.3-.08-.99.14-1.39.11-.22,3.57-2.67,3.83-2.83,1.02-.61,4.32-1.05,4.5-1.21.22-.18.04-.83.08-.83h6.63c-.23,1.6.34,3.92,0,5.37-.08.36-.83.28-.93.67-.19.75.1,1.66-.23,2.54-2.16,5.57-5.12,6.58-10.09,8.68-.22.1-.08.81-.12.81h-7.11.02Z"/>
            <path class="cls-2" d="M1071.59,65.91c.04-.12.57-.14.63-.3,1.88-4.67,3.87-6.12,8.35-8.42.3-.14.28-.83.67-.93.43-.1,2.37-.1,2.49,0,.28.28,1.42,6.95,1.44,7.82.2,6.36-2.39,10.58-7.5,13.96l-4.33,1.94c-1.99-2.57-2.76-11.37-1.76-14.1v.02Z"/>
            <path class="cls-2" d="M1402.25,56.29c.12-.12,2.05-.12,2.49,0,.39.08.39.77.67.93,4.48,2.3,6.46,3.74,8.35,8.42.06.16.69.16.77.5.3,1.21.18,7.88,0,9.39-.08.65-1.46,4.26-1.87,4.54l-4.33-1.94c-2.74-1.78-3.18-2.48-4.99-5.05-2.1-3.01-2.65-4.65-2.51-8.91.02-.87,1.16-7.55,1.44-7.82l-.02-.04Z"/>
            <path class="cls-2" d="M934.94,85.74h6.64s-.2.85.32.97c.65.16,1.5-.16,2.21,0,.18.04,2.35,1.7,2.8,2.04.65.46,2.63,1.39,2.9,1.7.16.18,2.05,4,2.15,4.24,1.18,3.19.77,5.88,1.46,9.13-7.68.67-14.67-2.53-17.42-9.86-.26-.69,0-1.53-.14-2.14-.1-.4-.83-.32-.93-.65-.35-1.45.22-3.78,0-5.37v-.06Z"/>
            <path class="cls-2" d="M1026.09,51.65c.93-.71,4.19-6.34,5.49-5.8,1.68,2.24,3.2,3.57,4.42,6.28,2.45,5.47,2.13,9.84-1.15,15.23-.97,1.6-2.51,2.5-3.24,4.12-.73.24-.63-.02-.95-.28-5.69-4.65-7.78-12.66-4.56-19.53l-.02-.02Z"/>
            <path class="cls-2" d="M1448.83,54.49c.04-.12.61-.12.75-.5,1.33-3.64,2.17-5.51,5.02-8.2.35,0,3.2,2.75,3.53,3.23,2.79,3.9,4.05,9.67,2.85,14.52-.08.34-.71.34-.77.5-1.21,2.99-2.06,4.26-4.55,6.56-.51.48-.21,1.49-1.32.61-.22-.16-2.7-2.75-2.8-2.91-2.08-3.37-4.31-9.96-2.71-13.77v-.04Z"/>
            <path class="cls-2" d="M941.67,201.86c-2.13-9.27,11.39-11.11,11.77-2.28.36,7.94-10.43,8.18-11.77,2.28Z"/>
            <path class="cls-2" d="M1233.63,38.8c-2.37-14.82,21.64-14.36,18.64.38-2.05,10.02-17.04,9.59-18.64-.38Z"/>
          </g>
        </g>
        <g class="cls-8">
          <g class="cls-4">
            <path class="cls-2" d="M1714.34,235c-1.07-2.38.92-5.74,2.54-7.43,10.65-11.25,56.38-22.82,71.63-21.55,14.63,1.21,27.68,13.65,26.3,29h-100.47v-.02Z"/>
            <path class="cls-2" d="M1518.13,235c-1.36-15.33,11.67-27.77,26.3-29,15.23-1.27,61,10.32,71.63,21.55,1.6,1.7,3.59,5.07,2.54,7.43h-100.47v.02Z"/>
            <path class="cls-2" d="M2013.38,235h-70.14c-.91-8.93,7.41-18.5,16-19.85,11.17-1.74,35.31,4.91,45.48,10.26,3.63,1.9,9.1,4.83,8.68,9.59h-.02Z"/>
            <path class="cls-2" d="M1640.88,235c-.06-18.16,16.33-29.47,33.77-24.6,8.96,2.51,15.93,11.39,17.39,20.58.2,1.27-.08,2.71.02,4.02h-51.18Z"/>
            <path class="cls-2" d="M1639.12,116.72c-2.63-40.54,52.86-43.47,54.82-4.14.77,15.31-10.43,56.55-20.38,68.43-4.88,5.8-8.57,6.34-13.74.5-10.65-12-19.65-48.74-20.7-64.81v.02Z"/>
            <path class="cls-2" d="M1560.49,128.68c9.77-10.72,26.48-10.5,37.71-2.28,11.91,8.73,29.23,40.23,33.91,54.41,2.37,7.15,6.46,20.56-5.25,20.86-15.07.38-57.9-24.56-66.92-36.88-7.71-10.5-8.52-26.18.55-36.11Z"/>
            <path class="cls-2" d="M1722.59,140.11c5.53-7.76,12.05-15.75,21.6-18.5,25.24-7.25,43.61,17.9,30.71,40.3-7.62,13.25-40.82,31.63-55.37,36.68-6.3,2.2-20.4,6.56-21.31-3.8-1.2-13.73,16.24-43.3,24.35-54.71l.02.02Z"/>
            <path class="cls-2" d="M1647.04,29.15c-2.01-2.24-4.96-3.33-6.89-5.68-8.08-9.9,5.17-21.29,13.96-11.51l4.3,5.8c-2.01-8.22-1.1-19.39,10.17-17.55,8.22,1.33,7.13,11.59,5.97,17.55l4.3-5.8c6.66-8.26,19.63-1.64,15.84,8.64-1.5,4.08-5.91,5.66-8.75,8.56,8.24-2.4,19.25-.97,17.5,10.2-1.21,7.68-12.37,7.65-17.97,5.51,5.13,4.24,12.18,7.65,9.22,15.67-2.25,6.08-9.72,6.91-14.46,3.11-2.37-1.9-3.43-4.91-5.66-6.91,1.54,6.36,1.81,16.78-6.88,17.59-10.4.97-11.25-9.96-9.24-17.59-2.23,2-3.29,5.01-5.66,6.91-7.55,6.04-17.7-.4-14.46-9.74,1.48-4.24,6.2-6.08,9.22-9.03-6.32,2.12-17.1,2.4-18.01-6.42-1.08-10.62,9.76-11.49,17.54-9.27l-.04-.02Z"/>
            <path class="cls-2" d="M1861.25,177.96c-.27-5.09,2.08-10.5,5.93-13.78,11.49-9.74,28.79-1.11,28.18,13.78,7.92-.81,17.3,2,20.38,9.98-18.49-.28-30.59,17.09-37.21,32.32-7.56-15.13-18.62-32.62-37.67-32.32,3.21-8.04,12.38-10.77,20.37-9.98h.02Z"/>
            <path class="cls-2" d="M1895.02,152.41c-1.38-9.03,5.45-41.87,9.6-50.53,8.15-17.05,32.17-7.47,24.35,12.06-3.34,8.32-21.21,35.77-28.14,40.7-3.4,2.42-5.16,2.04-5.81-2.26v.02Z"/>
            <path class="cls-2" d="M1828.73,98.26c6.1-8.89,18.84-5.57,23.22,3.21,4.39,8.77,9.21,33.63,9.78,43.43.25,4.34,1.12,14.5-5.65,9.94-6.77-4.56-25.34-33.29-28.47-41.32-2.06-5.23-2.12-10.54,1.14-15.29l-.02.02Z"/>
            <path class="cls-2" d="M1864.69,98.65c.1-20.06,27.41-19.17,27.41-.32,0,10.16-5.59,40.76-10.57,49.34-2.76,4.79-4.46,3.82-6.79-.6-4.6-8.73-10.11-38.4-10.05-48.43Z"/>
            <path class="cls-2" d="M1935.86,125.87c2.86-3.41,5.78-6.73,10.25-8.02,11.71-3.41,20.97,8.28,15.4,19.25-3.87,7.63-31.38,25.57-39.83,29.45-15.9,7.29-9.56-4.44-5.06-12.68,4.84-8.83,12.76-20.3,19.24-28.01Z"/>
            <path class="cls-2" d="M1844.61,168.85c-2.79,1.74-13.51-4.42-16.37-6.02-7.19-4.08-28.54-18.12-32.39-24.56-8.77-14.6,8.69-28.28,21.35-16.66,6.65,6.1,24.48,32.66,27.21,41.16.65,2.04,1.18,4.08.18,6.1l.02-.02Z"/>
            <path class="cls-2" d="M1589.69,42.96c1.47,1.43,1.88,4.08,2.77,6.02,1.72,3.8,4.38,9.33,6.99,12.48,4.4,5.29,14.16,9.13,20.58,11.45.51.67-5.47,2.52-6.01,2.75-17.02,7.65-15.66,11.33-23.36,26.48-.24.46-.27,1.13-.95,1.17-1.91-5.78-5.72-15.35-9.95-19.73-4.22-4.38-12.93-7.03-18.26-9.72-.46-.22-1.13-.3-1.17-.97,7.39-2.89,17.08-6.4,21.7-13.17,3.32-4.85,6.14-11.13,7.68-16.78l-.02.02Z"/>
            <path class="cls-2" d="M1743.25,42.96c1.83,6,5.53,15.21,9.93,19.75,4.4,4.54,13.66,7.65,19.45,10.44-5.77,2.99-14.44,5.72-19.19,10.22-4.76,4.5-6.9,13.13-10.1,18.87-.23.42-.37,1.31-1.04.61-.22-.24-1.66-5.07-2.15-6.16-5.55-12.1-9.11-15.57-21.23-21.01-.54-.24-6.54-2.1-6.01-2.75,6.46-2.32,16.14-6.12,20.58-11.45,2.63-3.15,5.29-8.68,6.99-12.48.87-1.94,1.3-4.61,2.77-6.02v-.02Z"/>
            <path class="cls-2" d="M1907.07,212.96c2.76-2.77,3.45-7.27,5.84-10.28,1.31,3.05,3.06,8.2,5.43,10.5,2.17,2.1,7.33,4.22,10.21,5.21l-7.34,3.78c-4.47,2.46-6.68,7.74-8.3,12.36l-5.96-10.44c-3.22-2.02-6.46-4.14-10.15-5.25l10.25-5.86.02-.02Z"/>
            <path class="cls-2" d="M1843.72,202.68c2.21,2.65,2.86,6.6,4.94,9.33.82,1.11,3.51,2.79,4.77,3.51.62.36,6.72,2.89,6.4,3.33-3.79,1.53-8.55,3.35-11.1,6.7-2.09,2.73-2.92,6.36-4.99,8.99-1.6-5.19-3.75-9.74-8.57-12.56-2.15-1.25-4.52-1.98-6.6-3.37,7.9-3.05,13.13-7.35,15.17-15.93h-.02Z"/>
            <path class="cls-2" d="M1710.72,119.31c-8.19-7.66,3.56-20.78,12.19-12.93,8.63,7.84-3.42,21.11-12.19,12.93Z"/>
            <path class="cls-2" d="M1781.81,190.61c-8.13-8.71,5.22-20.72,12.9-12.22,7.68,8.5-5.24,20.44-12.9,12.22Z"/>
            <path class="cls-2" d="M1607.35,114.38c-1.82-11.59,15.42-13.81,17.32-3.58,2.29,12.38-15.55,14.89-17.32,3.58Z"/>
            <path class="cls-2" d="M1551.15,190.61c-7.58,8.14-20.76-3.52-12.9-12.22,7.86-8.69,21.01,3.49,12.9,12.22Z"/>
            <path class="cls-2" d="M1939.61,78.27c.06-.22,1.93-3.37,2.23-3.66,1.13-1.15,3.54-2.12,4.38-3.92,2.18.18,6.94-3.6,8.16-1.11.4.79.41,6.73.28,7.88-.12.89-.89.61-.99,1.01-.16.69.14,1.51,0,2.2-.08.32-.71.32-.77.48-1.76,4.44-3.97,5.84-8.31,7.51-.4.16-.36.79-.72.89-1.38.38-3.02.16-4.38.97-1.05-4.14-1.12-8.08.16-12.22l-.04-.02Z"/>
            <path class="cls-2" d="M1803.02,68.69c.41-.26,6.3,1.51,7.13,1.9.57.28,1.12,1.39,1.72,1.82.83.63,2.76,1.49,3.25,2.1.62.73.81,2.38,1.17,3.25,1.18,3.03,2.31,5.33,1.82,9.15-.16,1.13-1.23,2.22-.93,3.58l-8.37-3.01c-.79-1.66-3.64-3.07-4.45-4.34-1.68-2.65-2.78-8.54-2.31-11.88.12-.91.73-1.7.99-2.57h-.02Z"/>
            <path class="cls-2" d="M1896.01,58.31c.1-.28,1.58-3.17,1.93-3.74.28-.46,5.43-5.78,5.83-5.88,2.49-.61,2.88,2.93,3.49,4.36.7,1.62,1.64,2.46,1.88,4.87.28,2.93-.61,7.31-2.07,9.63-.22.36-5.47,5.76-5.87,5.84-.61.12-1.54.14-2.05-.22-.3-.2-2.92-5.84-3.06-6.42-.36-1.37-.5-7.25-.06-8.44h-.02Z"/>
            <path class="cls-2" d="M1919.7,64.01c.1-.2,2.45-3.09,2.65-3.29.53-.5,1.32-.51,1.74-.87,1.93-1.64,3.89-3.72,6.81-3.6.16,3.05,2.59,8.22,1.88,11.09-.08.36-.81.28-.91.65-.69,2.69-.79,4.28-2.71,6.67-1.91,2.4-6.02,3.88-8.39,5.37-2.96-3.15-2.92-12.38-1.07-16.02Z"/>
            <path class="cls-2" d="M1848.62,53.56c.04-.12.55-.14.63-.3.41-1.01,1.44-4.34,2.41-4.58,1.6-.4,1.71.81,2.68,1.68,1.07.97,4.05,3.51,4.82,4.91,2.23,4,2.23,9.67.63,13.92-.1.26-1.75,2.48-1.83,2.65-.4,1.05.35,2.56-2.75,1.39-.31-.12-4.54-4.56-4.84-4.97-1.5-2.04-1.44-2.89-1.91-5.03-.08-.36-.85-.3-.93-.65-.43-1.8.43-7.19,1.11-9.05l-.02.02Z"/>
            <path class="cls-2" d="M1775.24,105.71c2.03.32,6.47,3.31,7.8,5.13,2.05,2.83,3.29,6.61,3.81,10.08-1.68-.44-3.56.5-5,.5-.91,0-5.39-.34-6.06-.5-.36-.08-.28-.85-.65-.93-.77-.18-1.54.16-2.41-.14s-4.15-4.95-4.7-5.94c-.24-.44-.83-.46-1.07-.97-.45-.97-2.11-7.23-.75-7.23,2.61,0,6.64-.38,9.01,0h.02Z"/>
            <path class="cls-2" d="M1782.11,85.72c1.89.16,4.05-.24,5.9.02.58.08,6.97,2.63,7.29,2.91.24.2,0,1.15.57,1.58,1.32,1.03,2.23,2.08,3.04,4.06,1.23,2.99,1.5,6.28,1.68,9.49-4.84.44-10.44-.83-13.96-4.3-3.24-3.23-4.74-9.21-4.54-13.77h.02Z"/>
            <path class="cls-2" d="M1566.71,105.71c.37.12.65.69.69,1.13.04.65-1.2,5.57-1.54,6.34-.08.16-.65.22-.79.48-.53,1.03-3.99,5.86-4.88,6.16s-1.64-.02-2.41.14c-.35.08-.29.85-.65.93-.67.16-5.15.51-6.06.5-1.44,0-3.32-.93-5-.5.52-3.49,1.78-7.25,3.81-10.08,1.15-1.58,6.17-5.13,7.8-5.13,1.96,0,7.67-.4,9.01,0l.02.04Z"/>
            <path class="cls-2" d="M1956.04,103.8c.77-2.1.26-4.2.59-6.3.34-2.1,1.78-3.74,2.69-5.51.16-.3-.08-.99.14-1.39.11-.22,3.57-2.67,3.83-2.83,1.02-.61,4.32-1.05,4.5-1.21.22-.18.04-.83.08-.83h6.63c-.23,1.6.34,3.92,0,5.37-.08.36-.83.28-.93.67-.19.75.1,1.66-.23,2.54-2.16,5.57-5.12,6.58-10.09,8.68-.22.1-.08.81-.12.81h-7.11.02Z"/>
            <path class="cls-2" d="M1825.73,56.29c.12-.12,2.05-.12,2.49,0,.39.08.39.77.67.93,4.48,2.3,6.46,3.74,8.35,8.42.06.16.69.16.77.5.3,1.21.18,7.88,0,9.39-.08.65-1.46,4.26-1.87,4.54l-4.33-1.94c-2.74-1.78-3.18-2.48-4.99-5.05-2.1-3.01-2.65-4.65-2.51-8.91.02-.87,1.16-7.55,1.44-7.82l-.02-.04Z"/>
            <path class="cls-2" d="M1872.31,54.49c.04-.12.61-.12.75-.5,1.33-3.64,2.17-5.51,5.02-8.2.35,0,3.2,2.75,3.53,3.23,2.79,3.9,4.05,9.67,2.85,14.52-.08.34-.71.34-.77.5-1.21,2.99-2.06,4.26-4.55,6.56-.51.48-.21,1.49-1.32.61-.22-.16-2.7-2.75-2.8-2.91-2.08-3.37-4.31-9.96-2.71-13.77v-.04Z"/>
            <path class="cls-2" d="M1657.11,38.8c-2.37-14.82,21.64-14.36,18.64.38-2.05,10.02-17.04,9.59-18.64-.38Z"/>
          </g>
        </g>
        <g class="cls-6">
          <g class="cls-4">
            <path class="cls-2" d="M2140.69,235c-1.07-2.38.92-5.74,2.54-7.43,10.65-11.25,56.38-22.82,71.63-21.55,14.63,1.21,27.68,13.65,26.3,29h-100.47v-.02Z"/>
            <path class="cls-2" d="M1944.48,235c-1.36-15.33,11.67-27.77,26.3-29,15.23-1.27,61,10.32,71.63,21.55,1.6,1.7,3.59,5.07,2.54,7.43h-100.47v.02Z"/>
            <path class="cls-2" d="M2439.73,235h-70.14c-.91-8.93,7.41-18.5,16-19.85,11.17-1.74,35.31,4.91,45.48,10.26,3.63,1.9,9.1,4.83,8.68,9.59h-.02Z"/>
            <path class="cls-2" d="M2067.23,235c-.06-18.16,16.33-29.47,33.77-24.6,8.96,2.51,15.93,11.39,17.39,20.58.2,1.27-.08,2.71.02,4.02h-51.18Z"/>
            <path class="cls-2" d="M2065.47,116.72c-2.63-40.54,52.86-43.47,54.82-4.14.77,15.31-10.43,56.55-20.38,68.43-4.88,5.8-8.57,6.34-13.74.5-10.65-12-19.65-48.74-20.7-64.81v.02Z"/>
            <path class="cls-2" d="M1986.84,128.68c9.77-10.72,26.48-10.5,37.71-2.28,11.91,8.73,29.23,40.23,33.91,54.41,2.37,7.15,6.46,20.56-5.25,20.86-15.07.38-57.9-24.56-66.92-36.88-7.71-10.5-8.52-26.18.55-36.11Z"/>
            <path class="cls-2" d="M2148.94,140.11c5.53-7.76,12.05-15.75,21.6-18.5,25.24-7.25,43.61,17.9,30.71,40.3-7.62,13.25-40.82,31.63-55.37,36.68-6.3,2.2-20.4,6.56-21.31-3.8-1.2-13.73,16.24-43.3,24.35-54.71l.02.02Z"/>
            <path class="cls-2" d="M2073.39,29.15c-2.01-2.24-4.96-3.33-6.89-5.68-8.08-9.9,5.17-21.29,13.96-11.51l4.3,5.8c-2.01-8.22-1.1-19.39,10.17-17.55,8.22,1.33,7.13,11.59,5.97,17.55l4.3-5.8c6.66-8.26,19.63-1.64,15.84,8.64-1.5,4.08-5.91,5.66-8.75,8.56,8.24-2.4,19.25-.97,17.5,10.2-1.21,7.68-12.37,7.65-17.97,5.51,5.13,4.24,12.18,7.65,9.22,15.67-2.25,6.08-9.72,6.91-14.46,3.11-2.37-1.9-3.43-4.91-5.66-6.91,1.54,6.36,1.81,16.78-6.88,17.59-10.4.97-11.25-9.96-9.24-17.59-2.23,2-3.29,5.01-5.66,6.91-7.55,6.04-17.7-.4-14.46-9.74,1.48-4.24,6.2-6.08,9.22-9.03-6.32,2.12-17.1,2.4-18.01-6.42-1.08-10.62,9.76-11.49,17.54-9.27l-.04-.02Z"/>
            <path class="cls-2" d="M2287.6,177.96c-.27-5.09,2.08-10.5,5.93-13.78,11.49-9.74,28.79-1.11,28.18,13.78,7.92-.81,17.3,2,20.38,9.98-18.49-.28-30.59,17.09-37.21,32.32-7.56-15.13-18.62-32.62-37.67-32.32,3.21-8.04,12.38-10.77,20.37-9.98h.02Z"/>
            <path class="cls-2" d="M2321.37,152.41c-1.38-9.03,5.45-41.87,9.6-50.53,8.15-17.05,32.17-7.47,24.35,12.06-3.34,8.32-21.21,35.77-28.14,40.7-3.4,2.42-5.16,2.04-5.81-2.26v.02Z"/>
            <path class="cls-2" d="M2255.08,98.26c6.1-8.89,18.84-5.57,23.22,3.21,4.39,8.77,9.21,33.63,9.78,43.43.25,4.34,1.12,14.5-5.65,9.94-6.77-4.56-25.34-33.29-28.47-41.32-2.06-5.23-2.12-10.54,1.14-15.29l-.02.02Z"/>
            <path class="cls-2" d="M2291.04,98.65c.1-20.06,27.41-19.17,27.41-.32,0,10.16-5.59,40.76-10.57,49.34-2.76,4.79-4.46,3.82-6.79-.6-4.6-8.73-10.11-38.4-10.05-48.43Z"/>
            <path class="cls-2" d="M2362.21,125.87c2.86-3.41,5.78-6.73,10.25-8.02,11.71-3.41,20.97,8.28,15.4,19.25-3.87,7.63-31.38,25.57-39.83,29.45-15.9,7.29-9.56-4.44-5.06-12.68,4.84-8.83,12.76-20.3,19.24-28.01Z"/>
            <path class="cls-2" d="M2270.96,168.85c-2.79,1.74-13.51-4.42-16.37-6.02-7.19-4.08-28.54-18.12-32.39-24.56-8.77-14.6,8.69-28.28,21.35-16.66,6.65,6.1,24.48,32.66,27.21,41.16.65,2.04,1.18,4.08.18,6.1l.02-.02Z"/>
            <path class="cls-2" d="M2016.04,42.96c1.47,1.43,1.88,4.08,2.77,6.02,1.72,3.8,4.38,9.33,6.99,12.48,4.4,5.29,14.16,9.13,20.58,11.45.51.67-5.47,2.52-6.01,2.75-17.02,7.65-15.66,11.33-23.36,26.48-.24.46-.27,1.13-.95,1.17-1.91-5.78-5.72-15.35-9.95-19.73-4.22-4.38-12.93-7.03-18.26-9.72-.46-.22-1.13-.3-1.17-.97,7.39-2.89,17.08-6.4,21.7-13.17,3.32-4.85,6.14-11.13,7.68-16.78l-.02.02Z"/>
            <path class="cls-2" d="M2169.6,42.96c1.83,6,5.53,15.21,9.93,19.75,4.4,4.54,13.66,7.65,19.45,10.44-5.77,2.99-14.44,5.72-19.19,10.22-4.76,4.5-6.9,13.13-10.1,18.87-.23.42-.37,1.31-1.04.61-.22-.24-1.66-5.07-2.15-6.16-5.55-12.1-9.11-15.57-21.23-21.01-.54-.24-6.54-2.1-6.01-2.75,6.46-2.32,16.14-6.12,20.58-11.45,2.63-3.15,5.29-8.68,6.99-12.48.87-1.94,1.3-4.61,2.77-6.02v-.02Z"/>
            <path class="cls-2" d="M2333.42,212.96c2.76-2.77,3.45-7.27,5.84-10.28,1.31,3.05,3.06,8.2,5.43,10.5,2.17,2.1,7.33,4.22,10.21,5.21l-7.34,3.78c-4.47,2.46-6.68,7.74-8.3,12.36l-5.96-10.44c-3.22-2.02-6.46-4.14-10.15-5.25l10.25-5.86.02-.02Z"/>
            <path class="cls-2" d="M2270.07,202.68c2.21,2.65,2.86,6.6,4.94,9.33.82,1.11,3.51,2.79,4.77,3.51.62.36,6.72,2.89,6.4,3.33-3.79,1.53-8.55,3.35-11.1,6.7-2.09,2.73-2.92,6.36-4.99,8.99-1.6-5.19-3.75-9.74-8.57-12.56-2.15-1.25-4.52-1.98-6.6-3.37,7.9-3.05,13.13-7.35,15.17-15.93h-.02Z"/>
            <path class="cls-2" d="M2137.07,119.31c-8.19-7.66,3.56-20.78,12.19-12.93,8.63,7.84-3.42,21.11-12.19,12.93Z"/>
            <path class="cls-2" d="M2208.16,190.61c-8.13-8.71,5.22-20.72,12.9-12.22,7.68,8.5-5.24,20.44-12.9,12.22Z"/>
            <path class="cls-2" d="M2033.7,114.38c-1.82-11.59,15.42-13.81,17.32-3.58,2.29,12.38-15.55,14.89-17.32,3.58Z"/>
            <path class="cls-2" d="M1977.5,190.61c-7.58,8.14-20.76-3.52-12.9-12.22,7.86-8.69,21.01,3.49,12.9,12.22Z"/>
            <path class="cls-2" d="M2365.96,78.27c.06-.22,1.93-3.37,2.23-3.66,1.13-1.15,3.54-2.12,4.38-3.92,2.18.18,6.94-3.6,8.16-1.11.4.79.41,6.73.28,7.88-.12.89-.89.61-.99,1.01-.16.69.14,1.51,0,2.2-.08.32-.71.32-.77.48-1.76,4.44-3.97,5.84-8.31,7.51-.4.16-.36.79-.72.89-1.38.38-3.02.16-4.38.97-1.05-4.14-1.12-8.08.16-12.22l-.04-.02Z"/>
            <path class="cls-2" d="M2229.37,68.69c.41-.26,6.3,1.51,7.13,1.9.57.28,1.12,1.39,1.72,1.82.83.63,2.76,1.49,3.25,2.1.62.73.81,2.38,1.17,3.25,1.18,3.03,2.31,5.33,1.82,9.15-.16,1.13-1.23,2.22-.93,3.58l-8.37-3.01c-.79-1.66-3.64-3.07-4.45-4.34-1.68-2.65-2.78-8.54-2.31-11.88.12-.91.73-1.7.99-2.57h-.02Z"/>
            <path class="cls-2" d="M2322.36,58.31c.1-.28,1.58-3.17,1.93-3.74.28-.46,5.43-5.78,5.83-5.88,2.49-.61,2.88,2.93,3.49,4.36.7,1.62,1.64,2.46,1.88,4.87.28,2.93-.61,7.31-2.07,9.63-.22.36-5.47,5.76-5.87,5.84-.61.12-1.54.14-2.05-.22-.3-.2-2.92-5.84-3.06-6.42-.36-1.37-.5-7.25-.06-8.44h-.02Z"/>
            <path class="cls-2" d="M2346.05,64.01c.1-.2,2.45-3.09,2.65-3.29.53-.5,1.32-.51,1.74-.87,1.93-1.64,3.89-3.72,6.81-3.6.16,3.05,2.59,8.22,1.88,11.09-.08.36-.81.28-.91.65-.69,2.69-.79,4.28-2.71,6.67-1.91,2.4-6.02,3.88-8.39,5.37-2.96-3.15-2.92-12.38-1.07-16.02Z"/>
            <path class="cls-2" d="M2274.97,53.56c.04-.12.55-.14.63-.3.41-1.01,1.44-4.34,2.41-4.58,1.6-.4,1.71.81,2.68,1.68,1.07.97,4.05,3.51,4.82,4.91,2.23,4,2.23,9.67.63,13.92-.1.26-1.75,2.48-1.83,2.65-.4,1.05.35,2.56-2.75,1.39-.31-.12-4.54-4.56-4.84-4.97-1.5-2.04-1.44-2.89-1.91-5.03-.08-.36-.85-.3-.93-.65-.43-1.8.43-7.19,1.11-9.05l-.02.02Z"/>
            <path class="cls-2" d="M2201.59,105.71c2.03.32,6.47,3.31,7.8,5.13,2.05,2.83,3.29,6.61,3.81,10.08-1.68-.44-3.56.5-5,.5-.91,0-5.39-.34-6.06-.5-.36-.08-.28-.85-.65-.93-.77-.18-1.54.16-2.41-.14s-4.15-4.95-4.7-5.94c-.24-.44-.83-.46-1.07-.97-.45-.97-2.11-7.23-.75-7.23,2.61,0,6.64-.38,9.01,0h.02Z"/>
            <path class="cls-2" d="M2208.46,85.72c1.89.16,4.05-.24,5.9.02.58.08,6.97,2.63,7.29,2.91.24.2,0,1.15.57,1.58,1.32,1.03,2.23,2.08,3.04,4.06,1.23,2.99,1.5,6.28,1.68,9.49-4.84.44-10.44-.83-13.96-4.3-3.24-3.23-4.74-9.21-4.54-13.77h.02Z"/>
            <path class="cls-2" d="M1993.06,105.71c.37.12.65.69.69,1.13.04.65-1.2,5.57-1.54,6.34-.08.16-.65.22-.79.48-.53,1.03-3.99,5.86-4.88,6.16s-1.64-.02-2.41.14c-.35.08-.29.85-.65.93-.67.16-5.15.51-6.06.5-1.44,0-3.32-.93-5-.5.52-3.49,1.78-7.25,3.81-10.08,1.15-1.58,6.17-5.13,7.8-5.13,1.96,0,7.67-.4,9.01,0l.02.04Z"/>
            <path class="cls-2" d="M2382.39,103.8c.77-2.1.26-4.2.59-6.3.34-2.1,1.78-3.74,2.69-5.51.16-.3-.08-.99.14-1.39.11-.22,3.57-2.67,3.83-2.83,1.02-.61,4.32-1.05,4.5-1.21.22-.18.04-.83.08-.83h6.63c-.23,1.6.34,3.92,0,5.37-.08.36-.83.28-.93.67-.19.75.1,1.66-.23,2.54-2.16,5.57-5.12,6.58-10.09,8.68-.22.1-.08.81-.12.81h-7.11.02Z"/>
            <path class="cls-2" d="M2252.08,56.29c.12-.12,2.05-.12,2.49,0,.39.08.39.77.67.93,4.48,2.3,6.46,3.74,8.35,8.42.06.16.69.16.77.5.3,1.21.18,7.88,0,9.39-.08.65-1.46,4.26-1.87,4.54l-4.33-1.94c-2.74-1.78-3.18-2.48-4.99-5.05-2.1-3.01-2.65-4.65-2.51-8.91.02-.87,1.16-7.55,1.44-7.82l-.02-.04Z"/>
            <path class="cls-2" d="M2298.66,54.49c.04-.12.61-.12.75-.5,1.33-3.64,2.17-5.51,5.02-8.2.35,0,3.2,2.75,3.53,3.23,2.79,3.9,4.05,9.67,2.85,14.52-.08.34-.71.34-.77.5-1.21,2.99-2.06,4.26-4.55,6.56-.51.48-.21,1.49-1.32.61-.22-.16-2.7-2.75-2.8-2.91-2.08-3.37-4.31-9.96-2.71-13.77v-.04Z"/>
            <path class="cls-2" d="M2083.46,38.8c-2.37-14.82,21.64-14.36,18.64.38-2.05,10.02-17.04,9.59-18.64-.38Z"/>
          </g>
        </g>
        <g class="cls-7">
          <g class="cls-4">
            <path class="cls-2" d="M2567.03,235c-1.07-2.38.92-5.74,2.54-7.43,10.65-11.25,56.38-22.82,71.63-21.55,14.63,1.21,27.68,13.65,26.3,29h-100.47v-.02Z"/>
            <path class="cls-2" d="M2370.82,235c-1.36-15.33,11.67-27.77,26.3-29,15.23-1.27,61,10.32,71.63,21.55,1.6,1.7,3.59,5.07,2.54,7.43h-100.47v.02Z"/>
            <path class="cls-2" d="M2866.07,235h-70.14c-.91-8.93,7.41-18.5,16-19.85,11.17-1.74,35.31,4.91,45.48,10.26,3.63,1.9,9.1,4.83,8.68,9.59h-.02Z"/>
            <path class="cls-2" d="M2493.57,235c-.06-18.16,16.33-29.47,33.77-24.6,8.96,2.51,15.93,11.39,17.39,20.58.2,1.27-.08,2.71.02,4.02h-51.18Z"/>
            <path class="cls-2" d="M2491.81,116.72c-2.63-40.54,52.86-43.47,54.82-4.14.77,15.31-10.43,56.55-20.38,68.43-4.88,5.8-8.57,6.34-13.74.5-10.65-12-19.65-48.74-20.7-64.81v.02Z"/>
            <path class="cls-2" d="M2413.18,128.68c9.77-10.72,26.48-10.5,37.71-2.28,11.91,8.73,29.23,40.23,33.91,54.41,2.37,7.15,6.46,20.56-5.25,20.86-15.07.38-57.9-24.56-66.92-36.88-7.71-10.5-8.52-26.18.55-36.11Z"/>
            <path class="cls-2" d="M2575.28,140.11c5.53-7.76,12.05-15.75,21.6-18.5,25.24-7.25,43.61,17.9,30.71,40.3-7.62,13.25-40.82,31.63-55.37,36.68-6.3,2.2-20.4,6.56-21.31-3.8-1.2-13.73,16.24-43.3,24.35-54.71l.02.02Z"/>
            <path class="cls-2" d="M2499.73,29.15c-2.01-2.24-4.96-3.33-6.89-5.68-8.08-9.9,5.17-21.29,13.96-11.51l4.3,5.8c-2.01-8.22-1.1-19.39,10.17-17.55,8.22,1.33,7.13,11.59,5.97,17.55l4.3-5.8c6.66-8.26,19.63-1.64,15.84,8.64-1.5,4.08-5.91,5.66-8.75,8.56,8.24-2.4,19.25-.97,17.5,10.2-1.21,7.68-12.37,7.65-17.97,5.51,5.13,4.24,12.18,7.65,9.22,15.67-2.25,6.08-9.72,6.91-14.46,3.11-2.37-1.9-3.43-4.91-5.66-6.91,1.54,6.36,1.81,16.78-6.88,17.59-10.4.97-11.25-9.96-9.24-17.59-2.23,2-3.29,5.01-5.66,6.91-7.55,6.04-17.7-.4-14.46-9.74,1.48-4.24,6.2-6.08,9.22-9.03-6.32,2.12-17.1,2.4-18.01-6.42-1.08-10.62,9.76-11.49,17.54-9.27l-.04-.02Z"/>
            <path class="cls-2" d="M2713.94,177.96c-.27-5.09,2.08-10.5,5.93-13.78,11.49-9.74,28.79-1.11,28.18,13.78,7.92-.81,17.3,2,20.38,9.98-18.49-.28-30.59,17.09-37.21,32.32-7.56-15.13-18.62-32.62-37.67-32.32,3.21-8.04,12.38-10.77,20.37-9.98h.02Z"/>
            <path class="cls-2" d="M2747.71,152.41c-1.38-9.03,5.45-41.87,9.6-50.53,8.15-17.05,32.17-7.47,24.35,12.06-3.34,8.32-21.21,35.77-28.14,40.7-3.4,2.42-5.16,2.04-5.81-2.26v.02Z"/>
            <path class="cls-2" d="M2681.42,98.26c6.1-8.89,18.84-5.57,23.22,3.21,4.39,8.77,9.21,33.63,9.78,43.43.25,4.34,1.12,14.5-5.65,9.94-6.77-4.56-25.34-33.29-28.47-41.32-2.06-5.23-2.12-10.54,1.14-15.29l-.02.02Z"/>
            <path class="cls-2" d="M2717.38,98.65c.1-20.06,27.41-19.17,27.41-.32,0,10.16-5.59,40.76-10.57,49.34-2.76,4.79-4.46,3.82-6.79-.6-4.6-8.73-10.11-38.4-10.05-48.43Z"/>
            <path class="cls-2" d="M2788.55,125.87c2.86-3.41,5.78-6.73,10.25-8.02,11.71-3.41,20.97,8.28,15.4,19.25-3.87,7.63-31.38,25.57-39.83,29.45-15.9,7.29-9.56-4.44-5.06-12.68,4.84-8.83,12.76-20.3,19.24-28.01Z"/>
            <path class="cls-2" d="M2697.3,168.85c-2.79,1.74-13.51-4.42-16.37-6.02-7.19-4.08-28.54-18.12-32.39-24.56-8.77-14.6,8.69-28.28,21.35-16.66,6.65,6.1,24.48,32.66,27.21,41.16.65,2.04,1.18,4.08.18,6.1l.02-.02Z"/>
            <path class="cls-2" d="M2442.38,42.96c1.47,1.43,1.88,4.08,2.77,6.02,1.72,3.8,4.38,9.33,6.99,12.48,4.4,5.29,14.16,9.13,20.58,11.45.51.67-5.47,2.52-6.01,2.75-17.02,7.65-15.66,11.33-23.36,26.48-.24.46-.27,1.13-.95,1.17-1.91-5.78-5.72-15.35-9.95-19.73-4.22-4.38-12.93-7.03-18.26-9.72-.46-.22-1.13-.3-1.17-.97,7.39-2.89,17.08-6.4,21.7-13.17,3.32-4.85,6.14-11.13,7.68-16.78l-.02.02Z"/>
            <path class="cls-2" d="M2595.94,42.96c1.83,6,5.53,15.21,9.93,19.75,4.4,4.54,13.66,7.65,19.45,10.44-5.77,2.99-14.44,5.72-19.19,10.22-4.76,4.5-6.9,13.13-10.1,18.87-.23.42-.37,1.31-1.04.61-.22-.24-1.66-5.07-2.15-6.16-5.55-12.1-9.11-15.57-21.23-21.01-.54-.24-6.54-2.1-6.01-2.75,6.46-2.32,16.14-6.12,20.58-11.45,2.63-3.15,5.29-8.68,6.99-12.48.87-1.94,1.3-4.61,2.77-6.02v-.02Z"/>
            <path class="cls-2" d="M2759.76,212.96c2.76-2.77,3.45-7.27,5.84-10.28,1.31,3.05,3.06,8.2,5.43,10.5,2.17,2.1,7.33,4.22,10.21,5.21l-7.34,3.78c-4.47,2.46-6.68,7.74-8.3,12.36l-5.96-10.44c-3.22-2.02-6.46-4.14-10.15-5.25l10.25-5.86.02-.02Z"/>
            <path class="cls-2" d="M2696.41,202.68c2.21,2.65,2.86,6.6,4.94,9.33.82,1.11,3.51,2.79,4.77,3.51.62.36,6.72,2.89,6.4,3.33-3.79,1.53-8.55,3.35-11.1,6.7-2.09,2.73-2.92,6.36-4.99,8.99-1.6-5.19-3.75-9.74-8.57-12.56-2.15-1.25-4.52-1.98-6.6-3.37,7.9-3.05,13.13-7.35,15.17-15.93h-.02Z"/>
            <path class="cls-2" d="M2563.41,119.31c-8.19-7.66,3.56-20.78,12.19-12.93,8.63,7.84-3.42,21.11-12.19,12.93Z"/>
            <path class="cls-2" d="M2634.5,190.61c-8.13-8.71,5.22-20.72,12.9-12.22,7.68,8.5-5.24,20.44-12.9,12.22Z"/>
            <path class="cls-2" d="M2460.04,114.38c-1.82-11.59,15.42-13.81,17.32-3.58,2.29,12.38-15.55,14.89-17.32,3.58Z"/>
            <path class="cls-2" d="M2403.84,190.61c-7.58,8.14-20.76-3.52-12.9-12.22,7.86-8.69,21.01,3.49,12.9,12.22Z"/>
            <path class="cls-2" d="M2792.3,78.27c.06-.22,1.93-3.37,2.23-3.66,1.13-1.15,3.54-2.12,4.38-3.92,2.18.18,6.94-3.6,8.16-1.11.4.79.41,6.73.28,7.88-.12.89-.89.61-.99,1.01-.16.69.14,1.51,0,2.2-.08.32-.71.32-.77.48-1.76,4.44-3.97,5.84-8.31,7.51-.4.16-.36.79-.72.89-1.38.38-3.02.16-4.38.97-1.05-4.14-1.12-8.08.16-12.22l-.04-.02Z"/>
            <path class="cls-2" d="M2655.71,68.69c.41-.26,6.3,1.51,7.13,1.9.57.28,1.12,1.39,1.72,1.82.83.63,2.76,1.49,3.25,2.1.62.73.81,2.38,1.17,3.25,1.18,3.03,2.31,5.33,1.82,9.15-.16,1.13-1.23,2.22-.93,3.58l-8.37-3.01c-.79-1.66-3.64-3.07-4.45-4.34-1.68-2.65-2.78-8.54-2.31-11.88.12-.91.73-1.7.99-2.57h-.02Z"/>
            <path class="cls-2" d="M2748.7,58.31c.1-.28,1.58-3.17,1.93-3.74.28-.46,5.43-5.78,5.83-5.88,2.49-.61,2.88,2.93,3.49,4.36.7,1.62,1.64,2.46,1.88,4.87.28,2.93-.61,7.31-2.07,9.63-.22.36-5.47,5.76-5.87,5.84-.61.12-1.54.14-2.05-.22-.3-.2-2.92-5.84-3.06-6.42-.36-1.37-.5-7.25-.06-8.44h-.02Z"/>
            <path class="cls-2" d="M2772.39,64.01c.1-.2,2.45-3.09,2.65-3.29.53-.5,1.32-.51,1.74-.87,1.93-1.64,3.89-3.72,6.81-3.6.16,3.05,2.59,8.22,1.88,11.09-.08.36-.81.28-.91.65-.69,2.69-.79,4.28-2.71,6.67-1.91,2.4-6.02,3.88-8.39,5.37-2.96-3.15-2.92-12.38-1.07-16.02Z"/>
            <path class="cls-2" d="M2701.31,53.56c.04-.12.55-.14.63-.3.41-1.01,1.44-4.34,2.41-4.58,1.6-.4,1.71.81,2.68,1.68,1.07.97,4.05,3.51,4.82,4.91,2.23,4,2.23,9.67.63,13.92-.1.26-1.75,2.48-1.83,2.65-.4,1.05.35,2.56-2.75,1.39-.31-.12-4.54-4.56-4.84-4.97-1.5-2.04-1.44-2.89-1.91-5.03-.08-.36-.85-.3-.93-.65-.43-1.8.43-7.19,1.11-9.05l-.02.02Z"/>
            <path class="cls-2" d="M2627.93,105.71c2.03.32,6.47,3.31,7.8,5.13,2.05,2.83,3.29,6.61,3.81,10.08-1.68-.44-3.56.5-5,.5-.91,0-5.39-.34-6.06-.5-.36-.08-.28-.85-.65-.93-.77-.18-1.54.16-2.41-.14s-4.15-4.95-4.7-5.94c-.24-.44-.83-.46-1.07-.97-.45-.97-2.11-7.23-.75-7.23,2.61,0,6.64-.38,9.01,0h.02Z"/>
            <path class="cls-2" d="M2634.8,85.72c1.89.16,4.05-.24,5.9.02.58.08,6.97,2.63,7.29,2.91.24.2,0,1.15.57,1.58,1.32,1.03,2.23,2.08,3.04,4.06,1.23,2.99,1.5,6.28,1.68,9.49-4.84.44-10.44-.83-13.96-4.3-3.24-3.23-4.74-9.21-4.54-13.77h.02Z"/>
            <path class="cls-2" d="M2419.4,105.71c.37.12.65.69.69,1.13.04.65-1.2,5.57-1.54,6.34-.08.16-.65.22-.79.48-.53,1.03-3.99,5.86-4.88,6.16s-1.64-.02-2.41.14c-.35.08-.29.85-.65.93-.67.16-5.15.51-6.06.5-1.44,0-3.32-.93-5-.5.52-3.49,1.78-7.25,3.81-10.08,1.15-1.58,6.17-5.13,7.8-5.13,1.96,0,7.67-.4,9.01,0l.02.04Z"/>
            <path class="cls-2" d="M2808.73,103.8c.77-2.1.26-4.2.59-6.3.34-2.1,1.78-3.74,2.69-5.51.16-.3-.08-.99.14-1.39.11-.22,3.57-2.67,3.83-2.83,1.02-.61,4.32-1.05,4.5-1.21.22-.18.04-.83.08-.83h6.63c-.23,1.6.34,3.92,0,5.37-.08.36-.83.28-.93.67-.19.75.1,1.66-.23,2.54-2.16,5.57-5.12,6.58-10.09,8.68-.22.1-.08.81-.12.81h-7.11.02Z"/>
            <path class="cls-2" d="M2678.42,56.29c.12-.12,2.05-.12,2.49,0,.39.08.39.77.67.93,4.48,2.3,6.46,3.74,8.35,8.42.06.16.69.16.77.5.3,1.21.18,7.88,0,9.39-.08.65-1.46,4.26-1.87,4.54l-4.33-1.94c-2.74-1.78-3.18-2.48-4.99-5.05-2.1-3.01-2.65-4.65-2.51-8.91.02-.87,1.16-7.55,1.44-7.82l-.02-.04Z"/>
            <path class="cls-2" d="M2725,54.49c.04-.12.61-.12.75-.5,1.33-3.64,2.17-5.51,5.02-8.2.35,0,3.2,2.75,3.53,3.23,2.79,3.9,4.05,9.67,2.85,14.52-.08.34-.71.34-.77.5-1.21,2.99-2.06,4.26-4.55,6.56-.51.48-.21,1.49-1.32.61-.22-.16-2.7-2.75-2.8-2.91-2.08-3.37-4.31-9.96-2.71-13.77v-.04Z"/>
            <path class="cls-2" d="M2509.8,38.8c-2.37-14.82,21.64-14.36,18.64.38-2.05,10.02-17.04,9.59-18.64-.38Z"/>
          </g>
        </g>
        <g class="cls-11">
          <g class="cls-4">
            <path class="cls-2" d="M2993.38,235c-1.07-2.38.92-5.74,2.54-7.43,10.65-11.25,56.38-22.82,71.63-21.55,14.63,1.21,27.68,13.65,26.3,29h-100.47v-.02Z"/>
            <path class="cls-2" d="M2797.17,235c-1.36-15.33,11.67-27.77,26.3-29,15.23-1.27,61,10.32,71.63,21.55,1.6,1.7,3.59,5.07,2.54,7.43h-100.47v.02Z"/>
            <path class="cls-2" d="M3292.42,235h-70.14c-.91-8.93,7.41-18.5,16-19.85,11.17-1.74,35.31,4.91,45.48,10.26,3.63,1.9,9.1,4.83,8.68,9.59h-.02Z"/>
            <path class="cls-2" d="M2919.92,235c-.06-18.16,16.33-29.47,33.77-24.6,8.96,2.51,15.93,11.39,17.39,20.58.2,1.27-.08,2.71.02,4.02h-51.18Z"/>
            <path class="cls-2" d="M2918.16,116.72c-2.63-40.54,52.86-43.47,54.82-4.14.77,15.31-10.43,56.55-20.38,68.43-4.88,5.8-8.57,6.34-13.74.5-10.65-12-19.65-48.74-20.7-64.81v.02Z"/>
            <path class="cls-2" d="M2839.53,128.68c9.77-10.72,26.48-10.5,37.71-2.28,11.91,8.73,29.23,40.23,33.91,54.41,2.37,7.15,6.46,20.56-5.25,20.86-15.07.38-57.9-24.56-66.92-36.88-7.71-10.5-8.52-26.18.55-36.11Z"/>
            <path class="cls-2" d="M3001.63,140.11c5.53-7.76,12.05-15.75,21.6-18.5,25.24-7.25,43.61,17.9,30.71,40.3-7.62,13.25-40.82,31.63-55.37,36.68-6.3,2.2-20.4,6.56-21.31-3.8-1.2-13.73,16.24-43.3,24.35-54.71l.02.02Z"/>
            <path class="cls-2" d="M2926.08,29.15c-2.01-2.24-4.96-3.33-6.89-5.68-8.08-9.9,5.17-21.29,13.96-11.51l4.3,5.8c-2.01-8.22-1.1-19.39,10.17-17.55,8.22,1.33,7.13,11.59,5.97,17.55l4.3-5.8c6.66-8.26,19.63-1.64,15.84,8.64-1.5,4.08-5.91,5.66-8.75,8.56,8.24-2.4,19.25-.97,17.5,10.2-1.21,7.68-12.37,7.65-17.97,5.51,5.13,4.24,12.18,7.65,9.22,15.67-2.25,6.08-9.72,6.91-14.46,3.11-2.37-1.9-3.43-4.91-5.66-6.91,1.54,6.36,1.81,16.78-6.88,17.59-10.4.97-11.25-9.96-9.24-17.59-2.23,2-3.29,5.01-5.66,6.91-7.55,6.04-17.7-.4-14.46-9.74,1.48-4.24,6.2-6.08,9.22-9.03-6.32,2.12-17.1,2.4-18.01-6.42-1.08-10.62,9.76-11.49,17.54-9.27l-.04-.02Z"/>
            <path class="cls-2" d="M3140.29,177.96c-.27-5.09,2.08-10.5,5.93-13.78,11.49-9.74,28.79-1.11,28.18,13.78,7.92-.81,17.3,2,20.38,9.98-18.49-.28-30.59,17.09-37.21,32.32-7.56-15.13-18.62-32.62-37.67-32.32,3.21-8.04,12.38-10.77,20.37-9.98h.02Z"/>
            <path class="cls-2" d="M3174.06,152.41c-1.38-9.03,5.45-41.87,9.6-50.53,8.15-17.05,32.17-7.47,24.35,12.06-3.34,8.32-21.21,35.77-28.14,40.7-3.4,2.42-5.16,2.04-5.81-2.26v.02Z"/>
            <path class="cls-2" d="M3107.77,98.26c6.1-8.89,18.84-5.57,23.22,3.21,4.39,8.77,9.21,33.63,9.78,43.43.25,4.34,1.12,14.5-5.65,9.94-6.77-4.56-25.34-33.29-28.47-41.32-2.06-5.23-2.12-10.54,1.14-15.29l-.02.02Z"/>
            <path class="cls-2" d="M3143.73,98.65c.1-20.06,27.41-19.17,27.41-.32,0,10.16-5.59,40.76-10.57,49.34-2.76,4.79-4.46,3.82-6.79-.6-4.6-8.73-10.11-38.4-10.05-48.43Z"/>
            <path class="cls-2" d="M3214.9,125.87c2.86-3.41,5.78-6.73,10.25-8.02,11.71-3.41,20.97,8.28,15.4,19.25-3.87,7.63-31.38,25.57-39.83,29.45-15.9,7.29-9.56-4.44-5.06-12.68,4.84-8.83,12.76-20.3,19.24-28.01Z"/>
            <path class="cls-2" d="M3123.65,168.85c-2.79,1.74-13.51-4.42-16.37-6.02-7.19-4.08-28.54-18.12-32.39-24.56-8.77-14.6,8.69-28.28,21.35-16.66,6.65,6.1,24.48,32.66,27.21,41.16.65,2.04,1.18,4.08.18,6.1l.02-.02Z"/>
            <path class="cls-2" d="M2868.73,42.96c1.47,1.43,1.88,4.08,2.77,6.02,1.72,3.8,4.38,9.33,6.99,12.48,4.4,5.29,14.16,9.13,20.58,11.45.51.67-5.47,2.52-6.01,2.75-17.02,7.65-15.66,11.33-23.36,26.48-.24.46-.27,1.13-.95,1.17-1.91-5.78-5.72-15.35-9.95-19.73-4.22-4.38-12.93-7.03-18.26-9.72-.46-.22-1.13-.3-1.17-.97,7.39-2.89,17.08-6.4,21.7-13.17,3.32-4.85,6.14-11.13,7.68-16.78l-.02.02Z"/>
            <path class="cls-2" d="M3022.29,42.96c1.83,6,5.53,15.21,9.93,19.75,4.4,4.54,13.66,7.65,19.45,10.44-5.77,2.99-14.44,5.72-19.19,10.22-4.76,4.5-6.9,13.13-10.1,18.87-.23.42-.37,1.31-1.04.61-.22-.24-1.66-5.07-2.15-6.16-5.55-12.1-9.11-15.57-21.23-21.01-.54-.24-6.54-2.1-6.01-2.75,6.46-2.32,16.14-6.12,20.58-11.45,2.63-3.15,5.29-8.68,6.99-12.48.87-1.94,1.3-4.61,2.77-6.02v-.02Z"/>
            <path class="cls-2" d="M3186.11,212.96c2.76-2.77,3.45-7.27,5.84-10.28,1.31,3.05,3.06,8.2,5.43,10.5,2.17,2.1,7.33,4.22,10.21,5.21l-7.34,3.78c-4.47,2.46-6.68,7.74-8.3,12.36l-5.96-10.44c-3.22-2.02-6.46-4.14-10.15-5.25l10.25-5.86.02-.02Z"/>
            <path class="cls-2" d="M3122.76,202.68c2.21,2.65,2.86,6.6,4.94,9.33.82,1.11,3.51,2.79,4.77,3.51.62.36,6.72,2.89,6.4,3.33-3.79,1.53-8.55,3.35-11.1,6.7-2.09,2.73-2.92,6.36-4.99,8.99-1.6-5.19-3.75-9.74-8.57-12.56-2.15-1.25-4.52-1.98-6.6-3.37,7.9-3.05,13.13-7.35,15.17-15.93h-.02Z"/>
            <path class="cls-2" d="M2989.76,119.31c-8.19-7.66,3.56-20.78,12.19-12.93,8.63,7.84-3.42,21.11-12.19,12.93Z"/>
            <path class="cls-2" d="M3060.85,190.61c-8.13-8.71,5.22-20.72,12.9-12.22,7.68,8.5-5.24,20.44-12.9,12.22Z"/>
            <path class="cls-2" d="M2886.39,114.38c-1.82-11.59,15.42-13.81,17.32-3.58,2.29,12.38-15.55,14.89-17.32,3.58Z"/>
            <path class="cls-2" d="M2830.19,190.61c-7.58,8.14-20.76-3.52-12.9-12.22,7.86-8.69,21.01,3.49,12.9,12.22Z"/>
            <path class="cls-2" d="M3218.65,78.27c.06-.22,1.93-3.37,2.23-3.66,1.13-1.15,3.54-2.12,4.38-3.92,2.18.18,6.94-3.6,8.16-1.11.4.79.41,6.73.28,7.88-.12.89-.89.61-.99,1.01-.16.69.14,1.51,0,2.2-.08.32-.71.32-.77.48-1.76,4.44-3.97,5.84-8.31,7.51-.4.16-.36.79-.72.89-1.38.38-3.02.16-4.38.97-1.05-4.14-1.12-8.08.16-12.22l-.04-.02Z"/>
            <path class="cls-2" d="M3082.06,68.69c.41-.26,6.3,1.51,7.13,1.9.57.28,1.12,1.39,1.72,1.82.83.63,2.76,1.49,3.25,2.1.62.73.81,2.38,1.17,3.25,1.18,3.03,2.31,5.33,1.82,9.15-.16,1.13-1.23,2.22-.93,3.58l-8.37-3.01c-.79-1.66-3.64-3.07-4.45-4.34-1.68-2.65-2.78-8.54-2.31-11.88.12-.91.73-1.7.99-2.57h-.02Z"/>
            <path class="cls-2" d="M3175.05,58.31c.1-.28,1.58-3.17,1.93-3.74.28-.46,5.43-5.78,5.83-5.88,2.49-.61,2.88,2.93,3.49,4.36.7,1.62,1.64,2.46,1.88,4.87.28,2.93-.61,7.31-2.07,9.63-.22.36-5.47,5.76-5.87,5.84-.61.12-1.54.14-2.05-.22-.3-.2-2.92-5.84-3.06-6.42-.36-1.37-.5-7.25-.06-8.44h-.02Z"/>
            <path class="cls-2" d="M3198.74,64.01c.1-.2,2.45-3.09,2.65-3.29.53-.5,1.32-.51,1.74-.87,1.93-1.64,3.89-3.72,6.81-3.6.16,3.05,2.59,8.22,1.88,11.09-.08.36-.81.28-.91.65-.69,2.69-.79,4.28-2.71,6.67-1.91,2.4-6.02,3.88-8.39,5.37-2.96-3.15-2.92-12.38-1.07-16.02Z"/>
            <path class="cls-2" d="M3127.66,53.56c.04-.12.55-.14.63-.3.41-1.01,1.44-4.34,2.41-4.58,1.6-.4,1.71.81,2.68,1.68,1.07.97,4.05,3.51,4.82,4.91,2.23,4,2.23,9.67.63,13.92-.1.26-1.75,2.48-1.83,2.65-.4,1.05.35,2.56-2.75,1.39-.31-.12-4.54-4.56-4.84-4.97-1.5-2.04-1.44-2.89-1.91-5.03-.08-.36-.85-.3-.93-.65-.43-1.8.43-7.19,1.11-9.05l-.02.02Z"/>
            <path class="cls-2" d="M3054.28,105.71c2.03.32,6.47,3.31,7.8,5.13,2.05,2.83,3.29,6.61,3.81,10.08-1.68-.44-3.56.5-5,.5-.91,0-5.39-.34-6.06-.5-.36-.08-.28-.85-.65-.93-.77-.18-1.54.16-2.41-.14s-4.15-4.95-4.7-5.94c-.24-.44-.83-.46-1.07-.97-.45-.97-2.11-7.23-.75-7.23,2.61,0,6.64-.38,9.01,0h.02Z"/>
            <path class="cls-2" d="M3061.15,85.72c1.89.16,4.05-.24,5.9.02.58.08,6.97,2.63,7.29,2.91.24.2,0,1.15.57,1.58,1.32,1.03,2.23,2.08,3.04,4.06,1.23,2.99,1.5,6.28,1.68,9.49-4.84.44-10.44-.83-13.96-4.3-3.24-3.23-4.74-9.21-4.54-13.77h.02Z"/>
            <path class="cls-2" d="M2845.75,105.71c.37.12.65.69.69,1.13.04.65-1.2,5.57-1.54,6.34-.08.16-.65.22-.79.48-.53,1.03-3.99,5.86-4.88,6.16s-1.64-.02-2.41.14c-.35.08-.29.85-.65.93-.67.16-5.15.51-6.06.5-1.44,0-3.32-.93-5-.5.52-3.49,1.78-7.25,3.81-10.08,1.15-1.58,6.17-5.13,7.8-5.13,1.96,0,7.67-.4,9.01,0l.02.04Z"/>
            <path class="cls-2" d="M3235.08,103.8c.77-2.1.26-4.2.59-6.3.34-2.1,1.78-3.74,2.69-5.51.16-.3-.08-.99.14-1.39.11-.22,3.57-2.67,3.83-2.83,1.02-.61,4.32-1.05,4.5-1.21.22-.18.04-.83.08-.83h6.63c-.23,1.6.34,3.92,0,5.37-.08.36-.83.28-.93.67-.19.75.1,1.66-.23,2.54-2.16,5.57-5.12,6.58-10.09,8.68-.22.1-.08.81-.12.81h-7.11.02Z"/>
            <path class="cls-2" d="M3104.77,56.29c.12-.12,2.05-.12,2.49,0,.39.08.39.77.67.93,4.48,2.3,6.46,3.74,8.35,8.42.06.16.69.16.77.5.3,1.21.18,7.88,0,9.39-.08.65-1.46,4.26-1.87,4.54l-4.33-1.94c-2.74-1.78-3.18-2.48-4.99-5.05-2.1-3.01-2.65-4.65-2.51-8.91.02-.87,1.16-7.55,1.44-7.82l-.02-.04Z"/>
            <path class="cls-2" d="M3151.35,54.49c.04-.12.61-.12.75-.5,1.33-3.64,2.17-5.51,5.02-8.2.35,0,3.2,2.75,3.53,3.23,2.79,3.9,4.05,9.67,2.85,14.52-.08.34-.71.34-.77.5-1.21,2.99-2.06,4.26-4.55,6.56-.51.48-.21,1.49-1.32.61-.22-.16-2.7-2.75-2.8-2.91-2.08-3.37-4.31-9.96-2.71-13.77v-.04Z"/>
            <path class="cls-2" d="M2936.15,38.8c-2.37-14.82,21.64-14.36,18.64.38-2.05,10.02-17.04,9.59-18.64-.38Z"/>
          </g>
        </g>
        <g class="cls-10">
          <g class="cls-4">
            <path class="cls-2" d="M3419.73,235c-1.07-2.38.92-5.74,2.54-7.43,10.65-11.25,56.38-22.82,71.63-21.55,14.63,1.21,27.68,13.65,26.3,29h-100.47v-.02Z"/>
            <path class="cls-2" d="M3223.52,235c-1.36-15.33,11.67-27.77,26.3-29,15.23-1.27,61,10.32,71.63,21.55,1.6,1.7,3.59,5.07,2.54,7.43h-100.47v.02Z"/>
            <path class="cls-2" d="M3718.77,235h-70.14c-.91-8.93,7.41-18.5,16-19.85,11.17-1.74,35.31,4.91,45.48,10.26,3.63,1.9,9.1,4.83,8.68,9.59h-.02Z"/>
            <path class="cls-2" d="M3346.27,235c-.06-18.16,16.33-29.47,33.77-24.6,8.96,2.51,15.93,11.39,17.39,20.58.2,1.27-.08,2.71.02,4.02h-51.18Z"/>
            <path class="cls-2" d="M3344.51,116.72c-2.63-40.54,52.86-43.47,54.82-4.14.77,15.31-10.43,56.55-20.38,68.43-4.88,5.8-8.57,6.34-13.74.5-10.65-12-19.65-48.74-20.7-64.81v.02Z"/>
            <path class="cls-2" d="M3265.88,128.68c9.77-10.72,26.48-10.5,37.71-2.28,11.91,8.73,29.23,40.23,33.91,54.41,2.37,7.15,6.46,20.56-5.25,20.86-15.07.38-57.9-24.56-66.92-36.88-7.71-10.5-8.52-26.18.55-36.11Z"/>
            <path class="cls-2" d="M3427.98,140.11c5.53-7.76,12.05-15.75,21.6-18.5,25.24-7.25,43.61,17.9,30.71,40.3-7.62,13.25-40.82,31.63-55.37,36.68-6.3,2.2-20.4,6.56-21.31-3.8-1.2-13.73,16.24-43.3,24.35-54.71l.02.02Z"/>
            <path class="cls-2" d="M3352.43,29.15c-2.01-2.24-4.96-3.33-6.89-5.68-8.08-9.9,5.17-21.29,13.96-11.51l4.3,5.8c-2.01-8.22-1.1-19.39,10.17-17.55,8.22,1.33,7.13,11.59,5.97,17.55l4.3-5.8c6.66-8.26,19.63-1.64,15.84,8.64-1.5,4.08-5.91,5.66-8.75,8.56,8.24-2.4,19.25-.97,17.5,10.2-1.21,7.68-12.37,7.65-17.97,5.51,5.13,4.24,12.18,7.65,9.22,15.67-2.25,6.08-9.72,6.91-14.46,3.11-2.37-1.9-3.43-4.91-5.66-6.91,1.54,6.36,1.81,16.78-6.88,17.59-10.4.97-11.25-9.96-9.24-17.59-2.23,2-3.29,5.01-5.66,6.91-7.55,6.04-17.7-.4-14.46-9.74,1.48-4.24,6.2-6.08,9.22-9.03-6.32,2.12-17.1,2.4-18.01-6.42-1.08-10.62,9.76-11.49,17.54-9.27l-.04-.02Z"/>
            <path class="cls-2" d="M3566.64,177.96c-.27-5.09,2.08-10.5,5.93-13.78,11.49-9.74,28.79-1.11,28.18,13.78,7.92-.81,17.3,2,20.38,9.98-18.49-.28-30.59,17.09-37.21,32.32-7.56-15.13-18.62-32.62-37.67-32.32,3.21-8.04,12.38-10.77,20.37-9.98h.02Z"/>
            <path class="cls-2" d="M3600.41,152.41c-1.38-9.03,5.45-41.87,9.6-50.53,8.15-17.05,32.17-7.47,24.35,12.06-3.34,8.32-21.21,35.77-28.14,40.7-3.4,2.42-5.16,2.04-5.81-2.26v.02Z"/>
            <path class="cls-2" d="M3534.12,98.26c6.1-8.89,18.84-5.57,23.22,3.21,4.39,8.77,9.21,33.63,9.78,43.43.25,4.34,1.12,14.5-5.65,9.94-6.77-4.56-25.34-33.29-28.47-41.32-2.06-5.23-2.12-10.54,1.14-15.29l-.02.02Z"/>
            <path class="cls-2" d="M3570.08,98.65c.1-20.06,27.41-19.17,27.41-.32,0,10.16-5.59,40.76-10.57,49.34-2.76,4.79-4.46,3.82-6.79-.6-4.6-8.73-10.11-38.4-10.05-48.43Z"/>
            <path class="cls-2" d="M3641.25,125.87c2.86-3.41,5.78-6.73,10.25-8.02,11.71-3.41,20.97,8.28,15.4,19.25-3.87,7.63-31.38,25.57-39.83,29.45-15.9,7.29-9.56-4.44-5.06-12.68,4.84-8.83,12.76-20.3,19.24-28.01Z"/>
            <path class="cls-2" d="M3550,168.85c-2.79,1.74-13.51-4.42-16.37-6.02-7.19-4.08-28.54-18.12-32.39-24.56-8.77-14.6,8.69-28.28,21.35-16.66,6.65,6.1,24.48,32.66,27.21,41.16.65,2.04,1.18,4.08.18,6.1l.02-.02Z"/>
            <path class="cls-2" d="M3295.08,42.96c1.47,1.43,1.88,4.08,2.77,6.02,1.72,3.8,4.38,9.33,6.99,12.48,4.4,5.29,14.16,9.13,20.58,11.45.51.67-5.47,2.52-6.01,2.75-17.02,7.65-15.66,11.33-23.36,26.48-.24.46-.27,1.13-.95,1.17-1.91-5.78-5.72-15.35-9.95-19.73-4.22-4.38-12.93-7.03-18.26-9.72-.46-.22-1.13-.3-1.17-.97,7.39-2.89,17.08-6.4,21.7-13.17,3.32-4.85,6.14-11.13,7.68-16.78l-.02.02Z"/>
            <path class="cls-2" d="M3448.64,42.96c1.83,6,5.53,15.21,9.93,19.75,4.4,4.54,13.66,7.65,19.45,10.44-5.77,2.99-14.44,5.72-19.19,10.22-4.76,4.5-6.9,13.13-10.1,18.87-.23.42-.37,1.31-1.04.61-.22-.24-1.66-5.07-2.15-6.16-5.55-12.1-9.11-15.57-21.23-21.01-.54-.24-6.54-2.1-6.01-2.75,6.46-2.32,16.14-6.12,20.58-11.45,2.63-3.15,5.29-8.68,6.99-12.48.87-1.94,1.3-4.61,2.77-6.02v-.02Z"/>
            <path class="cls-2" d="M3612.46,212.96c2.76-2.77,3.45-7.27,5.84-10.28,1.31,3.05,3.06,8.2,5.43,10.5,2.17,2.1,7.33,4.22,10.21,5.21l-7.34,3.78c-4.47,2.46-6.68,7.74-8.3,12.36l-5.96-10.44c-3.22-2.02-6.46-4.14-10.15-5.25l10.25-5.86.02-.02Z"/>
            <path class="cls-2" d="M3549.11,202.68c2.21,2.65,2.86,6.6,4.94,9.33.82,1.11,3.51,2.79,4.77,3.51.62.36,6.72,2.89,6.4,3.33-3.79,1.53-8.55,3.35-11.1,6.7-2.09,2.73-2.92,6.36-4.99,8.99-1.6-5.19-3.75-9.74-8.57-12.56-2.15-1.25-4.52-1.98-6.6-3.37,7.9-3.05,13.13-7.35,15.17-15.93h-.02Z"/>
            <path class="cls-2" d="M3416.11,119.31c-8.19-7.66,3.56-20.78,12.19-12.93,8.63,7.84-3.42,21.11-12.19,12.93Z"/>
            <path class="cls-2" d="M3487.2,190.61c-8.13-8.71,5.22-20.72,12.9-12.22,7.68,8.5-5.24,20.44-12.9,12.22Z"/>
            <path class="cls-2" d="M3312.74,114.38c-1.82-11.59,15.42-13.81,17.32-3.58,2.29,12.38-15.55,14.89-17.32,3.58Z"/>
            <path class="cls-2" d="M3256.54,190.61c-7.58,8.14-20.76-3.52-12.9-12.22,7.86-8.69,21.01,3.49,12.9,12.22Z"/>
            <path class="cls-2" d="M3645,78.27c.06-.22,1.93-3.37,2.23-3.66,1.13-1.15,3.54-2.12,4.38-3.92,2.18.18,6.94-3.6,8.16-1.11.4.79.41,6.73.28,7.88-.12.89-.89.61-.99,1.01-.16.69.14,1.51,0,2.2-.08.32-.71.32-.77.48-1.76,4.44-3.97,5.84-8.31,7.51-.4.16-.36.79-.72.89-1.38.38-3.02.16-4.38.97-1.05-4.14-1.12-8.08.16-12.22l-.04-.02Z"/>
            <path class="cls-2" d="M3508.41,68.69c.41-.26,6.3,1.51,7.13,1.9.57.28,1.12,1.39,1.72,1.82.83.63,2.76,1.49,3.25,2.1.62.73.81,2.38,1.17,3.25,1.18,3.03,2.31,5.33,1.82,9.15-.16,1.13-1.23,2.22-.93,3.58l-8.37-3.01c-.79-1.66-3.64-3.07-4.45-4.34-1.68-2.65-2.78-8.54-2.31-11.88.12-.91.73-1.7.99-2.57h-.02Z"/>
            <path class="cls-2" d="M3601.4,58.31c.1-.28,1.58-3.17,1.93-3.74.28-.46,5.43-5.78,5.83-5.88,2.49-.61,2.88,2.93,3.49,4.36.7,1.62,1.64,2.46,1.88,4.87.28,2.93-.61,7.31-2.07,9.63-.22.36-5.47,5.76-5.87,5.84-.61.12-1.54.14-2.05-.22-.3-.2-2.92-5.84-3.06-6.42-.36-1.37-.5-7.25-.06-8.44h-.02Z"/>
            <path class="cls-2" d="M3625.09,64.01c.1-.2,2.45-3.09,2.65-3.29.53-.5,1.32-.51,1.74-.87,1.93-1.64,3.89-3.72,6.81-3.6.16,3.05,2.59,8.22,1.88,11.09-.08.36-.81.28-.91.65-.69,2.69-.79,4.28-2.71,6.67-1.91,2.4-6.02,3.88-8.39,5.37-2.96-3.15-2.92-12.38-1.07-16.02Z"/>
            <path class="cls-2" d="M3554.01,53.56c.04-.12.55-.14.63-.3.41-1.01,1.44-4.34,2.41-4.58,1.6-.4,1.71.81,2.68,1.68,1.07.97,4.05,3.51,4.82,4.91,2.23,4,2.23,9.67.63,13.92-.1.26-1.75,2.48-1.83,2.65-.4,1.05.35,2.56-2.75,1.39-.31-.12-4.54-4.56-4.84-4.97-1.5-2.04-1.44-2.89-1.91-5.03-.08-.36-.85-.3-.93-.65-.43-1.8.43-7.19,1.11-9.05l-.02.02Z"/>
            <path class="cls-2" d="M3480.63,105.71c2.03.32,6.47,3.31,7.8,5.13,2.05,2.83,3.29,6.61,3.81,10.08-1.68-.44-3.56.5-5,.5-.91,0-5.39-.34-6.06-.5-.36-.08-.28-.85-.65-.93-.77-.18-1.54.16-2.41-.14s-4.15-4.95-4.7-5.94c-.24-.44-.83-.46-1.07-.97-.45-.97-2.11-7.23-.75-7.23,2.61,0,6.64-.38,9.01,0h.02Z"/>
            <path class="cls-2" d="M3487.5,85.72c1.89.16,4.05-.24,5.9.02.58.08,6.97,2.63,7.29,2.91.24.2,0,1.15.57,1.58,1.32,1.03,2.23,2.08,3.04,4.06,1.23,2.99,1.5,6.28,1.68,9.49-4.84.44-10.44-.83-13.96-4.3-3.24-3.23-4.74-9.21-4.54-13.77h.02Z"/>
            <path class="cls-2" d="M3272.1,105.71c.37.12.65.69.69,1.13.04.65-1.2,5.57-1.54,6.34-.08.16-.65.22-.79.48-.53,1.03-3.99,5.86-4.88,6.16s-1.64-.02-2.41.14c-.35.08-.29.85-.65.93-.67.16-5.15.51-6.06.5-1.44,0-3.32-.93-5-.5.52-3.49,1.78-7.25,3.81-10.08,1.15-1.58,6.17-5.13,7.8-5.13,1.96,0,7.67-.4,9.01,0l.02.04Z"/>
            <path class="cls-2" d="M3661.43,103.8c.77-2.1.26-4.2.59-6.3.34-2.1,1.78-3.74,2.69-5.51.16-.3-.08-.99.14-1.39.11-.22,3.57-2.67,3.83-2.83,1.02-.61,4.32-1.05,4.5-1.21.22-.18.04-.83.08-.83h6.63c-.23,1.6.34,3.92,0,5.37-.08.36-.83.28-.93.67-.19.75.1,1.66-.23,2.54-2.16,5.57-5.12,6.58-10.09,8.68-.22.1-.08.81-.12.81h-7.11.02Z"/>
            <path class="cls-2" d="M3531.12,56.29c.12-.12,2.05-.12,2.49,0,.39.08.39.77.67.93,4.48,2.3,6.46,3.74,8.35,8.42.06.16.69.16.77.5.3,1.21.18,7.88,0,9.39-.08.65-1.46,4.26-1.87,4.54l-4.33-1.94c-2.74-1.78-3.18-2.48-4.99-5.05-2.1-3.01-2.65-4.65-2.51-8.91.02-.87,1.16-7.55,1.44-7.82l-.02-.04Z"/>
            <path class="cls-2" d="M3577.7,54.49c.04-.12.61-.12.75-.5,1.33-3.64,2.17-5.51,5.02-8.2.35,0,3.2,2.75,3.53,3.23,2.79,3.9,4.05,9.67,2.85,14.52-.08.34-.71.34-.77.5-1.21,2.99-2.06,4.26-4.55,6.56-.51.48-.21,1.49-1.32.61-.22-.16-2.7-2.75-2.8-2.91-2.08-3.37-4.31-9.96-2.71-13.77v-.04Z"/>
            <path class="cls-2" d="M3362.5,38.8c-2.37-14.82,21.64-14.36,18.64.38-2.05,10.02-17.04,9.59-18.64-.38Z"/>
          </g>
        </g>
        <g class="cls-9">
          <g class="cls-4">
            <path class="cls-2" d="M3846.08,235c-1.07-2.38.92-5.74,2.54-7.43,10.65-11.25,56.38-22.82,71.63-21.55,14.63,1.21,27.68,13.65,26.3,29h-100.47v-.02Z"/>
            <path class="cls-2" d="M3649.87,235c-1.36-15.33,11.67-27.77,26.3-29,15.23-1.27,61,10.32,71.63,21.55,1.6,1.7,3.59,5.07,2.54,7.43h-100.47v.02Z"/>
            <path class="cls-2" d="M3772.62,235c-.06-18.16,16.33-29.47,33.77-24.6,8.96,2.51,15.93,11.39,17.39,20.58.2,1.27-.08,2.71.02,4.02h-51.18Z"/>
            <path class="cls-2" d="M3770.86,116.72c-2.63-40.54,52.86-43.47,54.82-4.14.77,15.31-10.43,56.55-20.38,68.43-4.88,5.8-8.57,6.34-13.74.5-10.65-12-19.65-48.74-20.7-64.81v.02Z"/>
            <path class="cls-2" d="M3692.23,128.68c9.77-10.72,26.48-10.5,37.71-2.28,11.91,8.73,29.23,40.23,33.91,54.41,2.37,7.15,6.46,20.56-5.25,20.86-15.07.38-57.9-24.56-66.92-36.88-7.71-10.5-8.52-26.18.55-36.11Z"/>
            <path class="cls-2" d="M3854.33,140.11c5.53-7.76,12.05-15.75,21.6-18.5,25.24-7.25,43.61,17.9,30.71,40.3-7.62,13.25-40.82,31.63-55.37,36.68-6.3,2.2-20.4,6.56-21.31-3.8-1.2-13.73,16.24-43.3,24.35-54.71l.02.02Z"/>
            <path class="cls-2" d="M3778.78,29.15c-2.01-2.24-4.96-3.33-6.89-5.68-8.08-9.9,5.17-21.29,13.96-11.51l4.3,5.8c-2.01-8.22-1.1-19.39,10.17-17.55,8.22,1.33,7.13,11.59,5.97,17.55l4.3-5.8c6.66-8.26,19.63-1.64,15.84,8.64-1.5,4.08-5.91,5.66-8.75,8.56,8.24-2.4,19.25-.97,17.5,10.2-1.21,7.68-12.37,7.65-17.97,5.51,5.13,4.24,12.18,7.65,9.22,15.67-2.25,6.08-9.72,6.91-14.46,3.11-2.37-1.9-3.43-4.91-5.66-6.91,1.54,6.36,1.81,16.78-6.88,17.59-10.4.97-11.25-9.96-9.24-17.59-2.23,2-3.29,5.01-5.66,6.91-7.55,6.04-17.7-.4-14.46-9.74,1.48-4.24,6.2-6.08,9.22-9.03-6.32,2.12-17.1,2.4-18.01-6.42-1.08-10.62,9.76-11.49,17.54-9.27l-.04-.02Z"/>
            <path class="cls-2" d="M3992.99,177.96c-.27-5.09,2.08-10.5,5.93-13.78,11.49-9.74,28.79-1.11,28.18,13.78,7.92-.81,17.3,2,20.38,9.98-18.49-.28-30.59,17.09-37.21,32.32-7.56-15.13-18.62-32.62-37.67-32.32,3.21-8.04,12.38-10.77,20.37-9.98h.02Z"/>
            <path class="cls-2" d="M4026.76,152.41c-1.38-9.03,5.45-41.87,9.6-50.53,8.15-17.05,32.17-7.47,24.35,12.06-3.34,8.32-21.21,35.77-28.14,40.7-3.4,2.42-5.16,2.04-5.81-2.26v.02Z"/>
            <path class="cls-2" d="M3960.47,98.26c6.1-8.89,18.84-5.57,23.22,3.21,4.39,8.77,9.21,33.63,9.78,43.43.25,4.34,1.12,14.5-5.65,9.94-6.77-4.56-25.34-33.29-28.47-41.32-2.06-5.23-2.12-10.54,1.14-15.29l-.02.02Z"/>
            <path class="cls-2" d="M3996.43,98.65c.1-20.06,27.41-19.17,27.41-.32,0,10.16-5.59,40.76-10.57,49.34-2.76,4.79-4.46,3.82-6.79-.6-4.6-8.73-10.11-38.4-10.05-48.43Z"/>
            <path class="cls-2" d="M4067.6,125.87c2.86-3.41,5.78-6.73,10.25-8.02,11.71-3.41,20.97,8.28,15.4,19.25-3.87,7.63-31.38,25.57-39.83,29.45-15.9,7.29-9.56-4.44-5.06-12.68,4.84-8.83,12.76-20.3,19.24-28.01Z"/>
            <path class="cls-2" d="M3976.35,168.85c-2.79,1.74-13.51-4.42-16.37-6.02-7.19-4.08-28.54-18.12-32.39-24.56-8.77-14.6,8.69-28.28,21.35-16.66,6.65,6.1,24.48,32.66,27.21,41.16.65,2.04,1.18,4.08.18,6.1l.02-.02Z"/>
            <path class="cls-2" d="M3721.43,42.96c1.47,1.43,1.88,4.08,2.77,6.02,1.72,3.8,4.38,9.33,6.99,12.48,4.4,5.29,14.16,9.13,20.58,11.45.51.67-5.47,2.52-6.01,2.75-17.02,7.65-15.66,11.33-23.36,26.48-.24.46-.27,1.13-.95,1.17-1.91-5.78-5.72-15.35-9.95-19.73-4.22-4.38-12.93-7.03-18.26-9.72-.46-.22-1.13-.3-1.17-.97,7.39-2.89,17.08-6.4,21.7-13.17,3.32-4.85,6.14-11.13,7.68-16.78l-.02.02Z"/>
            <path class="cls-2" d="M3874.99,42.96c1.83,6,5.53,15.21,9.93,19.75,4.4,4.54,13.66,7.65,19.45,10.44-5.77,2.99-14.44,5.72-19.19,10.22-4.76,4.5-6.9,13.13-10.1,18.87-.23.42-.37,1.31-1.04.61-.22-.24-1.66-5.07-2.15-6.16-5.55-12.1-9.11-15.57-21.23-21.01-.54-.24-6.54-2.1-6.01-2.75,6.46-2.32,16.14-6.12,20.58-11.45,2.63-3.15,5.29-8.68,6.99-12.48.87-1.94,1.3-4.61,2.77-6.02v-.02Z"/>
            <path class="cls-2" d="M4038.81,212.96c2.76-2.77,3.45-7.27,5.84-10.28,1.31,3.05,3.06,8.2,5.43,10.5,2.17,2.1,7.33,4.22,10.21,5.21l-7.34,3.78c-4.47,2.46-6.68,7.74-8.3,12.36l-5.96-10.44c-3.22-2.02-6.46-4.14-10.15-5.25l10.25-5.86.02-.02Z"/>
            <path class="cls-2" d="M3975.46,202.68c2.21,2.65,2.86,6.6,4.94,9.33.82,1.11,3.51,2.79,4.77,3.51.62.36,6.72,2.89,6.4,3.33-3.79,1.53-8.55,3.35-11.1,6.7-2.09,2.73-2.92,6.36-4.99,8.99-1.6-5.19-3.75-9.74-8.57-12.56-2.15-1.25-4.52-1.98-6.6-3.37,7.9-3.05,13.13-7.35,15.17-15.93h-.02Z"/>
            <path class="cls-2" d="M3842.46,119.31c-8.19-7.66,3.56-20.78,12.19-12.93,8.63,7.84-3.42,21.11-12.19,12.93Z"/>
            <path class="cls-2" d="M3913.55,190.61c-8.13-8.71,5.22-20.72,12.9-12.22,7.68,8.5-5.24,20.44-12.9,12.22Z"/>
            <path class="cls-2" d="M3739.09,114.38c-1.82-11.59,15.42-13.81,17.32-3.58,2.29,12.38-15.55,14.89-17.32,3.58Z"/>
            <path class="cls-2" d="M3682.89,190.61c-7.58,8.14-20.76-3.52-12.9-12.22,7.86-8.69,21.01,3.49,12.9,12.22Z"/>
            <path class="cls-2" d="M4071.35,78.27c.06-.22,1.93-3.37,2.23-3.66,1.13-1.15,3.54-2.12,4.38-3.92,2.18.18,6.94-3.6,8.16-1.11.4.79.41,6.73.28,7.88-.12.89-.89.61-.99,1.01-.16.69.14,1.51,0,2.2-.08.32-.71.32-.77.48-1.76,4.44-3.97,5.84-8.31,7.51-.4.16-.36.79-.72.89-1.38.38-3.02.16-4.38.97-1.05-4.14-1.12-8.08.16-12.22l-.04-.02Z"/>
            <path class="cls-2" d="M3934.76,68.69c.41-.26,6.3,1.51,7.13,1.9.57.28,1.12,1.39,1.72,1.82.83.63,2.76,1.49,3.25,2.1.62.73.81,2.38,1.17,3.25,1.18,3.03,2.31,5.33,1.82,9.15-.16,1.13-1.23,2.22-.93,3.58l-8.37-3.01c-.79-1.66-3.64-3.07-4.45-4.34-1.68-2.65-2.78-8.54-2.31-11.88.12-.91.73-1.7.99-2.57h-.02Z"/>
            <path class="cls-2" d="M4027.75,58.31c.1-.28,1.58-3.17,1.93-3.74.28-.46,5.43-5.78,5.83-5.88,2.49-.61,2.88,2.93,3.49,4.36.7,1.62,1.64,2.46,1.88,4.87.28,2.93-.61,7.31-2.07,9.63-.22.36-5.47,5.76-5.87,5.84-.61.12-1.54.14-2.05-.22-.3-.2-2.92-5.84-3.06-6.42-.36-1.37-.5-7.25-.06-8.44h-.02Z"/>
            <path class="cls-2" d="M4051.44,64.01c.1-.2,2.45-3.09,2.65-3.29.53-.5,1.32-.51,1.74-.87,1.93-1.64,3.89-3.72,6.81-3.6.16,3.05,2.59,8.22,1.88,11.09-.08.36-.81.28-.91.65-.69,2.69-.79,4.28-2.71,6.67-1.91,2.4-6.02,3.88-8.39,5.37-2.96-3.15-2.92-12.38-1.07-16.02Z"/>
            <path class="cls-2" d="M3980.36,53.56c.04-.12.55-.14.63-.3.41-1.01,1.44-4.34,2.41-4.58,1.6-.4,1.71.81,2.68,1.68,1.07.97,4.05,3.51,4.82,4.91,2.23,4,2.23,9.67.63,13.92-.1.26-1.75,2.48-1.83,2.65-.4,1.05.35,2.56-2.75,1.39-.31-.12-4.54-4.56-4.84-4.97-1.5-2.04-1.44-2.89-1.91-5.03-.08-.36-.85-.3-.93-.65-.43-1.8.43-7.19,1.11-9.05l-.02.02Z"/>
            <path class="cls-2" d="M3906.98,105.71c2.03.32,6.47,3.31,7.8,5.13,2.05,2.83,3.29,6.61,3.81,10.08-1.68-.44-3.56.5-5,.5-.91,0-5.39-.34-6.06-.5-.36-.08-.28-.85-.65-.93-.77-.18-1.54.16-2.41-.14s-4.15-4.95-4.7-5.94c-.24-.44-.83-.46-1.07-.97-.45-.97-2.11-7.23-.75-7.23,2.61,0,6.64-.38,9.01,0h.02Z"/>
            <path class="cls-2" d="M3913.85,85.72c1.89.16,4.05-.24,5.9.02.58.08,6.97,2.63,7.29,2.91.24.2,0,1.15.57,1.58,1.32,1.03,2.23,2.08,3.04,4.06,1.23,2.99,1.5,6.28,1.68,9.49-4.84.44-10.44-.83-13.96-4.3-3.24-3.23-4.74-9.21-4.54-13.77h.02Z"/>
            <path class="cls-2" d="M3698.45,105.71c.37.12.65.69.69,1.13.04.65-1.2,5.57-1.54,6.34-.08.16-.65.22-.79.48-.53,1.03-3.99,5.86-4.88,6.16s-1.64-.02-2.41.14c-.35.08-.29.85-.65.93-.67.16-5.15.51-6.06.5-1.44,0-3.32-.93-5-.5.52-3.49,1.78-7.25,3.81-10.08,1.15-1.58,6.17-5.13,7.8-5.13,1.96,0,7.67-.4,9.01,0l.02.04Z"/>
            <path class="cls-2" d="M4087.78,103.8c.77-2.1.26-4.2.59-6.3.34-2.1,1.78-3.74,2.69-5.51.16-.3-.08-.99.14-1.39.11-.22,3.57-2.67,3.83-2.83,1.02-.61,4.32-1.05,4.5-1.21.22-.18.04-.83.08-.83h6.63c-.23,1.6.34,3.92,0,5.37-.08.36-.83.28-.93.67-.19.75.1,1.66-.23,2.54-2.16,5.57-5.12,6.58-10.09,8.68-.22.1-.08.81-.12.81h-7.11.02Z"/>
            <path class="cls-2" d="M3957.47,56.29c.12-.12,2.05-.12,2.49,0,.39.08.39.77.67.93,4.48,2.3,6.46,3.74,8.35,8.42.06.16.69.16.77.5.3,1.21.18,7.88,0,9.39-.08.65-1.46,4.26-1.87,4.54l-4.33-1.94c-2.74-1.78-3.18-2.48-4.99-5.05-2.1-3.01-2.65-4.65-2.51-8.91.02-.87,1.16-7.55,1.44-7.82l-.02-.04Z"/>
            <path class="cls-2" d="M4004.05,54.49c.04-.12.61-.12.75-.5,1.33-3.64,2.17-5.51,5.02-8.2.35,0,3.2,2.75,3.53,3.23,2.79,3.9,4.05,9.67,2.85,14.52-.08.34-.71.34-.77.5-1.21,2.99-2.06,4.26-4.55,6.56-.51.48-.21,1.49-1.32.61-.22-.16-2.7-2.75-2.8-2.91-2.08-3.37-4.31-9.96-2.71-13.77v-.04Z"/>
            <path class="cls-2" d="M3788.85,38.8c-2.37-14.82,21.64-14.36,18.64.38-2.05,10.02-17.04,9.59-18.64-.38Z"/>
          </g>
        </g>
      </g>
    </g>
  </g>
</svg>