<svg width="1440" height="235" viewBox="0 0 1440 235" fill="none" xmlns="http://www.w3.org/2000/svg">
<g opacity="0.2">
<g style="mix-blend-mode:multiply" clip-path="url(#clip0_9_235)">
<path d="M436.857 235C435.79 232.623 437.785 229.256 439.404 227.573C450.048 216.323 495.782 204.756 511.026 206.024C525.659 207.232 538.711 219.67 537.329 235.02H436.857V235Z" fill="#4E8E41"/>
<path d="M240.651 235C239.289 219.67 252.322 207.232 266.954 206.004C282.179 204.736 327.952 216.323 338.576 227.553C340.176 229.256 342.17 232.623 341.124 234.98H240.651V235Z" fill="#4E8E41"/>
<path d="M735.904 235H665.763C664.855 226.067 673.168 216.501 681.758 215.154C692.935 213.411 717.066 220.066 727.235 225.414C730.869 227.315 736.339 230.247 735.924 235H735.904Z" fill="#4E8E41"/>
<path d="M112.217 235H42.0761C41.6614 230.227 47.1313 227.315 50.7647 225.414C61.1121 219.987 84.7295 213.51 96.1432 215.253C105.01 216.62 112.987 225.83 112.237 235H112.217Z" fill="#4E8E41"/>
<path d="M363.398 235C363.339 216.838 379.729 205.528 397.165 210.401C406.13 212.916 413.101 221.789 414.562 230.979C414.76 232.247 414.483 233.693 414.582 235H363.398Z" fill="#4E8E41"/>
<path d="M-8.63403 235C-8.51555 233.455 -8.51555 231.078 -8.14035 229.633C-8.04162 229.256 -7.40972 229.355 -7.25174 228.919C-4.74388 222.225 -2.0978 219.413 4.75439 217.769C12.278 215.946 19.3869 218.64 24.0274 224.899C25.4097 226.761 26.4365 229.633 26.871 231.93C27.0487 232.881 26.8315 234.01 26.8907 234.98H-8.65377L-8.63403 235Z" fill="#4E8E41"/>
<path d="M751.07 235C751.129 234.01 750.931 232.901 751.089 231.95C751.405 230.128 752.294 228.405 752.946 227.058C755.671 221.512 761.832 217.491 767.855 216.917C771.745 216.56 776.978 218.521 780.078 220.759C783.178 222.997 784.027 225.691 785.232 228.92C785.37 229.316 786.002 229.276 786.101 229.652C786.476 231.039 786.476 233.495 786.594 235H751.05H751.07Z" fill="#4E8E41"/>
<path d="M361.641 116.718C359.014 76.1745 414.503 73.2431 416.458 112.578C417.228 127.888 406.032 169.125 396.079 181.008C391.202 186.812 387.509 187.346 382.335 181.504C371.692 169.501 362.687 132.761 361.641 116.698V116.718Z" fill="#4E8E41"/>
<path d="M283.008 128.681C292.783 117.965 309.489 118.183 320.725 126.403C332.632 135.137 349.95 166.629 354.63 180.81C357 187.96 361.088 201.369 349.378 201.666C334.311 202.043 291.48 177.107 282.455 164.787C274.754 154.29 273.945 138.603 283.008 128.681Z" fill="#4E8E41"/>
<path d="M445.111 140.109C450.64 132.345 457.157 124.363 466.714 121.61C491.951 114.361 510.315 139.515 497.42 161.915C489.798 175.166 456.604 193.546 442.05 198.596C435.751 200.795 421.652 205.152 420.743 194.794C419.539 181.068 436.975 151.497 445.091 140.089L445.111 140.109Z" fill="#4E8E41"/>
<path d="M369.559 29.1547C367.545 26.9166 364.603 25.8272 362.667 23.4703C354.591 13.5672 367.841 2.17869 376.629 11.9629L380.933 17.7661C378.919 9.54658 379.828 -1.62409 391.103 0.217882C399.318 1.54489 398.232 11.8045 397.067 17.7661L401.371 11.9629C408.026 3.70376 421 10.319 417.208 20.5984C415.708 24.6785 411.304 26.263 408.461 29.1547C416.695 26.7581 427.714 28.1842 425.956 39.3548C424.752 47.0396 413.595 47 407.987 44.861C413.121 49.0995 420.17 52.5061 417.208 60.5276C414.957 66.6081 407.493 67.44 402.754 63.6372C400.384 61.7358 399.318 58.7253 397.086 56.7248C398.627 63.0826 398.903 73.5006 390.214 74.3127C379.808 75.2832 378.959 64.3502 380.973 56.7248C378.741 58.7253 377.675 61.7358 375.305 63.6372C367.762 69.6781 357.612 63.2411 360.851 53.8926C362.332 49.654 367.051 47.8121 370.073 44.861C363.753 46.9802 352.972 47.2575 352.063 38.4438C350.977 27.8277 361.818 26.9562 369.599 29.1745L369.559 29.1547Z" fill="#4E8E41"/>
<path d="M751.07 80.9675L745.857 76.9271C736.99 69.5394 747.634 56.606 756.303 64.0729C758.337 65.8158 759.522 68.7075 761.496 70.5099C761.654 68.1529 760.509 65.3999 760.509 63.142C760.509 55.9524 768.487 51.6148 774.253 56.5267C778.597 60.2107 776.662 65.6772 776.188 70.5099C778.024 69.0838 778.854 66.6477 780.434 65.0236C788.55 56.6654 799.904 66.9448 793.032 75.7585C791.255 78.0362 788.53 78.9473 786.634 80.9675C790.643 80.8289 793.921 79.1652 797.85 80.8883C804.387 83.7404 804.327 93.4058 797.515 95.941C793.763 97.3274 790.445 96.0004 786.634 95.7231C789.655 98.2979 793.782 100.1 794.829 104.359C797.08 113.43 786.437 118.381 780.453 111.647L776.208 106.161C776.603 110.875 778.498 116.222 774.569 119.966C770.145 124.165 763.234 122.461 761.141 116.757C759.739 112.935 761.615 110.003 761.516 106.161L756.816 112.123C748.266 119.708 737.602 109.152 745.165 100.437L751.109 95.7033C746.39 96.1786 741.552 98.08 737.583 94.2971C733.614 90.5141 734.403 84.2355 739.004 81.4231C743.29 78.8087 746.568 80.7695 751.09 80.9477L751.07 80.9675Z" fill="#4E8E41"/>
<path d="M-8.63403 80.9676C-9.87809 79.3831 -11.8923 78.7097 -13.3733 77.4223C-23.148 68.8264 -11.7738 56.4674 -2.92717 64.5681C-1.05121 66.2912 -0.182348 68.9056 1.79235 70.5297C-0.182348 63.8947 0.844496 53.4172 10.0466 54.4075C18.1626 55.279 17.9453 64.5087 16.5038 70.5297C18.3008 68.9452 19.4856 66.1724 21.2233 64.5681C29.9712 56.4872 40.8913 68.767 32.4001 76.7291L26.9302 80.9874C33.0517 79.5415 42.0168 79.2841 43.0042 87.4442C44.11 96.6144 33.4664 97.7236 26.9302 95.7232L32.874 100.457C40.4371 109.172 29.7737 119.728 21.2233 112.142L16.5236 106.181C16.4841 110.38 18.4785 113.291 16.6025 117.431C14.3711 122.362 8.62479 123.788 4.22122 120.639C-0.57728 117.193 1.31842 111.073 1.8121 106.181L-2.4335 111.667C-8.41682 118.401 -19.0802 113.45 -16.8093 104.378C-15.7429 100.12 -11.6356 98.3178 -8.61428 95.743C-13.1758 96.1589 -17.9743 97.9415 -21.904 94.5546C-26.1891 90.8509 -25.3992 83.8791 -20.4427 81.2647C-16.2169 79.0464 -12.9981 80.7893 -8.61428 80.9874L-8.63403 80.9676Z" fill="#4E8E41"/>
<path d="M691 177.107C688.452 158.33 708.416 149.021 722.378 160.37C730.731 167.144 747.022 195.566 746.824 206.241C746.646 215.748 733.831 210.52 728.539 208.381C716.829 203.627 692.836 190.733 690.98 177.126L691 177.107Z" fill="#4E8E41"/>
<path d="M31.2943 208.024C29.596 198.695 42.8067 176.275 48.5136 168.491C54.2204 160.707 60.2038 154.844 70.7684 155.597C86.8424 156.746 91.8778 175.423 82.3598 187.208C75.6656 195.487 46.2032 212.698 35.6978 211.688C33.3282 211.47 31.7484 210.46 31.314 208.004L31.2943 208.024Z" fill="#4E8E41"/>
<path d="M-9.91758 152.844C-11.0629 130.661 16.1089 121.531 25.8244 141.238C31.1363 152.012 24.5211 175.146 20.157 186.138C17.9453 191.743 12.2385 205.905 4.85312 198.378C-2.53223 190.852 -9.38441 163.341 -9.91758 152.824V152.844Z" fill="#4E8E41"/>
<path d="M750.26 157.142C749.569 150.051 749.865 143.515 754.407 137.791C765.11 124.303 783.948 130.483 787.345 146.566C789.379 156.191 783.652 176.75 779.881 186.158C777.906 191.11 772.298 205.132 765.288 199.111C758.277 193.09 751.188 166.451 750.26 157.142Z" fill="#4E8E41"/>
<path d="M583.774 177.958C583.497 172.868 585.847 167.461 589.698 164.173C601.191 154.429 618.489 163.064 617.877 177.958C625.795 177.146 635.175 179.959 638.256 187.941C619.772 187.663 607.668 205.033 601.052 220.264C593.489 205.132 582.431 187.643 563.375 187.941C566.594 179.899 575.757 177.166 583.754 177.958H583.774Z" fill="#4E8E41"/>
<path d="M160.084 177.958C159.472 163.044 176.75 154.429 188.263 164.173C192.113 167.441 194.483 172.868 194.187 177.958C202.204 177.206 211.307 179.919 214.565 187.941C199.36 187.465 188.322 199.725 181.312 211.866C180.877 212.639 177.244 220.7 176.651 220.264C170.609 204.954 157.833 187.604 139.685 187.941C142.667 179.939 152.264 177.166 160.064 177.958H160.084Z" fill="#4E8E41"/>
<path d="M617.541 152.408C616.159 143.377 622.991 110.538 627.138 101.883C635.294 84.8298 659.306 94.4159 651.486 113.945C648.149 122.263 630.278 149.715 623.347 154.646C619.95 157.063 618.193 156.686 617.541 152.389V152.408Z" fill="#4E8E41"/>
<path d="M204.909 149.239C203.369 151.022 197.366 158.172 194.898 155.637C192.429 153.102 194.226 140.644 194.74 136.92C195.845 128.879 200.545 105.072 204.89 99.0902C214.013 86.5925 232.654 94.713 228.645 111.033C226.651 119.213 210.833 142.367 204.89 149.239H204.909Z" fill="#4E8E41"/>
<path d="M551.251 98.2583C557.352 89.3654 570.089 92.6928 574.473 101.467C578.857 110.241 583.675 135.098 584.248 144.902C584.504 149.239 585.373 159.4 578.6 154.845C571.827 150.289 553.265 121.55 550.125 113.529C548.071 108.3 548.012 102.992 551.27 98.2385L551.251 98.2583Z" fill="#4E8E41"/>
<path d="M125.132 109.607C122.723 91.9401 144.108 86.5925 151.158 102.517C155.127 111.509 161.703 142.684 160.518 151.992C160.222 154.25 159.669 156.488 157.122 155.973C153.607 155.26 146.853 146.011 144.543 142.921C139.823 136.623 126.099 116.539 125.151 109.607H125.132Z" fill="#4E8E41"/>
<path d="M587.21 98.6545C587.309 78.5908 614.619 79.4821 614.619 98.3376C614.619 108.498 609.03 139.099 604.054 147.675C601.289 152.468 599.591 151.497 597.261 147.081C592.66 138.346 587.151 108.676 587.21 98.6545Z" fill="#4E8E41"/>
<path d="M658.378 125.868C661.241 122.461 664.164 119.134 668.626 117.847C680.336 114.44 689.598 126.126 684.029 137.098C680.159 144.724 652.651 162.668 644.199 166.55C628.303 173.839 634.642 162.113 639.144 153.874C643.982 145.04 651.901 133.573 658.378 125.868Z" fill="#4E8E41"/>
<path d="M119.05 125.472C125.902 133.414 141.008 154.231 143.457 163.955C145.372 171.561 139.527 168.907 135.104 167.105C126.435 163.579 101.179 146.843 95.6297 139.673C86.0525 127.314 98.4536 111.905 112.355 119.094C115.337 120.639 116.917 123.016 119.03 125.472H119.05Z" fill="#4E8E41"/>
<path d="M163.539 99.6051C163.204 78.3531 190.533 79.2444 190.849 98.2781C191.007 108.082 185.32 138.069 180.897 146.764C178.31 151.854 176.375 152.29 173.591 147.08C168.772 138.088 163.717 110.063 163.559 99.6249L163.539 99.6051Z" fill="#4E8E41"/>
<path d="M210.873 168.847C209.866 166.827 210.399 164.787 211.051 162.747C213.776 154.27 231.627 127.71 238.262 121.59C252.578 108.439 272.108 127.393 255.6 142.783C248.728 149.18 222.366 167.778 213.835 168.867C212.867 168.986 211.84 169.026 210.873 168.867V168.847Z" fill="#4E8E41"/>
<path d="M567.127 168.847C564.343 170.59 553.62 164.431 550.757 162.826C543.569 158.746 522.223 144.704 518.372 138.267C509.604 123.67 527.061 109.984 539.718 121.61C546.373 127.71 564.205 154.27 566.93 162.767C567.581 164.807 568.115 166.847 567.107 168.867L567.127 168.847Z" fill="#4E8E41"/>
<path d="M312.214 42.9596C313.675 44.3856 314.09 47.0396 314.979 48.9806C316.697 52.7834 319.362 58.3093 321.969 61.4585C326.373 66.7468 336.128 70.5891 342.545 72.9065C343.059 73.5799 337.075 75.4218 336.542 75.6595C319.52 83.3047 320.883 86.9886 313.182 102.14C312.945 102.596 312.905 103.269 312.234 103.309C310.318 97.5255 306.507 87.9591 302.281 83.582C298.055 79.2048 289.347 76.5508 284.015 73.8572C283.561 73.6393 282.89 73.5601 282.85 72.8867C290.236 69.995 299.931 66.4893 304.552 59.7156C307.87 54.8631 310.694 48.5845 312.234 42.9398L312.214 42.9596Z" fill="#4E8E41"/>
<path d="M465.766 42.9595C467.603 48.9608 471.295 58.1707 475.699 62.7063C480.102 67.2419 489.364 70.3514 495.15 73.1441C489.384 76.1348 480.715 78.8681 475.956 83.3641C471.197 87.8601 469.064 96.4956 465.865 102.239C465.628 102.655 465.49 103.547 464.818 102.853C464.601 102.616 463.16 97.783 462.666 96.6936C457.117 84.5921 453.563 81.126 441.438 75.6793C440.905 75.4416 434.902 73.5798 435.435 72.9262C441.892 70.6089 451.568 66.8061 456.011 61.4783C458.638 58.3291 461.303 52.8032 463.002 49.0004C463.87 47.0594 464.305 44.3856 465.766 42.9793V42.9595Z" fill="#4E8E41"/>
<path d="M134.768 214.818C139.389 211.847 140.495 207.37 142.785 202.676C144.74 206.063 145.925 209.906 148.413 212.956L158.662 218.818C153.113 220.858 148.966 222.898 145.866 228.088C144.642 230.108 144.128 232.683 142.548 234.505C140.278 226.266 135.203 221.096 126.909 218.818L134.768 214.818Z" fill="#4E8E41"/>
<path d="M629.587 212.956C632.351 210.183 633.042 205.687 635.432 202.676C636.735 205.727 638.493 210.876 640.862 213.174C643.034 215.273 648.188 217.392 651.071 218.383L643.725 222.166C639.263 224.622 637.051 229.91 635.432 234.525L629.468 224.087C626.249 222.067 623.011 219.947 619.318 218.838L629.567 212.976L629.587 212.956Z" fill="#4E8E41"/>
<path d="M205.857 212.916C208.562 210.48 209.372 205.489 211.742 202.676C213.756 211.252 219.009 215.55 226.907 218.601C224.834 219.987 222.484 220.7 220.312 221.968C215.494 224.78 213.341 229.335 211.742 234.525C209.51 231.494 208.582 227.711 206.094 224.76C203.843 222.086 198.886 220.165 195.648 218.838C198.788 216.541 202.895 215.61 205.877 212.936L205.857 212.916Z" fill="#4E8E41"/>
<path d="M566.239 202.676C568.45 205.33 569.102 209.272 571.175 212.005C572.005 213.114 574.69 214.798 575.954 215.511C576.566 215.867 582.668 218.402 582.352 218.838C578.561 220.363 573.802 222.185 571.254 225.533C569.161 228.266 568.332 231.89 566.258 234.525C564.659 229.335 562.506 224.78 557.688 221.968C555.536 220.72 553.166 219.987 551.093 218.601C558.991 215.55 564.224 211.252 566.258 202.676H566.239Z" fill="#4E8E41"/>
<path d="M433.243 119.312C425.048 111.647 436.797 98.5356 445.427 106.379C454.056 114.222 442.011 127.492 433.243 119.312Z" fill="#4E8E41"/>
<path d="M504.332 190.614C496.196 181.9 509.545 169.897 517.227 178.394C524.908 186.891 511.994 198.834 504.332 190.614Z" fill="#4E8E41"/>
<path d="M329.868 114.381C328.051 102.794 345.29 100.576 347.186 110.796C349.477 123.174 331.645 125.69 329.868 114.381Z" fill="#4E8E41"/>
<path d="M273.668 190.614C266.085 198.755 252.914 187.089 260.773 178.394C268.633 169.699 281.784 181.88 273.668 190.614Z" fill="#4E8E41"/>
<path d="M238.44 78.2739C238.479 78.1749 239.012 78.1353 239.17 77.7589C239.545 76.8281 239.684 75.3426 240.335 74.5107C240.987 73.6789 242.784 73.0253 243.593 72.4113C244.067 72.0548 244.778 70.8466 245.055 70.708C245.864 70.292 251.986 68.4302 252.42 68.7075C253.684 71.0447 253.645 73.8571 253.388 76.4319C252.875 81.5023 250.149 84.1563 246.654 87.5036L238.282 90.5141C238.598 89.1475 237.511 88.0581 237.353 86.9292C237.057 84.6317 237.689 80.512 238.44 78.2937V78.2739Z" fill="#4E8E41"/>
<path d="M110.144 71.6785C110.321 71.7775 113.066 73.9166 113.205 74.0552C115.12 76.016 116.937 81.6608 116.996 84.5525C117.035 86.6519 115.989 88.4345 116.009 90.4943C115.1 90.6132 114.587 89.8407 113.777 89.6427C111.862 89.1673 109.749 88.7316 107.873 87.5828C102.324 84.1564 99.6384 76.7092 100.863 70.2921C101.514 66.826 108.268 70.5297 110.144 71.6587V71.6785Z" fill="#4E8E41"/>
<path d="M662.13 78.2739C662.189 78.056 664.065 74.9069 664.361 74.6098C665.487 73.461 667.896 72.4905 668.745 70.6881C670.917 70.8664 675.676 67.0834 676.9 69.579C677.295 70.3712 677.315 76.3131 677.177 77.4618C677.058 78.3531 676.288 78.0758 676.189 78.472C676.031 79.1652 676.328 79.9772 676.189 80.6704C676.11 80.9873 675.479 80.9873 675.419 81.1458C673.662 85.5824 671.45 86.9886 667.106 88.6523C666.711 88.8108 666.75 89.4446 666.395 89.5436C665.013 89.9199 663.374 89.7021 662.011 90.5141C660.965 86.3746 660.886 82.4332 662.169 78.2937L662.13 78.2739Z" fill="#4E8E41"/>
<path d="M525.54 68.6877C525.955 68.4303 531.839 70.193 532.669 70.5891C533.241 70.8664 533.794 71.9756 534.387 72.4113C535.216 73.0451 537.151 73.8968 537.645 74.5107C538.257 75.2436 538.455 76.8875 538.81 77.759C539.995 80.7893 541.12 83.0868 540.627 86.9094C540.469 88.0384 539.402 89.1277 539.699 90.4943L531.326 87.4838C530.536 85.8201 527.693 84.4138 526.883 83.1462C525.204 80.4922 524.099 74.6098 524.573 71.2625C524.691 70.3515 525.303 69.5592 525.56 68.6877H525.54Z" fill="#4E8E41"/>
<path d="M618.528 58.3093C618.627 58.032 620.108 55.1403 620.464 54.566C620.74 54.1104 625.894 48.7826 626.289 48.6835C628.777 48.0695 629.172 51.6148 629.784 53.0409C630.475 54.665 631.423 55.4968 631.66 57.9132C631.937 60.8445 631.048 65.2217 629.587 67.539C629.369 67.8955 624.117 73.3026 623.722 73.3818C623.11 73.5006 622.182 73.5204 621.668 73.1639C621.372 72.9659 618.746 67.3211 618.607 66.7467C618.252 65.3801 618.114 59.4977 618.548 58.3093H618.528Z" fill="#4E8E41"/>
<path d="M714.104 105.705C712.8 114.48 707.706 121.392 698.227 121.432C696.292 121.432 694.337 120.56 692.303 120.917C692.046 120.659 693.922 114.42 694.238 113.687C694.515 113.093 698.365 108.221 699.076 107.745C699.333 107.587 703.638 105.686 703.914 105.686H714.104V105.705Z" fill="#4E8E41"/>
<path d="M63.8767 105.705H74.0661C75.6064 105.705 80.5826 109.112 81.6884 110.637C83.7421 113.469 85.1244 117.312 85.6773 120.917C82.0834 121.016 78.1932 121.689 74.6388 120.917C74.4018 120.857 71.1238 119.035 70.5314 118.659C66.9375 116.361 64.4494 109.825 63.8767 105.705Z" fill="#4E8E41"/>
<path d="M642.225 64.0135C642.323 63.8155 644.673 60.9238 644.871 60.7257C645.404 60.2305 646.194 60.2107 646.608 59.8542C648.544 58.2103 650.499 56.1307 653.421 56.2495C653.579 59.2996 656.008 64.4691 655.297 67.3409C655.218 67.6975 654.488 67.6182 654.389 67.9946C653.698 70.6882 653.599 72.2727 651.683 74.6692C649.768 77.0658 645.661 78.5512 643.291 80.0367C640.329 76.8875 640.368 67.6578 642.225 64.0135Z" fill="#4E8E41"/>
<path d="M146.498 56.3881C146.814 55.7147 147.92 53.7737 148.196 53.0409C148.788 51.5158 149.42 47.4951 152.047 49.0004C152.6 49.3173 157.26 54.1302 157.675 54.764C160.617 59.4977 160.242 66.311 157.576 71.3219C157.062 72.2726 155.325 73.7383 154.041 73.2431C153.725 73.1243 149.499 68.6481 149.223 68.252C147.307 65.5583 145.076 59.4779 146.498 56.3881Z" fill="#4E8E41"/>
<path d="M571.136 53.5558C571.175 53.437 571.689 53.4172 571.768 53.2587C572.182 52.2486 573.209 48.9212 574.177 48.6835C575.776 48.2874 575.895 49.4956 576.862 50.367C577.929 51.3375 580.911 53.8727 581.681 55.279C583.912 59.2798 583.912 64.9444 582.313 69.2027C582.214 69.4602 580.555 71.6785 580.476 71.8567C580.081 72.9064 580.832 74.4117 577.731 73.2431C577.415 73.1243 573.189 68.6877 572.893 68.2718C571.393 66.2318 571.452 65.3801 570.978 63.241C570.899 62.8845 570.129 62.9439 570.05 62.5874C569.615 60.7851 570.484 55.3978 571.156 53.536L571.136 53.5558Z" fill="#4E8E41"/>
<path d="M196.754 54.5461C197.978 52.7636 201.098 50.7631 202.362 48.8023C204.692 47.713 205.541 51.6544 206.213 53.2587C206.272 53.4172 206.864 53.3974 206.983 53.7539C207.575 55.5364 208.227 60.3691 207.99 62.2309C207.871 63.1222 207.101 62.8449 207.002 63.241C206.548 65.3801 206.568 66.2318 205.087 68.2718C204.771 68.7075 200.367 73.2827 200.032 73.362C196.813 74.075 197.939 72.9658 197.504 71.8567C197.346 71.4606 196.813 71.4804 196.734 71.3219C194.285 66.3902 193.318 59.5769 196.734 54.5461H196.754Z" fill="#4E8E41"/>
<path d="M124.539 56.2495C125.053 55.7345 129.219 57.8736 130.029 58.3489C130.483 58.6064 130.957 59.6759 131.312 59.8938C131.747 60.1711 132.517 59.8938 132.951 60.1513C133.959 60.7257 136.723 66.4497 136.881 67.8757C137.296 71.6191 137.237 77.2044 134.709 80.0367C133.623 79.9773 132.576 78.6106 131.964 78.2739C130.918 77.6995 128.647 76.9073 127.58 76.016C124.974 73.8572 124.342 70.9258 123.591 67.9945C123.493 67.6182 122.762 67.6776 122.683 67.3409C121.972 64.469 124.401 59.2996 124.559 56.2495H124.539Z" fill="#4E8E41"/>
<path d="M497.756 105.705C499.79 106.022 504.233 109.013 505.556 110.835C507.61 113.667 508.854 117.45 509.367 120.917C507.689 120.481 505.813 121.412 504.371 121.412C503.463 121.412 498.98 121.075 498.309 120.917C497.954 120.837 498.033 120.065 497.657 119.986C496.887 119.807 496.117 120.144 495.248 119.847C494.379 119.55 491.101 114.895 490.549 113.905C490.312 113.469 489.719 113.45 489.482 112.935C489.028 111.964 487.369 105.705 488.732 105.705C491.338 105.705 495.367 105.329 497.736 105.705H497.756Z" fill="#4E8E41"/>
<path d="M504.628 85.721C506.524 85.8795 508.676 85.4833 510.532 85.7408C511.105 85.8201 517.503 88.375 517.819 88.6523C518.056 88.8504 517.819 89.8011 518.392 90.2368C519.715 91.2667 520.623 92.3165 521.433 94.2971C522.657 97.2878 522.933 100.576 523.111 103.784C518.273 104.22 512.665 102.952 509.15 99.4863C505.912 96.2579 504.411 90.2764 504.608 85.721H504.628Z" fill="#4E8E41"/>
<path d="M289.229 105.705C289.604 105.824 289.88 106.399 289.92 106.834C289.959 107.488 288.715 112.4 288.38 113.172C288.301 113.331 287.728 113.39 287.59 113.648C287.056 114.678 283.601 119.51 282.712 119.807C281.824 120.104 281.073 119.788 280.303 119.946C279.948 120.025 280.007 120.798 279.651 120.877C278.98 121.035 274.497 121.392 273.589 121.372C272.148 121.372 270.272 120.441 268.593 120.877C269.106 117.391 270.37 113.628 272.404 110.796C273.55 109.211 278.565 105.666 280.204 105.666C282.159 105.666 287.866 105.27 289.209 105.666L289.229 105.705Z" fill="#4E8E41"/>
<path d="M257.456 92.5937C258.028 91.6034 259.115 90.7716 259.825 89.9595C260.102 89.6426 259.983 88.8504 260.201 88.6721C260.517 88.4146 261.306 88.7315 261.622 88.5533C263.498 87.5234 265.434 86.0379 267.902 85.7012C269.58 85.4833 271.634 85.8993 273.372 85.721C273.866 88.1572 273.036 89.7417 272.523 91.7817C272.148 93.287 271.318 96.555 270.37 97.9414C267.487 102.239 259.845 104.477 254.869 103.804C255.066 99.9418 255.461 96.0004 257.436 92.5937H257.456Z" fill="#4E8E41"/>
<path d="M678.559 103.804C679.329 101.705 678.816 99.6051 679.151 97.5057C679.487 95.4062 680.929 93.7623 681.837 91.9996C681.995 91.7025 681.758 91.0093 681.975 90.6132C682.094 90.3953 685.549 87.9393 685.806 87.7809C686.833 87.1669 690.131 86.7311 690.308 86.5727C690.526 86.3944 690.348 85.7408 690.387 85.7408H697.022C696.785 87.3451 697.358 89.6625 697.022 91.1083C696.943 91.4648 696.193 91.3856 696.094 91.7817C695.897 92.5344 696.193 93.4454 695.857 94.3169C693.705 99.8824 690.743 100.893 685.767 102.992C685.549 103.091 685.688 103.804 685.648 103.804H678.539H678.559Z" fill="#4E8E41"/>
<path d="M217.587 65.9149C217.626 65.796 218.159 65.7762 218.219 65.6178C220.095 60.9435 222.089 59.4977 226.572 57.2002C226.868 57.0615 226.848 56.3683 227.243 56.2693C227.677 56.1702 229.613 56.1702 229.731 56.2693C230.008 56.5466 231.153 63.2212 231.173 64.0927C231.37 70.4505 228.783 74.6692 223.669 78.056L219.344 79.9971C217.35 77.4223 216.58 68.6283 217.587 65.8951V65.9149Z" fill="#4E8E41"/>
<path d="M548.249 56.2891C548.368 56.1702 550.303 56.1702 550.737 56.2891C551.132 56.3683 551.132 57.0615 551.409 57.22C555.891 59.5175 557.866 60.9633 559.762 65.6376C559.821 65.796 560.453 65.796 560.532 66.1327C560.828 67.3409 560.709 74.0156 560.532 75.5209C560.453 76.1745 559.07 79.7792 558.656 80.0565L554.331 78.1155C551.586 76.3329 551.152 75.6397 549.335 73.0649C547.242 70.0544 546.689 68.4104 546.827 64.1521C546.847 63.2807 547.992 56.606 548.269 56.3287L548.249 56.2891Z" fill="#4E8E41"/>
<path d="M80.938 85.7408H87.573C87.573 85.7408 87.3755 86.5925 87.889 86.7113C88.5406 86.8698 89.3897 86.5529 90.1006 86.7113C90.2783 86.751 92.4505 88.4147 92.9047 88.7514C93.5563 89.2069 95.531 90.1378 95.8075 90.4547C95.9655 90.633 97.8612 94.4556 97.9599 94.6932C99.1447 97.882 98.73 100.576 99.4212 103.824C91.7396 104.497 84.7492 101.289 82.0044 93.9604C81.7477 93.2672 82.0044 92.4353 81.8661 91.8213C81.7674 91.4252 81.0368 91.5044 80.938 91.1677C80.5826 89.7219 81.1552 87.3848 80.938 85.8003V85.7408Z" fill="#4E8E41"/>
<path d="M172.09 51.6544C173.018 50.9414 176.276 45.3164 177.58 45.8512C179.258 48.0893 180.779 49.4163 182.003 52.1298C184.451 57.5963 184.135 61.9734 180.857 67.3607C179.89 68.965 178.35 69.8563 177.619 71.4804C176.888 71.718 176.987 71.4606 176.671 71.2031C170.984 66.5486 168.891 58.547 172.11 51.6742L172.09 51.6544Z" fill="#4E8E41"/>
<path d="M594.832 54.4867C594.872 54.3679 595.444 54.3679 595.582 53.9916C596.905 50.3472 597.755 48.4854 600.598 45.7918C600.954 45.7918 603.797 48.5449 604.133 49.0202C606.917 52.922 608.181 58.6856 606.976 63.5381C606.897 63.8748 606.266 63.8748 606.206 64.0333C605.002 67.024 604.153 68.2916 601.665 70.5891C601.151 71.0645 601.447 72.0746 600.341 71.2031C600.124 71.0447 597.636 68.45 597.537 68.2916C595.464 64.9245 593.233 58.3291 594.832 54.5263V54.4867Z" fill="#4E8E41"/>
<path d="M39.4102 146.268C44.8012 140.109 54.2797 148.665 48.5136 154.686C43.1227 160.311 34.3945 152.032 39.4102 146.268Z" fill="#4E8E41"/>
<path d="M727.966 151.933C726.386 144.209 736.595 141.337 739.577 147.893C743.112 155.657 729.684 160.351 727.966 151.933Z" fill="#4E8E41"/>
<path d="M798.087 152.428C795.836 142.545 809.718 141.495 809.876 150.15C810.014 157.994 799.41 158.212 798.087 152.428Z" fill="#4E8E41"/>
<path d="M87.6717 201.864C85.5391 192.595 99.0657 190.753 99.4409 199.587C99.7964 207.529 89.0145 207.767 87.6717 201.864Z" fill="#4E8E41"/>
<path d="M678.658 201.864C676.387 191.961 690.94 190.931 690.427 200.557C690.072 207.39 679.961 207.608 678.658 201.864Z" fill="#4E8E41"/>
<path d="M379.63 38.8002C377.26 23.9852 401.273 24.4408 398.271 39.1766C396.217 49.1985 381.23 48.7627 379.63 38.8002Z" fill="#4E8E41"/>
<path d="M760.667 91.0885C759.739 86.5331 761.536 81.0072 766.591 80.1357C779.841 77.8778 780.927 95.7825 769.671 97.0303C766.275 97.4066 761.378 94.5942 760.667 91.0885Z" fill="#4E8E41"/>
<path d="M0.469314 89.1673C-0.300816 81.2646 9.71088 76.6894 15.319 82.3936C17.9059 85.0278 18.3205 89.9397 16.4051 93.0295C12.041 100.061 1.25919 97.169 0.469314 89.1673Z" fill="#4E8E41"/>
<path d="M801.8 234.842H871.941C872.77 225.751 864.753 216.382 855.946 214.996C844.789 213.233 818.091 220.423 808.296 226.384C805.413 228.147 801.385 231.059 801.8 234.842Z" fill="#4E8E41"/>
<path d="M791.038 203.35C790.188 210.064 792.42 212.263 799.094 211.431C809.659 210.104 838.055 193.962 843.722 184.89C854.484 167.679 837.779 148.526 819.335 157.578C809.225 162.549 792.44 192.298 791.038 203.35Z" fill="#4E8E41"/>
</g>
<g style="mix-blend-mode:multiply" clip-path="url(#clip1_9_235)">
<path d="M1196.86 235C1195.79 232.623 1197.78 229.256 1199.4 227.573C1210.05 216.323 1255.78 204.756 1271.03 206.024C1285.66 207.232 1298.71 219.67 1297.33 235.02H1196.86V235Z" fill="#4E8E41"/>
<path d="M1000.65 235C999.289 219.67 1012.32 207.232 1026.95 206.004C1042.18 204.736 1087.95 216.323 1098.58 227.553C1100.18 229.256 1102.17 232.623 1101.12 234.98H1000.65V235Z" fill="#4E8E41"/>
<path d="M1495.9 235H1425.76C1424.85 226.067 1433.17 216.501 1441.76 215.154C1452.93 213.411 1477.07 220.066 1487.24 225.414C1490.87 227.315 1496.34 230.247 1495.92 235H1495.9Z" fill="#4E8E41"/>
<path d="M1123.4 235C1123.34 216.838 1139.73 205.528 1157.17 210.401C1166.13 212.916 1173.1 221.789 1174.56 230.979C1174.76 232.247 1174.48 233.693 1174.58 235H1123.4Z" fill="#4E8E41"/>
<path d="M1121.64 116.718C1119.01 76.1745 1174.5 73.2431 1176.46 112.578C1177.23 127.888 1166.03 169.125 1156.08 181.008C1151.2 186.812 1147.51 187.346 1142.34 181.504C1131.69 169.501 1122.69 132.761 1121.64 116.698V116.718Z" fill="#4E8E41"/>
<path d="M1043.01 128.681C1052.78 117.965 1069.49 118.183 1080.72 126.403C1092.63 135.137 1109.95 166.629 1114.63 180.81C1117 187.96 1121.09 201.369 1109.38 201.666C1094.31 202.043 1051.48 177.107 1042.46 164.787C1034.75 154.29 1033.94 138.603 1043.01 128.681Z" fill="#4E8E41"/>
<path d="M1205.11 140.109C1210.64 132.345 1217.16 124.363 1226.71 121.61C1251.95 114.361 1270.32 139.515 1257.42 161.915C1249.8 175.166 1216.6 193.546 1202.05 198.596C1195.75 200.795 1181.65 205.152 1180.74 194.794C1179.54 181.068 1196.98 151.497 1205.09 140.089L1205.11 140.109Z" fill="#4E8E41"/>
<path d="M1129.56 29.1547C1127.54 26.9166 1124.6 25.8272 1122.67 23.4703C1114.59 13.5672 1127.84 2.17869 1136.63 11.9629L1140.93 17.7661C1138.92 9.54658 1139.83 -1.62409 1151.1 0.217882C1159.32 1.54489 1158.23 11.8045 1157.07 17.7661L1161.37 11.9629C1168.03 3.70376 1181 10.319 1177.21 20.5984C1175.71 24.6785 1171.3 26.263 1168.46 29.1547C1176.7 26.7581 1187.71 28.1842 1185.96 39.3548C1184.75 47.0396 1173.59 47 1167.99 44.861C1173.12 49.0995 1180.17 52.5061 1177.21 60.5276C1174.96 66.6081 1167.49 67.44 1162.75 63.6372C1160.38 61.7358 1159.32 58.7253 1157.09 56.7248C1158.63 63.0826 1158.9 73.5006 1150.21 74.3127C1139.81 75.2832 1138.96 64.3502 1140.97 56.7248C1138.74 58.7253 1137.68 61.7358 1135.31 63.6372C1127.76 69.6781 1117.61 63.2411 1120.85 53.8926C1122.33 49.654 1127.05 47.8121 1130.07 44.861C1123.75 46.9802 1112.97 47.2575 1112.06 38.4438C1110.98 27.8277 1121.82 26.9562 1129.6 29.1745L1129.56 29.1547Z" fill="#4E8E41"/>
<path d="M1343.77 177.958C1343.5 172.868 1345.85 167.461 1349.7 164.173C1361.19 154.429 1378.49 163.064 1377.88 177.958C1385.8 177.146 1395.18 179.959 1398.26 187.941C1379.77 187.663 1367.67 205.033 1361.05 220.264C1353.49 205.132 1342.43 187.643 1323.38 187.941C1326.59 179.899 1335.76 177.166 1343.75 177.958H1343.77Z" fill="#4E8E41"/>
<path d="M920.084 177.958C919.472 163.044 936.75 154.429 948.263 164.173C952.113 167.441 954.483 172.868 954.187 177.958C962.204 177.206 971.307 179.919 974.565 187.941C959.36 187.465 948.322 199.725 941.312 211.866C940.877 212.639 937.244 220.7 936.651 220.264C930.609 204.954 917.833 187.604 899.685 187.941C902.667 179.939 912.264 177.166 920.064 177.958H920.084Z" fill="#4E8E41"/>
<path d="M1377.54 152.408C1376.16 143.377 1382.99 110.538 1387.14 101.883C1395.29 84.8298 1419.31 94.4159 1411.49 113.945C1408.15 122.263 1390.28 149.715 1383.35 154.646C1379.95 157.063 1378.19 156.686 1377.54 152.389V152.408Z" fill="#4E8E41"/>
<path d="M964.909 149.239C963.369 151.022 957.366 158.172 954.898 155.637C952.429 153.102 954.226 140.644 954.74 136.92C955.845 128.879 960.545 105.072 964.89 99.0902C974.013 86.5925 992.654 94.713 988.645 111.033C986.651 119.213 970.833 142.367 964.89 149.239H964.909Z" fill="#4E8E41"/>
<path d="M1311.25 98.2583C1317.35 89.3654 1330.09 92.6928 1334.47 101.467C1338.86 110.241 1343.68 135.098 1344.25 144.902C1344.5 149.239 1345.37 159.4 1338.6 154.845C1331.83 150.289 1313.26 121.55 1310.13 113.529C1308.07 108.3 1308.01 102.992 1311.27 98.2385L1311.25 98.2583Z" fill="#4E8E41"/>
<path d="M885.132 109.607C882.723 91.9401 904.108 86.5925 911.158 102.517C915.127 111.509 921.703 142.684 920.518 151.992C920.222 154.25 919.669 156.488 917.122 155.973C913.607 155.26 906.853 146.011 904.543 142.921C899.823 136.623 886.099 116.539 885.151 109.607H885.132Z" fill="#4E8E41"/>
<path d="M1347.21 98.6545C1347.31 78.5908 1374.62 79.4821 1374.62 98.3376C1374.62 108.498 1369.03 139.099 1364.05 147.675C1361.29 152.468 1359.59 151.497 1357.26 147.081C1352.66 138.346 1347.15 108.676 1347.21 98.6545Z" fill="#4E8E41"/>
<path d="M1418.38 125.868C1421.24 122.461 1424.16 119.134 1428.63 117.847C1440.34 114.44 1449.6 126.126 1444.03 137.098C1440.16 144.724 1412.65 162.668 1404.2 166.55C1388.3 173.839 1394.64 162.113 1399.14 153.874C1403.98 145.04 1411.9 133.573 1418.38 125.868Z" fill="#4E8E41"/>
<path d="M879.05 125.472C885.902 133.414 901.008 154.231 903.457 163.955C905.372 171.561 899.527 168.907 895.104 167.105C886.435 163.579 861.179 146.843 855.63 139.673C846.052 127.314 858.454 111.905 872.355 119.094C875.337 120.639 876.917 123.016 879.03 125.472H879.05Z" fill="#4E8E41"/>
<path d="M923.539 99.6051C923.204 78.3531 950.533 79.2444 950.849 98.2781C951.007 108.082 945.32 138.069 940.897 146.764C938.31 151.854 936.375 152.29 933.591 147.08C928.772 138.088 923.717 110.063 923.559 99.6249L923.539 99.6051Z" fill="#4E8E41"/>
<path d="M970.873 168.847C969.866 166.827 970.399 164.787 971.051 162.747C973.776 154.27 991.627 127.71 998.262 121.59C1012.58 108.439 1032.11 127.393 1015.6 142.783C1008.73 149.18 982.366 167.778 973.835 168.867C972.867 168.986 971.84 169.026 970.873 168.867V168.847Z" fill="#4E8E41"/>
<path d="M1327.13 168.847C1324.34 170.59 1313.62 164.431 1310.76 162.826C1303.57 158.746 1282.22 144.704 1278.37 138.267C1269.6 123.67 1287.06 109.984 1299.72 121.61C1306.37 127.71 1324.2 154.27 1326.93 162.767C1327.58 164.807 1328.11 166.847 1327.11 168.867L1327.13 168.847Z" fill="#4E8E41"/>
<path d="M1072.21 42.9596C1073.68 44.3856 1074.09 47.0396 1074.98 48.9806C1076.7 52.7834 1079.36 58.3093 1081.97 61.4585C1086.37 66.7468 1096.13 70.5891 1102.55 72.9065C1103.06 73.5799 1097.08 75.4218 1096.54 75.6595C1079.52 83.3047 1080.88 86.9886 1073.18 102.14C1072.94 102.596 1072.91 103.269 1072.23 103.309C1070.32 97.5255 1066.51 87.9591 1062.28 83.582C1058.06 79.2048 1049.35 76.5508 1044.02 73.8572C1043.56 73.6393 1042.89 73.5601 1042.85 72.8867C1050.24 69.995 1059.93 66.4893 1064.55 59.7156C1067.87 54.8631 1070.69 48.5845 1072.23 42.9398L1072.21 42.9596Z" fill="#4E8E41"/>
<path d="M1225.77 42.9595C1227.6 48.9608 1231.3 58.1707 1235.7 62.7063C1240.1 67.2419 1249.36 70.3514 1255.15 73.1441C1249.38 76.1348 1240.71 78.8681 1235.96 83.3641C1231.2 87.8601 1229.06 96.4956 1225.86 102.239C1225.63 102.655 1225.49 103.547 1224.82 102.853C1224.6 102.616 1223.16 97.783 1222.67 96.6936C1217.12 84.5921 1213.56 81.126 1201.44 75.6793C1200.9 75.4416 1194.9 73.5798 1195.43 72.9262C1201.89 70.6089 1211.57 66.8061 1216.01 61.4783C1218.64 58.3291 1221.3 52.8032 1223 49.0004C1223.87 47.0594 1224.3 44.3856 1225.77 42.9793V42.9595Z" fill="#4E8E41"/>
<path d="M894.768 214.818C899.389 211.847 900.495 207.37 902.785 202.676C904.74 206.063 905.925 209.906 908.413 212.956L918.662 218.818C913.113 220.858 908.966 222.898 905.866 228.088C904.642 230.108 904.128 232.683 902.548 234.505C900.278 226.266 895.203 221.096 886.909 218.818L894.768 214.818Z" fill="#4E8E41"/>
<path d="M1389.59 212.956C1392.35 210.183 1393.04 205.687 1395.43 202.676C1396.74 205.727 1398.49 210.876 1400.86 213.174C1403.03 215.273 1408.19 217.392 1411.07 218.383L1403.73 222.166C1399.26 224.622 1397.05 229.91 1395.43 234.525L1389.47 224.087C1386.25 222.067 1383.01 219.947 1379.32 218.838L1389.57 212.976L1389.59 212.956Z" fill="#4E8E41"/>
<path d="M965.857 212.916C968.562 210.48 969.372 205.489 971.742 202.676C973.756 211.252 979.009 215.55 986.907 218.601C984.834 219.987 982.484 220.7 980.312 221.968C975.494 224.78 973.341 229.335 971.742 234.525C969.51 231.494 968.582 227.711 966.094 224.76C963.843 222.086 958.886 220.165 955.648 218.838C958.788 216.541 962.895 215.61 965.877 212.936L965.857 212.916Z" fill="#4E8E41"/>
<path d="M1326.24 202.676C1328.45 205.33 1329.1 209.272 1331.18 212.005C1332 213.114 1334.69 214.798 1335.95 215.511C1336.57 215.867 1342.67 218.402 1342.35 218.838C1338.56 220.363 1333.8 222.185 1331.25 225.533C1329.16 228.266 1328.33 231.89 1326.26 234.525C1324.66 229.335 1322.51 224.78 1317.69 221.968C1315.54 220.72 1313.17 219.987 1311.09 218.601C1318.99 215.55 1324.22 211.252 1326.26 202.676H1326.24Z" fill="#4E8E41"/>
<path d="M1193.24 119.312C1185.05 111.647 1196.8 98.5356 1205.43 106.379C1214.06 114.222 1202.01 127.492 1193.24 119.312Z" fill="#4E8E41"/>
<path d="M1264.33 190.614C1256.2 181.9 1269.55 169.897 1277.23 178.394C1284.91 186.891 1271.99 198.834 1264.33 190.614Z" fill="#4E8E41"/>
<path d="M1089.87 114.381C1088.05 102.794 1105.29 100.576 1107.19 110.796C1109.48 123.174 1091.64 125.69 1089.87 114.381Z" fill="#4E8E41"/>
<path d="M1033.67 190.614C1026.09 198.755 1012.91 187.089 1020.77 178.394C1028.63 169.699 1041.78 181.88 1033.67 190.614Z" fill="#4E8E41"/>
<path d="M998.44 78.2739C998.479 78.1749 999.012 78.1353 999.17 77.7589C999.545 76.8281 999.684 75.3426 1000.34 74.5107C1000.99 73.6789 1002.78 73.0253 1003.59 72.4113C1004.07 72.0548 1004.78 70.8466 1005.05 70.708C1005.86 70.292 1011.99 68.4302 1012.42 68.7075C1013.68 71.0447 1013.64 73.8571 1013.39 76.4319C1012.87 81.5023 1010.15 84.1563 1006.65 87.5036L998.282 90.5141C998.598 89.1475 997.511 88.0581 997.353 86.9292C997.057 84.6317 997.689 80.512 998.44 78.2937V78.2739Z" fill="#4E8E41"/>
<path d="M870.144 71.6785C870.321 71.7775 873.066 73.9166 873.205 74.0552C875.12 76.016 876.937 81.6608 876.996 84.5525C877.035 86.6519 875.989 88.4345 876.009 90.4943C875.1 90.6132 874.587 89.8407 873.777 89.6427C871.862 89.1673 869.749 88.7316 867.873 87.5828C862.324 84.1564 859.638 76.7092 860.863 70.2921C861.514 66.826 868.268 70.5297 870.144 71.6587V71.6785Z" fill="#4E8E41"/>
<path d="M1422.13 78.2739C1422.19 78.056 1424.06 74.9069 1424.36 74.6098C1425.49 73.461 1427.9 72.4905 1428.74 70.6881C1430.92 70.8664 1435.68 67.0834 1436.9 69.579C1437.3 70.3712 1437.31 76.3131 1437.18 77.4618C1437.06 78.3531 1436.29 78.0758 1436.19 78.472C1436.03 79.1652 1436.33 79.9772 1436.19 80.6704C1436.11 80.9873 1435.48 80.9873 1435.42 81.1458C1433.66 85.5824 1431.45 86.9886 1427.11 88.6523C1426.71 88.8108 1426.75 89.4446 1426.39 89.5436C1425.01 89.9199 1423.37 89.7021 1422.01 90.5141C1420.96 86.3746 1420.89 82.4332 1422.17 78.2937L1422.13 78.2739Z" fill="#4E8E41"/>
<path d="M1285.54 68.6877C1285.95 68.4303 1291.84 70.193 1292.67 70.5891C1293.24 70.8664 1293.79 71.9756 1294.39 72.4113C1295.22 73.0451 1297.15 73.8968 1297.64 74.5107C1298.26 75.2436 1298.45 76.8875 1298.81 77.759C1299.99 80.7893 1301.12 83.0868 1300.63 86.9094C1300.47 88.0384 1299.4 89.1277 1299.7 90.4943L1291.33 87.4838C1290.54 85.8201 1287.69 84.4138 1286.88 83.1462C1285.2 80.4922 1284.1 74.6098 1284.57 71.2625C1284.69 70.3515 1285.3 69.5592 1285.56 68.6877H1285.54Z" fill="#4E8E41"/>
<path d="M1378.53 58.3093C1378.63 58.032 1380.11 55.1403 1380.46 54.566C1380.74 54.1104 1385.89 48.7826 1386.29 48.6835C1388.78 48.0695 1389.17 51.6148 1389.78 53.0409C1390.48 54.665 1391.42 55.4968 1391.66 57.9132C1391.94 60.8445 1391.05 65.2217 1389.59 67.539C1389.37 67.8955 1384.12 73.3026 1383.72 73.3818C1383.11 73.5006 1382.18 73.5204 1381.67 73.1639C1381.37 72.9659 1378.75 67.3211 1378.61 66.7467C1378.25 65.3801 1378.11 59.4977 1378.55 58.3093H1378.53Z" fill="#4E8E41"/>
<path d="M823.877 105.705H834.066C835.606 105.705 840.583 109.112 841.688 110.637C843.742 113.469 845.124 117.312 845.677 120.917C842.083 121.016 838.193 121.689 834.639 120.917C834.402 120.857 831.124 119.035 830.531 118.659C826.937 116.361 824.449 109.825 823.877 105.705Z" fill="#4E8E41"/>
<path d="M1402.22 64.0135C1402.32 63.8155 1404.67 60.9238 1404.87 60.7257C1405.4 60.2305 1406.19 60.2107 1406.61 59.8542C1408.54 58.2103 1410.5 56.1307 1413.42 56.2495C1413.58 59.2996 1416.01 64.4691 1415.3 67.3409C1415.22 67.6975 1414.49 67.6182 1414.39 67.9946C1413.7 70.6882 1413.6 72.2727 1411.68 74.6692C1409.77 77.0658 1405.66 78.5512 1403.29 80.0367C1400.33 76.8875 1400.37 67.6578 1402.22 64.0135Z" fill="#4E8E41"/>
<path d="M906.498 56.3881C906.814 55.7147 907.92 53.7737 908.196 53.0409C908.788 51.5158 909.42 47.4951 912.047 49.0004C912.6 49.3173 917.26 54.1302 917.675 54.764C920.617 59.4977 920.242 66.311 917.576 71.3219C917.062 72.2726 915.325 73.7383 914.041 73.2431C913.725 73.1243 909.499 68.6481 909.223 68.252C907.307 65.5583 905.076 59.4779 906.498 56.3881Z" fill="#4E8E41"/>
<path d="M1331.14 53.5558C1331.18 53.437 1331.69 53.4172 1331.77 53.2587C1332.18 52.2486 1333.21 48.9212 1334.18 48.6835C1335.78 48.2874 1335.89 49.4956 1336.86 50.367C1337.93 51.3375 1340.91 53.8727 1341.68 55.279C1343.91 59.2798 1343.91 64.9444 1342.31 69.2027C1342.21 69.4602 1340.56 71.6785 1340.48 71.8567C1340.08 72.9064 1340.83 74.4117 1337.73 73.2431C1337.42 73.1243 1333.19 68.6877 1332.89 68.2718C1331.39 66.2318 1331.45 65.3801 1330.98 63.241C1330.9 62.8845 1330.13 62.9439 1330.05 62.5874C1329.62 60.7851 1330.48 55.3978 1331.16 53.536L1331.14 53.5558Z" fill="#4E8E41"/>
<path d="M956.754 54.5461C957.978 52.7636 961.098 50.7631 962.362 48.8023C964.692 47.713 965.541 51.6544 966.213 53.2587C966.272 53.4172 966.864 53.3974 966.983 53.7539C967.575 55.5364 968.227 60.3691 967.99 62.2309C967.871 63.1222 967.101 62.8449 967.002 63.241C966.548 65.3801 966.568 66.2318 965.087 68.2718C964.771 68.7075 960.367 73.2827 960.032 73.362C956.813 74.075 957.939 72.9658 957.504 71.8567C957.346 71.4606 956.813 71.4804 956.734 71.3219C954.285 66.3902 953.318 59.5769 956.734 54.5461H956.754Z" fill="#4E8E41"/>
<path d="M884.539 56.2495C885.053 55.7345 889.219 57.8736 890.029 58.3489C890.483 58.6064 890.957 59.6759 891.312 59.8938C891.747 60.1711 892.517 59.8938 892.951 60.1513C893.959 60.7257 896.723 66.4497 896.881 67.8757C897.296 71.6191 897.237 77.2044 894.709 80.0367C893.623 79.9773 892.576 78.6106 891.964 78.2739C890.918 77.6995 888.647 76.9073 887.58 76.016C884.974 73.8572 884.342 70.9258 883.591 67.9945C883.493 67.6182 882.762 67.6776 882.683 67.3409C881.972 64.469 884.401 59.2996 884.559 56.2495H884.539Z" fill="#4E8E41"/>
<path d="M1257.76 105.705C1259.79 106.022 1264.23 109.013 1265.56 110.835C1267.61 113.667 1268.85 117.45 1269.37 120.917C1267.69 120.481 1265.81 121.412 1264.37 121.412C1263.46 121.412 1258.98 121.075 1258.31 120.917C1257.95 120.837 1258.03 120.065 1257.66 119.986C1256.89 119.807 1256.12 120.144 1255.25 119.847C1254.38 119.55 1251.1 114.895 1250.55 113.905C1250.31 113.469 1249.72 113.45 1249.48 112.935C1249.03 111.964 1247.37 105.705 1248.73 105.705C1251.34 105.705 1255.37 105.329 1257.74 105.705H1257.76Z" fill="#4E8E41"/>
<path d="M1264.63 85.721C1266.52 85.8795 1268.68 85.4833 1270.53 85.7408C1271.11 85.8201 1277.5 88.375 1277.82 88.6523C1278.06 88.8504 1277.82 89.8011 1278.39 90.2368C1279.71 91.2667 1280.62 92.3165 1281.43 94.2971C1282.66 97.2878 1282.93 100.576 1283.11 103.784C1278.27 104.22 1272.67 102.952 1269.15 99.4863C1265.91 96.2579 1264.41 90.2764 1264.61 85.721H1264.63Z" fill="#4E8E41"/>
<path d="M1049.23 105.705C1049.6 105.824 1049.88 106.399 1049.92 106.834C1049.96 107.488 1048.72 112.4 1048.38 113.172C1048.3 113.331 1047.73 113.39 1047.59 113.648C1047.06 114.678 1043.6 119.51 1042.71 119.807C1041.82 120.104 1041.07 119.788 1040.3 119.946C1039.95 120.025 1040.01 120.798 1039.65 120.877C1038.98 121.035 1034.5 121.392 1033.59 121.372C1032.15 121.372 1030.27 120.441 1028.59 120.877C1029.11 117.391 1030.37 113.628 1032.4 110.796C1033.55 109.211 1038.57 105.666 1040.2 105.666C1042.16 105.666 1047.87 105.27 1049.21 105.666L1049.23 105.705Z" fill="#4E8E41"/>
<path d="M1017.46 92.5937C1018.03 91.6034 1019.11 90.7716 1019.83 89.9595C1020.1 89.6426 1019.98 88.8504 1020.2 88.6721C1020.52 88.4146 1021.31 88.7315 1021.62 88.5533C1023.5 87.5234 1025.43 86.0379 1027.9 85.7012C1029.58 85.4833 1031.63 85.8993 1033.37 85.721C1033.87 88.1572 1033.04 89.7417 1032.52 91.7817C1032.15 93.287 1031.32 96.555 1030.37 97.9414C1027.49 102.239 1019.85 104.477 1014.87 103.804C1015.07 99.9418 1015.46 96.0004 1017.44 92.5937H1017.46Z" fill="#4E8E41"/>
<path d="M1438.56 103.804C1439.33 101.705 1438.82 99.6051 1439.15 97.5057C1439.49 95.4062 1440.93 93.7623 1441.84 91.9996C1442 91.7025 1441.76 91.0093 1441.98 90.6132C1442.09 90.3953 1445.55 87.9393 1445.81 87.7809C1446.83 87.1669 1450.13 86.7311 1450.31 86.5727C1450.53 86.3944 1450.35 85.7408 1450.39 85.7408H1457.02C1456.79 87.3451 1457.36 89.6625 1457.02 91.1083C1456.94 91.4648 1456.19 91.3856 1456.09 91.7817C1455.9 92.5344 1456.19 93.4454 1455.86 94.3169C1453.7 99.8824 1450.74 100.893 1445.77 102.992C1445.55 103.091 1445.69 103.804 1445.65 103.804H1438.54H1438.56Z" fill="#4E8E41"/>
<path d="M977.587 65.9149C977.626 65.796 978.159 65.7762 978.219 65.6178C980.095 60.9435 982.089 59.4977 986.572 57.2002C986.868 57.0615 986.848 56.3683 987.243 56.2693C987.677 56.1702 989.613 56.1702 989.731 56.2693C990.008 56.5466 991.153 63.2212 991.173 64.0927C991.37 70.4505 988.783 74.6692 983.669 78.056L979.344 79.9971C977.35 77.4223 976.58 68.6283 977.587 65.8951V65.9149Z" fill="#4E8E41"/>
<path d="M1308.25 56.2891C1308.37 56.1702 1310.3 56.1702 1310.74 56.2891C1311.13 56.3683 1311.13 57.0615 1311.41 57.22C1315.89 59.5175 1317.87 60.9633 1319.76 65.6376C1319.82 65.796 1320.45 65.796 1320.53 66.1327C1320.83 67.3409 1320.71 74.0156 1320.53 75.5209C1320.45 76.1745 1319.07 79.7792 1318.66 80.0565L1314.33 78.1155C1311.59 76.3329 1311.15 75.6397 1309.34 73.0649C1307.24 70.0544 1306.69 68.4104 1306.83 64.1521C1306.85 63.2807 1307.99 56.606 1308.27 56.3287L1308.25 56.2891Z" fill="#4E8E41"/>
<path d="M840.938 85.7408H847.573C847.573 85.7408 847.376 86.5925 847.889 86.7113C848.541 86.8698 849.39 86.5529 850.101 86.7113C850.278 86.751 852.45 88.4147 852.905 88.7514C853.556 89.2069 855.531 90.1378 855.807 90.4547C855.965 90.633 857.861 94.4556 857.96 94.6932C859.145 97.882 858.73 100.576 859.421 103.824C851.74 104.497 844.749 101.289 842.004 93.9604C841.748 93.2672 842.004 92.4353 841.866 91.8213C841.767 91.4252 841.037 91.5044 840.938 91.1677C840.583 89.7219 841.155 87.3848 840.938 85.8003V85.7408Z" fill="#4E8E41"/>
<path d="M932.09 51.6544C933.018 50.9414 936.276 45.3164 937.579 45.8512C939.258 48.0893 940.778 49.4163 942.003 52.1298C944.451 57.5963 944.135 61.9734 940.857 67.3607C939.89 68.965 938.35 69.8563 937.619 71.4804C936.888 71.718 936.987 71.4606 936.671 71.2031C930.984 66.5486 928.891 58.547 932.11 51.6742L932.09 51.6544Z" fill="#4E8E41"/>
<path d="M1354.83 54.4867C1354.87 54.3679 1355.44 54.3679 1355.58 53.9916C1356.91 50.3472 1357.75 48.4854 1360.6 45.7918C1360.95 45.7918 1363.8 48.5449 1364.13 49.0202C1366.92 52.922 1368.18 58.6856 1366.98 63.5381C1366.9 63.8748 1366.27 63.8748 1366.21 64.0333C1365 67.024 1364.15 68.2916 1361.66 70.5891C1361.15 71.0645 1361.45 72.0746 1360.34 71.2031C1360.12 71.0447 1357.64 68.45 1357.54 68.2916C1355.46 64.9245 1353.23 58.3291 1354.83 54.5263V54.4867Z" fill="#4E8E41"/>
<path d="M847.672 201.864C845.539 192.595 859.066 190.753 859.441 199.587C859.796 207.529 849.015 207.767 847.672 201.864Z" fill="#4E8E41"/>
<path d="M1438.66 201.864C1436.39 191.961 1450.94 190.931 1450.43 200.557C1450.07 207.39 1439.96 207.608 1438.66 201.864Z" fill="#4E8E41"/>
<path d="M1139.63 38.8002C1137.26 23.9852 1161.27 24.4408 1158.27 39.1766C1156.22 49.1985 1141.23 48.7627 1139.63 38.8002Z" fill="#4E8E41"/>
</g>
</g>
<defs>
<clipPath id="clip0_9_235">
<rect width="966" height="235" fill="white" transform="translate(-94)"/>
</clipPath>
<clipPath id="clip1_9_235">
<rect width="966" height="235" fill="white" transform="translate(666)"/>
</clipPath>
</defs>
</svg>
