<?xml version="1.0" encoding="UTF-8" standalone="no"?>
<!DOCTYPE svg PUBLIC "-//W3C//DTD SVG 1.1//EN" "http://www.w3.org/Graphics/SVG/1.1/DTD/svg11.dtd">
<svg width="100%" height="100%" viewBox="0 0 3300 600" version="1.1" xmlns="http://www.w3.org/2000/svg" xmlns:xlink="http://www.w3.org/1999/xlink" xml:space="preserve" xmlns:serif="http://www.serif.com/" style="fill-rule:evenodd;clip-rule:evenodd;stroke-linejoin:round;stroke-miterlimit:2;">
    <g id="Layer-1" serif:id="Layer 1" transform="matrix(4.16667,0,0,4.16667,0,0)">
        <g transform="matrix(1,0,0,1,639.791,113.306)">
            <path d="M0,-64.607C7.344,-64.603 11.034,-60.507 10.71,-53.393C10.485,-48.461 9.855,-43.667 11.567,-38.516C13.096,-33.92 11.834,-28.443 12.116,-23.372C12.297,-20.118 12.983,-16.886 13.554,-13.663C14.285,-9.529 14.468,-5.581 10.897,-2.474C9.231,-1.025 -0.096,0.003 -1.424,-1.485C-4.112,-4.496 -5.754,-7.83 -3.66,-12.06C1.836,-23.161 -0.612,-34.854 -1.467,-46.388C-1.539,-47.358 -2.879,-48.672 -3.916,-49.056C-8.267,-50.665 -10.797,-53.194 -9.61,-58.166C-8.743,-61.8 -4.563,-64.61 0,-64.607" style="fill:white;fill-rule:nonzero;"/>
        </g>
        <g transform="matrix(1,0,0,1,605.769,22.4455)">
            <path d="M0,101.871C-2.036,101.226 -4.167,100.786 -6.088,99.895C-10.364,97.911 -15.346,96.502 -18.492,93.329C-21.016,90.783 -21.734,86.069 -22.424,82.17C-24.004,73.248 -23.97,64.29 -21.201,55.515C-21.156,55.373 -21.021,55.242 -21.02,55.106C-21.011,49.862 -21.012,44.617 -21.012,38.53C-23.225,39.375 -25.174,39.697 -26.587,40.742C-30.119,43.356 -33.486,42.125 -36.001,39.849C-38.862,37.26 -40.067,33.349 -38.506,29.542C-37.416,26.881 -35.06,25.625 -31.855,26.53C-29.214,27.276 -26.473,27.748 -23.743,28.041C-22.973,28.124 -21.343,27.099 -21.373,26.67C-21.665,22.437 -21.643,18.041 -22.886,14.058C-23.946,10.665 -25.634,7.601 -23.06,4.442C-20.878,1.765 -18.156,0 -14.389,1.425C-10.251,2.991 -6.45,5.138 -6.493,10.099C-6.532,14.71 -7.314,19.332 -7.995,23.915C-8.521,27.461 -7.347,28.861 -3.669,28.712C0.968,28.523 5.632,28.609 10.269,28.866C14.422,29.097 16.001,31.3 15.926,35.753C15.861,39.651 13.543,41.157 10.119,40.964C6.9,40.782 3.706,40.075 0.514,39.527C-1.023,39.264 -2.532,38.838 -3.692,38.569C-8.714,52.756 -9.774,66.993 -9.984,81.345C-10.064,86.757 -7.182,90.84 -1.906,91.383C1.719,91.756 5.627,91.283 9.108,90.215C10.513,89.783 11.838,86.786 11.916,84.903C12.027,82.243 10.947,79.534 10.376,76.846C9.104,77.46 6.75,78.062 6.742,78.692C6.7,82.186 5.232,85.278 1.988,84.968C-0.242,84.756 -2.827,81.903 -4.096,79.596C-5.741,76.608 -5.319,73.276 -2.27,70.731C3.643,65.798 10.886,65.284 17.412,69.684C18.415,70.359 19.257,71.617 19.656,72.782C21.926,79.4 21.529,86.195 18.932,92.438C17.705,95.387 14.254,97.491 11.604,99.735C10.404,100.752 8.701,101.177 7.225,101.871L0,101.871Z" style="fill:white;fill-rule:nonzero;"/>
        </g>
        <g transform="matrix(1,0,0,1,583.19,119.757)">
            <path d="M0,4.56C0.215,3.047 0.33,0.25 0.661,0.224C3.548,0 5.554,1.237 5.419,4.56L0,4.56Z" style="fill:white;fill-rule:nonzero;"/>
        </g>
        <g transform="matrix(1,0,0,1,411.969,122.59)">
            <path d="M0,-100.397C7.192,-100.42 13.411,-99.86 17.917,-93.482C19.606,-91.092 23.329,-90.178 26.036,-88.452C28.09,-87.142 31.6,-87.448 31.424,-83.55C31.222,-79.107 30.883,-74.612 26.706,-72.02C22.205,-69.226 17.07,-69.61 12.464,-71.448C10.68,-72.159 8.811,-75.271 8.803,-77.297C8.78,-82.766 3.71,-83.945 1.353,-87.334C1.172,-87.593 0.192,-87.458 -0.344,-87.285C-7.616,-84.935 -13.515,-81.049 -16.43,-73.521C-19.378,-65.908 -20.952,-58.589 -16.892,-50.612C-15.192,-47.272 -15.714,-42.8 -15.253,-38.84C-15.17,-38.124 -15.511,-37.171 -15.158,-36.702C-10.875,-31.013 -9.85,-24.075 -7.593,-17.605C-7.198,-16.474 -6.28,-15.175 -5.251,-14.67C1.006,-11.595 7.529,-14.544 9.97,-21.106C11.742,-25.87 13.666,-30.607 15.951,-35.142C17.762,-38.735 20.931,-40.435 24.957,-38.605C26.19,-38.045 27.426,-36.779 27.962,-35.536C29.493,-31.985 25.092,-23.453 21.554,-21.78C19.958,-21.026 18.153,-19.373 17.693,-17.77C12.983,-1.347 -1.869,0.023 -13.222,-4.234C-17.808,-5.955 -21.794,-9.971 -23.017,-15.766C-23.998,-20.408 -25.517,-25.027 -27.466,-29.356C-33.53,-42.821 -29.582,-56.29 -28.012,-69.79C-27.239,-76.44 -24.744,-82.369 -21.25,-88.024C-16.236,-96.14 -8.728,-99.606 0,-100.397" style="fill:white;fill-rule:nonzero;"/>
        </g>
        <g transform="matrix(1,0,0,1,464.056,61.2312)">
            <path d="M0,34.493C0.384,41.276 3.877,43.943 10.18,41.829C12.847,40.935 15.427,39.725 17.945,38.459C21.215,36.814 21.47,33.6 20.798,30.712C20.208,28.18 18.462,23.854 17.298,23.877C12.555,23.972 7.531,24.758 3.254,26.701C1.375,27.555 1.038,31.792 0,34.493M23.328,47.785C15.165,53.494 6.366,53.724 -2.64,52.06C-8.017,51.066 -9.352,45.793 -10.32,41.945C-13.795,28.119 -8.37,13.784 10.132,13.64C12.712,13.62 15.306,14.875 17.887,15.564C21.857,16.623 23.838,15.29 23.34,11.264C22.611,5.376 21.998,-0.647 20.198,-6.248C18.379,-11.91 15.814,-12.772 9.806,-12.65C4.153,-12.536 -0.481,-10.412 -3.623,-5.802C-4.493,-4.525 -4.24,-2.246 -3.932,-0.529C-3.811,0.139 -2.076,0.984 -1.15,0.903C-0.335,0.832 0.912,-0.333 1.044,-1.162C1.731,-5.47 4.635,-7.642 8.436,-7.755C12.124,-7.864 15.311,-6.2 16.085,-1.774C16.743,1.995 14.848,6.513 11.368,8.524C3.809,12.89 -5.581,11.505 -11.484,5.153C-16.477,-0.22 -14.718,-11.601 -7.827,-15.303C-0.112,-19.447 8.434,-20.493 17.05,-19.263C22.698,-18.457 26.707,-15.666 29.671,-9.974C34.606,-0.493 36.095,9.199 35.312,19.531C34.917,24.753 34.31,29.959 33.962,35.184C33.763,38.161 33.728,40.713 37.654,42.222C40.444,43.294 41.341,46.766 39.662,50.017C38.025,53.188 34.192,54.986 30.924,53.355C28.195,51.994 25.916,49.731 23.328,47.785" style="fill:white;fill-rule:nonzero;"/>
        </g>
        <g transform="matrix(1,0,0,1,754.767,73.6216)">
            <path d="M0,10.331C-2.64,11.25 -5.301,12.116 -7.917,13.1C-13.034,15.025 -15.187,25.03 -11.117,28.791C-9.986,29.836 -7.701,30.606 -6.31,30.213C-2.611,29.17 1.097,27.782 4.416,25.864C8.399,23.562 7.584,19.574 6.788,15.835C6.024,12.247 4.083,10.241 0,10.331M11.027,34.196C1.976,41.149 -6.608,41.06 -15.313,39.949C-21.189,39.199 -22.894,33.945 -24.039,29.676C-27.706,16.003 -21.966,1.56 -4.156,1.299C-1.29,1.257 1.656,2.414 4.456,3.344C7.516,4.362 9.859,3.086 9.619,0.388C9.043,-6.084 7.962,-12.57 6.384,-18.876C5.171,-23.725 1.339,-25.362 -3.714,-25.094C-9.517,-24.786 -14.307,-22.85 -17.509,-18.003C-18.296,-16.81 -18.217,-14.677 -17.785,-13.195C-17.54,-12.356 -15.258,-11.205 -14.782,-11.522C-13.691,-12.251 -12.897,-13.704 -12.421,-15.021C-10.977,-19.024 -6.42,-20.973 -1.676,-19.434C1.297,-18.469 3.571,-12.86 2.33,-9.551C-0.117,-3.024 -11.369,1.051 -17.448,-2.354C-18.487,-2.936 -19.701,-3.217 -20.715,-3.832C-24.703,-6.251 -27.94,-9.165 -27.95,-14.388C-27.96,-20.005 -26.251,-25.05 -21.312,-27.79C-13.913,-31.897 -5.599,-32.464 2.717,-31.916C10.891,-31.378 14.62,-25.612 17.685,-18.956C22.396,-8.724 22.378,1.906 20.981,12.739C20.541,16.153 20.253,19.595 20.09,23.033C19.955,25.89 19.959,28.442 23.768,29.642C26.729,30.574 27.421,35.591 25.61,38.269C23.097,41.985 18.019,42.795 14.57,39.636C12.961,38.162 12.091,35.885 11.027,34.196" style="fill:white;fill-rule:nonzero;"/>
        </g>
        <g transform="matrix(1,0,0,1,677.721,97.1445)">
            <path d="M0,-40.097C5.068,-48.587 13.319,-50.035 21.85,-49.99C25.589,-49.97 29.448,-48.564 32.991,-47.139C34.418,-46.565 35.379,-44.364 36.153,-42.717C41.038,-32.316 36.09,-21.953 35.786,-11.571C35.719,-9.299 34.294,-7.075 33.538,-4.814C32.575,-1.931 33.783,0.412 36.562,0.472C41.78,0.584 41.82,4.147 42.276,7.626C42.974,12.948 37.757,17.763 32.54,16.434C21.943,13.733 20.031,8.943 21.628,-0.049C22.415,-4.481 21.599,-9.179 22.189,-13.668C22.627,-17.001 24.429,-20.132 25.141,-23.456C26.191,-28.357 20.081,-36.429 14.596,-37.82C10.975,-38.737 6.914,-35.874 4.883,-30.198C1.757,-21.459 1.948,-12.326 4.251,-3.58C5.482,1.096 4.798,4.333 1.564,7.236C-1.075,9.604 -4.174,11.272 -7.823,9.124C-11.832,6.764 -14.294,3.047 -13.082,-1.383C-11.084,-8.689 -11.799,-15.864 -12.171,-23.19C-12.402,-27.753 -11.138,-32.375 -11.133,-36.972C-11.129,-39.784 -11.92,-42.718 -12.937,-45.375C-13.955,-48.032 -16.15,-50.76 -13.53,-53.158C-10.977,-55.493 -7.956,-57.86 -3.88,-55.454C-0.516,-53.469 0.136,-50.685 -0.428,-47.148C-0.767,-45.019 -0.768,-42.835 -0.921,-40.675C-0.614,-40.483 -0.307,-40.29 0,-40.097" style="fill:white;fill-rule:nonzero;"/>
        </g>
        <g transform="matrix(1,0,0,1,524.697,98.2878)">
            <path d="M0,-42.028C9.433,-51.666 19.823,-52.896 31.314,-49.677C34.891,-48.675 36.401,-46.21 37.711,-42.562C40.741,-34.133 38.632,-26.112 37.306,-17.966C36.667,-14.034 35.741,-10.122 34.593,-6.306C33.634,-3.119 34.71,-0.776 37.684,-0.669C43.348,-0.464 43.087,3.368 43.255,7.057C43.514,12.759 38.895,16.757 33.462,15.243C22.489,12.186 21.477,8.056 22.617,-0.946C23.243,-5.898 22.848,-10.98 23.491,-15.928C23.923,-19.254 25.687,-22.392 26.275,-25.717C27.018,-29.918 20.116,-38.063 15.429,-39.017C11.898,-39.736 8.022,-36.784 6.022,-31.514C2.646,-22.619 3.222,-13.41 5.385,-4.515C6.477,-0.021 5.826,3.137 2.78,5.99C0.306,8.305 -2.602,9.894 -6.206,8.268C-9.966,6.572 -13.197,2.093 -12.051,-1.943C-9.511,-10.891 -11.11,-19.738 -11.37,-28.657C-11.464,-31.882 -10.023,-35.147 -10.08,-38.381C-10.13,-41.206 -11.44,-43.987 -11.929,-46.834C-12.349,-49.282 -13.494,-52.658 -12.366,-54.086C-10.405,-56.568 -7.339,-58.785 -3.294,-56.895C0.159,-55.281 0.995,-52.531 0.862,-49.238C0.764,-46.827 0.3,-44.431 0,-42.028" style="fill:white;fill-rule:nonzero;"/>
        </g>
        <g transform="matrix(1,0,0,1,637.079,27.8383)">
            <path d="M0,16.152C-4.528,16.136 -7.105,13.145 -6.55,8.929C-6.023,4.927 -3.226,2.324 0.651,1.15C4.446,0 7.072,1.995 8.92,4.939C11.141,8.477 9.93,11.691 5.941,13.557C3.661,14.622 1.328,15.575 0,16.152" style="fill:white;fill-rule:nonzero;"/>
        </g>
        <g transform="matrix(0.0445092,-0.999009,-0.999009,-0.0445092,502.242,45.4053)">
            <path d="M-4.338,-4.631C-6.128,-2.306 -8.111,-0.757 -7.854,0.158C-7.384,1.824 -5.583,3.112 -4.338,4.558C-3.22,3.468 -1.143,2.322 -1.201,1.3C-1.295,-0.348 -2.798,-1.915 -4.338,-4.631" style="fill:white;fill-rule:nonzero;"/>
        </g>
        <g transform="matrix(0.118081,-0.993004,-0.993004,-0.118081,779.956,45.5078)">
            <path d="M-4.319,-4.17C-6.095,-1.926 -8.086,-0.388 -7.828,0.47C-7.322,2.15 -5.561,3.45 -4.319,4.908C-3.173,3.771 -1.114,2.639 -1.107,1.494C-1.097,-0.006 -2.707,-1.514 -4.319,-4.17" style="fill:white;fill-rule:nonzero;"/>
        </g>
        <g transform="matrix(1,0,0,1,405.151,38.9242)">
            <path d="M0,4.843C1.104,1.041 2.645,-1.206 5.956,-0.99C6.579,-0.95 7.782,1.451 7.487,2.366C6.297,6.049 3.324,5.065 0,4.843" style="fill:white;fill-rule:nonzero;"/>
        </g>
        <g transform="matrix(1,0,0,1,603.977,64.9073)">
            <path d="M0,9.105C-1.506,2.051 0.289,0 6.616,1.499C4.34,4.115 2.461,6.276 0,9.105" style="fill:white;fill-rule:nonzero;"/>
        </g>
        <g transform="matrix(-0.986282,-0.165071,-0.165071,0.986282,431.374,115.268)">
            <path d="M-0.814,-6.417C-2.357,-5.059 -3.325,-4.207 -4.292,-3.356C-3.153,-2.23 -2.181,-0.635 -0.814,-0.147C0.068,0.168 1.531,-1.141 2.732,-1.724C1.685,-3.109 0.639,-4.493 -0.814,-6.417" style="fill:white;fill-rule:nonzero;"/>
        </g>
        <g transform="matrix(-0.996475,-0.083885,-0.083885,0.996475,685.38,41.261)">
            <path d="M0.301,-6.726C-1.298,-4.871 -3.051,-3.522 -2.826,-2.953C-2.348,-1.741 -0.97,-0.567 0.301,-0.122C0.893,0.086 2.929,-1.549 2.848,-2.153C2.673,-3.455 1.552,-4.632 0.301,-6.726" style="fill:white;fill-rule:nonzero;"/>
        </g>
        <g transform="matrix(0.99845,0.05566,0.05566,-0.99845,533.341,42.4348)">
            <path d="M0.183,0.007C-1.25,1.614 -2.973,2.868 -2.769,3.46C-2.343,4.696 -1.041,6.055 0.183,6.421C0.831,6.615 2.742,4.905 2.852,3.917C2.959,2.954 1.499,1.816 0.183,0.007" style="fill:white;fill-rule:nonzero;"/>
        </g>
        <g transform="matrix(0.123979,-0.992285,-0.992285,-0.123979,731.235,71.8495)">
            <path d="M-3.437,-2.978C-4.773,-1.272 -6.269,-0.136 -6.091,0.581C-5.784,1.812 -4.598,3.11 -3.437,3.701C-2.957,3.945 -0.689,2.238 -0.793,1.752C-1.093,0.347 -2.183,-0.887 -3.437,-2.978" style="fill:white;fill-rule:nonzero;"/>
        </g>
        <g transform="matrix(0.233627,-0.972326,-0.972326,-0.233627,634.897,67.3643)">
            <path d="M-3.117,-2.89C-4.786,-1.375 -6.483,-0.107 -6.362,0.101C-5.522,1.546 -4.398,2.885 -3.117,3.959C-2.903,4.138 -0.66,2.672 -0.749,2.292C-1.103,0.776 -2.006,-0.611 -3.117,-2.89" style="fill:white;fill-rule:nonzero;"/>
        </g>
        <g transform="matrix(-0.999999,-0.00104462,-0.00104462,0.999999,718.122,95.0048)">
            <path d="M-0.335,-6.863C-1.544,-4.848 -2.752,-3.684 -2.784,-2.487C-2.806,-1.676 -0.97,-0.001 -0.335,-0.162C0.792,-0.449 2.354,-1.799 2.407,-2.776C2.465,-3.838 1.012,-4.984 -0.335,-6.863" style="fill:white;fill-rule:nonzero;"/>
        </g>
        <g transform="matrix(-0.147273,-0.989096,-0.989096,0.147273,649.751,23.9052)">
            <path d="M-3.543,-3.93C-4.771,-1.71 -5.846,-0.487 -6.01,0.849C-6.088,1.48 -4.42,2.328 -3.543,3.078C-2.593,1.911 -1.343,0.858 -0.841,-0.478C-0.642,-1.007 -2.107,-2.164 -3.543,-3.93" style="fill:white;fill-rule:nonzero;"/>
        </g>
        <g transform="matrix(1,0,0,1,569.421,91.203)">
            <path d="M0,1.951C-1.024,2.562 -2.228,3.838 -3.027,3.621C-4.127,3.323 -4.92,1.897 -5.845,0.954C-4.846,0.002 -3.925,-1.6 -2.826,-1.733C-1.549,-1.887 -0.116,-0.753 1.25,-0.179C0.833,0.531 0.417,1.241 0,1.951" style="fill:white;fill-rule:nonzero;"/>
        </g>
        <g transform="matrix(-0.104849,-0.994488,-0.994488,0.104849,781.233,94.6713)">
            <path d="M-3.439,-3.718C-4.632,-1.582 -5.669,-0.354 -5.905,1.012C-5.994,1.533 -3.769,3.14 -3.439,2.929C-2.318,2.215 -1.184,1.018 -0.839,-0.214C-0.656,-0.869 -2.087,-1.978 -3.439,-3.718" style="fill:white;fill-rule:nonzero;"/>
        </g>
        <g transform="matrix(-0.999373,0.0354021,0.0354021,0.999373,452.95,78.039)">
            <path d="M0.067,-6.995C-1.201,-4.88 -2.34,-3.65 -2.572,-2.269C-2.668,-1.7 -0.354,0.018 0.067,-0.216C1.231,-0.863 2.403,-2.156 2.72,-3.408C2.901,-4.123 1.416,-5.258 0.067,-6.995" style="fill:white;fill-rule:nonzero;"/>
        </g>
        <g transform="matrix(1,0,0,1,505.722,100.778)">
            <path d="M0,-6.947C0.46,-5.734 1.537,-4.323 1.227,-3.355C0.812,-2.058 -0.677,-1.102 -1.704,0C-2.458,-0.827 -3.803,-1.643 -3.817,-2.482C-3.836,-3.58 -2.803,-4.695 -2.222,-5.803C-1.482,-6.184 -0.741,-6.566 0,-6.947" style="fill:white;fill-rule:nonzero;"/>
        </g>
        <g transform="matrix(0.984184,0.17715,0.17715,-0.984184,686.794,70.7919)">
            <path d="M0.621,-0.018C-0.801,1.539 -2.268,2.631 -2.096,3.051C-1.497,4.504 -0.33,5.723 0.621,7.032C1.393,6.32 2.877,5.51 2.794,4.915C2.6,3.503 1.663,2.192 0.621,-0.018" style="fill:white;fill-rule:nonzero;"/>
        </g>
        <g transform="matrix(1,0,0,1,383.558,106.237)">
            <path d="M0,7.168C-0.9,4.612 -1.525,2.835 -2.15,1.057C-1.123,0.806 0.316,0 0.86,0.401C3.092,2.051 2.881,4.056 0,7.168" style="fill:white;fill-rule:nonzero;"/>
        </g>
        <g transform="matrix(0.95619,0.292746,0.292746,-0.95619,653.73,116.029)">
            <path d="M0.978,-0.129C-0.438,1.416 -1.842,2.462 -1.677,2.856C-1.117,4.199 -0.107,5.423 0.978,6.426C1.213,6.643 3.197,5.54 3.155,5.398C2.702,3.835 2.006,2.341 0.978,-0.129" style="fill:white;fill-rule:nonzero;"/>
        </g>
        <g transform="matrix(-0.999972,0.00751071,0.00751071,0.999972,615.923,39.3562)">
            <path d="M0.025,-5.798C-1.15,-4.289 -2.53,-3.27 -2.408,-2.482C-2.26,-1.518 -0.9,-0.147 0.025,-0.073C0.86,-0.006 2.506,-1.427 2.536,-2.238C2.572,-3.186 1.243,-4.184 0.025,-5.798" style="fill:white;fill-rule:nonzero;"/>
        </g>
        <g transform="matrix(-1,0,0,1,435.173,108.779)">
            <path d="M0.196,-5.922C-0.959,-4.38 -2.202,-3.393 -2.037,-2.791C-1.748,-1.736 -0.595,-0.918 0.196,0C0.967,-0.757 2.322,-1.489 2.357,-2.278C2.398,-3.208 1.294,-4.188 0.196,-5.922" style="fill:white;fill-rule:nonzero;"/>
        </g>
        <g transform="matrix(1,0,0,1,369.555,62.6434)">
            <path d="M0,2.45C-2.062,3.122 -3.11,2.582 -3.017,0.894C-2.951,-0.323 -2.006,-0.672 0,-0.22L0,2.45Z" style="fill:white;fill-rule:nonzero;"/>
        </g>
        <g transform="matrix(1,0,0,1,73.3961,105.177)">
            <path d="M0,-65.243C-0.193,-61.553 -0.719,-57.96 -3.143,-55.077C-4.151,-53.878 -5.704,-52.798 -7.198,-52.429C-9.079,-51.964 -11.017,-51.001 -13.16,-51.937C-14.085,-52.341 -15.323,-52.101 -16.413,-52.045C-18.987,-51.913 -21.044,-53.055 -22.224,-55.129C-23.018,-56.525 -23.214,-58.381 -23.269,-60.044C-23.336,-62.06 -23.955,-63.499 -25.642,-64.698C-26.999,-65.662 -28.178,-66.942 -29.233,-68.245C-30.078,-69.287 -31.04,-69.516 -32.162,-69.192C-36.622,-67.905 -40.752,-65.936 -44.075,-62.633C-46.993,-59.734 -48.909,-56.181 -50.006,-52.226C-50.787,-49.406 -51.552,-46.57 -52.092,-43.698C-52.737,-40.272 -52.09,-37.051 -50.154,-34.057C-49.425,-32.93 -48.985,-31.548 -48.69,-30.221C-47.917,-26.744 -46.58,-23.307 -47.822,-19.634C-48.518,-17.578 -48.053,-17.222 -46.152,-16.211C-45.362,-15.79 -44.671,-14.266 -44.75,-13.311C-44.97,-10.656 -43.395,-8.669 -42.652,-6.389C-41.655,-3.326 -40.123,-0.458 -39.872,2.878C-39.806,3.749 -38.457,4.919 -37.465,5.243C-35.321,5.944 -33.034,6.238 -30.787,6.577C-30.248,6.658 -29.615,6.317 -29.064,6.081C-27.437,5.384 -25.788,4.721 -24.235,3.882C-23.613,3.545 -23.01,2.863 -22.76,2.202C-20.978,-2.499 -19.41,-7.283 -17.518,-11.937C-16.665,-14.037 -15.265,-15.923 -14.044,-17.863C-11.909,-21.255 -5.057,-20.269 -3.682,-16.378C-2.957,-14.327 -3.777,-12.445 -4.275,-10.527C-4.97,-7.855 -6.52,-5.644 -8.263,-3.59C-8.766,-2.998 -9.706,-2.554 -10.492,-2.466C-12.807,-2.208 -13.225,-1.993 -13.868,0.242C-14.326,1.831 -14.685,3.448 -15.148,5.035C-15.898,7.601 -17.473,9.603 -19.529,11.269C-20.346,11.932 -21.186,12.588 -21.896,13.357C-23.512,15.107 -25.562,16.116 -27.808,16.572C-30.305,17.078 -32.865,17.286 -35.404,17.565C-35.995,17.63 -36.618,17.495 -37.214,17.387C-39.752,16.929 -42.316,16.562 -44.808,15.922C-45.981,15.621 -47.169,14.952 -48.079,14.144C-49.939,12.493 -51.758,10.751 -53.31,8.819C-54.19,7.724 -54.568,6.2 -55.063,4.83C-55.528,3.545 -55.794,2.19 -56.244,0.899C-57.057,-1.439 -57.984,-3.738 -58.786,-6.08C-59.845,-9.17 -60.717,-12.328 -61.882,-15.376C-62.768,-17.695 -63.936,-19.787 -63.098,-22.501C-62.618,-24.057 -63.125,-25.894 -63.028,-27.596C-62.83,-31.027 -62.533,-34.453 -62.259,-37.879C-61.838,-43.164 -61.472,-48.458 -59.618,-53.503C-59.507,-53.805 -59.386,-54.198 -59.487,-54.468C-60.278,-56.586 -59.343,-58.29 -58.38,-60.089C-56.947,-62.766 -55.972,-65.721 -54.309,-68.232C-52.697,-70.665 -51.764,-73.658 -49.027,-75.294C-46.948,-76.537 -44.988,-77.981 -42.891,-79.189C-36.494,-82.873 -29.639,-82.617 -22.682,-81.411C-18.885,-80.753 -16.408,-78.317 -14.295,-75.355C-13.723,-74.554 -13.163,-73.743 -12.545,-72.978C-12.273,-72.641 -11.915,-72.299 -11.523,-72.146C-9.176,-71.23 -6.798,-70.396 -4.452,-69.477C-3.104,-68.949 -1.677,-68.479 -0.532,-67.645C-0.035,-67.282 -0.159,-66.07 0,-65.243" style="fill:white;fill-rule:nonzero;"/>
        </g>
        <g transform="matrix(1,0,0,1,277.051,91.2966)">
            <path d="M0,-32.257C1.705,-32.038 2.772,-31.317 2.729,-29.654C2.65,-26.533 4.174,-23.939 5.254,-21.201C7.184,-16.31 8.518,-11.384 5.945,-6.341C5.345,-5.165 4.318,-4.115 3.271,-3.277C0.526,-1.079 -2.42,0.872 -5.129,3.111C-6.946,4.613 -9.049,4.521 -11.11,4.682C-12.425,4.786 -13.767,4.456 -15.1,4.421C-18.523,4.332 -21.171,3.187 -23.705,0.558C-25.928,-1.75 -27.702,-4.224 -29.39,-6.853C-29.54,-7.086 -29.678,-7.347 -29.885,-7.52C-33.823,-10.821 -35.951,-15.13 -36.936,-20.081C-37.053,-20.669 -37.153,-21.262 -37.269,-21.896C-36.986,-25.787 -34.941,-28.633 -31.776,-30.667C-29.126,-32.368 -26.322,-33.833 -23.569,-35.372C-22.944,-35.721 -22.224,-35.896 -21.591,-36.234C-20.538,-36.797 -19.577,-37.577 -18.475,-37.997C-16.372,-38.799 -14.21,-39.466 -12.037,-40.058M18.577,-24.135C18.002,-25.895 17.038,-27.529 16.246,-29.218C13.787,-34.453 10.263,-38.721 5.173,-41.635C1.825,-43.552 -1.327,-45.817 -3.851,-48.719C-5.263,-50.343 -7.043,-50.905 -8.839,-51.462C-10.199,-51.883 -11.742,-51.817 -13.201,-51.789C-14.751,-51.759 -16.31,-51.597 -17.842,-51.351C-20.931,-50.857 -24.15,-50.659 -27.039,-49.592C-29.39,-48.724 -31.491,-46.941 -33.42,-45.243C-35.158,-43.712 -36.796,-41.914 -37.969,-39.933C-39.721,-36.975 -41,-33.741 -42.531,-30.65C-43.381,-28.933 -44.525,-27.339 -45.198,-25.562C-46.375,-22.451 -47.242,-19.241 -46.813,-15.828C-46.697,-14.902 -46.867,-13.943 -46.81,-13.006C-46.735,-11.783 -46.764,-10.502 -46.392,-9.362C-45.689,-7.209 -44.742,-5.135 -43.878,-3.035C-43.04,-1.001 -42.488,1.238 -41.258,3.003C-39.321,5.782 -36.944,8.26 -34.703,10.822C-34.133,11.472 -33.427,12.042 -32.691,12.501C-30.873,13.635 -29.078,14.852 -27.134,15.72C-24.748,16.786 -22.395,18.146 -19.58,17.801C-18.886,17.716 -18.14,17.812 -17.452,17.971C-15.216,18.486 -12.996,19.069 -10.77,19.626C-10.733,19.475 -10.696,19.324 -10.66,19.173C-7.751,19.335 -4.98,18.708 -2.497,17.269C0.267,15.667 2.772,13.601 5.581,12.094C10.023,9.712 12.523,5.706 14.564,1.489C17.014,-3.571 18.634,-8.962 19.526,-14.573C20.055,-17.904 19.587,-21.044 18.577,-24.135" style="fill:white;fill-rule:nonzero;"/>
        </g>
        <g transform="matrix(1,0,0,1,124.031,99.4691)">
            <path d="M0,-40.537C1.057,-41.857 1.792,-42.941 2.692,-43.866C4.381,-45.601 5.65,-47.835 8.43,-48.273C9.696,-48.473 10.836,-49.409 12.104,-49.671C14.903,-50.249 17.739,-50.676 20.575,-51.047C25.104,-51.64 29.322,-50.456 33.393,-48.591C35.923,-47.432 37.01,-45.465 37.278,-42.683C37.556,-39.804 38.159,-36.966 39.541,-34.279C40.102,-33.189 39.628,-31.471 39.382,-30.082C38.528,-25.245 37.564,-20.428 36.653,-15.601C36.603,-15.337 36.577,-15.03 36.662,-14.786C37.327,-12.867 36.506,-11.213 35.822,-9.503C35.21,-7.971 34.597,-6.414 34.233,-4.812C33.405,-1.169 35.178,0.954 38.989,0.825C41.838,0.728 43.06,1.819 42.663,4.339C42.587,4.816 42.632,5.374 42.811,5.819C44.049,8.903 42.799,11.291 41.059,13.817C39.141,16.602 37.053,17.189 33.723,16.578C30.314,15.953 27.765,14.021 25.018,12.403C23.531,11.527 22.454,9.797 22.377,7.81C22.293,5.609 22.227,3.408 22.171,1.207C22.164,0.945 22.204,0.647 22.326,0.422C23.307,-1.387 23.045,-3.223 22.483,-5.066C21.846,-7.159 21.556,-9.232 22.361,-11.374C22.707,-12.295 22.708,-13.341 23.022,-14.278C23.577,-15.931 24.148,-17.593 24.901,-19.161C26.243,-21.956 26.692,-24.934 26.273,-27.9C26.034,-29.585 25.342,-31.335 23.707,-32.533C21.354,-34.258 19.146,-36.186 16.923,-38.083C14.589,-40.076 12.264,-39.008 10.135,-37.914C7.753,-36.692 6.282,-34.538 5.46,-31.963C4.657,-29.447 3.707,-26.975 3.002,-24.434C2.777,-23.621 3.098,-22.646 3.223,-21.752C3.372,-20.684 3.788,-19.61 3.721,-18.562C3.511,-15.286 2.902,-12.021 2.906,-8.752C2.908,-7.039 3.806,-5.305 4.411,-3.62C5.256,-1.266 6.143,0.862 4.605,3.476C2.679,6.75 0.069,8.831 -3.464,9.891C-4.008,10.054 -4.687,9.97 -5.257,9.821C-11.188,8.266 -14.369,2.082 -12.521,-3.786C-11.838,-5.956 -11.745,-8.316 -11.419,-10.595C-10.538,-16.751 -12.502,-22.771 -12.313,-28.895C-12.296,-29.442 -12.193,-29.988 -12.101,-30.53C-11.543,-33.795 -10.74,-37.042 -10.498,-40.33C-10.345,-42.409 -10.999,-44.499 -12.326,-46.355C-13.264,-47.667 -13.987,-49.261 -14.34,-50.833C-14.873,-53.214 -14.344,-53.907 -12.208,-55.088C-11.645,-55.399 -11.12,-55.81 -10.651,-56.253C-9.396,-57.439 -6.309,-57.726 -4.689,-57.173C-1.429,-56.061 -0.432,-53.42 0.175,-50.504C0.317,-49.825 -0.119,-49.024 -0.295,-48.28C-0.861,-45.879 -1.389,-43.48 0,-40.537" style="fill:white;fill-rule:nonzero;"/>
        </g>
        <g transform="matrix(1,0,0,1,321.479,53.555)">
            <path d="M0,45.344C-0.299,41.175 1.338,37.576 3.366,34.105C3.535,33.816 3.938,33.572 4.277,33.488C8.389,32.471 12.323,33.002 16.004,35.067C16.462,35.325 16.814,36.144 16.845,36.722C16.94,38.525 16.151,40.031 14.562,40.872C12.837,41.785 13.776,43.371 13.512,44.606C13.428,45 14.593,45.903 15.333,46.173C16.399,46.562 17.239,46.936 17.51,48.162C17.589,48.521 18.027,48.988 18.379,49.069C20.469,49.552 22.569,50.192 24.69,50.294C27.878,50.447 31.234,47.706 31.784,44.569C32.281,41.74 31.126,39.21 29.32,37.121C27.295,34.78 24.589,33.428 21.624,32.497C17.704,31.267 13.824,29.899 9.967,28.483C9.251,28.221 8.753,27.41 8.101,26.924C4.979,24.599 2.836,21.683 2.393,17.707C2.369,17.491 2.313,17.246 2.186,17.08C-0.4,13.714 0.685,9.925 1.026,6.269C1.256,3.805 1.871,1.379 2.262,-1.072C2.998,-5.697 6.186,-8.639 9.438,-11.522C13.159,-14.82 17.55,-16.834 22.453,-17.404C24.842,-17.682 27.258,-17.647 29.787,-17.111C33.052,-16.418 35.866,-15.149 38.612,-13.464C39.035,-13.204 39.58,-12.986 39.813,-12.596C42.801,-7.596 45.063,-2.552 42.922,3.569C41.976,6.275 41.885,9.293 40.163,11.751C39.68,12.441 39.067,13.058 38.438,13.623C37.992,14.025 37.353,14.216 36.91,14.621C34.772,16.578 32.549,16.864 29.764,15.808C27.474,14.939 26.046,13.717 25.2,11.436C24.094,8.449 24.683,5.774 27.245,3.761C27.725,3.385 28.203,3.004 28.702,2.655C30.222,1.593 31.075,-1.358 30.166,-2.934C29.414,-4.238 29.786,-6.407 27.656,-6.676C26.088,-6.875 24.459,-6.952 22.897,-6.759C19.775,-6.374 16.857,-5.125 14.915,-2.689C13.796,-1.286 13.286,0.82 13.079,2.673C12.831,4.905 12.954,7.251 13.383,9.458C13.646,10.809 14.566,12.214 15.579,13.196C17.232,14.796 19.083,16.273 21.067,17.432C23.81,19.034 26.633,20.538 30.007,20.586C32.337,20.618 34.652,21.012 36.213,23.128C36.496,23.512 37.02,23.708 37.4,24.03C38.766,25.189 39.879,26.404 40.14,28.378C40.594,31.821 41.603,35.201 41.915,38.649C42.283,42.715 40.81,46.445 38.973,50.056C37.093,53.753 34.256,56.202 30.437,57.746C27.733,58.839 25.238,60.48 22.498,61.448C18.029,63.026 13.64,62.917 9.726,59.708C8.526,58.724 7.287,57.729 5.923,57.011C1.647,54.761 -0.041,51.154 0.055,46.509C0.063,46.122 0.021,45.733 0,45.344" style="fill:white;fill-rule:nonzero;"/>
        </g>
        <g transform="matrix(1,0,0,1,174.934,68.842)">
            <path d="M0,23.926C0.152,21.395 0.458,18.86 0.409,16.333C0.365,14.015 -0.142,11.71 -0.305,9.389C-0.592,5.3 -0.957,1.138 0.223,-2.823C1.016,-5.486 2.537,-7.938 3.774,-10.465C5.841,-14.691 9.802,-16.43 13.849,-18.052C14.566,-18.34 15.346,-18.599 15.927,-19.078C18.327,-21.055 21.363,-21.297 24.088,-21.211C26.848,-21.123 29.727,-20.044 32.25,-18.788C34.202,-17.816 36.144,-17.758 38.13,-17.447C39.487,-17.235 40.845,-17.023 42.189,-16.746C43.492,-16.478 44.807,-16.213 46.063,-15.789C47.515,-15.299 49,-14.791 50.303,-14.012C52.051,-12.967 52.951,-7.846 52.175,-5.997C50.456,-1.899 46.945,0.171 43.173,1.53C40.853,2.365 38.041,3.232 35.573,1.188C33.972,-0.138 33.65,-1.056 34.136,-3.151C34.365,-4.141 34.607,-5.278 34.341,-6.204C33.621,-8.704 31.336,-9.62 28.738,-9.068C25.838,-8.451 22.859,-8.213 19.942,-7.662C19.081,-7.5 18.306,-6.852 17.507,-6.399C15.445,-5.23 13.789,-3.628 13.351,-1.254C13.008,0.612 12.944,2.563 13.015,4.467C13.199,9.482 13.569,14.49 13.776,19.505C13.879,22.012 13.559,24.553 13.853,27.029C14.108,29.185 14.9,31.288 15.562,33.381C16.177,35.325 17.973,35.557 19.608,35.704C22.948,36.004 25.644,34.308 28.335,32.635C30.188,31.482 32.067,30.783 34.422,31.395C35.444,31.66 36.886,30.961 37.931,30.349C39.692,29.316 41.409,28.643 43.454,29.288C45.238,29.851 45.792,30.652 45.82,32.536C45.845,34.277 46.199,35.942 45.494,37.735C44.39,40.541 42.492,42.174 39.684,42.96C38.624,43.257 37.606,43.803 36.533,43.93C34.755,44.139 32.949,44.101 31.155,44.169C29.853,44.217 28.498,44.054 27.262,44.364C25.163,44.891 23.308,45.223 21.216,43.971C19.772,43.106 17.852,42.995 16.124,42.65C14.265,42.279 12.732,41.478 11.362,40.119C10.401,39.165 9.076,38.577 7.91,37.83C3.135,34.77 0.162,30.649 0.17,24.763C0.171,24.486 0.145,24.208 0.131,23.931C0.088,23.929 0.044,23.928 0,23.926" style="fill:white;fill-rule:nonzero;"/>
        </g>
        <g transform="matrix(1,0,0,1,87.343,115.41)">
            <path d="M0,-65.475C1.724,-65.165 3.559,-65.127 5.148,-64.485C7.753,-63.432 9.31,-61.269 9.832,-58.495C10.078,-57.196 10.143,-55.851 10.173,-54.524C10.22,-52.43 10.225,-50.331 10.138,-48.239C10.075,-46.709 9.747,-45.189 9.713,-43.661C9.695,-42.887 9.851,-41.938 10.302,-41.358C11.434,-39.903 11.822,-38.297 11.745,-36.546C11.603,-33.284 11.211,-30.021 11.274,-26.766C11.331,-23.801 11.761,-20.831 12.197,-17.888C12.6,-15.169 13.42,-12.504 13.711,-9.778C14.079,-6.334 12.339,-3.73 9.682,-1.693C9.201,-1.324 8.607,-1.105 8.11,-0.754C7.032,0.005 6.114,0.001 5.202,-1.068C4.942,-1.372 4.329,-1.567 3.918,-1.512C2.794,-1.364 1.653,-1.166 0.591,-0.786C-0.945,-0.235 -1.946,-0.934 -2.634,-2.089C-3.536,-3.604 -4.49,-5.169 -4.943,-6.841C-5.245,-7.957 -4.893,-9.355 -4.518,-10.526C-3.403,-14.007 -1.906,-17.38 -1.004,-20.908C-0.419,-23.194 -0.459,-25.681 -0.495,-28.074C-0.549,-31.745 -0.798,-35.415 -1.046,-39.081C-1.242,-41.994 -1.491,-44.908 -1.881,-47.8C-1.961,-48.393 -2.679,-49.047 -3.268,-49.393C-4.411,-50.065 -5.668,-50.546 -6.884,-51.092C-9.443,-52.239 -10.845,-55.393 -10.434,-58.187C-10.073,-60.647 -8.286,-61.853 -6.792,-63.434C-4.859,-65.48 -2.446,-65.239 0,-65.475" style="fill:white;fill-rule:nonzero;"/>
        </g>
        <g transform="matrix(1,0,0,1,315.232,46.0091)">
            <path d="M0,-5.091C-0.373,1.169 -1.673,6.664 -6.276,10.758C-7.395,11.753 -8.832,12.583 -10.264,12.967C-11.214,13.222 -13.111,12.821 -13.344,12.228C-13.723,11.262 -13.415,9.695 -12.819,8.741C-11.214,6.169 -9.825,3.559 -9.398,0.527C-9.202,-0.867 -9.721,-1.317 -10.958,-0.63C-12.815,0.401 -14.444,0.163 -16.274,-0.744C-19.836,-2.511 -20.571,-3.999 -19.376,-7.927C-18.775,-9.903 -18.119,-11.862 -17.48,-13.827C-17.415,-14.026 -17.346,-14.324 -17.2,-14.383C-14.235,-15.586 -11.982,-18.313 -8.048,-17.493C-5.927,-17.051 -4.726,-16.217 -3.575,-14.694C-2.897,-13.797 -1.652,-13.137 -1.373,-12.167C-0.676,-9.743 -0.385,-7.204 0,-5.091" style="fill:white;fill-rule:nonzero;"/>
        </g>
        <g transform="matrix(1,0,0,1,86.3457,45.4055)">
            <path d="M0,-15.611C2.732,-15.749 6.277,-13.273 6.932,-11.123C7.234,-10.129 7.682,-9.117 7.692,-8.109C7.72,-5.317 6.936,-4.398 4.264,-3.364C1.962,-2.474 -0.268,-1.379 -2.606,-0.604C-5.33,0.298 -8.077,-1.778 -8.291,-4.638C-8.436,-6.577 -9.411,-8.593 -7.985,-10.384C-5.797,-13.133 -3.57,-15.909 0,-15.611" style="fill:white;fill-rule:nonzero;"/>
        </g>
        <g transform="matrix(1,0,0,1,232.792,42.6282)">
            <path d="M0,1.543C0.01,-0.385 1.886,-2.886 3.795,-3.073C4.513,-3.144 5.548,-2.477 6.038,-1.84C6.887,-0.735 6.749,0.652 5.816,1.673C5.01,2.554 4.005,3.326 2.951,3.892C1.469,4.687 -0.01,3.443 0,1.543" style="fill:white;fill-rule:nonzero;"/>
        </g>
        <g transform="matrix(1,0,0,1,37.3169,38.3944)">
            <path d="M0,6.942C-0.767,6.609 -2.058,6.403 -2.173,5.918C-2.367,5.108 -1.962,4.037 -1.525,3.228C-1.12,2.478 -0.388,1.878 0.278,1.301C1.718,0.054 3.466,0 4.252,1.113C5.329,2.636 4.883,5.061 3.262,5.865C2.296,6.345 1.197,6.558 0,6.942" style="fill:white;fill-rule:nonzero;"/>
        </g>
        <g transform="matrix(-0.988269,0.152724,0.152724,0.988269,196.687,101.436)">
            <path d="M0.695,-6.146C-1.01,-5.832 -2.975,-3.296 -2.694,-1.773C-2.544,-0.961 -0.365,0.213 0.695,0.054C2.883,-0.274 4.261,-2.024 3.896,-4.012C3.62,-5.517 2.247,-6.432 0.695,-6.146" style="fill:white;fill-rule:nonzero;"/>
        </g>
        <g transform="matrix(1,0,0,1,62.4898,111.882)">
            <path d="M0,6.343C-1.155,5.837 -2.222,5.641 -2.851,5.01C-3.368,4.491 -3.696,3.358 -3.494,2.679C-3.317,2.082 -2.298,1.378 -1.634,1.36C-0.4,1.328 0.653,0 2.103,1.137C3.767,2.44 4.066,2.963 2.617,4.519C1.916,5.272 0.9,5.732 0,6.343" style="fill:white;fill-rule:nonzero;"/>
        </g>
        <g transform="matrix(1,0,0,1,324.113,117.423)">
            <path d="M0,-5.646C1.125,-5.64 4.081,-3.555 4.352,-2.492C4.448,-2.114 4.386,-1.369 4.202,-1.299C2.901,-0.804 1.492,0.008 0.23,-0.156C-1.117,-0.33 -2.502,-1.267 -2.441,-3.18C-2.395,-4.641 -1.497,-5.654 0,-5.646" style="fill:white;fill-rule:nonzero;"/>
        </g>
        <g transform="matrix(1,0,0,1,222.096,48.7103)">
            <path d="M0,-2.835C-0.068,-0.91 -2.053,0.755 -4.052,0.971C-5.167,1.091 -7,-0.428 -7.174,-1.793C-7.232,-2.249 -6.863,-3.126 -6.546,-3.201C-4.953,-3.574 -3.316,-3.885 -1.688,-3.915C-1.068,-3.926 -0.433,-3.13 0,-2.835" style="fill:white;fill-rule:nonzero;"/>
        </g>
        <g transform="matrix(0.0347094,-0.999397,-0.999397,-0.0347094,132.546,36.5612)">
            <path d="M-3.066,-2.847C-4.649,-2.863 -5.794,-1.559 -5.808,0.277C-5.821,2.039 -4.759,3.15 -3.066,3.146C-1.736,3.142 -0.203,1.418 -0.233,-0.041C-0.266,-1.637 -1.471,-2.831 -3.066,-2.847" style="fill:white;fill-rule:nonzero;"/>
        </g>
        <g transform="matrix(1,0,0,1,197.797,67.8019)">
            <path d="M0,-1.847C-0.525,-1.132 -0.99,-0.362 -1.592,0.281C-2.154,0.881 -2.837,1.38 -3.511,1.861C-4.613,2.648 -5.566,2.35 -6.013,1.112C-6.631,-0.597 -4.845,-4.495 -2.21,-4.151C-0.869,-3.975 -0.126,-3.474 0,-1.847" style="fill:white;fill-rule:nonzero;"/>
        </g>
        <g transform="matrix(1,0,0,1,83.2112,70.7578)">
            <path d="M0,2.144C-0.804,2.996 -1.328,3.991 -2.085,4.221C-2.749,4.423 -3.799,3.932 -4.448,3.443C-5.021,3.011 -5.33,2.184 -5.66,1.487C-6.051,0.66 -6.629,-0.226 -5.567,-1.024C-4.505,-1.822 -3.307,-2.279 -2.272,-1.215C-1.425,-0.344 -0.876,0.816 0,2.144" style="fill:white;fill-rule:nonzero;"/>
        </g>
        <g transform="matrix(1,0,0,1,330.337,36.6237)">
            <path d="M0,-6.117C0.716,-5.56 1.718,-5.144 2.079,-4.413C2.582,-3.391 1.823,-2.535 0.886,-1.967C0.41,-1.679 -0.09,-1.418 -0.518,-1.069C-1.492,-0.275 -2.469,0 -3.516,-0.901C-4.653,-1.878 -4.158,-3.009 -3.541,-3.896C-2.792,-4.973 -1.797,-5.921 0,-6.117" style="fill:white;fill-rule:nonzero;"/>
        </g>
        <g transform="matrix(0.979461,0.201633,0.201633,-0.979461,96.3945,30.6858)">
            <path d="M0.567,-0.008C-1.149,-0.339 -1.975,0.075 -2.269,1.415C-2.674,3.265 -1.333,5.302 0.567,5.567C1.829,5.743 2.722,5.187 2.982,3.858C3.36,1.931 2.361,0.338 0.567,-0.008" style="fill:white;fill-rule:nonzero;"/>
        </g>
        <g transform="matrix(-0.28574,-0.958307,-0.958307,0.28574,132.807,65.8919)">
            <path d="M-2.683,-3.975C-4.809,-3.329 -5.918,-1.461 -5.445,0.215C-5.026,1.7 -3.813,1.83 -2.683,1.674C-1.166,1.464 0.155,-1.078 -0.328,-2.557C-0.752,-3.858 -1.723,-4.137 -2.683,-3.975" style="fill:white;fill-rule:nonzero;"/>
        </g>
        <g transform="matrix(-0.0322712,-0.999479,-0.999479,0.0322712,166.023,91.4542)">
            <path d="M-3.248,-2.244C-4.194,-2.229 -5.588,-0.769 -5.551,0.167C-5.498,1.456 -4.189,3.152 -3.248,3.148C-1.593,3.141 0.083,1.705 0.081,0.295C0.079,-1.063 -1.507,-2.272 -3.248,-2.244" style="fill:white;fill-rule:nonzero;"/>
        </g>
        <g transform="matrix(1,0,0,1,350.25,98.513)">
            <path d="M0,0.123C-0.168,1.431 -1.467,2.18 -2.689,2.628C-3.532,2.937 -4.745,2.657 -5.61,2.252C-5.891,2.121 -5.907,0.471 -5.493,0.016C-4.628,-0.935 -3.454,-1.659 -2.299,-2.276C-1.289,-2.814 -0.007,-1.581 0,0.123" style="fill:white;fill-rule:nonzero;"/>
        </g>
        <g transform="matrix(1,0,0,1,181.926,109.737)">
            <path d="M0,5.147C-0.747,4.773 -1.432,4.429 -2.118,4.086C-1.536,3.012 -1.184,1.668 -0.315,0.932C0.786,0 2.335,0.423 3.578,1.003C4.052,1.225 4.467,2.03 4.499,2.592C4.523,3.014 3.982,3.663 3.533,3.878C2.482,4.381 1.335,4.684 0,5.147" style="fill:white;fill-rule:nonzero;"/>
        </g>
        <g transform="matrix(1,0,0,1,14.6837,111.409)">
            <path d="M0,0.327C-0.035,0.744 -0.003,1.259 -0.131,1.731C-0.501,3.094 -1.62,3.564 -2.626,2.61C-3.468,1.812 -4.227,0.748 -4.577,-0.34C-4.928,-1.428 -4.445,-2.572 -3.129,-2.927C-1.978,-3.237 -0.352,-2.13 -0.081,-0.913C0.002,-0.54 -0.027,-0.142 0,0.327" style="fill:white;fill-rule:nonzero;"/>
        </g>
        <g transform="matrix(1,0,0,1,101.745,112.17)">
            <path d="M0,5.357C-0.225,5.196 -0.947,4.95 -1.096,4.511C-1.339,3.792 -1.225,2.946 -1.225,2.154C-1.225,2.022 -1.048,1.881 -0.936,1.759C0.132,0.593 2.393,0 3.471,0.731C3.812,0.962 4.075,1.653 4.008,2.076C3.789,3.475 1.668,5.289 0,5.357" style="fill:white;fill-rule:nonzero;"/>
        </g>
        <g transform="matrix(1,0,0,1,367.161,72.5254)">
            <path d="M0,-1.634C-0.054,0.208 -2.324,2.009 -4.119,1.541C-4.567,1.424 -5.239,0.909 -5.24,0.576C-5.241,-0.251 -5.16,-1.304 -4.658,-1.85C-4.029,-2.536 -2.98,-2.902 -2.051,-3.232C-0.896,-3.643 0.036,-2.855 0,-1.634" style="fill:white;fill-rule:nonzero;"/>
        </g>
        <g transform="matrix(-0.192623,-0.981273,-0.981273,0.192623,203.64,61.0971)">
            <path d="M-3.291,-3.914C-3.904,-2.673 -4.617,-1.58 -4.991,-0.379C-5.375,0.853 -4.353,2.397 -3.291,2.42C-1.903,2.449 -1.402,1.515 -1.231,0.287C-1.001,-1.37 -1.332,-2.777 -3.291,-3.914" style="fill:white;fill-rule:nonzero;"/>
        </g>
        <g transform="matrix(-0.993265,-0.115864,-0.115864,0.993265,64.1873,111.008)">
            <path d="M-0.353,-4.828C-1.398,-4.87 -2.296,-4.58 -2.478,-3.21C-2.702,-1.534 -1.806,-0.157 -0.353,-0.02C0.774,0.086 1.729,-0.934 1.944,-2.474C2.125,-3.761 1.35,-4.596 -0.353,-4.828" style="fill:white;fill-rule:nonzero;"/>
        </g>
        <g transform="matrix(-0.219243,-0.97567,-0.97567,0.219243,287.375,101.847)">
            <path d="M-2.081,-4.007C-4.18,-3.359 -5.173,-2.104 -4.533,-1.014C-4.016,-0.132 -3.036,0.691 -2.081,1.029C-1.417,1.263 -0.516,-2.026 -1.084,-3.265C-1.275,-3.684 -1.919,-3.894 -2.081,-4.007" style="fill:white;fill-rule:nonzero;"/>
        </g>
        <g transform="matrix(-0.99524,-0.0974502,-0.0974502,0.99524,40.56,50.6707)">
            <path d="M-1.19,-4.881C-2.085,-3.918 -3.243,-3.105 -3.115,-2.72C-2.813,-1.815 -2.03,-0.886 -1.19,-0.397C-0.443,0.038 1.79,-1.453 1.495,-1.938C0.899,-2.921 -0.058,-3.684 -1.19,-4.881" style="fill:white;fill-rule:nonzero;"/>
        </g>
        <g transform="matrix(-0.229427,-0.973326,-0.973326,0.229427,143.483,68.4369)">
            <path d="M-1.613,-2.36C-2.352,-1.192 -2.859,-0.39 -3.367,0.412C-2.766,0.664 -1.932,1.292 -1.613,1.092C-0.936,0.669 -0.448,-0.145 -0.08,-0.896C-0.008,-1.043 -0.833,-1.63 -1.613,-2.36" style="fill:white;fill-rule:nonzero;"/>
        </g>
        <g transform="matrix(0.0387009,-0.999251,-0.999251,-0.0387009,129.334,45.5339)">
            <path d="M-1.326,-1.539C-1.988,-0.662 -2.626,-0.179 -2.631,0.31C-2.634,0.667 -1.846,1.18 -1.326,1.329C-1.082,1.399 -0.328,0.745 -0.353,0.468C-0.404,-0.079 -0.835,-0.591 -1.326,-1.539" style="fill:white;fill-rule:nonzero;"/>
        </g>
        <g transform="matrix(-0.0385592,-0.999256,-0.999256,0.0385592,178.246,107.474)">
            <path d="M-1.19,-1.295C-1.625,-0.661 -2.054,-0.298 -1.991,-0.071C-1.869,0.373 -1.473,0.742 -1.19,1.143C-0.919,0.814 -0.467,0.504 -0.43,0.151C-0.395,-0.19 -0.788,-0.576 -1.19,-1.295" style="fill:white;fill-rule:nonzero;"/>
        </g>
        <g transform="matrix(1,0,0,1,263.421,84.6467)">
            <path d="M0,7.113C-0.939,6.581 -2.592,6.206 -2.988,5.29C-3.604,3.865 -2.128,2.911 -0.965,2.115C0.47,1.132 1.795,0 3.737,1.091C4.793,1.685 5.753,2.378 5.478,3.596C5.276,4.489 4.631,5.526 3.871,5.988C2.883,6.59 1.586,6.686 0,7.113" style="fill:white;fill-rule:nonzero;"/>
        </g>
        <g transform="matrix(-0.27605,-0.961143,-0.961143,0.27605,244.223,66.2492)">
            <path d="M-2.384,-3.908C-3.858,-3.531 -5.344,-1.281 -5.012,0.071C-4.699,1.345 -3.629,1.99 -2.384,1.657C-1.043,1.297 0.036,-1.002 -0.414,-2.662C-0.678,-3.629 -1.284,-4.197 -2.384,-3.908" style="fill:white;fill-rule:nonzero;"/>
        </g>
        <g transform="matrix(1,0,0,1,270.983,81.9844)">
            <path d="M0,-0.033C0.98,-1 1.54,-1.968 2.335,-2.231C3.282,-2.544 4.429,-2.253 5.49,-2.217C5.53,-2.215 5.573,-2.147 5.605,-2.103C6.53,-0.821 5.197,-0.09 4.811,0.828C4.406,1.79 3.49,2.511 2.405,2.022C1.605,1.66 1.006,0.854 0,-0.033" style="fill:white;fill-rule:nonzero;"/>
        </g>
    </g>
</svg>
