<?xml version="1.0" encoding="UTF-8" standalone="no"?>
<!DOCTYPE svg PUBLIC "-//W3C//DTD SVG 1.1//EN" "http://www.w3.org/Graphics/SVG/1.1/DTD/svg11.dtd">
<svg width="100%" height="100%" viewBox="0 0 195 163" version="1.1" xmlns="http://www.w3.org/2000/svg" xmlns:xlink="http://www.w3.org/1999/xlink" xml:space="preserve" xmlns:serif="http://www.serif.com/" style="fill-rule:evenodd;clip-rule:evenodd;stroke-linejoin:round;stroke-miterlimit:2;">
    <g transform="matrix(0.952381,0,0,1.2,4.33333,-3.8)">
        <path d="M129.85,12L133,19L71.05,16L73.624,12.552L76.3,10.667L129.85,12Z" style="fill:white;"/>
    </g>
    <g>
        <clipPath id="_clip1">
            <rect x="0" y="0" width="195" height="163"/>
        </clipPath>
        <g clip-path="url(#_clip1)">
            <path d="M125.694,73.993C123.983,75.695 122.396,77.278 120.804,78.844C120.26,79.379 119.694,80.303 119.138,80.297C118.572,80.297 118.011,79.379 117.461,78.844C115.863,77.278 114.277,75.706 112.543,73.993L125.694,73.993Z" style="fill:rgb(239,120,37);fill-rule:nonzero;"/>
            <path d="M149.984,73.976L162.908,73.976C162.585,74.314 162.37,74.545 162.143,74.771C160.381,76.523 158.613,78.269 156.857,80.033C156.568,80.326 156.375,80.506 155.99,80.111C154.052,78.145 152.08,76.207 150.126,74.258C150.069,74.202 150.052,74.112 149.984,73.976Z" style="fill:rgb(239,120,37);fill-rule:nonzero;"/>
            <path d="M168.398,73.976L181.458,73.976C180.727,74.669 180.155,75.193 179.594,75.745C178.149,77.171 176.705,78.596 175.282,80.038C174.948,80.382 174.744,80.489 174.348,80.083C172.461,78.145 170.546,76.241 168.636,74.326C168.557,74.247 168.506,74.145 168.398,73.982L168.398,73.976Z" style="fill:rgb(239,120,37);fill-rule:nonzero;"/>
            <path d="M94.151,73.965L107.064,73.965C107.092,74.298 106.826,74.405 106.668,74.562C104.888,76.348 103.081,78.112 101.313,79.909C100.894,80.337 100.645,80.444 100.157,79.948C98.231,77.976 96.254,76.05 94.151,73.965Z" style="fill:rgb(239,120,37);fill-rule:nonzero;"/>
            <path d="M131.388,73.954L144.29,73.954C144.375,74.252 144.125,74.342 143.989,74.478C142.165,76.303 140.312,78.111 138.505,79.954C138.08,80.387 137.842,80.387 137.417,79.954C135.479,77.982 133.507,76.049 131.388,73.948L131.388,73.954Z" style="fill:rgb(239,120,37);fill-rule:nonzero;"/>
            <path d="M122.238,80.844C123.909,79.193 125.484,77.616 127.082,76.061C127.626,75.531 128.125,74.557 128.748,74.602C129.337,74.641 129.875,75.531 130.419,76.066C131.994,77.621 133.564,79.182 135.241,80.844L122.238,80.844Z" style="fill:rgb(194,34,52);fill-rule:nonzero;"/>
            <path d="M172.16,80.911L159.066,80.911C159.537,80.444 159.888,80.089 160.245,79.734C161.882,78.106 163.514,76.483 165.152,74.855C165.378,74.63 165.548,74.314 165.951,74.72C167.956,76.748 169.99,78.748 172.16,80.906L172.16,80.911Z" style="fill:rgb(194,34,52);fill-rule:nonzero;"/>
            <path d="M116.458,80.878L103.336,80.878C105.126,79.131 106.764,77.537 108.401,75.942C108.906,75.452 109.416,74.59 109.925,74.585C110.435,74.585 110.957,75.435 111.461,75.926C113.087,77.531 114.713,79.142 116.458,80.878Z" style="fill:rgb(194,33,52);fill-rule:nonzero;"/>
            <path d="M140.697,80.844C142.811,78.748 144.856,76.731 146.879,74.692C147.185,74.388 147.327,74.557 147.53,74.759C149.536,76.748 151.548,78.731 153.678,80.838L140.697,80.838L140.697,80.844Z" style="fill:rgb(194,33,52);fill-rule:nonzero;"/>
            <path d="M177.566,80.844C179.679,78.742 181.725,76.726 183.747,74.686C184.053,74.376 184.195,74.562 184.399,74.759C186.405,76.748 188.416,78.731 190.547,80.838L177.56,80.838L177.566,80.844Z" style="fill:rgb(194,33,52);fill-rule:nonzero;"/>
            <path d="M32.489,73.993C30.778,75.695 29.191,77.278 27.599,78.844C27.055,79.379 26.488,80.303 25.933,80.297C25.367,80.297 24.806,79.379 24.256,78.844C22.658,77.278 21.072,75.706 19.338,73.993L32.489,73.993Z" style="fill:rgb(239,120,37);fill-rule:nonzero;"/>
            <path d="M56.779,73.976L69.703,73.976C69.38,74.314 69.165,74.545 68.938,74.771C67.176,76.523 65.408,78.269 63.652,80.033C63.362,80.326 63.17,80.506 62.785,80.111C60.847,78.145 58.875,76.207 56.92,74.258C56.864,74.202 56.847,74.112 56.779,73.976Z" style="fill:rgb(239,120,37);fill-rule:nonzero;"/>
            <path d="M75.193,73.976L88.253,73.976C87.522,74.669 86.95,75.193 86.389,75.745C84.944,77.171 83.499,78.596 82.077,80.038C81.743,80.382 81.539,80.489 81.142,80.083C79.256,78.145 77.341,76.241 75.431,74.326C75.352,74.247 75.301,74.145 75.193,73.982L75.193,73.976Z" style="fill:rgb(239,120,37);fill-rule:nonzero;"/>
            <path d="M0.946,73.965L13.859,73.965C13.887,74.298 13.621,74.405 13.462,74.562C11.683,76.348 9.876,78.112 8.108,79.909C7.689,80.337 7.439,80.444 6.952,79.948C5.026,77.976 3.048,76.05 0.946,73.965Z" style="fill:rgb(239,120,37);fill-rule:nonzero;"/>
            <path d="M38.183,73.954L51.084,73.954C51.169,74.252 50.92,74.342 50.784,74.478C48.96,76.303 47.107,78.111 45.299,79.954C44.875,80.387 44.637,80.387 44.212,79.954C42.274,77.982 40.302,76.049 38.183,73.948L38.183,73.954Z" style="fill:rgb(239,120,37);fill-rule:nonzero;"/>
            <path d="M29.027,80.844C30.698,79.193 32.273,77.616 33.871,76.061C34.415,75.531 34.914,74.557 35.537,74.602C36.126,74.641 36.664,75.531 37.208,76.066C38.784,77.621 40.353,79.182 42.03,80.844L29.027,80.844Z" style="fill:rgb(194,34,52);fill-rule:nonzero;"/>
            <path d="M78.955,80.911L65.861,80.911C66.332,80.444 66.683,80.089 67.04,79.734C68.677,78.106 70.309,76.483 71.947,74.855C72.173,74.63 72.343,74.314 72.745,74.72C74.751,76.748 76.785,78.748 78.955,80.906L78.955,80.911Z" style="fill:rgb(194,34,52);fill-rule:nonzero;"/>
            <path d="M23.253,80.878L10.131,80.878C11.921,79.131 13.559,77.537 15.196,75.942C15.7,75.452 16.21,74.59 16.72,74.585C17.23,74.585 17.752,75.435 18.256,75.926C19.882,77.531 21.508,79.142 23.253,80.878Z" style="fill:rgb(194,33,52);fill-rule:nonzero;"/>
            <path d="M47.492,80.844C49.606,78.748 51.651,76.731 53.674,74.692C53.98,74.388 54.121,74.557 54.325,74.759C56.331,76.748 58.343,78.731 60.473,80.838L47.492,80.838L47.492,80.844Z" style="fill:rgb(194,33,52);fill-rule:nonzero;"/>
            <path d="M84.361,80.844C86.474,78.742 88.519,76.726 90.542,74.686C90.848,74.376 90.99,74.562 91.194,74.759C93.2,76.748 95.211,78.731 97.341,80.838L84.355,80.838L84.361,80.844Z" style="fill:rgb(194,33,52);fill-rule:nonzero;"/>
            <path d="M41.192,157.794L28.313,157.794C28.16,157.513 28.426,157.411 28.562,157.282C30.409,155.44 32.262,153.597 34.109,151.761C34.364,151.507 34.551,151.175 34.982,151.609C36.982,153.631 39.016,155.631 41.192,157.794Z" style="fill:rgb(194,34,53);fill-rule:nonzero;"/>
            <path d="M78.219,157.789L65.487,157.789C65.516,157.67 65.51,157.569 65.561,157.518C67.516,155.563 69.476,153.62 71.425,151.659C71.72,151.361 71.913,151.304 72.241,151.631C74.207,153.614 76.196,155.575 78.173,157.552C78.207,157.586 78.196,157.665 78.213,157.783L78.219,157.789Z" style="fill:rgb(194,34,53);fill-rule:nonzero;"/>
            <path d="M59.991,157.794L46.926,157.794C47.294,157.417 47.554,157.141 47.821,156.876C49.538,155.163 51.26,153.456 52.983,151.744C53.221,151.507 53.396,151.225 53.787,151.614C55.793,153.637 57.821,155.637 59.991,157.794Z" style="fill:rgb(194,34,53);fill-rule:nonzero;"/>
            <path d="M22.573,157.778L9.632,157.778C10.136,157.276 10.533,156.876 10.935,156.482C12.528,154.904 14.12,153.327 15.7,151.738C15.989,151.451 16.182,151.248 16.579,151.648C18.516,153.614 20.488,155.552 22.443,157.507C22.5,157.564 22.517,157.654 22.573,157.783L22.573,157.778Z" style="fill:rgb(194,34,53);fill-rule:nonzero;"/>
            <path d="M92.939,150.876L105.812,150.876C105.88,151.192 105.591,151.287 105.438,151.44C103.636,153.242 101.817,155.028 100.027,156.842C99.619,157.259 99.392,157.304 98.951,156.859C97.018,154.887 95.047,152.961 92.939,150.876Z" style="fill:rgb(239,120,37);fill-rule:nonzero;"/>
            <path d="M83.754,157.749C85.89,155.631 87.913,153.62 89.936,151.614C90.117,151.434 90.282,151.265 90.542,151.53C92.593,153.58 94.65,155.625 96.786,157.755L83.754,157.755L83.754,157.749Z" style="fill:rgb(194,34,53);fill-rule:nonzero;"/>
            <path d="M56.116,150.871L68.989,150.871C69.046,151.192 68.762,151.288 68.609,151.445C66.807,153.248 64.983,155.028 63.198,156.854C62.779,157.282 62.547,157.293 62.122,156.854C60.19,154.887 58.218,152.955 56.116,150.871Z" style="fill:rgb(239,120,37);fill-rule:nonzero;"/>
            <path d="M31.933,150.916C30.67,152.166 29.503,153.327 28.33,154.471C27.367,155.411 26.392,156.341 25.423,157.271C24.301,156.459 23.435,155.383 22.443,154.437C21.27,153.316 20.126,152.172 18.845,150.916L31.939,150.916L31.933,150.916Z" style="fill:rgb(239,120,37);fill-rule:nonzero;"/>
            <path d="M74.802,150.871L87.375,150.871C87.511,151.107 87.284,151.197 87.171,151.304C85.301,153.175 83.42,155.034 81.55,156.904C81.278,157.175 81.097,157.428 80.672,157.023C78.649,155.056 76.593,153.124 74.547,151.186C74.632,151.085 74.717,150.978 74.802,150.876L74.802,150.871Z" style="fill:rgb(239,120,37);fill-rule:nonzero;"/>
            <path d="M50.716,150.91C48.858,152.758 47.101,154.499 45.345,156.245C44.597,156.985 43.856,156.991 43.124,156.262C41.362,154.515 39.605,152.769 37.735,150.91L50.722,150.91L50.716,150.91Z" style="fill:rgb(239,120,37);fill-rule:nonzero;"/>
            <path d="M0.459,150.882L13.615,150.882C12.975,151.468 12.505,151.879 12.057,152.318C10.505,153.851 8.958,155.389 7.417,156.932C7.162,157.192 6.992,157.383 6.624,157.006C4.635,154.994 2.618,153.017 0.459,150.882Z" style="fill:rgb(239,120,37);fill-rule:nonzero;"/>
            <path d="M151.287,163C151.213,162.87 151.128,162.746 151.06,162.611C150.913,162.307 150.743,161.963 151.134,161.732C151.434,161.558 151.723,161.761 151.973,161.924C152.375,162.189 152.182,162.487 151.99,162.775C151.939,162.848 151.893,162.921 151.842,163L151.287,163Z" style="fill:white;fill-rule:nonzero;"/>
            <path d="M111.96,149.947C111.982,150.437 112.101,150.893 112.322,151.349C112.781,152.29 113.076,153.282 112.866,154.358C112.838,154.499 112.798,154.702 112.866,154.792C113.79,155.924 113.982,157.338 114.396,158.662C114.515,159.045 114.702,159.22 115.042,159.332C116.481,159.817 117.507,159.316 118.033,157.918C118.39,156.978 118.753,156.031 119.212,155.147C119.677,154.262 120.345,154.048 121.121,154.375C121.422,154.504 121.631,154.718 121.739,155.017C122,155.727 121.15,157.659 120.419,157.794C119.869,157.896 119.711,158.177 119.592,158.617C118.668,162.048 115.569,162.301 113.24,161.434C112.311,161.084 111.523,160.256 111.229,159.085C110.985,158.121 110.685,157.135 110.294,156.234C109.087,153.468 109.908,150.741 110.226,147.992C110.396,146.538 110.996,145.288 111.773,144.059C112.583,142.792 113.801,142.212 115.144,141.874C115.926,141.676 116.787,141.693 117.609,141.874C118.118,141.981 118.708,142.037 119.002,142.493C119.671,143.541 120.713,143.997 121.796,144.409C122.345,144.617 122.47,144.972 122.436,145.519C122.294,147.597 120.351,148.679 118.453,147.733C117.858,147.44 117.694,146.938 117.716,146.375C117.756,145.299 116.668,145.124 116.215,144.443C116.124,144.307 115.88,144.493 115.705,144.55C113.081,145.333 112.254,147.366 111.954,149.947L111.96,149.947Z" style="fill:white;fill-rule:nonzero;"/>
            <path d="M156.301,147.699C156.794,147.699 157.287,147.671 157.775,147.705C158.704,147.772 159.032,148.183 159.021,149.124C159.01,149.975 158.483,150.172 157.758,150.24C157.032,150.307 156.364,150.121 155.718,149.862C155.089,149.609 154.783,149.62 154.738,150.437C154.675,151.586 154.063,152.623 153.984,153.8C153.871,155.507 153.678,157.209 153.701,158.916C153.712,159.749 154.398,160.178 155.106,160.425C155.956,160.718 156.823,160.538 157.639,160.262C158.285,160.048 158.483,157.93 157.894,157.552C157.531,157.321 157.078,157.445 157.106,157.935C157.146,158.656 156.777,159.164 156.205,159.226C155.605,159.293 155.185,158.662 154.908,158.178C154.602,157.642 154.573,157.011 155.032,156.465C156.052,155.248 158.273,155.096 159.503,156.133C159.882,156.454 159.86,156.916 159.945,157.304C160.211,158.482 160.03,159.665 159.633,160.797C159.202,162.02 157.151,162.859 155.741,162.555C154.454,162.279 153.247,161.868 152.137,161.141C151.757,160.893 151.593,160.549 151.497,160.183C150.862,157.789 150.601,155.395 151.434,152.983C151.548,152.662 151.423,152.33 151.355,151.997C151.281,151.626 151.179,151.226 151.372,150.831C151.525,150.527 151.633,150.11 151.344,149.896C151.032,149.665 150.641,149.885 150.364,150.099C149.769,150.555 149.185,150.516 148.579,150.155C147.933,149.767 147.763,149.136 147.717,148.448C147.683,147.902 147.916,147.536 148.414,147.276C149.009,146.967 149.497,147.367 149.995,147.49C151.14,147.772 151.344,147.631 151.327,146.465C151.315,145.665 151.287,144.927 150.822,144.2C150.505,143.705 150.601,143.096 151.094,142.612C151.593,142.122 152.109,141.868 152.828,142.133C154.035,142.567 154.511,143.209 154.409,144.476C154.347,145.265 154.233,146.054 154.103,146.837C154.007,147.429 154.177,147.705 154.817,147.676C155.31,147.66 155.803,147.721 156.29,147.75L156.29,147.699L156.301,147.699Z" style="fill:white;fill-rule:nonzero;"/>
            <path d="M170.415,148.871C172.189,146.719 174.376,146.488 176.778,147.198C177.441,147.395 177.73,147.885 178.013,148.595C178.727,150.364 178.121,152.009 177.945,153.704C177.872,154.403 177.775,155.062 177.475,155.721C177.237,156.245 177.039,157.068 177.968,157.158C178.965,157.254 179.079,157.817 179.175,158.583C179.311,159.71 178.274,160.735 177.169,160.454C174.982,159.896 174.557,158.927 174.937,157.023C175.118,156.127 174.659,155.192 174.982,154.234C175.214,153.547 175.634,152.933 175.685,152.166C175.747,151.271 174.58,149.693 173.515,149.383C172.806,149.175 171.957,149.75 171.543,150.814C170.84,152.623 170.908,154.516 171.362,156.324C171.611,157.316 171.481,157.992 170.789,158.6C170.274,159.045 169.684,159.383 168.948,159C168.138,158.583 167.52,157.682 167.792,156.809C168.325,155.102 168.002,153.417 167.922,151.721C167.888,150.972 168.155,150.279 168.234,149.552C168.302,148.91 168.223,148.364 167.854,147.828C167.52,147.344 167.152,146.73 167.679,146.251C168.211,145.761 168.852,145.226 169.73,145.772C170.41,146.195 170.534,146.764 170.404,147.474C170.33,147.896 170.245,148.319 170.404,148.876L170.415,148.871Z" style="fill:white;fill-rule:nonzero;"/>
            <path d="M139.281,148.842C141.094,146.944 143.389,146.352 145.564,147.164C146.273,147.428 146.584,147.896 146.856,148.634C147.497,150.386 146.953,152.037 146.777,153.733C146.692,154.532 146.505,155.282 146.222,156.014C145.944,156.73 146.301,157.034 146.907,157.231C147.23,157.338 147.768,157.118 147.836,157.62C147.921,158.262 148.188,158.916 147.791,159.58C147.31,160.397 146.732,160.797 145.757,160.42C144.25,159.839 143.525,159.293 143.689,158.228C143.899,156.848 143.44,155.456 143.865,154.076C144.069,153.417 144.516,152.854 144.511,152.093C144.505,151.209 143.287,149.592 142.295,149.355C141.564,149.18 140.884,149.862 140.295,150.933C139.717,151.992 140.102,153.062 139.972,154.121C139.859,155.028 139.915,155.907 140.306,156.792C140.658,157.586 140.097,158.211 139.513,158.685C138.969,159.124 138.329,159.361 137.643,158.916C136.873,158.42 136.38,157.67 136.624,156.825C137.128,155.09 136.85,153.383 136.737,151.665C136.686,150.887 137.06,150.183 137.065,149.406C137.071,148.809 137.031,148.273 136.658,147.766C136.329,147.321 136,146.73 136.488,146.268C136.992,145.783 137.581,145.254 138.442,145.688C139.156,146.048 139.343,146.606 139.27,147.327C139.224,147.795 138.975,148.262 139.27,148.826L139.281,148.842Z" style="fill:white;fill-rule:nonzero;"/>
            <path d="M162.738,147.186C164.126,147.192 164.959,147.806 164.88,149.107C164.795,150.567 165.112,151.958 165.163,153.383C165.22,154.966 165.18,156.538 165.554,158.093C165.718,158.775 165.509,159.361 164.999,159.84C164.693,160.133 162.761,160.352 162.421,160.133C161.871,159.766 161.599,158.696 161.973,157.907C163.067,155.626 162.523,153.259 162.421,150.91C162.404,150.544 162.154,150.454 161.899,150.369C161.016,150.071 160.472,149.564 160.715,148.544C160.897,147.767 161.746,147.181 162.727,147.186L162.738,147.186Z" style="fill:white;fill-rule:nonzero;"/>
            <path d="M161.922,146.245C161.208,146.245 160.715,145.597 160.766,144.719C160.8,144.15 161.712,143.254 162.375,143.136C163.197,142.983 163.724,143.395 164.052,144.076C164.426,144.848 164.194,145.316 163.373,145.727C162.908,145.958 162.466,146.234 161.922,146.245Z" style="fill:white;fill-rule:nonzero;"/>
            <path d="M134.283,146.662C134.799,146.736 135.094,147.068 135.094,147.519C135.094,147.902 134.765,148.223 134.363,148.178C133.932,148.127 133.553,147.891 133.507,147.367C133.456,146.775 133.961,146.814 134.283,146.657L134.283,146.662Z" style="fill:white;fill-rule:nonzero;"/>
            <path d="M191.113,146.657C191.578,146.724 191.872,147 191.895,147.491C191.918,147.941 191.583,148.2 191.215,148.183C190.785,148.161 190.411,147.93 190.343,147.395C190.269,146.803 190.745,146.809 191.113,146.651L191.113,146.657Z" style="fill:white;fill-rule:nonzero;"/>
            <path d="M115.201,146.262C114.951,146.245 114.555,146.302 114.645,145.896C114.764,145.372 115.127,144.978 115.71,144.938C116.118,144.91 116.226,145.282 116.192,145.558C116.13,146.099 115.727,146.296 115.195,146.262L115.201,146.262Z" style="fill:white;fill-rule:nonzero;"/>
            <path d="M155.168,151.654C155.117,150.972 155.497,150.645 156.126,150.578C156.341,150.555 156.619,150.668 156.539,150.927C156.375,151.456 156.069,151.924 155.508,152.104C155.123,152.228 155.18,151.885 155.168,151.659L155.168,151.654Z" style="fill:white;fill-rule:nonzero;"/>
            <path d="M121.014,160.155C120.883,160.572 120.668,160.854 120.226,160.848C119.881,160.842 119.49,160.797 119.456,160.369C119.41,159.789 119.966,159.834 120.306,159.732C120.64,159.637 120.849,159.907 121.008,160.161L121.014,160.155Z" style="fill:white;fill-rule:nonzero;"/>
            <path d="M172.767,145.102C172.704,145.513 172.489,145.699 172.081,145.699C171.719,145.699 171.481,145.586 171.469,145.198C171.452,144.724 171.758,144.561 172.172,144.555C172.54,144.55 172.71,144.781 172.767,145.102Z" style="fill:white;fill-rule:nonzero;"/>
            <path d="M141.604,150.296C141.859,150.313 142.057,150.499 141.984,150.814C141.904,151.175 141.723,151.519 141.281,151.519C140.958,151.519 140.765,151.248 140.811,150.966C140.867,150.606 141.06,150.279 141.598,150.296L141.604,150.296Z" style="fill:white;fill-rule:nonzero;"/>
            <path d="M140.873,144.561C141.304,144.533 141.542,144.719 141.564,145.062C141.593,145.44 141.383,145.676 140.964,145.705C140.55,145.733 140.295,145.564 140.289,145.164C140.278,144.764 140.561,144.595 140.867,144.567L140.873,144.561Z" style="fill:white;fill-rule:nonzero;"/>
            <path d="M161.35,152.319C160.953,152.166 160.772,151.817 160.732,151.423C160.698,151.062 161.016,150.972 161.293,151.011C161.729,151.073 161.882,151.411 161.888,151.8C161.888,152.116 161.707,152.302 161.344,152.319L161.35,152.319Z" style="fill:white;fill-rule:nonzero;"/>
            <path d="M181.039,151.964C181.492,152.054 181.747,152.313 181.781,152.69C181.81,152.989 181.521,153.22 181.254,153.192C180.886,153.152 180.586,152.933 180.574,152.493C180.569,152.144 180.835,152.065 181.039,151.969L181.039,151.964Z" style="fill:white;fill-rule:nonzero;"/>
            <path d="M148.261,156.189C148.148,156.471 147.984,156.735 147.627,156.657C147.349,156.595 146.97,156.516 147.055,156.104C147.123,155.795 147.253,155.434 147.683,155.462C148.114,155.485 148.148,155.862 148.261,156.189Z" style="fill:white;fill-rule:nonzero;"/>
            <path d="M179.43,156.178C179.317,156.471 179.141,156.735 178.795,156.662C178.523,156.606 178.132,156.516 178.217,156.11C178.28,155.8 178.404,155.434 178.841,155.462C179.26,155.49 179.328,155.845 179.43,156.172L179.43,156.178Z" style="fill:white;fill-rule:nonzero;"/>
            <path d="M192.331,157.293C192.286,157.609 192.02,157.823 191.617,157.857C191.255,157.89 191.158,157.626 191.153,157.333C191.147,156.955 191.294,156.696 191.725,156.685C192.082,156.673 192.309,156.803 192.331,157.288L192.331,157.293Z" style="fill:white;fill-rule:nonzero;"/>
            <path d="M164.783,143.434C164.46,143.434 164.222,143.327 164.217,142.983C164.205,142.55 164.477,142.319 164.868,142.24C165.208,142.172 165.39,142.386 165.401,142.691C165.418,143.102 165.203,143.372 164.783,143.434Z" style="fill:white;fill-rule:nonzero;"/>
            <path d="M124.277,151.975C124.697,152.042 124.901,152.307 124.946,152.657C124.991,152.989 124.702,153.203 124.442,153.192C124.045,153.175 123.75,152.882 123.75,152.476C123.75,152.183 123.983,151.997 124.277,151.98L124.277,151.975Z" style="fill:white;fill-rule:nonzero;"/>
            <path d="M172.546,150.296C172.999,150.29 173.175,150.459 173.141,150.797C173.107,151.164 172.925,151.44 172.54,151.502C172.206,151.552 171.996,151.355 171.996,151.04C171.996,150.628 172.245,150.381 172.546,150.296Z" style="fill:white;fill-rule:nonzero;"/>
            <path d="M110.101,158.899C110.486,158.966 110.679,159.197 110.673,159.586C110.673,159.862 110.611,160.217 110.282,160.189C109.897,160.155 109.665,159.823 109.625,159.434C109.591,159.118 109.767,158.927 110.101,158.904L110.101,158.899Z" style="fill:white;fill-rule:nonzero;"/>
            <path d="M135.519,157.254C135.422,157.654 135.133,157.856 134.731,157.856C134.323,157.856 134.391,157.502 134.38,157.248C134.351,156.792 134.64,156.668 135.026,156.702C135.337,156.73 135.524,156.904 135.519,157.254Z" style="fill:white;fill-rule:nonzero;"/>
            <path d="M165.786,160.797C165.475,160.758 165.344,160.572 165.373,160.301C165.429,159.856 165.792,159.755 166.16,159.71C166.387,159.682 166.631,159.8 166.568,160.048C166.478,160.442 166.223,160.741 165.786,160.797Z" style="fill:white;fill-rule:nonzero;"/>
            <path d="M158.375,144.803C158.313,145.124 158.149,145.338 157.769,145.333C157.429,145.327 157.236,145.135 157.248,144.831C157.259,144.488 157.503,144.274 157.854,144.279C158.154,144.285 158.381,144.431 158.375,144.803Z" style="fill:white;fill-rule:nonzero;"/>
            <path d="M120.679,158.426C121.065,158.459 121.269,158.617 121.223,158.944C121.184,159.22 121.036,159.479 120.713,159.485C120.334,159.49 120.187,159.22 120.181,158.893C120.181,158.533 120.493,158.51 120.679,158.426Z" style="fill:white;fill-rule:nonzero;"/>
            <path d="M116.107,146.488C116.362,146.521 116.577,146.657 116.555,146.882C116.526,147.164 116.322,147.4 115.988,147.344C115.784,147.31 115.54,147.22 115.535,146.961C115.529,146.583 115.875,146.589 116.101,146.488L116.107,146.488Z" style="fill:white;fill-rule:nonzero;"/>
            <path d="M150.335,147.012C150.024,147.051 149.916,146.871 149.939,146.578C149.961,146.279 150.069,145.997 150.386,145.964C150.686,145.935 150.766,146.212 150.777,146.459C150.788,146.741 150.771,147.034 150.335,147.012Z" style="fill:white;fill-rule:nonzero;"/>
            <path d="M124.3,159.913C124.544,159.986 124.799,160.065 124.776,160.369C124.753,160.628 124.583,160.842 124.311,160.831C124.028,160.82 123.903,160.578 123.903,160.324C123.903,160.087 124.068,159.952 124.306,159.913L124.3,159.913Z" style="fill:white;fill-rule:nonzero;"/>
            <path d="M181.13,159.924C181.39,159.969 181.543,160.121 181.538,160.403C181.532,160.645 181.396,160.803 181.152,160.808C180.846,160.814 180.744,160.611 180.744,160.341C180.744,160.087 180.869,159.958 181.13,159.929L181.13,159.924Z" style="fill:white;fill-rule:nonzero;"/>
            <path d="M157.899,150.944C157.854,151.265 157.582,151.282 157.355,151.293C157.168,151.299 157.01,151.181 157.038,150.955C157.078,150.64 157.333,150.606 157.576,150.612C157.775,150.612 157.922,150.707 157.899,150.944Z" style="fill:white;fill-rule:nonzero;"/>
            <path d="M143.326,150.843C143.564,150.859 143.672,150.995 143.632,151.197C143.593,151.4 143.502,151.626 143.253,151.62C143.049,151.62 142.958,151.44 142.964,151.248C142.969,151.012 143.1,150.865 143.326,150.843Z" style="fill:white;fill-rule:nonzero;"/>
            <path d="M174.801,151.22C174.744,151.412 174.659,151.637 174.399,151.603C174.2,151.575 174.104,151.378 174.144,151.186C174.178,151.006 174.28,150.848 174.506,150.848C174.755,150.848 174.818,150.989 174.801,151.22Z" style="fill:white;fill-rule:nonzero;"/>
            <path d="M192.048,155.721C192.065,155.952 191.935,156.054 191.725,156.031C191.487,156.009 191.476,155.817 191.487,155.637C191.498,155.451 191.538,155.259 191.782,155.316C191.986,155.361 192.048,155.53 192.042,155.721L192.048,155.721Z" style="fill:white;fill-rule:nonzero;"/>
            <path d="M134.941,155.293C135.207,155.349 135.218,155.541 135.23,155.721C135.241,155.946 135.116,156.059 134.895,156.037C134.669,156.008 134.606,155.839 134.623,155.637C134.64,155.423 134.765,155.321 134.941,155.293Z" style="fill:white;fill-rule:nonzero;"/>
            <path d="M140.544,146.578C140.561,146.769 140.425,146.865 140.284,146.91C140.091,146.966 140.006,146.826 139.989,146.662C139.966,146.499 140.012,146.335 140.21,146.33C140.363,146.33 140.499,146.414 140.544,146.578Z" style="fill:white;fill-rule:nonzero;"/>
            <path d="M171.447,146.91C171.26,146.921 171.169,146.814 171.135,146.651C171.101,146.471 171.203,146.341 171.367,146.33C171.52,146.318 171.668,146.414 171.696,146.578C171.724,146.752 171.594,146.848 171.447,146.91Z" style="fill:white;fill-rule:nonzero;"/>
            <path d="M134.363,158.335C133.609,158.076 133.626,157.626 133.638,157.079C133.655,156.375 133.672,155.682 133.779,154.978C134.125,152.747 134.108,150.544 133.122,148.431C132.51,147.124 131.824,145.941 130.17,145.784C128.363,145.609 126.589,145.778 124.986,146.646C123.756,147.316 123.325,149.412 124.09,150.55C124.493,151.153 125.144,151.434 125.785,151.761C127.15,152.46 129.343,151.778 129.949,150.398C130.221,149.778 129.802,148.533 129.252,148.319C128.255,147.93 127.19,148.353 126.912,149.248C126.833,149.507 127.008,149.902 126.521,149.947C126.226,149.975 126,149.947 125.824,149.648C125.615,149.282 125.626,148.967 125.864,148.623C126.481,147.738 127.354,147.277 128.408,147.181C129.887,147.046 130.244,147.299 130.924,148.651C131.399,149.598 131.309,150.617 131.405,151.333C131.479,153.107 131.247,153.265 129.802,152.747C128.419,152.251 127.127,152.544 125.949,153.327C124.243,154.459 124.005,157.012 124.566,158.471C124.889,159.31 125.207,160.369 126.425,160.493C126.878,160.538 127.337,160.606 127.79,160.583C128.952,160.533 130.142,160.488 131.099,159.716C131.513,159.383 131.711,159.603 131.932,159.845C132.266,160.212 132.584,160.578 133.088,160.719C133.796,160.916 134.544,160.561 134.85,159.902C135.167,159.22 134.929,158.521 134.368,158.33L134.363,158.335ZM130.346,157.586C129.824,157.84 129.331,158.138 128.753,158.296C127.428,158.662 126.742,158.166 126.804,156.775C126.912,156.228 126.736,155.423 127.348,155.152C128.221,154.764 129.133,154.245 130.17,154.55C130.827,154.741 130.839,155.372 130.918,155.896C131.014,156.538 131.06,157.231 130.346,157.581L130.346,157.586Z" style="fill:white;fill-rule:nonzero;"/>
            <path d="M191.204,158.352C190.337,158.031 190.433,157.468 190.428,156.842C190.416,155.344 190.898,153.885 190.756,152.217C190.756,151.023 190.637,149.659 189.929,148.482C189.408,147.609 189.232,146.482 187.997,146.065C186.614,145.603 185.277,145.699 183.906,145.947C183.062,146.099 182.161,146.2 181.543,146.843C180.688,147.727 180.257,148.831 180.665,150.037C181.096,151.288 182.269,151.902 183.419,152.048C184.614,152.2 185.861,151.862 186.609,150.651C187.056,149.93 186.818,149.276 186.473,148.668C186.167,148.127 185.475,148.099 184.994,148.178C184.376,148.279 183.753,148.657 183.73,149.44C183.713,150.02 183.305,150.065 182.982,149.919C182.552,149.727 182.286,149.321 182.58,148.814C183.22,147.716 184.212,147.231 185.476,147.186C186.722,147.141 187.017,147.383 187.646,148.454C188.365,149.682 188.071,151.028 188.269,152.307C188.348,152.826 187.918,153.164 187.26,152.978C186.682,152.809 186.155,152.488 185.504,152.504C181.866,152.589 180.631,155.423 181.317,158.352C181.6,159.558 182.49,160.465 183.379,160.538C184.637,160.645 186.042,160.803 187.062,160.161C188.218,159.428 188.733,159.862 189.538,160.544C190.19,161.096 191.221,160.763 191.612,160.025C191.963,159.361 191.827,158.578 191.209,158.352L191.204,158.352ZM187.164,157.592C186.507,157.98 185.793,158.273 185.045,158.471C184.62,158.583 184.297,158.426 184.031,158.183C183.203,157.417 183.628,155.361 184.677,154.972C185.215,154.769 185.713,154.409 186.376,154.521C187.175,154.358 187.527,154.831 187.685,155.547C187.855,156.313 187.986,157.107 187.164,157.592Z" style="fill:white;fill-rule:nonzero;"/>
            <path d="M16.08,141.124C15.366,141.259 14.732,141.175 14.108,140.966C13.491,140.764 12.845,140.775 12.21,140.702C10.709,140.521 9.253,140.127 8.17,138.91C7.462,138.11 6.652,137.4 5.887,136.645C5.179,135.941 4.674,135.147 4.612,134.11C4.561,133.22 4.21,132.426 3.762,131.654C3.184,130.668 2.85,129.586 2.635,128.465C2.283,126.623 1.756,124.837 0.958,123.136C0.334,121.818 -0.346,120.561 0.204,118.972C0.482,118.173 0.374,117.237 0.244,116.342C-0.045,114.37 0.567,112.443 0.674,110.488C0.833,107.637 1.071,104.781 2.085,102.066C2.147,101.897 2.261,101.671 2.204,101.536C1.671,100.24 2.283,99.164 2.873,98.105C3.66,96.691 4.068,95.097 5.014,93.75C5.587,92.934 6.131,92.1 6.612,91.215C7.026,90.455 7.819,89.762 8.607,89.367C9.898,88.72 11.026,87.813 12.363,87.232C13.474,86.753 14.584,86.365 15.785,86.235C18.307,85.97 20.76,86.122 23.265,86.714C25.253,87.187 26.177,88.613 27.333,89.931C27.69,90.336 28.12,90.68 28.324,91.221C28.387,91.396 28.636,91.604 28.811,91.615C30.341,91.705 31.497,92.753 32.914,93.119C33.673,93.317 34.081,94.241 35.01,94.083C35.055,94.077 35.197,94.331 35.197,94.46C35.197,96.905 34.942,99.283 33.384,101.322C32.987,101.84 32.392,102.021 31.82,102.246C30.528,102.77 29.265,103.311 27.792,102.77C27.248,102.573 26.602,102.838 25.979,102.781C24.868,102.674 23.995,102.331 23.191,101.502C22.273,100.55 22.324,99.401 22.262,98.297C22.205,97.333 21.791,96.393 20.998,95.818C20.296,95.311 19.434,94.928 19.06,94.055C18.686,93.176 17.978,93.114 17.219,93.334C14.839,94.021 12.658,95.108 10.867,96.821C9.145,98.46 8.136,100.539 7.439,102.787C7.043,104.066 6.731,105.367 6.442,106.674C5.972,108.815 6.437,110.713 7.394,112.719C8.578,115.192 9.519,117.863 8.669,120.736C8.346,121.818 8.561,122.088 9.604,122.432C10.391,122.691 10.459,123.626 10.414,124.11C10.272,125.558 11.139,126.612 11.536,127.84C12.091,129.558 13.037,131.141 13.066,133.029C13.077,133.862 13.848,134.189 14.516,134.369C15.672,134.674 16.862,134.848 18.04,135.068C18.363,135.13 18.647,134.989 18.93,134.86C19.876,134.431 20.715,133.784 21.769,133.558C22.205,133.462 22.471,133.057 22.568,132.612C23.134,129.936 24.369,127.502 25.338,124.972C25.808,123.744 26.522,122.679 27.282,121.598C28.551,119.795 32.262,120.184 33.112,122.251C33.616,123.485 33.118,124.589 32.817,125.733C32.432,127.17 31.542,128.319 30.676,129.491C30.33,129.953 29.911,130.161 29.338,130.144C28.398,130.116 27.763,130.471 27.565,131.485C27.384,132.409 27.004,133.276 26.806,134.206C26.494,135.665 25.542,136.803 24.347,137.699C23.905,138.031 23.468,138.375 23.1,138.792C22.188,139.828 20.987,140.369 19.672,140.645C18.471,140.899 17.259,141.158 16.074,141.119L16.08,141.124Z" style="fill:rgb(194,33,52);fill-rule:nonzero;"/>
            <path d="M59.595,96.629C60.564,96.37 61.243,97.17 62.071,97.497C62.694,97.745 62.785,98.438 62.977,99.012C63.312,99.993 63.487,100.894 63.074,101.992C62.7,102.978 62.586,104.167 63,105.277C63.136,105.632 63.249,105.75 63.561,105.457C63.827,105.204 64.212,105.012 64.36,104.708C64.802,103.79 65.606,103.226 66.258,102.511C66.694,102.026 67.13,101.756 67.731,101.716C68.592,101.66 69.159,100.95 70.014,100.804C71.51,100.55 72.989,100.184 74.513,100.1C75.89,100.026 77.284,99.97 78.627,100.319C80.338,100.77 81.987,101.395 83.375,102.545C83.63,102.753 83.732,103.046 83.749,103.356C83.811,105.04 84.332,106.64 84.684,108.268C84.701,108.359 84.701,108.471 84.757,108.533C85.856,109.671 85.199,110.944 85.046,112.178C84.803,114.139 84.236,116.037 83.958,118.003C83.664,120.077 84.038,122.336 82.627,124.24C82.213,124.798 82.202,125.699 82.14,126.46C82.026,127.812 83.227,128.758 84.927,128.724C85.301,128.713 85.67,128.713 86.021,128.831C86.61,129.017 86.967,129.378 86.939,130.043C86.899,130.814 87.024,131.564 87.239,132.307C87.528,133.321 87.267,134.245 86.661,135.085C86.174,135.755 85.704,136.437 85.171,137.068C84.559,137.795 83.652,137.812 82.871,137.626C81.839,137.383 80.717,137.44 79.794,136.792C78.513,135.896 76.87,135.457 76.077,133.947C75.482,132.809 75.431,131.541 75.442,130.302C75.454,129.541 75.476,128.758 75.828,127.998C76.094,127.429 76.128,126.702 75.856,126.105C74.927,124.065 75.669,122.122 76.083,120.144C76.275,119.237 76.587,118.432 77.063,117.62C77.89,116.206 78.043,114.567 77.833,112.995C77.703,112.026 77.278,111.08 76.394,110.358C75.17,109.35 74.06,108.235 72.74,107.316C71.386,106.37 70.196,106.775 69.046,107.339C67.691,107.992 66.847,109.187 66.349,110.629C65.873,112.004 65.176,113.299 64.949,114.77C64.858,115.35 64.796,115.857 65.13,116.341C65.476,116.837 65.567,117.401 65.402,117.925C64.841,119.722 65.198,121.592 64.926,123.417C64.802,124.251 65.136,125.265 65.555,126.031C65.924,126.696 66.116,127.378 66.332,128.065C66.558,128.809 66.218,129.445 65.884,130.138C64.943,132.065 63.402,133.169 61.419,133.8C61.045,133.919 60.688,133.862 60.331,133.767C57.09,132.882 55.237,129.507 56.297,126.341C56.728,125.051 56.716,123.705 56.96,122.409C57.402,120.065 56.512,117.863 56.575,115.592C56.62,113.857 56.212,112.133 56.852,110.358C57.357,108.956 57.453,107.35 57.442,105.835C57.436,104.792 57.221,103.66 56.416,102.798C55.816,102.156 55.464,101.367 55.3,100.511C55.017,99.029 55.26,98.539 56.569,97.846C56.779,97.733 57.011,97.7 57.181,97.474C57.776,96.697 58.581,96.449 59.6,96.635L59.595,96.629Z" style="fill:rgb(194,33,52);fill-rule:nonzero;"/>
            <path d="M167.979,128.234C167.781,125.744 168.687,123.739 169.803,121.784C169.928,121.57 170.087,121.479 170.302,121.423C172.614,120.854 174.806,121.158 176.897,122.274C177.265,122.471 177.379,122.803 177.384,123.198C177.401,124.2 177.005,125.057 176.138,125.513C175.141,126.037 175.605,126.916 175.503,127.62C175.418,128.178 176.098,128.347 176.569,128.46C177.164,128.606 177.583,128.843 177.696,129.496C177.736,129.733 177.894,129.981 178.166,130.02C179.317,130.178 180.348,130.803 181.566,130.747C183.521,130.657 185.464,129.192 185.628,127.271C185.747,125.857 185.198,124.51 184.206,123.44C183.039,122.184 181.549,121.491 179.94,120.899C177.804,120.116 175.532,119.75 173.469,118.753C173.022,118.539 172.84,118.099 172.466,117.834C170.699,116.55 169.514,114.911 169.282,112.685C169.271,112.595 169.248,112.494 169.191,112.426C167.69,110.55 168.347,108.426 168.546,106.387C168.676,105.029 168.863,103.677 169.174,102.325C169.758,99.807 171.413,98.173 173.209,96.584C175.294,94.742 177.758,93.621 180.512,93.317C181.821,93.17 183.152,93.221 184.541,93.508C186.354,93.88 187.895,94.607 189.419,95.514C189.657,95.655 189.963,95.773 190.088,95.987C191.736,98.747 193.102,101.564 191.793,104.888C191.561,105.485 191.413,106.116 191.504,106.775C191.578,107.316 191.085,107.649 190.971,108.105C190.535,109.908 189.068,110.832 187.663,111.671C186.875,112.144 185.781,112.432 184.767,111.801C184.331,111.53 183.764,111.48 183.328,111.215C181.232,109.942 181.101,106.544 183.073,105.012C183.317,104.826 183.538,104.573 183.81,104.471C184.524,104.201 184.733,103.716 184.745,102.99C184.75,102.398 185.102,101.835 184.648,101.232C184.235,100.691 184.427,99.795 183.713,99.418C182.66,98.866 181.538,99.119 180.45,99.288C178.852,99.542 177.469,100.274 176.319,101.39C175.475,102.206 175.373,103.356 175.254,104.437C175.124,105.654 175.152,106.882 175.373,108.105C175.532,108.961 175.894,109.671 176.58,110.206C177.639,111.029 178.637,111.964 179.787,112.618C181.283,113.468 182.835,114.251 184.671,114.285C185.957,114.308 187.249,114.516 188.099,115.705C188.235,115.896 188.49,115.998 188.682,116.15C189.487,116.787 190.173,117.468 190.269,118.601C190.354,119.632 190.841,120.584 191.056,121.609C191.6,124.195 191.368,126.736 190.394,129.102C189.362,131.598 187.81,133.733 185.034,134.809C183.43,135.428 181.991,136.504 180.302,136.995C178.988,137.378 177.685,137.417 176.28,137.254C174.58,137.057 173.492,136.031 172.296,135.124C171.441,134.476 170.393,134.127 169.645,133.31C168.262,131.806 167.866,130.014 167.985,128.217L167.979,128.234Z" style="fill:rgb(194,33,52);fill-rule:nonzero;"/>
            <path d="M113.285,112.651C110.872,112.668 109.812,111.339 110.486,109.418C110.838,108.426 110.554,107.525 109.988,106.944C109.438,106.387 108.503,106.184 107.568,106.392C105.88,106.775 104.203,107.226 102.435,107.175C101.851,107.159 101.517,107.756 101.036,108.015C99.772,108.68 99.171,109.812 98.735,111.091C98.525,111.716 98.786,112.302 98.769,112.905C98.735,114.246 98.939,115.598 98.934,116.916C98.917,118.837 99.262,120.73 99.177,122.651C99.098,124.471 98.673,126.353 99.863,128.031C99.953,128.161 99.914,128.386 99.936,128.567C100.157,130.572 101.732,131.598 103.693,131.017C105.019,130.629 106.203,129.986 107.381,129.254C108.311,128.674 109.359,128.24 110.588,128.724C111.268,128.995 111.96,128.533 112.543,128.122C113.506,127.44 114.532,127.153 115.676,127.553C116.492,127.84 117.002,128.291 116.946,129.299C116.889,130.341 117.201,131.372 116.668,132.42C116.283,133.181 115.931,133.981 115.178,134.347C113.07,135.372 110.934,136.392 108.458,135.693C107.846,135.519 107.24,135.654 106.645,135.868C105.478,136.285 104.367,136.448 103.228,135.654C102.412,135.085 101.336,135.214 100.39,134.972C99.375,134.707 98.486,134.341 97.772,133.541C97.217,132.91 96.378,132.657 95.693,132.2C93.177,130.527 91.596,128.324 91.556,125.198C91.534,123.524 91.687,121.851 91.692,120.189C91.698,118.618 91.233,117.04 91.211,115.446C91.188,113.711 91.143,111.975 91.42,110.251C91.704,108.499 92.843,107.159 93.574,105.621C94.695,103.249 96.928,102.28 99.223,101.412C99.653,101.249 100.106,101.074 100.452,100.792C101.755,99.711 103.393,99.688 104.888,99.655C106.481,99.621 108.146,100.043 109.489,101.023C110.452,101.728 111.518,101.643 112.554,101.716C113.359,101.778 114.141,101.784 114.889,102.128C115.625,102.466 116.436,102.573 117.223,102.663C118.101,102.764 118.787,103.237 119.461,103.677C120.43,104.314 120.838,107.085 120.385,108.184C119.427,110.499 117.354,111.435 115.308,112.375C114.623,112.691 113.744,112.595 113.291,112.646L113.285,112.651Z" style="fill:rgb(194,33,52);fill-rule:nonzero;"/>
            <path d="M43.067,101.052C43.917,100.747 44.926,101.215 45.821,101.53C47.266,102.043 48.11,103.288 48.421,104.821C48.569,105.547 48.665,106.285 48.591,107.012C48.478,108.173 48.433,109.316 48.557,110.482C48.648,111.322 48.24,112.139 48.297,113.012C48.325,113.491 48.342,113.941 48.654,114.291C49.334,115.057 49.447,115.964 49.481,116.933C49.543,118.775 49.277,120.595 49.22,122.42C49.169,124.077 49.538,125.75 49.747,127.412C49.929,128.888 50.524,130.296 50.591,131.789C50.676,133.648 49.781,135.068 48.342,136.172C48.03,136.414 47.634,136.55 47.311,136.786C46.75,137.197 46.263,137.09 45.872,136.595C45.645,136.313 45.384,136.127 45.096,136.296C44.518,136.64 43.855,136.521 43.271,136.713C42.416,136.989 41.877,136.628 41.464,136.02C40.228,134.195 39.718,132.426 40.738,130.15C41.77,127.845 42.733,125.395 42.806,122.792C42.84,121.626 42.659,120.437 42.415,119.288C42.223,118.375 42.251,117.479 42.291,116.578C42.376,114.595 42.144,112.634 41.866,110.685C41.804,110.268 41.56,110.02 41.135,109.863C40.444,109.609 39.792,109.26 39.118,108.956C37.656,108.302 36.874,106.55 37.118,104.973C37.322,103.615 38.313,102.956 39.141,102.088C40.206,100.967 41.532,101.074 43.073,101.057L43.067,101.052Z" style="fill:rgb(194,33,52);fill-rule:nonzero;"/>
            <path d="M166.115,96.336C165.9,99.525 165.157,102.511 162.67,104.787C162.03,105.373 161.344,105.874 160.455,106.049C159.741,106.19 158.947,106.178 158.613,105.564C158.296,104.978 158.471,104.212 158.925,103.604C159.928,102.252 160.602,100.764 160.874,99.097C160.999,98.331 160.608,98.134 160.075,98.477C158.341,99.581 156.947,98.438 155.673,97.694C154.811,97.193 155.004,95.914 155.18,94.894C155.406,93.576 155.91,92.353 156.375,91.114C156.437,90.956 156.505,90.849 156.641,90.776C157.673,90.224 158.67,89.61 159.735,89.131C160.766,88.663 163.248,89.407 163.916,90.348C164.211,90.753 164.477,91.142 164.959,91.345C165.276,91.48 165.288,91.841 165.429,92.111C165.486,92.218 165.526,92.348 165.526,92.466C165.486,93.796 166.274,94.996 166.121,96.342L166.115,96.336Z" style="fill:rgb(194,33,52);fill-rule:nonzero;"/>
            <path d="M42.699,89.824C43.974,89.773 45.855,91.165 46.297,92.41C46.535,93.08 46.773,93.711 46.659,94.449C46.484,95.576 46.047,96.37 44.801,96.658C44.138,96.81 43.52,97.232 42.92,97.593C42.155,98.049 41.288,98.139 40.449,98.274C39.209,98.472 37.752,97.266 37.758,96.027C37.758,95.08 37.089,94.167 37.735,93.176C39.005,91.227 40.234,89.796 42.693,89.83L42.699,89.824Z" style="fill:rgb(194,33,52);fill-rule:nonzero;"/>
            <path d="M123.512,97.756C123.546,96.68 124.742,95.283 125.745,95.131C126.544,95.012 127.371,96.128 127.195,97.086C127.059,97.824 125.615,99.136 124.855,99.215C124.056,99.3 123.478,98.674 123.512,97.756Z" style="fill:rgb(195,34,53);fill-rule:nonzero;"/>
            <path d="M15.043,98.331C14.771,98.257 14.193,98.427 13.916,97.948C13.598,97.401 13.87,96.855 14.244,96.443C14.709,95.931 15.111,95.322 15.78,95.029C16.788,94.579 17.293,94.686 17.661,95.379C18.142,96.286 17.933,97.317 17.151,97.807C16.567,98.173 15.927,98.348 15.043,98.331Z" style="fill:rgb(195,35,53);fill-rule:nonzero;"/>
            <path d="M102.56,126.065C103.557,126.043 104.888,127.237 104.9,128.167C104.9,128.651 103.778,129.541 103.172,129.53C101.914,129.502 101.036,128.696 101.041,127.575C101.041,126.707 101.67,126.088 102.56,126.065Z" style="fill:rgb(195,35,53);fill-rule:nonzero;"/>
            <path d="M28.976,138.527C28.375,138.375 27.65,138.414 27.276,137.71C27.01,137.209 26.947,136.719 27.35,136.268C27.865,135.693 29.775,135.44 30.426,135.845C31.293,136.386 31.361,136.719 30.772,137.524C30.268,138.217 29.695,138.544 28.981,138.527L28.976,138.527Z" style="fill:rgb(195,35,53);fill-rule:nonzero;"/>
            <path d="M168.047,136.268C168.047,135.502 168.965,134.786 169.73,135.124C170.472,135.457 171.277,135.812 171.77,136.55C172.132,137.096 172.036,137.524 171.43,137.806C170.648,138.167 169.905,138.471 169.016,137.952C168.308,137.541 168.058,137.006 168.053,136.262L168.047,136.268Z" style="fill:rgb(195,35,53);fill-rule:nonzero;"/>
            <path d="M117.665,98.905C117.637,99.812 116.453,100.787 115.353,100.866C114.691,100.911 113.71,99.998 113.58,99.226C113.523,98.883 113.58,98.607 113.937,98.483C114.787,98.19 115.654,97.964 116.555,98.038C117.116,98.083 117.541,98.359 117.665,98.905Z" style="fill:rgb(195,35,53);fill-rule:nonzero;"/>
            <path d="M102.718,108.494C103.313,108.511 103.852,108.578 104.005,109.136C104.18,109.778 104.107,110.449 103.512,110.877C103.087,111.181 102.684,111.502 102.288,111.84C101.653,112.37 101.03,112.178 100.786,111.406C100.463,110.404 101.495,108.387 102.724,108.488L102.718,108.494Z" style="fill:rgb(195,35,53);fill-rule:nonzero;"/>
            <path d="M67.805,96.815C66.768,96.826 66.167,96.269 66.156,95.277C66.144,94.539 67.034,93.722 67.884,93.694C68.791,93.66 69.516,94.331 69.544,95.232C69.578,96.156 68.864,96.798 67.805,96.815Z" style="fill:rgb(195,35,53);fill-rule:nonzero;"/>
            <path d="M40.404,113.547C40.387,114.263 40.087,114.68 39.447,114.905C38.823,115.125 38.438,114.854 38.115,114.398C37.871,114.049 37.645,113.682 37.463,113.294C37.254,112.843 36.874,112.359 37.463,111.913C38.058,111.463 38.687,111.175 39.379,111.733C39.985,112.218 40.302,112.854 40.398,113.553L40.404,113.547Z" style="fill:rgb(195,37,53);fill-rule:nonzero;"/>
            <path d="M170.126,93.474C169.356,93.474 168.846,92.781 169.067,92.043C169.503,90.584 171.226,89.875 172.223,90.725C172.619,91.063 172.67,91.429 172.5,91.869C172.319,92.325 170.614,93.474 170.132,93.474L170.126,93.474Z" style="fill:rgb(195,36,53);fill-rule:nonzero;"/>
            <path d="M48.342,90.477C47.317,90.489 46.812,90.1 46.818,89.311C46.829,88.308 47.792,87.362 48.835,87.339C49.504,87.322 50.036,87.869 50.036,88.579C50.036,89.643 49.305,90.466 48.348,90.477L48.342,90.477Z" style="fill:rgb(195,35,53);fill-rule:nonzero;"/>
            <path d="M95.664,136.628C95.608,136.628 95.455,136.628 95.302,136.657C94.905,136.73 94.457,136.871 94.225,136.426C94.01,136.014 94.18,135.586 94.423,135.214C95.075,134.206 96.327,133.873 97.353,134.448C97.727,134.657 97.919,134.995 97.953,135.423C97.987,135.851 97.698,136.009 97.375,136.144C96.854,136.369 96.406,136.82 95.659,136.628L95.664,136.628Z" style="fill:rgb(195,37,53);fill-rule:nonzero;"/>
            <path d="M87.885,125.654C87.896,126.144 87.103,126.961 86.604,126.984C85.919,127.012 84.837,126.268 84.814,125.755C84.769,124.871 85.607,123.817 86.383,123.784C87.148,123.75 87.874,124.651 87.891,125.654L87.885,125.654Z" style="fill:rgb(195,35,53);fill-rule:nonzero;"/>
            <path d="M70.723,110.719C70.717,111.767 69.805,112.759 68.864,112.742C68.258,112.73 67.589,112.043 67.601,111.435C67.618,110.567 68.655,109.525 69.51,109.525C70.201,109.525 70.728,110.043 70.723,110.719Z" style="fill:rgb(195,34,53);fill-rule:nonzero;"/>
            <path d="M181.827,129.434C181.43,129.327 180.846,129.389 180.62,128.882C180.365,128.308 180.625,127.806 181.118,127.457C181.611,127.108 182.127,126.775 182.648,126.465C183.011,126.251 183.294,126.482 183.543,126.719C183.923,127.079 184.104,127.525 183.934,128.043C183.764,128.572 182.478,129.434 181.827,129.434Z" style="fill:rgb(195,35,53);fill-rule:nonzero;"/>
            <path d="M2.646,135.085C2.663,135.479 2.663,135.868 2.442,136.228C2.232,136.566 1.955,136.668 1.586,136.6C0.72,136.431 -0.17,135.023 0.068,134.166C0.215,133.648 0.487,133.158 1.122,133.214C1.875,133.282 2.442,133.676 2.64,134.448C2.691,134.651 2.646,134.871 2.646,135.085Z" style="fill:rgb(195,35,53);fill-rule:nonzero;"/>
            <path d="M52.087,135.507C52.501,135.536 52.949,135.541 53.153,135.93C53.356,136.319 53.141,136.696 52.898,137.023C52.552,137.485 52.223,137.947 51.628,138.161C51.084,138.352 50.586,138.409 50.263,137.857C49.951,137.327 49.889,136.741 50.371,136.257C50.835,135.789 51.424,135.536 52.087,135.502L52.087,135.507Z" style="fill:rgb(195,37,53);fill-rule:nonzero;"/>
            <path d="M193.34,112.471C193.368,113.547 192.025,114.601 190.971,114.336C190.615,114.246 190.343,114.088 190.309,113.688C190.275,113.198 190.241,112.663 190.694,112.353C191.141,112.043 191.651,111.795 192.161,111.615C192.813,111.39 193.312,111.784 193.334,112.471L193.34,112.471Z" style="fill:rgb(195,36,53);fill-rule:nonzero;"/>
            <path d="M29.146,133.22C29.129,132.443 29.593,132.015 30.511,132.015C31.208,132.015 31.69,132.279 31.69,133.085C31.69,134.026 31.151,134.696 30.33,134.719C29.65,134.736 29.163,134.122 29.14,133.22L29.146,133.22Z" style="fill:rgb(195,40,55);fill-rule:nonzero;"/>
            <path d="M108.339,107.57C108.906,107.496 109.234,107.947 109.665,108.144C109.795,108.206 109.818,108.381 109.744,108.55C109.489,109.142 108.288,109.925 107.608,109.925C107.03,109.925 106.549,109.716 106.401,109.142C106.237,108.505 106.588,108.082 107.183,107.874C107.557,107.744 107.954,107.671 108.339,107.575L108.339,107.57Z" style="fill:rgb(195,35,53);fill-rule:nonzero;"/>
            <path d="M155.831,129.75C156.126,129.767 156.358,129.958 156.29,130.493C156.205,131.175 156.012,131.755 155.287,131.975C154.483,132.223 154.058,131.519 153.525,131.169C153.247,130.989 153.491,130.612 153.74,130.398C154.029,130.15 155.248,129.738 155.831,129.75Z" style="fill:rgb(195,37,54);fill-rule:nonzero;"/>
            <path d="M18.012,99.069C18.46,99.181 18.868,99.48 18.953,100.049C19.021,100.528 18.216,101.305 17.701,101.328C17.202,101.35 16.193,100.595 16.199,100.201C16.199,99.705 17.145,99.086 18.018,99.069L18.012,99.069Z" style="fill:rgb(195,39,54);fill-rule:nonzero;"/>
            <path d="M194.989,108.871C194.881,109.316 194.456,109.575 193.827,109.542C193.119,109.502 192.875,109.08 192.926,108.432C192.994,107.609 193.657,107.728 194.178,107.722C194.79,107.711 195.068,108.066 194.989,108.871Z" style="fill:rgb(195,41,55);fill-rule:nonzero;"/>
            <path d="M75.233,111.863C75.068,112.409 74.944,113.085 74.23,113.08C73.68,113.08 73.578,112.488 73.607,112.037C73.641,111.463 73.992,111.063 74.593,111.04C75.114,111.018 75.21,111.429 75.233,111.868L75.233,111.863Z" style="fill:rgb(196,45,56);fill-rule:nonzero;"/>
            <path d="M66.122,98.702C66.326,98.764 66.785,98.821 66.74,99.362C66.7,99.824 66.337,100.088 65.918,100.083C65.368,100.071 65.38,99.559 65.357,99.187C65.334,98.849 65.533,98.601 66.122,98.708L66.122,98.702Z" style="fill:rgb(196,48,58);fill-rule:nonzero;"/>
            <path d="M93.862,133.434C93.828,133.75 93.704,133.93 93.33,133.902C92.922,133.874 92.673,133.721 92.678,133.305C92.684,132.921 93.001,132.927 93.284,132.899C93.681,132.865 93.845,133.068 93.862,133.434Z" style="fill:rgb(195,40,55);fill-rule:nonzero;"/>
            <path d="M158.494,110.545C158.143,109.085 157.174,107.947 156.556,106.629C155.389,104.145 153.497,102.291 151.179,100.9C149.213,99.722 147.395,98.37 145.802,96.736C145.309,96.229 144.783,95.942 144.137,95.683C142.618,95.074 141.117,95.148 139.592,95.497C139.247,95.576 138.93,95.548 138.595,95.497C136.726,95.255 134.918,95.7 133.19,96.257C131.558,96.781 130.408,98.201 129.003,99.159C128.13,99.75 127.547,100.843 126.997,101.801C126.402,102.843 126.187,104.083 125.365,105.029C125.156,105.271 125.003,105.615 124.935,105.931C124.799,106.607 124.396,107.136 124.039,107.688C122.799,109.609 122.13,111.694 122.13,113.981C122.13,114.866 122.243,115.778 122.073,116.629C121.926,117.35 121.966,117.959 122.311,118.561C122.974,119.716 123.286,121.001 123.796,122.212C124.221,123.22 124.402,124.319 124.974,125.277C126,126.995 127.552,128.257 128.816,129.767C129.127,130.139 129.513,130.426 129.909,130.719C130.867,131.44 131.921,131.998 133.003,132.465C134.414,133.079 135.796,133.879 137.456,133.609C137.745,133.558 138.102,133.575 138.357,133.699C139.609,134.308 140.918,134.499 142.323,134.381C143.842,134.482 145.236,133.953 146.658,133.423C148.409,132.77 149.599,131.316 151.191,130.482C153.661,129.181 155.049,126.972 156.182,124.651C157.571,121.812 158.505,118.781 158.981,115.626C159.248,113.857 158.902,112.201 158.494,110.522L158.494,110.545ZM151.281,120.505C151.111,120.826 150.941,121.215 150.658,121.395C149.497,122.133 148.698,123.35 147.378,123.857C146.573,124.167 146.08,124.865 145.445,125.372C144.21,126.353 142.828,126.268 141.57,126.341C140.142,126.15 138.839,126.24 137.575,125.913C136.816,125.716 136.131,125.401 135.677,124.713C135.507,124.46 135.32,124.172 135.071,124.026C133.456,123.068 132.759,121.401 131.802,119.936C131.734,119.835 131.671,119.716 131.581,119.643C129.399,117.829 128.227,115.468 127.666,112.742C127.399,111.452 127.575,110.325 128.272,109.181C129.377,107.373 131.094,106.438 132.918,105.598C134.414,104.905 135.876,104.1 137.275,103.288C138.357,102.663 139.507,102.364 140.595,101.846C141.496,101.418 142.21,101.925 142.839,102.477C143.723,103.255 144.624,104.009 145.564,104.731C146.182,105.204 146.624,105.931 147.519,105.981C147.734,105.993 147.955,106.088 148.159,106.055C149.219,105.863 149.553,106.657 149.565,107.345C149.587,109.181 150.471,110.702 151.106,112.33C152.154,115.023 152.777,117.756 151.293,120.516L151.281,120.505Z" style="fill:rgb(194,33,52);fill-rule:nonzero;"/>
            <path d="M140.771,123.919C140.012,123.857 139.066,123.908 138.816,123.063C138.55,122.173 139.377,121.711 140.029,121.237C140.884,120.623 141.712,120.122 142.794,120.764C143.343,121.091 143.661,121.502 143.661,122.156C143.661,122.775 143.366,123.198 142.822,123.457C142.176,123.761 141.502,123.953 140.777,123.919L140.771,123.919Z" style="fill:rgb(195,34,53);fill-rule:nonzero;"/>
            <path d="M132.402,110.668C132.402,111.525 131.365,112.691 130.589,112.68C129.836,112.668 129.382,112.302 129.36,111.519C129.331,110.719 130.391,109.778 131.383,109.756C131.989,109.744 132.368,110.037 132.402,110.674L132.402,110.668Z" style="fill:rgb(195,36,53);fill-rule:nonzero;"/>
            <path d="M147.094,117.158C147.916,117.164 148.227,117.722 147.831,118.437C147.7,118.674 147.587,118.927 147.44,119.158C147.128,119.649 146.709,120.032 146.086,119.834C145.513,119.654 145.009,119.305 145.02,118.623C145.032,117.97 145.496,117.575 146.046,117.344C146.375,117.204 146.766,117.215 147.1,117.158L147.094,117.158Z" style="fill:rgb(195,36,53);fill-rule:nonzero;"/>
            <path d="M2.391,25.639C5.315,21.189 10.278,20.749 14.992,20.101C20.992,19.284 26.981,19.718 32.942,20.563C38.761,21.386 44.501,22.608 50.167,24.157C55.623,25.65 61.034,27.295 66.366,29.188C66.598,29.267 66.836,29.324 67.068,29.391C68.065,29.194 68.893,29.757 69.771,30.039C72.394,30.884 75.04,31.656 77.663,32.495C80.853,33.509 84.089,34.394 87.279,35.408C88.876,35.915 90.497,36.343 92.112,36.771C94.741,37.47 97.319,38.388 99.987,38.94C103.104,39.583 106.118,40.608 109.195,41.402C113.931,42.625 118.742,43.526 123.512,44.574C127.7,45.492 131.943,46.208 136.199,46.788C142.879,47.847 149.593,48.365 156.341,47.656C164.228,46.828 171.939,45.228 179.169,41.842C180.875,41.042 182.461,40.005 184.008,38.94C184.971,38.276 184.949,38.005 184.195,37.115C182.863,35.543 181.096,34.664 179.198,33.994C175.056,32.535 170.733,32.259 166.404,32.214C157.078,32.124 147.865,33.273 138.697,34.867C137.547,35.064 136.425,35.611 135.207,35.295C134.368,34.428 134.612,33.239 134.329,32.208C134.176,31.662 133.898,31.019 134.38,30.45C146.873,27.312 159.463,24.749 172.404,24.467C176.217,24.383 180.002,24.67 183.691,25.769C187.81,26.997 189.759,29.222 190.207,33.453C190.564,36.771 190.365,40.05 188.943,43.137C187.368,46.557 184.365,48.484 181.181,50.123C175.821,52.884 170.024,54.264 164.098,55.16C158.987,55.932 153.842,56.236 148.681,56.208C148.165,56.208 147.644,56.309 147.128,56.36C140.884,56.608 134.708,55.864 128.544,55.064C122.413,54.27 116.362,53.047 110.299,51.825C104.877,50.732 99.653,48.968 94.31,47.628C90.457,46.658 86.638,45.515 82.808,44.456C77.46,42.974 72.071,41.628 66.734,40.129C59.668,38.146 52.541,36.36 45.362,34.895C36.517,33.087 27.548,32.095 18.482,33.053C15.128,33.408 11.87,34.073 8.935,35.909C6.669,37.329 5.53,39.312 5.32,41.904C5.286,42.337 5.405,42.822 5.009,43.171C2.323,40.067 1.082,36.535 1.009,32.512C1.003,32.09 1.043,31.701 1.054,31.104C1.235,29.025 1.292,27.611 2.385,25.634L2.391,25.639Z" style="fill:rgb(238,120,37);fill-rule:nonzero;"/>
            <path d="M5.014,43.177C4.782,38.242 7.23,35.763 12.012,34.095C17.168,32.298 22.568,32.27 27.95,32.467C32.228,32.625 36.472,33.154 40.716,33.763C47.271,34.704 53.617,36.535 60.037,38.05C64.586,39.126 69.119,40.309 73.624,41.56C78.128,42.805 82.644,44.016 87.148,45.256C90.911,46.292 94.661,47.379 98.435,48.388C101.534,49.216 104.577,50.264 107.699,50.962C112.56,52.05 117.45,53.058 122.368,53.858C130.408,55.165 138.499,56.1 146.664,56.174C146.822,56.174 147.74,56.174 147.893,56.236C142.641,57.526 136.522,58.382 131.19,59.244C118.43,61.306 105.568,61.374 92.695,61.345C81.624,61.323 70.57,60.923 59.544,59.931C48.535,58.945 37.605,57.424 26.936,54.45C20.432,52.636 14.086,50.388 8.522,46.422C7.213,45.486 6.012,44.433 5.009,43.171L5.014,43.177Z" style="fill:rgb(194,33,52);fill-rule:nonzero;"/>
            <path d="M134.385,30.456C134.663,32.084 134.918,33.521 135.23,35.143C135.757,38.658 136.21,42.18 136.624,45.712C136.675,46.14 136.833,46.608 136.476,46.996C135.723,47.137 134.89,46.912 134.125,46.81C131.779,46.501 129.445,46.056 127.122,45.605C120.3,44.275 113.495,42.878 106.781,41.087C103.614,40.242 100.424,39.464 97.256,38.602C94.027,37.723 90.809,36.805 87.602,35.853C82.859,34.45 78.111,33.047 73.397,31.549C71.278,30.873 69.114,30.309 67.074,29.402C67.487,27.876 67.895,26.354 68.309,24.828C68.383,24.828 68.456,24.828 68.513,24.867C69.299,25.453 70.024,25.35 70.689,24.557C71.204,23.943 71.726,23.335 72.247,22.726C72.745,22.146 73.17,22.107 73.669,22.766C74.36,23.684 75.08,24.58 75.782,25.487C76.134,25.938 76.4,25.943 76.763,25.509C77.454,24.681 78.122,23.831 78.876,23.059C79.601,22.321 79.913,22.332 80.564,23.132C81.244,23.966 81.913,24.816 82.548,25.69C82.859,26.118 83.114,26.101 83.471,25.757C84.247,25.002 84.893,24.135 85.613,23.329C86.383,22.473 86.678,22.49 87.409,23.397C88.021,24.157 88.599,24.94 89.165,25.729C89.641,26.388 89.993,26.309 90.452,25.735C91.103,24.918 91.777,24.124 92.48,23.346C93.12,22.636 93.375,22.636 93.964,23.369C94.616,24.18 95.273,24.997 95.885,25.847C96.31,26.439 96.695,26.523 97.188,25.898C97.812,25.104 98.48,24.349 99.149,23.588C99.88,22.755 100.078,22.766 100.758,23.588C101.466,24.445 102.14,25.335 102.815,26.219C103.166,26.681 103.427,26.687 103.772,26.236C104.469,25.324 105.325,24.546 106.073,23.667C106.554,23.104 106.996,23.126 107.449,23.678C108.186,24.563 108.889,25.47 109.569,26.394C109.937,26.901 110.22,26.923 110.611,26.439C111.314,25.571 112.028,24.715 112.781,23.892C113.387,23.228 113.727,23.239 114.3,23.949C114.912,24.704 115.518,25.47 116.09,26.259C116.776,27.188 116.815,27.194 117.597,26.292C118.215,25.583 118.81,24.856 119.427,24.146C120.192,23.267 120.402,23.278 121.082,24.185C121.728,25.047 122.425,25.876 123.054,26.754C123.422,27.261 123.694,27.25 124.09,26.766C124.793,25.904 125.501,25.042 126.249,24.214C126.906,23.487 127.11,23.498 127.722,24.236C128.385,25.042 129.037,25.864 129.643,26.709C130.102,27.346 130.419,27.425 130.986,26.771C131.558,26.112 132.028,25.29 132.952,24.997C133.451,26.467 133.677,28.005 134.04,29.504C134.119,29.83 134.17,30.09 134.374,30.461L134.385,30.456Z" style="fill:rgb(255,200,43);fill-rule:nonzero;"/>
            <path d="M103.319,14.36C102.633,13.431 101.999,12.569 101.359,11.707C100.656,10.76 99.409,10.721 98.662,11.622C98.129,12.265 97.574,12.89 97.092,13.566C96.661,14.174 96.378,14.022 96.033,13.504C95.608,12.867 95.137,12.265 94.69,11.639C93.862,10.49 92.712,10.456 91.811,11.549C91.284,12.191 90.735,12.822 90.231,13.487C89.908,13.91 89.687,13.926 89.386,13.464C88.967,12.822 88.491,12.219 88.049,11.6C87.075,10.231 86.015,10.191 84.973,11.476C84.468,12.096 83.947,12.698 83.465,13.335C83.131,13.774 82.916,13.712 82.632,13.279C82.151,12.557 81.63,11.859 81.103,11.166C80.36,10.18 79.205,10.141 78.417,11.07C77.72,11.887 77.046,12.721 76.298,13.622C75.658,12.766 75.068,11.966 74.468,11.172C74.281,10.924 74.236,10.704 74.417,10.417C77.097,6.197 80.219,2.428 84.848,0.158C85.466,-0.147 85.777,-0.056 86.219,0.451C88.848,3.482 91.862,6.034 95.647,7.532C100.888,9.611 105.92,8.839 110.781,6.287C113.206,5.014 115.365,3.363 117.274,1.408C117.665,1.008 117.999,0.896 118.543,1.031C119.467,1.262 120.345,1.583 121.144,2.096C125.263,4.721 127.275,8.845 129.11,13.121C128.38,12.586 128.079,11.453 126.827,11.712C126.396,11.803 126.056,11.87 125.779,12.248C125.241,12.969 124.617,13.634 124.085,14.36C123.716,14.856 123.467,14.777 123.156,14.326C122.697,13.667 122.215,13.031 121.75,12.383C120.912,11.211 119.796,11.16 118.889,12.259C118.334,12.929 117.767,13.583 117.235,14.27C116.917,14.681 116.719,14.614 116.458,14.225C116.005,13.566 115.523,12.929 115.059,12.276C114.135,10.974 113.064,10.935 112.067,12.163C111.54,12.811 110.979,13.431 110.475,14.09C110.169,14.49 109.993,14.462 109.721,14.062C109.195,13.284 108.634,12.529 108.061,11.786C107.404,10.929 106.192,10.912 105.5,11.735C104.786,12.586 104.084,13.442 103.33,14.355L103.319,14.36Z" style="fill:rgb(255,200,43);fill-rule:nonzero;"/>
            <path d="M68.791,23.414C68.932,22.439 69.335,21.549 69.68,20.642C69.878,20.428 69.963,20.146 70.105,19.898C70.802,18.895 71.504,17.909 72.315,16.991C72.768,16.478 73.148,16.501 73.595,17.031C74.343,17.915 74.87,18.94 75.573,19.847C76.23,20.692 76.355,20.698 77.006,19.808C77.601,18.991 78.241,18.208 78.853,17.408C79.505,16.557 79.913,16.563 80.559,17.431C81.222,18.321 81.817,19.267 82.451,20.18C82.899,20.822 83.159,20.76 83.596,20.197C84.321,19.262 85.029,18.315 85.772,17.397C86.366,16.659 86.706,16.636 87.194,17.436C87.811,18.45 88.582,19.352 89.199,20.366C89.692,21.177 89.698,21.154 90.327,20.388C91.075,19.47 91.755,18.501 92.52,17.594C93.149,16.85 93.409,16.845 93.936,17.639C94.548,18.569 95.256,19.43 95.829,20.388C96.418,21.374 96.56,21.352 97.256,20.388C97.891,19.515 98.548,18.659 99.234,17.831C99.84,17.098 100.067,17.149 100.707,17.87C101.5,18.76 102.016,19.842 102.747,20.771C103.166,21.307 103.438,21.318 103.852,20.783C104.509,19.926 105.143,19.059 105.801,18.202C106.532,17.256 106.934,17.25 107.642,18.231C108.271,19.104 108.855,20.011 109.472,20.895C109.92,21.538 110.197,21.464 110.628,20.912C111.353,19.977 112.062,19.031 112.804,18.112C113.387,17.38 113.733,17.369 114.226,18.169C114.827,19.149 115.569,20.033 116.175,21.008C116.725,21.898 116.793,21.881 117.467,21.025C118.192,20.09 118.889,19.138 119.654,18.231C120.153,17.639 120.555,17.695 120.951,18.332C121.58,19.335 122.334,20.247 122.952,21.261C123.433,22.045 123.592,22.033 124.136,21.307C124.821,20.388 125.518,19.47 126.243,18.585C126.861,17.836 127.088,17.876 127.717,18.585C128.51,19.476 129.025,20.552 129.762,21.487C130.159,21.988 130.448,22.112 130.873,21.532C131.111,21.205 131.337,20.822 131.819,20.783C132.079,21.695 132.34,22.602 132.601,23.515C132.283,24.27 131.671,24.811 131.15,25.408C130.533,26.118 130.181,26.09 129.558,25.34C129.133,24.833 128.753,24.292 128.334,23.78C127.541,22.811 126.606,22.783 125.762,23.69C125.241,24.253 124.753,24.839 124.204,25.38C123.745,25.825 123.365,25.78 122.963,25.335C122.442,24.771 122.022,24.123 121.518,23.549C120.702,22.625 119.892,22.608 119.036,23.498C118.504,24.05 117.965,24.597 117.467,25.177C117.031,25.69 116.606,25.69 116.186,25.132C115.727,24.518 115.217,23.943 114.742,23.346C114.09,22.523 113.178,22.45 112.385,23.154C111.812,23.667 111.365,24.298 110.855,24.867C110.35,25.436 109.863,25.442 109.37,24.867C108.894,24.309 108.469,23.712 108.01,23.149C107.296,22.276 106.271,22.253 105.5,23.098C105.104,23.538 104.741,24.005 104.345,24.445C103.5,25.374 103.126,25.363 102.361,24.405C101.993,23.943 101.647,23.464 101.268,23.008C100.514,22.107 99.557,22.073 98.763,22.94C98.248,23.509 97.704,24.045 97.194,24.619C96.724,25.149 96.322,25.064 95.891,24.574C95.387,23.999 94.956,23.357 94.446,22.788C93.704,21.954 92.916,21.915 92.095,22.664C91.5,23.205 90.996,23.825 90.469,24.428C89.998,24.968 89.568,25.002 89.12,24.377C88.695,23.785 88.197,23.244 87.743,22.67C87.007,21.74 85.987,21.706 85.165,22.585C84.712,23.07 84.327,23.611 83.868,24.09C83.21,24.777 82.882,24.777 82.247,24.05C81.788,23.526 81.403,22.94 80.938,22.428C80.145,21.554 79.233,21.554 78.428,22.428C77.935,22.963 77.494,23.554 76.95,24.045C76.428,24.518 75.958,24.501 75.527,23.943C75.102,23.391 74.683,22.833 74.241,22.298C73.488,21.385 72.564,21.352 71.737,22.214C71.255,22.715 70.768,23.211 70.298,23.729C69.544,24.552 69.255,24.484 68.774,23.419L68.791,23.414Z" style="fill:rgb(255,200,43);fill-rule:nonzero;"/>
            <path d="M71.403,16.315C71.958,14.89 72.672,13.549 73.482,12.056C74.423,13.346 75.289,14.535 76.219,15.808C77.256,14.529 78.287,13.318 79.239,12.05C79.647,11.504 79.828,11.566 80.179,12.084C80.916,13.183 81.749,14.214 82.463,15.329C82.899,16.011 83.137,15.87 83.545,15.329C84.338,14.276 85.199,13.273 86.004,12.225C86.349,11.774 86.559,11.718 86.905,12.231C87.664,13.357 88.508,14.422 89.25,15.56C89.653,16.18 89.862,16.095 90.265,15.572C91.205,14.332 92.202,13.138 93.239,11.848C94.355,13.397 95.409,14.856 96.503,16.377C97.517,15.11 98.497,13.949 99.404,12.732C99.851,12.129 100.089,12.039 100.548,12.738C101.376,14.017 102.305,15.228 103.257,16.557C104.446,15.081 105.568,13.684 106.758,12.208C107.744,13.583 108.69,14.862 109.586,16.174C109.925,16.676 110.129,16.653 110.481,16.191C111.302,15.11 112.175,14.073 113.002,13.003C113.342,12.563 113.569,12.389 113.96,12.991C114.719,14.152 115.574,15.256 116.362,16.405C116.657,16.828 116.849,16.884 117.189,16.439C118.028,15.335 118.934,14.276 119.773,13.166C120.153,12.665 120.374,12.648 120.736,13.177C121.614,14.467 122.544,15.729 123.529,17.104C124.532,15.859 125.541,14.726 126.408,13.504C126.986,12.687 127.235,12.946 127.666,13.594C128.414,14.726 129.048,16.05 130.079,16.839C130.992,17.538 131.071,18.371 131.366,19.233C131.32,19.476 131.224,19.695 131.071,19.892C130.504,20.631 130.17,20.648 129.654,19.864C129.212,19.194 128.708,18.574 128.249,17.921C127.592,16.991 126.668,16.963 125.87,17.791C125.314,18.371 124.912,19.076 124.379,19.673C123.739,20.388 123.467,20.388 122.912,19.639C122.453,19.025 121.983,18.422 121.563,17.78C120.9,16.766 119.96,16.715 119.144,17.616C118.674,18.129 118.226,18.664 117.812,19.228C117.036,20.276 116.781,20.27 115.937,19.239C115.495,18.698 115.195,18.062 114.736,17.532C113.903,16.563 112.979,16.563 112.22,17.577C111.761,18.191 111.268,18.777 110.781,19.369C110.186,20.084 109.903,20.084 109.342,19.312C108.872,18.664 108.481,17.966 107.959,17.352C107.149,16.394 106.345,16.377 105.523,17.312C105.013,17.887 104.622,18.552 104.107,19.121C103.347,19.96 103.155,19.971 102.56,19.053C102.14,18.411 101.647,17.819 101.211,17.194C100.565,16.27 99.63,16.242 98.837,17.087C98.293,17.673 97.834,18.332 97.336,18.957C96.758,19.684 96.48,19.662 95.868,18.935C95.375,18.349 94.962,17.701 94.537,17.064C93.851,16.034 92.843,16 92.044,16.963C91.511,17.605 90.95,18.231 90.446,18.895C90.061,19.408 89.681,19.391 89.25,18.924C88.701,18.332 88.338,17.611 87.845,16.98C86.876,15.752 85.992,15.752 85.092,16.997C84.684,17.56 84.247,18.107 83.766,18.608C83.159,19.245 82.774,19.222 82.253,18.49C81.794,17.836 81.392,17.143 80.865,16.535C80.14,15.695 79.307,15.684 78.564,16.507C78.026,17.104 77.635,17.814 77.074,18.394C76.406,19.087 76.054,19.076 75.51,18.27C75.119,17.69 74.672,17.16 74.275,16.586C73.618,15.628 73.012,15.526 71.975,16.152C71.799,16.259 71.652,16.428 71.414,16.326L71.403,16.315Z" style="fill:rgb(255,200,43);fill-rule:nonzero;"/>
            <path d="M71.403,16.315C72.638,15.025 73.59,15.11 74.615,16.586C74.831,16.901 75.068,17.2 75.289,17.51C75.973,18.46 76.687,18.462 77.431,17.515C77.754,17.104 78.071,16.693 78.4,16.287C79.216,15.284 80.349,15.335 81.12,16.411C81.624,17.121 82.14,17.82 82.621,18.546C82.916,18.986 83.159,19.014 83.482,18.58C83.987,17.915 84.519,17.273 85.035,16.62C85.987,15.414 87.041,15.425 87.959,16.665C88.27,17.087 88.542,17.527 88.848,17.955C89.148,18.372 89.466,18.783 89.823,19.256C90.559,18.343 91.256,17.482 91.953,16.62C92.707,15.684 93.93,15.729 94.627,16.715C95.149,17.453 95.693,18.18 96.174,18.941C96.492,19.436 96.712,19.346 97.013,18.952C97.562,18.236 98.123,17.527 98.69,16.822C99.449,15.887 100.696,15.927 101.376,16.896C101.897,17.634 102.435,18.36 102.917,19.121C103.206,19.572 103.398,19.611 103.727,19.172C104.288,18.422 104.883,17.696 105.478,16.969C106.209,16.073 107.41,16.09 108.073,17.014C108.719,17.915 109.359,18.817 110.084,19.831C110.826,18.901 111.501,18.045 112.181,17.2C112.968,16.225 114.113,16.231 114.844,17.222C115.501,18.113 116.141,19.025 116.838,20C117.609,19.048 118.317,18.152 119.042,17.273C119.728,16.451 120.974,16.49 121.592,17.352C122.141,18.113 122.691,18.873 123.201,19.662C123.501,20.124 123.711,20.112 124.028,19.684C124.566,18.958 125.133,18.259 125.705,17.555C126.498,16.575 127.734,16.642 128.453,17.684C128.748,18.113 129.059,18.535 129.354,18.963C129.654,19.391 129.943,19.82 130.266,20.287C130.788,20.062 130.935,19.493 131.354,19.211C131.598,19.707 131.756,20.22 131.824,20.766C131.751,20.839 131.66,20.901 131.598,20.98C130.691,22.096 129.824,22.043 128.997,20.822C128.527,20.129 128.011,19.47 127.586,18.755C127.195,18.107 126.94,18 126.442,18.698C125.541,19.966 124.549,21.166 123.529,22.479C122.419,20.879 121.371,19.374 120.277,17.803C119.291,19.065 118.305,20.236 117.439,21.487C116.861,22.321 116.566,22.141 116.118,21.403C115.467,20.338 114.685,19.346 114.033,18.276C113.608,17.583 113.365,17.735 112.968,18.287C112.215,19.329 111.353,20.298 110.634,21.358C110.107,22.129 109.846,21.943 109.421,21.284C108.6,20.005 107.699,18.777 106.764,17.425C105.71,18.789 104.718,20.039 103.767,21.312C103.415,21.786 103.217,21.921 102.826,21.312C102.055,20.112 101.189,18.974 100.395,17.791C100.084,17.318 99.88,17.358 99.568,17.774C98.582,19.076 97.579,20.36 96.509,21.746C95.415,20.174 94.367,18.67 93.245,17.053C92.219,18.383 91.211,19.645 90.253,20.946C89.834,21.515 89.619,21.498 89.245,20.901C88.508,19.724 87.675,18.603 86.916,17.436C86.587,16.935 86.383,16.941 86.032,17.414C85.188,18.563 84.287,19.667 83.443,20.811C83.086,21.29 82.876,21.29 82.553,20.783C81.873,19.729 81.154,18.704 80.434,17.679C79.732,16.665 79.726,16.67 79.001,17.617C78.236,18.608 77.448,19.583 76.717,20.597C76.321,21.143 76.105,21.059 75.765,20.546C75,19.386 74.162,18.27 73.397,17.11C73.057,16.597 72.842,16.631 72.496,17.087C71.748,18.09 70.966,19.065 70.196,20.056C69.748,19.853 70.082,19.605 70.156,19.374C70.451,18.298 70.91,17.296 71.397,16.293L71.403,16.315Z" style="fill:rgb(194,34,52);fill-rule:nonzero;"/>
            <path d="M68.791,23.414C69.329,24.287 69.805,24.169 70.343,23.374C70.694,22.862 71.165,22.433 71.584,21.971C72.462,21.008 73.567,21.036 74.388,22.05C74.825,22.591 75.272,23.126 75.663,23.701C76.06,24.293 76.394,24.456 76.893,23.791C77.284,23.262 77.76,22.794 78.202,22.304C79.25,21.126 80.281,21.177 81.284,22.383C81.873,23.093 82.304,24.355 83.108,24.338C83.737,24.321 84.355,23.16 84.956,22.49C85.981,21.352 87.103,21.374 88.027,22.574C88.412,23.07 88.876,23.515 89.188,24.05C89.687,24.907 90.044,24.648 90.514,24.039C90.916,23.515 91.392,23.053 91.84,22.563C92.752,21.56 93.84,21.588 94.701,22.648C95.205,23.267 95.71,23.887 96.191,24.529C96.469,24.907 96.678,24.912 96.984,24.552C97.472,23.966 97.999,23.408 98.509,22.833C99.562,21.645 100.605,21.684 101.585,22.946C101.993,23.47 102.418,23.977 102.792,24.518C103.155,25.053 103.466,25.132 103.891,24.58C104.316,24.033 104.803,23.526 105.262,23.008C106.294,21.842 107.359,21.904 108.339,23.121C108.9,23.819 109.331,25.019 110.084,25.064C110.86,25.115 111.331,23.909 111.937,23.256C113.087,22.022 114.062,22.067 115.155,23.391C115.716,24.067 116.147,25.273 116.906,25.25C117.518,25.233 118.101,24.118 118.679,23.476C119.841,22.186 120.804,22.197 121.892,23.543C122.459,24.242 123.008,24.946 123.609,25.701C124.3,24.929 124.929,24.231 125.547,23.532C126.549,22.394 127.626,22.411 128.561,23.6C128.991,24.146 129.433,24.681 129.83,25.256C130.193,25.78 130.465,25.87 130.918,25.312C131.445,24.676 131.921,23.977 132.618,23.498C132.731,23.994 132.844,24.49 132.958,24.985C132.238,25.786 131.484,26.557 130.805,27.385C130.391,27.892 130.176,27.831 129.819,27.329C129.071,26.281 128.227,25.301 127.473,24.259C127.127,23.78 126.935,23.791 126.566,24.236C125.615,25.391 124.623,26.507 123.552,27.752C122.595,26.518 121.643,25.352 120.759,24.129C120.385,23.611 120.175,23.594 119.779,24.09C118.997,25.064 118.13,25.977 117.354,26.957C116.934,27.481 116.668,27.509 116.271,26.946C115.586,25.983 114.804,25.087 114.135,24.112C113.659,23.414 113.353,23.453 112.86,24.101C112.169,25.014 111.342,25.825 110.645,26.738C110.146,27.385 109.863,27.278 109.444,26.676C108.809,25.763 108.05,24.935 107.432,24.011C106.889,23.205 106.537,23.352 106.016,24.033C105.296,24.969 104.469,25.819 103.71,26.732C103.381,27.126 103.189,27.166 102.854,26.709C102.078,25.639 101.217,24.631 100.441,23.56C100.101,23.093 99.902,23.059 99.528,23.526C98.792,24.45 97.942,25.29 97.239,26.236C96.65,27.036 96.287,26.856 95.8,26.169C95.115,25.205 94.355,24.293 93.647,23.346C93.353,22.952 93.143,22.884 92.792,23.318C91.959,24.343 91.052,25.312 90.219,26.332C89.834,26.799 89.602,26.732 89.279,26.287C88.514,25.25 87.704,24.248 86.939,23.211C86.604,22.755 86.372,22.738 85.998,23.194C85.159,24.214 84.253,25.183 83.409,26.197C83.069,26.602 82.876,26.608 82.565,26.169C81.851,25.183 81.04,24.264 80.366,23.25C79.828,22.445 79.46,22.709 78.995,23.267C78.236,24.174 77.443,25.053 76.695,25.971C76.338,26.411 76.134,26.445 75.782,25.949C75.012,24.873 74.15,23.864 73.38,22.794C73.051,22.338 72.847,22.388 72.53,22.771C71.748,23.707 70.898,24.586 70.167,25.555C69.612,26.287 69.238,26.163 68.808,25.487C68.66,25.256 68.473,25.042 68.303,24.822C68.411,24.332 68.513,23.848 68.796,23.414L68.791,23.414Z" style="fill:rgb(77,141,65);fill-rule:nonzero;"/>
            <path d="M70.167,19.391C70.19,19.616 70.037,19.853 70.207,20.073C70.077,20.304 69.969,20.546 69.686,20.636C69.782,20.197 69.85,19.746 70.167,19.391Z" style="fill:rgb(207,82,62);fill-rule:nonzero;"/>
            <path d="M136.476,46.991C136.023,43.396 135.842,39.988 135.371,36.394C135.326,36.033 135.264,35.706 135.23,35.143C137.111,34.929 138.856,34.585 140.686,34.258C149.378,32.703 158.154,31.836 166.999,31.926C170.206,31.96 173.413,32.213 176.529,32.923C179.555,33.611 182.512,34.596 184.609,37.149C185.187,37.853 185.294,38.309 184.473,38.963C181.028,41.706 176.965,43.351 172.772,44.636C166.715,46.495 160.528,47.7 154.205,48.117C149.854,48.405 145.513,48.241 141.185,47.717C139.609,47.526 138,47.515 136.476,46.991Z" style="fill:rgb(194,33,52);fill-rule:nonzero;"/>
            <path d="M49.504,40.608C49.895,39.058 51.498,38.112 53.051,38.518C54.541,38.906 55.504,40.489 55.158,41.977C54.807,43.498 53.158,44.501 51.623,44.129C50.076,43.757 49.113,42.157 49.504,40.602L49.504,40.608Z" style="fill:white;fill-rule:nonzero;"/>
            <path d="M26.375,37.171C26.766,35.639 28.409,34.681 29.933,35.092C31.429,35.498 32.37,37.07 32.024,38.568C31.673,40.078 30.007,41.081 28.477,40.698C26.925,40.309 25.979,38.721 26.375,37.166L26.375,37.171Z" style="fill:white;fill-rule:nonzero;"/>
            <path d="M60.926,40.681C62.462,41.064 63.419,42.613 63.062,44.123C62.694,45.678 61.079,46.647 59.515,46.253C57.957,45.864 56.994,44.236 57.413,42.704C57.827,41.188 59.385,40.292 60.926,40.675L60.926,40.681Z" style="fill:white;fill-rule:nonzero;"/>
            <path d="M18.142,37.295C18.545,35.734 20.114,34.816 21.689,35.222C23.191,35.605 24.148,37.165 23.797,38.664C23.446,40.18 21.803,41.177 20.262,40.805C18.698,40.427 17.74,38.844 18.142,37.295Z" style="fill:white;fill-rule:nonzero;"/>
            <path d="M116.827,58.044C116.413,59.61 114.821,60.511 113.24,60.078C111.727,59.661 110.821,58.095 111.223,56.579C111.625,55.069 113.2,54.134 114.719,54.506C116.294,54.895 117.24,56.489 116.832,58.044L116.827,58.044Z" style="fill:white;fill-rule:nonzero;"/>
            <path d="M75.17,50.258C73.663,49.881 72.683,48.292 73.046,46.799C73.42,45.261 75.074,44.275 76.61,44.675C78.145,45.075 79.069,46.608 78.7,48.14C78.321,49.712 76.751,50.653 75.165,50.258L75.17,50.258Z" style="fill:white;fill-rule:nonzero;"/>
            <path d="M106.894,52.974C108.458,53.368 109.416,54.996 108.991,56.529C108.571,58.022 106.962,58.951 105.466,58.562C103.88,58.151 102.979,56.596 103.398,55.013C103.801,53.492 105.353,52.591 106.894,52.979L106.894,52.974Z" style="fill:white;fill-rule:nonzero;"/>
            <path d="M97.857,56.562C96.35,56.196 95.387,54.63 95.732,53.109C96.084,51.571 97.732,50.562 99.274,50.946C100.781,51.323 101.732,52.889 101.381,54.41C101.019,55.971 99.426,56.945 97.857,56.562Z" style="fill:white;fill-rule:nonzero;"/>
            <path d="M41.894,38.957C42.274,37.425 43.804,36.495 45.345,36.85C46.92,37.216 47.911,38.822 47.515,40.354C47.124,41.858 45.554,42.81 44.042,42.467C42.455,42.1 41.503,40.54 41.894,38.957Z" style="fill:white;fill-rule:nonzero;"/>
            <path d="M37.696,35.65C39.294,36.016 40.262,37.56 39.877,39.132C39.515,40.625 37.928,41.594 36.404,41.261C34.868,40.923 33.849,39.278 34.222,37.74C34.591,36.23 36.149,35.29 37.696,35.645L37.696,35.65Z" style="fill:white;fill-rule:nonzero;"/>
            <path d="M86.434,50.196C86.043,51.729 84.514,52.647 82.973,52.275C81.414,51.898 80.417,50.258 80.831,48.743C81.244,47.227 82.797,46.303 84.327,46.675C85.907,47.053 86.837,48.613 86.434,50.196Z" style="fill:white;fill-rule:nonzero;"/>
            <path d="M67.504,48.241C65.867,47.864 64.932,46.388 65.323,44.788C65.703,43.25 67.21,42.32 68.762,42.67C70.366,43.03 71.323,44.563 70.938,46.146C70.553,47.706 69.091,48.602 67.51,48.236L67.504,48.241Z" style="fill:white;fill-rule:nonzero;"/>
            <path d="M13.814,36.935C15.4,37.323 16.284,38.754 15.904,40.337C15.519,41.966 14.046,42.873 12.426,42.478C10.828,42.089 9.921,40.563 10.34,38.963C10.743,37.425 12.239,36.552 13.814,36.935Z" style="fill:white;fill-rule:nonzero;"/>
            <path d="M93.738,52.298C93.341,53.892 91.913,54.76 90.321,54.382C88.678,53.993 87.766,52.523 88.162,50.923C88.553,49.34 90.1,48.433 91.704,48.844C93.251,49.244 94.129,50.731 93.738,52.298Z" style="fill:white;fill-rule:nonzero;"/>
        </g>
    </g>
</svg>
