<?xml version="1.0" encoding="UTF-8" standalone="no"?>
<!DOCTYPE svg PUBLIC "-//W3C//DTD SVG 1.1//EN" "http://www.w3.org/Graphics/SVG/1.1/DTD/svg11.dtd">
<svg width="100%" height="100%" viewBox="0 0 3873 760" version="1.1" xmlns="http://www.w3.org/2000/svg" xmlns:xlink="http://www.w3.org/1999/xlink" xml:space="preserve" xmlns:serif="http://www.serif.com/" style="fill-rule:evenodd;clip-rule:evenodd;stroke-linejoin:round;stroke-miterlimit:2;">
    <g transform="matrix(1,0,0,1,-435,0)">
        <g transform="matrix(5.49535,-1.25497,1.25497,5.49535,446.394,171.303)">
            <path d="M2.391,25.639C5.315,21.189 10.278,20.749 14.992,20.101C20.992,19.284 26.981,19.718 32.942,20.563C38.761,21.386 44.501,22.608 50.167,24.157C55.623,25.65 61.034,27.295 66.366,29.188C66.598,29.267 66.836,29.324 67.068,29.391C68.065,29.194 68.893,29.757 69.771,30.039C72.394,30.884 75.04,31.656 77.663,32.495C80.853,33.509 84.089,34.394 87.279,35.408C88.876,35.915 90.497,36.343 92.112,36.771C94.741,37.47 97.319,38.388 99.987,38.94C103.104,39.583 106.118,40.608 109.195,41.402C113.931,42.625 118.742,43.526 123.512,44.574C127.7,45.492 131.943,46.208 136.199,46.788C142.879,47.847 149.593,48.365 156.341,47.656C164.228,46.828 171.939,45.228 179.169,41.842C180.875,41.042 182.461,40.005 184.008,38.94C184.971,38.276 184.949,38.005 184.195,37.115C182.863,35.543 181.096,34.664 179.198,33.994C175.056,32.535 170.733,32.259 166.404,32.214C157.078,32.124 147.865,33.273 138.697,34.867C137.547,35.064 136.425,35.611 135.207,35.295C134.368,34.428 134.612,33.239 134.329,32.208C134.176,31.662 133.898,31.019 134.38,30.45C146.873,27.312 159.463,24.749 172.404,24.467C176.217,24.383 180.002,24.67 183.691,25.769C187.81,26.997 189.759,29.222 190.207,33.453C190.564,36.771 190.365,40.05 188.943,43.137C187.368,46.557 184.365,48.484 181.181,50.123C175.821,52.884 170.024,54.264 164.098,55.16C158.987,55.932 153.842,56.236 148.681,56.208C148.165,56.208 147.644,56.309 147.128,56.36C140.884,56.608 134.708,55.864 128.544,55.064C122.413,54.27 116.362,53.047 110.299,51.825C104.877,50.732 99.653,48.968 94.31,47.628C90.457,46.658 86.638,45.515 82.808,44.456C77.46,42.974 72.071,41.628 66.734,40.129C59.668,38.146 52.541,36.36 45.362,34.895C36.517,33.087 27.548,32.095 18.482,33.053C15.128,33.408 11.87,34.073 8.935,35.909C6.669,37.329 5.53,39.312 5.32,41.904C5.286,42.337 5.405,42.822 5.009,43.171C2.323,40.067 1.082,36.535 1.009,32.512C1.003,32.09 1.043,31.701 1.054,31.104C1.235,29.025 1.292,27.611 2.385,25.634L2.391,25.639Z" style="fill:rgb(238,120,37);fill-rule:nonzero;"/>
        </g>
        <g transform="matrix(5.49535,-1.25497,1.25497,5.49535,441.298,174.087)">
            <path d="M5.014,43.177C4.782,38.242 7.23,35.763 12.012,34.095C17.168,32.298 22.568,32.27 27.95,32.467C32.228,32.625 36.472,33.154 40.716,33.763C47.271,34.704 53.617,36.535 60.037,38.05C64.586,39.126 69.119,40.309 73.624,41.56C78.128,42.805 82.644,44.016 87.148,45.256C90.911,46.292 94.661,47.379 98.435,48.388C101.534,49.216 104.577,50.264 107.699,50.962C112.56,52.05 117.45,53.058 122.368,53.858C130.408,55.165 138.499,56.1 146.664,56.174C146.822,56.174 147.74,56.174 147.893,56.236C142.641,57.526 136.522,58.382 131.19,59.244C118.43,61.306 105.568,61.374 92.695,61.345C81.624,61.323 70.57,60.923 59.544,59.931C48.535,58.945 37.605,57.424 26.936,54.45C20.432,52.636 14.086,50.388 8.522,46.422C7.213,45.486 6.012,44.433 5.009,43.171L5.014,43.177Z" style="fill:rgb(194,33,52);fill-rule:nonzero;stroke:white;stroke-width:0.35px;"/>
        </g>
        <g transform="matrix(5.49535,-1.25497,1.25497,5.49535,446.515,173.497)">
            <path d="M134.385,30.456C134.663,32.084 134.918,33.521 135.23,35.143C135.757,38.658 136.21,42.18 136.624,45.712C136.675,46.14 136.833,46.608 136.476,46.996C135.723,47.137 134.89,46.912 134.125,46.81C131.779,46.501 129.445,46.056 127.122,45.605C120.3,44.275 113.495,42.878 106.781,41.087C103.614,40.242 100.424,39.464 97.256,38.602C94.027,37.723 90.809,36.805 87.602,35.853C82.859,34.45 78.111,33.047 73.397,31.549C71.278,30.873 69.114,30.309 67.074,29.402C67.487,27.876 67.895,26.354 68.309,24.828C68.383,24.828 68.456,24.828 68.513,24.867C69.299,25.453 70.024,25.35 70.689,24.557C71.204,23.943 71.726,23.335 72.247,22.726C72.745,22.146 73.17,22.107 73.669,22.766C74.36,23.684 75.08,24.58 75.782,25.487C76.134,25.938 76.4,25.943 76.763,25.509C77.454,24.681 78.122,23.831 78.876,23.059C79.601,22.321 79.913,22.332 80.564,23.132C81.244,23.966 81.913,24.816 82.548,25.69C82.859,26.118 83.114,26.101 83.471,25.757C84.247,25.002 84.893,24.135 85.613,23.329C86.383,22.473 86.678,22.49 87.409,23.397C88.021,24.157 88.599,24.94 89.165,25.729C89.641,26.388 89.993,26.309 90.452,25.735C91.103,24.918 91.777,24.124 92.48,23.346C93.12,22.636 93.375,22.636 93.964,23.369C94.616,24.18 95.273,24.997 95.885,25.847C96.31,26.439 96.695,26.523 97.188,25.898C97.812,25.104 98.48,24.349 99.149,23.588C99.88,22.755 100.078,22.766 100.758,23.588C101.466,24.445 102.14,25.335 102.815,26.219C103.166,26.681 103.427,26.687 103.772,26.236C104.469,25.324 105.325,24.546 106.073,23.667C106.554,23.104 106.996,23.126 107.449,23.678C108.186,24.563 108.889,25.47 109.569,26.394C109.937,26.901 110.22,26.923 110.611,26.439C111.314,25.571 112.028,24.715 112.781,23.892C113.387,23.228 113.727,23.239 114.3,23.949C114.912,24.704 115.518,25.47 116.09,26.259C116.776,27.188 116.815,27.194 117.597,26.292C118.215,25.583 118.81,24.856 119.427,24.146C120.192,23.267 120.402,23.278 121.082,24.185C121.728,25.047 122.425,25.876 123.054,26.754C123.422,27.261 123.694,27.25 124.09,26.766C124.793,25.904 125.501,25.042 126.249,24.214C126.906,23.487 127.11,23.498 127.722,24.236C128.385,25.042 129.037,25.864 129.643,26.709C130.102,27.346 130.419,27.425 130.986,26.771C131.558,26.112 132.028,25.29 132.952,24.997C133.451,26.467 133.677,28.005 134.04,29.504C134.119,29.83 134.17,30.09 134.374,30.461L134.385,30.456Z" style="fill:rgb(255,200,43);fill-rule:nonzero;"/>
        </g>
        <g transform="matrix(5.49535,-1.25497,1.25497,5.49535,444.38,169.927)">
            <path d="M103.319,14.36C102.633,13.431 101.999,12.569 101.359,11.707C100.656,10.76 99.409,10.721 98.662,11.622C98.129,12.265 97.574,12.89 97.092,13.566C96.661,14.174 96.378,14.022 96.033,13.504C95.608,12.867 95.137,12.265 94.69,11.639C93.862,10.49 92.712,10.456 91.811,11.549C91.284,12.191 90.735,12.822 90.231,13.487C89.908,13.91 89.687,13.926 89.386,13.464C88.967,12.822 88.491,12.219 88.049,11.6C87.075,10.231 86.015,10.191 84.973,11.476C84.468,12.096 83.947,12.698 83.465,13.335C83.131,13.774 82.916,13.712 82.632,13.279C82.151,12.557 81.63,11.859 81.103,11.166C80.36,10.18 79.205,10.141 78.417,11.07C77.72,11.887 77.046,12.721 76.298,13.622C75.658,12.766 75.068,11.966 74.468,11.172C74.281,10.924 74.236,10.704 74.417,10.417C77.097,6.197 80.219,2.428 84.848,0.158C85.466,-0.147 85.777,-0.056 86.219,0.451C88.848,3.482 91.862,6.034 95.647,7.532C100.888,9.611 105.92,8.839 110.781,6.287C113.206,5.014 115.365,3.363 117.274,1.408C117.665,1.008 117.999,0.896 118.543,1.031C119.467,1.262 120.345,1.583 121.144,2.096C125.263,4.721 127.275,8.845 129.11,13.121C128.38,12.586 128.079,11.453 126.827,11.712C126.396,11.803 126.056,11.87 125.779,12.248C125.241,12.969 124.617,13.634 124.085,14.36C123.716,14.856 123.467,14.777 123.156,14.326C122.697,13.667 122.215,13.031 121.75,12.383C120.912,11.211 119.796,11.16 118.889,12.259C118.334,12.929 117.767,13.583 117.235,14.27C116.917,14.681 116.719,14.614 116.458,14.225C116.005,13.566 115.523,12.929 115.059,12.276C114.135,10.974 113.064,10.935 112.067,12.163C111.54,12.811 110.979,13.431 110.475,14.09C110.169,14.49 109.993,14.462 109.721,14.062C109.195,13.284 108.634,12.529 108.061,11.786C107.404,10.929 106.192,10.912 105.5,11.735C104.786,12.586 104.084,13.442 103.33,14.355L103.319,14.36Z" style="fill:rgb(255,200,43);fill-rule:nonzero;"/>
        </g>
        <g transform="matrix(5.49535,-1.25497,1.25497,5.49535,442.244,172.516)">
            <path d="M68.791,23.414C68.932,22.439 69.335,21.549 69.68,20.642C69.878,20.428 69.963,20.146 70.105,19.898C70.802,18.895 71.504,17.909 72.315,16.991C72.768,16.478 73.148,16.501 73.595,17.031C74.343,17.915 74.87,18.94 75.573,19.847C76.23,20.692 76.355,20.698 77.006,19.808C77.601,18.991 78.241,18.208 78.853,17.408C79.505,16.557 79.913,16.563 80.559,17.431C81.222,18.321 81.817,19.267 82.451,20.18C82.899,20.822 83.159,20.76 83.596,20.197C84.321,19.262 85.029,18.315 85.772,17.397C86.366,16.659 86.706,16.636 87.194,17.436C87.811,18.45 88.582,19.352 89.199,20.366C89.692,21.177 89.698,21.154 90.327,20.388C91.075,19.47 91.755,18.501 92.52,17.594C93.149,16.85 93.409,16.845 93.936,17.639C94.548,18.569 95.256,19.43 95.829,20.388C96.418,21.374 96.56,21.352 97.256,20.388C97.891,19.515 98.548,18.659 99.234,17.831C99.84,17.098 100.067,17.149 100.707,17.87C101.5,18.76 102.016,19.842 102.747,20.771C103.166,21.307 103.438,21.318 103.852,20.783C104.509,19.926 105.143,19.059 105.801,18.202C106.532,17.256 106.934,17.25 107.642,18.231C108.271,19.104 108.855,20.011 109.472,20.895C109.92,21.538 110.197,21.464 110.628,20.912C111.353,19.977 112.062,19.031 112.804,18.112C113.387,17.38 113.733,17.369 114.226,18.169C114.827,19.149 115.569,20.033 116.175,21.008C116.725,21.898 116.793,21.881 117.467,21.025C118.192,20.09 118.889,19.138 119.654,18.231C120.153,17.639 120.555,17.695 120.951,18.332C121.58,19.335 122.334,20.247 122.952,21.261C123.433,22.045 123.592,22.033 124.136,21.307C124.821,20.388 125.518,19.47 126.243,18.585C126.861,17.836 127.088,17.876 127.717,18.585C128.51,19.476 129.025,20.552 129.762,21.487C130.159,21.988 130.448,22.112 130.873,21.532C131.111,21.205 131.337,20.822 131.819,20.783C132.079,21.695 132.34,22.602 132.601,23.515C132.283,24.27 131.671,24.811 131.15,25.408C130.533,26.118 130.181,26.09 129.558,25.34C129.133,24.833 128.753,24.292 128.334,23.78C127.541,22.811 126.606,22.783 125.762,23.69C125.241,24.253 124.753,24.839 124.204,25.38C123.745,25.825 123.365,25.78 122.963,25.335C122.442,24.771 122.022,24.123 121.518,23.549C120.702,22.625 119.892,22.608 119.036,23.498C118.504,24.05 117.965,24.597 117.467,25.177C117.031,25.69 116.606,25.69 116.186,25.132C115.727,24.518 115.217,23.943 114.742,23.346C114.09,22.523 113.178,22.45 112.385,23.154C111.812,23.667 111.365,24.298 110.855,24.867C110.35,25.436 109.863,25.442 109.37,24.867C108.894,24.309 108.469,23.712 108.01,23.149C107.296,22.276 106.271,22.253 105.5,23.098C105.104,23.538 104.741,24.005 104.345,24.445C103.5,25.374 103.126,25.363 102.361,24.405C101.993,23.943 101.647,23.464 101.268,23.008C100.514,22.107 99.557,22.073 98.763,22.94C98.248,23.509 97.704,24.045 97.194,24.619C96.724,25.149 96.322,25.064 95.891,24.574C95.387,23.999 94.956,23.357 94.446,22.788C93.704,21.954 92.916,21.915 92.095,22.664C91.5,23.205 90.996,23.825 90.469,24.428C89.998,24.968 89.568,25.002 89.12,24.377C88.695,23.785 88.197,23.244 87.743,22.67C87.007,21.74 85.987,21.706 85.165,22.585C84.712,23.07 84.327,23.611 83.868,24.09C83.21,24.777 82.882,24.777 82.247,24.05C81.788,23.526 81.403,22.94 80.938,22.428C80.145,21.554 79.233,21.554 78.428,22.428C77.935,22.963 77.494,23.554 76.95,24.045C76.428,24.518 75.958,24.501 75.527,23.943C75.102,23.391 74.683,22.833 74.241,22.298C73.488,21.385 72.564,21.352 71.737,22.214C71.255,22.715 70.768,23.211 70.298,23.729C69.544,24.552 69.255,24.484 68.774,23.419L68.791,23.414Z" style="fill:rgb(255,200,43);fill-rule:nonzero;"/>
        </g>
        <g transform="matrix(5.49535,-1.25497,1.25497,5.49535,444.223,171.788)">
            <path d="M71.403,16.315C71.958,14.89 72.672,13.549 73.482,12.056C74.423,13.346 75.289,14.535 76.219,15.808C77.256,14.529 78.287,13.318 79.239,12.05C79.647,11.504 79.828,11.566 80.179,12.084C80.916,13.183 81.749,14.214 82.463,15.329C82.899,16.011 83.137,15.87 83.545,15.329C84.338,14.276 85.199,13.273 86.004,12.225C86.349,11.774 86.559,11.718 86.905,12.231C87.664,13.357 88.508,14.422 89.25,15.56C89.653,16.18 89.862,16.095 90.265,15.572C91.205,14.332 92.202,13.138 93.239,11.848C94.355,13.397 95.409,14.856 96.503,16.377C97.517,15.11 98.497,13.949 99.404,12.732C99.851,12.129 100.089,12.039 100.548,12.738C101.376,14.017 102.305,15.228 103.257,16.557C104.446,15.081 105.568,13.684 106.758,12.208C107.744,13.583 108.69,14.862 109.586,16.174C109.925,16.676 110.129,16.653 110.481,16.191C111.302,15.11 112.175,14.073 113.002,13.003C113.342,12.563 113.569,12.389 113.96,12.991C114.719,14.152 115.574,15.256 116.362,16.405C116.657,16.828 116.849,16.884 117.189,16.439C118.028,15.335 118.934,14.276 119.773,13.166C120.153,12.665 120.374,12.648 120.736,13.177C121.614,14.467 122.544,15.729 123.529,17.104C124.532,15.859 125.541,14.726 126.408,13.504C126.986,12.687 127.235,12.946 127.666,13.594C128.414,14.726 129.048,16.05 130.079,16.839C130.992,17.538 131.071,18.371 131.366,19.233C131.32,19.476 131.224,19.695 131.071,19.892C130.504,20.631 130.17,20.648 129.654,19.864C129.212,19.194 128.708,18.574 128.249,17.921C127.592,16.991 126.668,16.963 125.87,17.791C125.314,18.371 124.912,19.076 124.379,19.673C123.739,20.388 123.467,20.388 122.912,19.639C122.453,19.025 121.983,18.422 121.563,17.78C120.9,16.766 119.96,16.715 119.144,17.616C118.674,18.129 118.226,18.664 117.812,19.228C117.036,20.276 116.781,20.27 115.937,19.239C115.495,18.698 115.195,18.062 114.736,17.532C113.903,16.563 112.979,16.563 112.22,17.577C111.761,18.191 111.268,18.777 110.781,19.369C110.186,20.084 109.903,20.084 109.342,19.312C108.872,18.664 108.481,17.966 107.959,17.352C107.149,16.394 106.345,16.377 105.523,17.312C105.013,17.887 104.622,18.552 104.107,19.121C103.347,19.96 103.155,19.971 102.56,19.053C102.14,18.411 101.647,17.819 101.211,17.194C100.565,16.27 99.63,16.242 98.837,17.087C98.293,17.673 97.834,18.332 97.336,18.957C96.758,19.684 96.48,19.662 95.868,18.935C95.375,18.349 94.962,17.701 94.537,17.064C93.851,16.034 92.843,16 92.044,16.963C91.511,17.605 90.95,18.231 90.446,18.895C90.061,19.408 89.681,19.391 89.25,18.924C88.701,18.332 88.338,17.611 87.845,16.98C86.876,15.752 85.992,15.752 85.092,16.997C84.684,17.56 84.247,18.107 83.766,18.608C83.159,19.245 82.774,19.222 82.253,18.49C81.794,17.836 81.392,17.143 80.865,16.535C80.14,15.695 79.307,15.684 78.564,16.507C78.026,17.104 77.635,17.814 77.074,18.394C76.406,19.087 76.054,19.076 75.51,18.27C75.119,17.69 74.672,17.16 74.275,16.586C73.618,15.628 73.012,15.526 71.975,16.152C71.799,16.259 71.652,16.428 71.414,16.326L71.403,16.315Z" style="fill:rgb(255,200,43);fill-rule:nonzero;"/>
        </g>
        <g transform="matrix(5.49535,-1.25497,1.25497,5.49535,441.446,173.916)">
            <path d="M71.403,16.315C72.638,15.025 73.59,15.11 74.615,16.586C74.831,16.901 75.068,17.2 75.289,17.51C75.973,18.46 76.687,18.462 77.431,17.515C77.754,17.104 78.071,16.693 78.4,16.287C79.216,15.284 80.349,15.335 81.12,16.411C81.624,17.121 82.14,17.82 82.621,18.546C82.916,18.986 83.159,19.014 83.482,18.58C83.987,17.915 84.519,17.273 85.035,16.62C85.987,15.414 87.041,15.425 87.959,16.665C88.27,17.087 88.542,17.527 88.848,17.955C89.148,18.372 89.466,18.783 89.823,19.256C90.559,18.343 91.256,17.482 91.953,16.62C92.707,15.684 93.93,15.729 94.627,16.715C95.149,17.453 95.693,18.18 96.174,18.941C96.492,19.436 96.712,19.346 97.013,18.952C97.562,18.236 98.123,17.527 98.69,16.822C99.449,15.887 100.696,15.927 101.376,16.896C101.897,17.634 102.435,18.36 102.917,19.121C103.206,19.572 103.398,19.611 103.727,19.172C104.288,18.422 104.883,17.696 105.478,16.969C106.209,16.073 107.41,16.09 108.073,17.014C108.719,17.915 109.359,18.817 110.084,19.831C110.826,18.901 111.501,18.045 112.181,17.2C112.968,16.225 114.113,16.231 114.844,17.222C115.501,18.113 116.141,19.025 116.838,20C117.609,19.048 118.317,18.152 119.042,17.273C119.728,16.451 120.974,16.49 121.592,17.352C122.141,18.113 122.691,18.873 123.201,19.662C123.501,20.124 123.711,20.112 124.028,19.684C124.566,18.958 125.133,18.259 125.705,17.555C126.498,16.575 127.734,16.642 128.453,17.684C128.748,18.113 129.059,18.535 129.354,18.963C129.654,19.391 129.943,19.82 130.266,20.287C130.788,20.062 130.935,19.493 131.354,19.211C131.598,19.707 131.756,20.22 131.824,20.766C131.751,20.839 131.66,20.901 131.598,20.98C130.691,22.096 129.824,22.043 128.997,20.822C128.527,20.129 128.011,19.47 127.586,18.755C127.195,18.107 126.94,18 126.442,18.698C125.541,19.966 124.549,21.166 123.529,22.479C122.419,20.879 121.371,19.374 120.277,17.803C119.291,19.065 118.305,20.236 117.439,21.487C116.861,22.321 116.566,22.141 116.118,21.403C115.467,20.338 114.685,19.346 114.033,18.276C113.608,17.583 113.365,17.735 112.968,18.287C112.215,19.329 111.353,20.298 110.634,21.358C110.107,22.129 109.846,21.943 109.421,21.284C108.6,20.005 107.699,18.777 106.764,17.425C105.71,18.789 104.718,20.039 103.767,21.312C103.415,21.786 103.217,21.921 102.826,21.312C102.055,20.112 101.189,18.974 100.395,17.791C100.084,17.318 99.88,17.358 99.568,17.774C98.582,19.076 97.579,20.36 96.509,21.746C95.415,20.174 94.367,18.67 93.245,17.053C92.219,18.383 91.211,19.645 90.253,20.946C89.834,21.515 89.619,21.498 89.245,20.901C88.508,19.724 87.675,18.603 86.916,17.436C86.587,16.935 86.383,16.941 86.032,17.414C85.188,18.563 84.287,19.667 83.443,20.811C83.086,21.29 82.876,21.29 82.553,20.783C81.873,19.729 81.154,18.704 80.434,17.679C79.732,16.665 79.726,16.67 79.001,17.617C78.236,18.608 77.448,19.583 76.717,20.597C76.321,21.143 76.105,21.059 75.765,20.546C75,19.386 74.162,18.27 73.397,17.11C73.057,16.597 72.842,16.631 72.496,17.087C71.748,18.09 70.966,19.065 70.196,20.056C69.748,19.853 70.082,19.605 70.156,19.374C70.451,18.298 70.91,17.296 71.397,16.293L71.403,16.315Z" style="fill:rgb(194,34,52);fill-rule:nonzero;"/>
        </g>
        <g transform="matrix(5.49535,-1.25497,1.25497,5.49535,445.269,173.854)">
            <path d="M68.791,23.414C69.329,24.287 69.805,24.169 70.343,23.374C70.694,22.862 71.165,22.433 71.584,21.971C72.462,21.008 73.567,21.036 74.388,22.05C74.825,22.591 75.272,23.126 75.663,23.701C76.06,24.293 76.394,24.456 76.893,23.791C77.284,23.262 77.76,22.794 78.202,22.304C79.25,21.126 80.281,21.177 81.284,22.383C81.873,23.093 82.304,24.355 83.108,24.338C83.737,24.321 84.355,23.16 84.956,22.49C85.981,21.352 87.103,21.374 88.027,22.574C88.412,23.07 88.876,23.515 89.188,24.05C89.687,24.907 90.044,24.648 90.514,24.039C90.916,23.515 91.392,23.053 91.84,22.563C92.752,21.56 93.84,21.588 94.701,22.648C95.205,23.267 95.71,23.887 96.191,24.529C96.469,24.907 96.678,24.912 96.984,24.552C97.472,23.966 97.999,23.408 98.509,22.833C99.562,21.645 100.605,21.684 101.585,22.946C101.993,23.47 102.418,23.977 102.792,24.518C103.155,25.053 103.466,25.132 103.891,24.58C104.316,24.033 104.803,23.526 105.262,23.008C106.294,21.842 107.359,21.904 108.339,23.121C108.9,23.819 109.331,25.019 110.084,25.064C110.86,25.115 111.331,23.909 111.937,23.256C113.087,22.022 114.062,22.067 115.155,23.391C115.716,24.067 116.147,25.273 116.906,25.25C117.518,25.233 118.101,24.118 118.679,23.476C119.841,22.186 120.804,22.197 121.892,23.543C122.459,24.242 123.008,24.946 123.609,25.701C124.3,24.929 124.929,24.231 125.547,23.532C126.549,22.394 127.626,22.411 128.561,23.6C128.991,24.146 129.433,24.681 129.83,25.256C130.193,25.78 130.465,25.87 130.918,25.312C131.445,24.676 131.921,23.977 132.618,23.498C132.731,23.994 132.844,24.49 132.958,24.985C132.238,25.786 131.484,26.557 130.805,27.385C130.391,27.892 130.176,27.831 129.819,27.329C129.071,26.281 128.227,25.301 127.473,24.259C127.127,23.78 126.935,23.791 126.566,24.236C125.615,25.391 124.623,26.507 123.552,27.752C122.595,26.518 121.643,25.352 120.759,24.129C120.385,23.611 120.175,23.594 119.779,24.09C118.997,25.064 118.13,25.977 117.354,26.957C116.934,27.481 116.668,27.509 116.271,26.946C115.586,25.983 114.804,25.087 114.135,24.112C113.659,23.414 113.353,23.453 112.86,24.101C112.169,25.014 111.342,25.825 110.645,26.738C110.146,27.385 109.863,27.278 109.444,26.676C108.809,25.763 108.05,24.935 107.432,24.011C106.889,23.205 106.537,23.352 106.016,24.033C105.296,24.969 104.469,25.819 103.71,26.732C103.381,27.126 103.189,27.166 102.854,26.709C102.078,25.639 101.217,24.631 100.441,23.56C100.101,23.093 99.902,23.059 99.528,23.526C98.792,24.45 97.942,25.29 97.239,26.236C96.65,27.036 96.287,26.856 95.8,26.169C95.115,25.205 94.355,24.293 93.647,23.346C93.353,22.952 93.143,22.884 92.792,23.318C91.959,24.343 91.052,25.312 90.219,26.332C89.834,26.799 89.602,26.732 89.279,26.287C88.514,25.25 87.704,24.248 86.939,23.211C86.604,22.755 86.372,22.738 85.998,23.194C85.159,24.214 84.253,25.183 83.409,26.197C83.069,26.602 82.876,26.608 82.565,26.169C81.851,25.183 81.04,24.264 80.366,23.25C79.828,22.445 79.46,22.709 78.995,23.267C78.236,24.174 77.443,25.053 76.695,25.971C76.338,26.411 76.134,26.445 75.782,25.949C75.012,24.873 74.15,23.864 73.38,22.794C73.051,22.338 72.847,22.388 72.53,22.771C71.748,23.707 70.898,24.586 70.167,25.555C69.612,26.287 69.238,26.163 68.808,25.487C68.66,25.256 68.473,25.042 68.303,24.822C68.411,24.332 68.513,23.848 68.796,23.414L68.791,23.414Z" style="fill:rgb(77,141,65);fill-rule:nonzero;"/>
        </g>
        <g transform="matrix(5.49535,-1.25497,1.25497,5.49535,443.014,173.661)">
            <path d="M70.167,19.391C70.19,19.616 70.037,19.853 70.207,20.073C70.077,20.304 69.969,20.546 69.686,20.636C69.782,20.197 69.85,19.746 70.167,19.391Z" style="fill:rgb(207,82,62);fill-rule:nonzero;"/>
        </g>
        <g transform="matrix(5.49535,-1.25497,1.25497,5.49535,444.855,170.185)">
            <path d="M136.476,46.991C136.023,43.396 135.842,39.988 135.371,36.394C135.326,36.033 135.264,35.706 135.23,35.143C137.111,34.929 138.856,34.585 140.686,34.258C149.378,32.703 158.154,31.836 166.999,31.926C170.206,31.96 173.413,32.213 176.529,32.923C179.555,33.611 182.512,34.596 184.609,37.149C185.187,37.853 185.294,38.309 184.473,38.963C181.028,41.706 176.965,43.351 172.772,44.636C166.715,46.495 160.528,47.7 154.205,48.117C149.854,48.405 145.513,48.241 141.185,47.717C139.609,47.526 138,47.515 136.476,46.991Z" style="fill:rgb(194,33,52);fill-rule:nonzero;"/>
        </g>
        <g transform="matrix(5.49535,-1.25497,1.25497,5.49535,444.453,173.145)">
            <path d="M49.504,40.608C49.895,39.058 51.498,38.112 53.051,38.518C54.541,38.906 55.504,40.489 55.158,41.977C54.807,43.498 53.158,44.501 51.623,44.129C50.076,43.757 49.113,42.157 49.504,40.602L49.504,40.608Z" style="fill:white;fill-rule:nonzero;"/>
        </g>
        <g transform="matrix(5.49535,-1.25497,1.25497,5.49535,444.457,169.829)">
            <path d="M26.375,37.171C26.766,35.639 28.409,34.681 29.933,35.092C31.429,35.498 32.37,37.07 32.024,38.568C31.673,40.078 30.007,41.081 28.477,40.698C26.925,40.309 25.979,38.721 26.375,37.166L26.375,37.171Z" style="fill:white;fill-rule:nonzero;"/>
        </g>
        <g transform="matrix(5.49535,-1.25497,1.25497,5.49535,444.805,172.12)">
            <path d="M60.926,40.681C62.462,41.064 63.419,42.613 63.062,44.123C62.694,45.678 61.079,46.647 59.515,46.253C57.957,45.864 56.994,44.236 57.413,42.704C57.827,41.188 59.385,40.292 60.926,40.675L60.926,40.681Z" style="fill:white;fill-rule:nonzero;"/>
        </g>
        <g transform="matrix(5.49535,-1.25497,1.25497,5.49535,446.837,174.321)">
            <path d="M18.142,37.295C18.545,35.734 20.114,34.816 21.689,35.222C23.191,35.605 24.148,37.165 23.797,38.664C23.446,40.18 21.803,41.177 20.262,40.805C18.698,40.427 17.74,38.844 18.142,37.295Z" style="fill:white;fill-rule:nonzero;"/>
        </g>
        <g transform="matrix(5.49535,-1.25497,1.25497,5.49535,446.039,172.778)">
            <path d="M116.827,58.044C116.413,59.61 114.821,60.511 113.24,60.078C111.727,59.661 110.821,58.095 111.223,56.579C111.625,55.069 113.2,54.134 114.719,54.506C116.294,54.895 117.24,56.489 116.832,58.044L116.827,58.044Z" style="fill:white;fill-rule:nonzero;"/>
        </g>
        <g transform="matrix(5.49535,-1.25497,1.25497,5.49535,441.206,172.948)">
            <path d="M75.17,50.258C73.663,49.881 72.683,48.292 73.046,46.799C73.42,45.261 75.074,44.275 76.61,44.675C78.145,45.075 79.069,46.608 78.7,48.14C78.321,49.712 76.751,50.653 75.165,50.258L75.17,50.258Z" style="fill:white;fill-rule:nonzero;"/>
        </g>
        <g transform="matrix(5.49535,-1.25497,1.25497,5.49535,444.533,170.435)">
            <path d="M106.894,52.974C108.458,53.368 109.416,54.996 108.991,56.529C108.571,58.022 106.962,58.951 105.466,58.562C103.88,58.151 102.979,56.596 103.398,55.013C103.801,53.492 105.353,52.591 106.894,52.979L106.894,52.974Z" style="fill:white;fill-rule:nonzero;"/>
        </g>
        <g transform="matrix(5.49535,-1.25497,1.25497,5.49535,442.551,171.033)">
            <path d="M97.857,56.562C96.35,56.196 95.387,54.63 95.732,53.109C96.084,51.571 97.732,50.562 99.274,50.946C100.781,51.323 101.732,52.889 101.381,54.41C101.019,55.971 99.426,56.945 97.857,56.562Z" style="fill:white;fill-rule:nonzero;"/>
        </g>
        <g transform="matrix(5.49535,-1.25497,1.25497,5.49535,441.869,171.706)">
            <path d="M41.894,38.957C42.274,37.425 43.804,36.495 45.345,36.85C46.92,37.216 47.911,38.822 47.515,40.354C47.124,41.858 45.554,42.81 44.042,42.467C42.455,42.1 41.503,40.54 41.894,38.957Z" style="fill:white;fill-rule:nonzero;"/>
        </g>
        <g transform="matrix(5.49535,-1.25497,1.25497,5.49535,445.761,172.002)">
            <path d="M37.696,35.65C39.294,36.016 40.262,37.56 39.877,39.132C39.515,40.625 37.928,41.594 36.404,41.261C34.868,40.923 33.849,39.278 34.222,37.74C34.591,36.23 36.149,35.29 37.696,35.645L37.696,35.65Z" style="fill:white;fill-rule:nonzero;"/>
        </g>
        <g transform="matrix(5.49535,-1.25497,1.25497,5.49535,442.479,172.616)">
            <path d="M86.434,50.196C86.043,51.729 84.514,52.647 82.973,52.275C81.414,51.898 80.417,50.258 80.831,48.743C81.244,47.227 82.797,46.303 84.327,46.675C85.907,47.053 86.837,48.613 86.434,50.196Z" style="fill:white;fill-rule:nonzero;"/>
        </g>
        <g transform="matrix(5.49535,-1.25497,1.25497,5.49535,445.236,171.968)">
            <path d="M67.504,48.241C65.867,47.864 64.932,46.388 65.323,44.788C65.703,43.25 67.21,42.32 68.762,42.67C70.366,43.03 71.323,44.563 70.938,46.146C70.553,47.706 69.091,48.602 67.51,48.236L67.504,48.241Z" style="fill:white;fill-rule:nonzero;"/>
        </g>
        <g transform="matrix(5.49535,-1.25497,1.25497,5.49535,444.903,170.607)">
            <path d="M13.814,36.935C15.4,37.323 16.284,38.754 15.904,40.337C15.519,41.966 14.046,42.873 12.426,42.478C10.828,42.089 9.921,40.563 10.34,38.963C10.743,37.425 12.239,36.552 13.814,36.935Z" style="fill:white;fill-rule:nonzero;"/>
        </g>
        <g transform="matrix(5.49535,-1.25497,1.25497,5.49535,445.951,170.942)">
            <path d="M93.738,52.298C93.341,53.892 91.913,54.76 90.321,54.382C88.678,53.993 87.766,52.523 88.162,50.923C88.553,49.34 90.1,48.433 91.704,48.844C93.251,49.244 94.129,50.731 93.738,52.298Z" style="fill:white;fill-rule:nonzero;"/>
        </g>
    </g>
    <g id="Layer-1" serif:id="Layer 1" transform="matrix(4.16667,0,0,4.16667,565,182)">
        <g transform="matrix(1,0,0,1,639.791,113.306)">
            <path d="M0,-64.607C7.344,-64.603 11.034,-60.507 10.71,-53.393C10.485,-48.461 9.855,-43.667 11.567,-38.516C13.096,-33.92 11.834,-28.443 12.116,-23.372C12.297,-20.118 12.983,-16.886 13.554,-13.663C14.285,-9.529 14.468,-5.581 10.897,-2.474C9.231,-1.025 -0.096,0.003 -1.424,-1.485C-4.112,-4.496 -5.754,-7.83 -3.66,-12.06C1.836,-23.161 -0.612,-34.854 -1.467,-46.388C-1.539,-47.358 -2.879,-48.672 -3.916,-49.056C-8.267,-50.665 -10.797,-53.194 -9.61,-58.166C-8.743,-61.8 -4.563,-64.61 0,-64.607" style="fill:white;fill-rule:nonzero;"/>
        </g>
        <g transform="matrix(1,0,0,1,605.769,22.4455)">
            <path d="M0,101.871C-2.036,101.226 -4.167,100.786 -6.088,99.895C-10.364,97.911 -15.346,96.502 -18.492,93.329C-21.016,90.783 -21.734,86.069 -22.424,82.17C-24.004,73.248 -23.97,64.29 -21.201,55.515C-21.156,55.373 -21.021,55.242 -21.02,55.106C-21.011,49.862 -21.012,44.617 -21.012,38.53C-23.225,39.375 -25.174,39.697 -26.587,40.742C-30.119,43.356 -33.486,42.125 -36.001,39.849C-38.862,37.26 -40.067,33.349 -38.506,29.542C-37.416,26.881 -35.06,25.625 -31.855,26.53C-29.214,27.276 -26.473,27.748 -23.743,28.041C-22.973,28.124 -21.343,27.099 -21.373,26.67C-21.665,22.437 -21.643,18.041 -22.886,14.058C-23.946,10.665 -25.634,7.601 -23.06,4.442C-20.878,1.765 -18.156,0 -14.389,1.425C-10.251,2.991 -6.45,5.138 -6.493,10.099C-6.532,14.71 -7.314,19.332 -7.995,23.915C-8.521,27.461 -7.347,28.861 -3.669,28.712C0.968,28.523 5.632,28.609 10.269,28.866C14.422,29.097 16.001,31.3 15.926,35.753C15.861,39.651 13.543,41.157 10.119,40.964C6.9,40.782 3.706,40.075 0.514,39.527C-1.023,39.264 -2.532,38.838 -3.692,38.569C-8.714,52.756 -9.774,66.993 -9.984,81.345C-10.064,86.757 -7.182,90.84 -1.906,91.383C1.719,91.756 5.627,91.283 9.108,90.215C10.513,89.783 11.838,86.786 11.916,84.903C12.027,82.243 10.947,79.534 10.376,76.846C9.104,77.46 6.75,78.062 6.742,78.692C6.7,82.186 5.232,85.278 1.988,84.968C-0.242,84.756 -2.827,81.903 -4.096,79.596C-5.741,76.608 -5.319,73.276 -2.27,70.731C3.643,65.798 10.886,65.284 17.412,69.684C18.415,70.359 19.257,71.617 19.656,72.782C21.926,79.4 21.529,86.195 18.932,92.438C17.705,95.387 14.254,97.491 11.604,99.735C10.404,100.752 8.701,101.177 7.225,101.871L0,101.871Z" style="fill:white;fill-rule:nonzero;"/>
        </g>
        <g transform="matrix(1,0,0,1,583.19,119.757)">
            <path d="M0,4.56C0.215,3.047 0.33,0.25 0.661,0.224C3.548,0 5.554,1.237 5.419,4.56L0,4.56Z" style="fill:white;fill-rule:nonzero;"/>
        </g>
        <g transform="matrix(1,0,0,1,411.969,122.59)">
            <path d="M0,-100.397C7.192,-100.42 13.411,-99.86 17.917,-93.482C19.606,-91.092 23.329,-90.178 26.036,-88.452C28.09,-87.142 31.6,-87.448 31.424,-83.55C31.222,-79.107 30.883,-74.612 26.706,-72.02C22.205,-69.226 17.07,-69.61 12.464,-71.448C10.68,-72.159 8.811,-75.271 8.803,-77.297C8.78,-82.766 3.71,-83.945 1.353,-87.334C1.172,-87.593 0.192,-87.458 -0.344,-87.285C-7.616,-84.935 -13.515,-81.049 -16.43,-73.521C-19.378,-65.908 -20.952,-58.589 -16.892,-50.612C-15.192,-47.272 -15.714,-42.8 -15.253,-38.84C-15.17,-38.124 -15.511,-37.171 -15.158,-36.702C-10.875,-31.013 -9.85,-24.075 -7.593,-17.605C-7.198,-16.474 -6.28,-15.175 -5.251,-14.67C1.006,-11.595 7.529,-14.544 9.97,-21.106C11.742,-25.87 13.666,-30.607 15.951,-35.142C17.762,-38.735 20.931,-40.435 24.957,-38.605C26.19,-38.045 27.426,-36.779 27.962,-35.536C29.493,-31.985 25.092,-23.453 21.554,-21.78C19.958,-21.026 18.153,-19.373 17.693,-17.77C12.983,-1.347 -1.869,0.023 -13.222,-4.234C-17.808,-5.955 -21.794,-9.971 -23.017,-15.766C-23.998,-20.408 -25.517,-25.027 -27.466,-29.356C-33.53,-42.821 -29.582,-56.29 -28.012,-69.79C-27.239,-76.44 -24.744,-82.369 -21.25,-88.024C-16.236,-96.14 -8.728,-99.606 0,-100.397" style="fill:white;fill-rule:nonzero;"/>
        </g>
        <g transform="matrix(1,0,0,1,464.056,61.2312)">
            <path d="M0,34.493C0.384,41.276 3.877,43.943 10.18,41.829C12.847,40.935 15.427,39.725 17.945,38.459C21.215,36.814 21.47,33.6 20.798,30.712C20.208,28.18 18.462,23.854 17.298,23.877C12.555,23.972 7.531,24.758 3.254,26.701C1.375,27.555 1.038,31.792 0,34.493M23.328,47.785C15.165,53.494 6.366,53.724 -2.64,52.06C-8.017,51.066 -9.352,45.793 -10.32,41.945C-13.795,28.119 -8.37,13.784 10.132,13.64C12.712,13.62 15.306,14.875 17.887,15.564C21.857,16.623 23.838,15.29 23.34,11.264C22.611,5.376 21.998,-0.647 20.198,-6.248C18.379,-11.91 15.814,-12.772 9.806,-12.65C4.153,-12.536 -0.481,-10.412 -3.623,-5.802C-4.493,-4.525 -4.24,-2.246 -3.932,-0.529C-3.811,0.139 -2.076,0.984 -1.15,0.903C-0.335,0.832 0.912,-0.333 1.044,-1.162C1.731,-5.47 4.635,-7.642 8.436,-7.755C12.124,-7.864 15.311,-6.2 16.085,-1.774C16.743,1.995 14.848,6.513 11.368,8.524C3.809,12.89 -5.581,11.505 -11.484,5.153C-16.477,-0.22 -14.718,-11.601 -7.827,-15.303C-0.112,-19.447 8.434,-20.493 17.05,-19.263C22.698,-18.457 26.707,-15.666 29.671,-9.974C34.606,-0.493 36.095,9.199 35.312,19.531C34.917,24.753 34.31,29.959 33.962,35.184C33.763,38.161 33.728,40.713 37.654,42.222C40.444,43.294 41.341,46.766 39.662,50.017C38.025,53.188 34.192,54.986 30.924,53.355C28.195,51.994 25.916,49.731 23.328,47.785" style="fill:white;fill-rule:nonzero;"/>
        </g>
        <g transform="matrix(1,0,0,1,754.767,73.6216)">
            <path d="M0,10.331C-2.64,11.25 -5.301,12.116 -7.917,13.1C-13.034,15.025 -15.187,25.03 -11.117,28.791C-9.986,29.836 -7.701,30.606 -6.31,30.213C-2.611,29.17 1.097,27.782 4.416,25.864C8.399,23.562 7.584,19.574 6.788,15.835C6.024,12.247 4.083,10.241 0,10.331M11.027,34.196C1.976,41.149 -6.608,41.06 -15.313,39.949C-21.189,39.199 -22.894,33.945 -24.039,29.676C-27.706,16.003 -21.966,1.56 -4.156,1.299C-1.29,1.257 1.656,2.414 4.456,3.344C7.516,4.362 9.859,3.086 9.619,0.388C9.043,-6.084 7.962,-12.57 6.384,-18.876C5.171,-23.725 1.339,-25.362 -3.714,-25.094C-9.517,-24.786 -14.307,-22.85 -17.509,-18.003C-18.296,-16.81 -18.217,-14.677 -17.785,-13.195C-17.54,-12.356 -15.258,-11.205 -14.782,-11.522C-13.691,-12.251 -12.897,-13.704 -12.421,-15.021C-10.977,-19.024 -6.42,-20.973 -1.676,-19.434C1.297,-18.469 3.571,-12.86 2.33,-9.551C-0.117,-3.024 -11.369,1.051 -17.448,-2.354C-18.487,-2.936 -19.701,-3.217 -20.715,-3.832C-24.703,-6.251 -27.94,-9.165 -27.95,-14.388C-27.96,-20.005 -26.251,-25.05 -21.312,-27.79C-13.913,-31.897 -5.599,-32.464 2.717,-31.916C10.891,-31.378 14.62,-25.612 17.685,-18.956C22.396,-8.724 22.378,1.906 20.981,12.739C20.541,16.153 20.253,19.595 20.09,23.033C19.955,25.89 19.959,28.442 23.768,29.642C26.729,30.574 27.421,35.591 25.61,38.269C23.097,41.985 18.019,42.795 14.57,39.636C12.961,38.162 12.091,35.885 11.027,34.196" style="fill:white;fill-rule:nonzero;"/>
        </g>
        <g transform="matrix(1,0,0,1,677.721,97.1445)">
            <path d="M0,-40.097C5.068,-48.587 13.319,-50.035 21.85,-49.99C25.589,-49.97 29.448,-48.564 32.991,-47.139C34.418,-46.565 35.379,-44.364 36.153,-42.717C41.038,-32.316 36.09,-21.953 35.786,-11.571C35.719,-9.299 34.294,-7.075 33.538,-4.814C32.575,-1.931 33.783,0.412 36.562,0.472C41.78,0.584 41.82,4.147 42.276,7.626C42.974,12.948 37.757,17.763 32.54,16.434C21.943,13.733 20.031,8.943 21.628,-0.049C22.415,-4.481 21.599,-9.179 22.189,-13.668C22.627,-17.001 24.429,-20.132 25.141,-23.456C26.191,-28.357 20.081,-36.429 14.596,-37.82C10.975,-38.737 6.914,-35.874 4.883,-30.198C1.757,-21.459 1.948,-12.326 4.251,-3.58C5.482,1.096 4.798,4.333 1.564,7.236C-1.075,9.604 -4.174,11.272 -7.823,9.124C-11.832,6.764 -14.294,3.047 -13.082,-1.383C-11.084,-8.689 -11.799,-15.864 -12.171,-23.19C-12.402,-27.753 -11.138,-32.375 -11.133,-36.972C-11.129,-39.784 -11.92,-42.718 -12.937,-45.375C-13.955,-48.032 -16.15,-50.76 -13.53,-53.158C-10.977,-55.493 -7.956,-57.86 -3.88,-55.454C-0.516,-53.469 0.136,-50.685 -0.428,-47.148C-0.767,-45.019 -0.768,-42.835 -0.921,-40.675C-0.614,-40.483 -0.307,-40.29 0,-40.097" style="fill:white;fill-rule:nonzero;"/>
        </g>
        <g transform="matrix(1,0,0,1,524.697,98.2878)">
            <path d="M0,-42.028C9.433,-51.666 19.823,-52.896 31.314,-49.677C34.891,-48.675 36.401,-46.21 37.711,-42.562C40.741,-34.133 38.632,-26.112 37.306,-17.966C36.667,-14.034 35.741,-10.122 34.593,-6.306C33.634,-3.119 34.71,-0.776 37.684,-0.669C43.348,-0.464 43.087,3.368 43.255,7.057C43.514,12.759 38.895,16.757 33.462,15.243C22.489,12.186 21.477,8.056 22.617,-0.946C23.243,-5.898 22.848,-10.98 23.491,-15.928C23.923,-19.254 25.687,-22.392 26.275,-25.717C27.018,-29.918 20.116,-38.063 15.429,-39.017C11.898,-39.736 8.022,-36.784 6.022,-31.514C2.646,-22.619 3.222,-13.41 5.385,-4.515C6.477,-0.021 5.826,3.137 2.78,5.99C0.306,8.305 -2.602,9.894 -6.206,8.268C-9.966,6.572 -13.197,2.093 -12.051,-1.943C-9.511,-10.891 -11.11,-19.738 -11.37,-28.657C-11.464,-31.882 -10.023,-35.147 -10.08,-38.381C-10.13,-41.206 -11.44,-43.987 -11.929,-46.834C-12.349,-49.282 -13.494,-52.658 -12.366,-54.086C-10.405,-56.568 -7.339,-58.785 -3.294,-56.895C0.159,-55.281 0.995,-52.531 0.862,-49.238C0.764,-46.827 0.3,-44.431 0,-42.028" style="fill:white;fill-rule:nonzero;"/>
        </g>
        <g transform="matrix(1,0,0,1,637.079,27.8383)">
            <path d="M0,16.152C-4.528,16.136 -7.105,13.145 -6.55,8.929C-6.023,4.927 -3.226,2.324 0.651,1.15C4.446,0 7.072,1.995 8.92,4.939C11.141,8.477 9.93,11.691 5.941,13.557C3.661,14.622 1.328,15.575 0,16.152" style="fill:white;fill-rule:nonzero;"/>
        </g>
        <g transform="matrix(0.0445092,-0.999009,-0.999009,-0.0445092,502.242,45.4053)">
            <path d="M-4.338,-4.631C-6.128,-2.306 -8.111,-0.757 -7.854,0.158C-7.384,1.824 -5.583,3.112 -4.338,4.558C-3.22,3.468 -1.143,2.322 -1.201,1.3C-1.295,-0.348 -2.798,-1.915 -4.338,-4.631" style="fill:white;fill-rule:nonzero;"/>
        </g>
        <g transform="matrix(0.118081,-0.993004,-0.993004,-0.118081,779.956,45.5078)">
            <path d="M-4.319,-4.17C-6.095,-1.926 -8.086,-0.388 -7.828,0.47C-7.322,2.15 -5.561,3.45 -4.319,4.908C-3.173,3.771 -1.114,2.639 -1.107,1.494C-1.097,-0.006 -2.707,-1.514 -4.319,-4.17" style="fill:white;fill-rule:nonzero;"/>
        </g>
        <g transform="matrix(1,0,0,1,405.151,38.9242)">
            <path d="M0,4.843C1.104,1.041 2.645,-1.206 5.956,-0.99C6.579,-0.95 7.782,1.451 7.487,2.366C6.297,6.049 3.324,5.065 0,4.843" style="fill:white;fill-rule:nonzero;"/>
        </g>
        <g transform="matrix(1,0,0,1,603.977,64.9073)">
            <path d="M0,9.105C-1.506,2.051 0.289,0 6.616,1.499C4.34,4.115 2.461,6.276 0,9.105" style="fill:white;fill-rule:nonzero;"/>
        </g>
        <g transform="matrix(-0.986282,-0.165071,-0.165071,0.986282,431.374,115.268)">
            <path d="M-0.814,-6.417C-2.357,-5.059 -3.325,-4.207 -4.292,-3.356C-3.153,-2.23 -2.181,-0.635 -0.814,-0.147C0.068,0.168 1.531,-1.141 2.732,-1.724C1.685,-3.109 0.639,-4.493 -0.814,-6.417" style="fill:white;fill-rule:nonzero;"/>
        </g>
        <g transform="matrix(-0.996475,-0.083885,-0.083885,0.996475,685.38,41.261)">
            <path d="M0.301,-6.726C-1.298,-4.871 -3.051,-3.522 -2.826,-2.953C-2.348,-1.741 -0.97,-0.567 0.301,-0.122C0.893,0.086 2.929,-1.549 2.848,-2.153C2.673,-3.455 1.552,-4.632 0.301,-6.726" style="fill:white;fill-rule:nonzero;"/>
        </g>
        <g transform="matrix(0.99845,0.05566,0.05566,-0.99845,533.341,42.4348)">
            <path d="M0.183,0.007C-1.25,1.614 -2.973,2.868 -2.769,3.46C-2.343,4.696 -1.041,6.055 0.183,6.421C0.831,6.615 2.742,4.905 2.852,3.917C2.959,2.954 1.499,1.816 0.183,0.007" style="fill:white;fill-rule:nonzero;"/>
        </g>
        <g transform="matrix(0.123979,-0.992285,-0.992285,-0.123979,731.235,71.8495)">
            <path d="M-3.437,-2.978C-4.773,-1.272 -6.269,-0.136 -6.091,0.581C-5.784,1.812 -4.598,3.11 -3.437,3.701C-2.957,3.945 -0.689,2.238 -0.793,1.752C-1.093,0.347 -2.183,-0.887 -3.437,-2.978" style="fill:white;fill-rule:nonzero;"/>
        </g>
        <g transform="matrix(0.233627,-0.972326,-0.972326,-0.233627,634.897,67.3643)">
            <path d="M-3.117,-2.89C-4.786,-1.375 -6.483,-0.107 -6.362,0.101C-5.522,1.546 -4.398,2.885 -3.117,3.959C-2.903,4.138 -0.66,2.672 -0.749,2.292C-1.103,0.776 -2.006,-0.611 -3.117,-2.89" style="fill:white;fill-rule:nonzero;"/>
        </g>
        <g transform="matrix(-0.999999,-0.00104462,-0.00104462,0.999999,718.122,95.0048)">
            <path d="M-0.335,-6.863C-1.544,-4.848 -2.752,-3.684 -2.784,-2.487C-2.806,-1.676 -0.97,-0.001 -0.335,-0.162C0.792,-0.449 2.354,-1.799 2.407,-2.776C2.465,-3.838 1.012,-4.984 -0.335,-6.863" style="fill:white;fill-rule:nonzero;"/>
        </g>
        <g transform="matrix(-0.147273,-0.989096,-0.989096,0.147273,649.751,23.9052)">
            <path d="M-3.543,-3.93C-4.771,-1.71 -5.846,-0.487 -6.01,0.849C-6.088,1.48 -4.42,2.328 -3.543,3.078C-2.593,1.911 -1.343,0.858 -0.841,-0.478C-0.642,-1.007 -2.107,-2.164 -3.543,-3.93" style="fill:white;fill-rule:nonzero;"/>
        </g>
        <g transform="matrix(1,0,0,1,569.421,91.203)">
            <path d="M0,1.951C-1.024,2.562 -2.228,3.838 -3.027,3.621C-4.127,3.323 -4.92,1.897 -5.845,0.954C-4.846,0.002 -3.925,-1.6 -2.826,-1.733C-1.549,-1.887 -0.116,-0.753 1.25,-0.179C0.833,0.531 0.417,1.241 0,1.951" style="fill:white;fill-rule:nonzero;"/>
        </g>
        <g transform="matrix(-0.104849,-0.994488,-0.994488,0.104849,781.233,94.6713)">
            <path d="M-3.439,-3.718C-4.632,-1.582 -5.669,-0.354 -5.905,1.012C-5.994,1.533 -3.769,3.14 -3.439,2.929C-2.318,2.215 -1.184,1.018 -0.839,-0.214C-0.656,-0.869 -2.087,-1.978 -3.439,-3.718" style="fill:white;fill-rule:nonzero;"/>
        </g>
        <g transform="matrix(-0.999373,0.0354021,0.0354021,0.999373,452.95,78.039)">
            <path d="M0.067,-6.995C-1.201,-4.88 -2.34,-3.65 -2.572,-2.269C-2.668,-1.7 -0.354,0.018 0.067,-0.216C1.231,-0.863 2.403,-2.156 2.72,-3.408C2.901,-4.123 1.416,-5.258 0.067,-6.995" style="fill:white;fill-rule:nonzero;"/>
        </g>
        <g transform="matrix(1,0,0,1,505.722,100.778)">
            <path d="M0,-6.947C0.46,-5.734 1.537,-4.323 1.227,-3.355C0.812,-2.058 -0.677,-1.102 -1.704,0C-2.458,-0.827 -3.803,-1.643 -3.817,-2.482C-3.836,-3.58 -2.803,-4.695 -2.222,-5.803C-1.482,-6.184 -0.741,-6.566 0,-6.947" style="fill:white;fill-rule:nonzero;"/>
        </g>
        <g transform="matrix(0.984184,0.17715,0.17715,-0.984184,686.794,70.7919)">
            <path d="M0.621,-0.018C-0.801,1.539 -2.268,2.631 -2.096,3.051C-1.497,4.504 -0.33,5.723 0.621,7.032C1.393,6.32 2.877,5.51 2.794,4.915C2.6,3.503 1.663,2.192 0.621,-0.018" style="fill:white;fill-rule:nonzero;"/>
        </g>
        <g transform="matrix(1,0,0,1,383.558,106.237)">
            <path d="M0,7.168C-0.9,4.612 -1.525,2.835 -2.15,1.057C-1.123,0.806 0.316,0 0.86,0.401C3.092,2.051 2.881,4.056 0,7.168" style="fill:white;fill-rule:nonzero;"/>
        </g>
        <g transform="matrix(0.95619,0.292746,0.292746,-0.95619,653.73,116.029)">
            <path d="M0.978,-0.129C-0.438,1.416 -1.842,2.462 -1.677,2.856C-1.117,4.199 -0.107,5.423 0.978,6.426C1.213,6.643 3.197,5.54 3.155,5.398C2.702,3.835 2.006,2.341 0.978,-0.129" style="fill:white;fill-rule:nonzero;"/>
        </g>
        <g transform="matrix(-0.999972,0.00751071,0.00751071,0.999972,615.923,39.3562)">
            <path d="M0.025,-5.798C-1.15,-4.289 -2.53,-3.27 -2.408,-2.482C-2.26,-1.518 -0.9,-0.147 0.025,-0.073C0.86,-0.006 2.506,-1.427 2.536,-2.238C2.572,-3.186 1.243,-4.184 0.025,-5.798" style="fill:white;fill-rule:nonzero;"/>
        </g>
        <g transform="matrix(-1,0,0,1,435.173,108.779)">
            <path d="M0.196,-5.922C-0.959,-4.38 -2.202,-3.393 -2.037,-2.791C-1.748,-1.736 -0.595,-0.918 0.196,0C0.967,-0.757 2.322,-1.489 2.357,-2.278C2.398,-3.208 1.294,-4.188 0.196,-5.922" style="fill:white;fill-rule:nonzero;"/>
        </g>
        <g transform="matrix(1,0,0,1,369.555,62.6434)">
            <path d="M0,2.45C-2.062,3.122 -3.11,2.582 -3.017,0.894C-2.951,-0.323 -2.006,-0.672 0,-0.22L0,2.45Z" style="fill:white;fill-rule:nonzero;"/>
        </g>
        <g transform="matrix(1,0,0,1,73.3961,105.177)">
            <path d="M0,-65.243C-0.193,-61.553 -0.719,-57.96 -3.143,-55.077C-4.151,-53.878 -5.704,-52.798 -7.198,-52.429C-9.079,-51.964 -11.017,-51.001 -13.16,-51.937C-14.085,-52.341 -15.323,-52.101 -16.413,-52.045C-18.987,-51.913 -21.044,-53.055 -22.224,-55.129C-23.018,-56.525 -23.214,-58.381 -23.269,-60.044C-23.336,-62.06 -23.955,-63.499 -25.642,-64.698C-26.999,-65.662 -28.178,-66.942 -29.233,-68.245C-30.078,-69.287 -31.04,-69.516 -32.162,-69.192C-36.622,-67.905 -40.752,-65.936 -44.075,-62.633C-46.993,-59.734 -48.909,-56.181 -50.006,-52.226C-50.787,-49.406 -51.552,-46.57 -52.092,-43.698C-52.737,-40.272 -52.09,-37.051 -50.154,-34.057C-49.425,-32.93 -48.985,-31.548 -48.69,-30.221C-47.917,-26.744 -46.58,-23.307 -47.822,-19.634C-48.518,-17.578 -48.053,-17.222 -46.152,-16.211C-45.362,-15.79 -44.671,-14.266 -44.75,-13.311C-44.97,-10.656 -43.395,-8.669 -42.652,-6.389C-41.655,-3.326 -40.123,-0.458 -39.872,2.878C-39.806,3.749 -38.457,4.919 -37.465,5.243C-35.321,5.944 -33.034,6.238 -30.787,6.577C-30.248,6.658 -29.615,6.317 -29.064,6.081C-27.437,5.384 -25.788,4.721 -24.235,3.882C-23.613,3.545 -23.01,2.863 -22.76,2.202C-20.978,-2.499 -19.41,-7.283 -17.518,-11.937C-16.665,-14.037 -15.265,-15.923 -14.044,-17.863C-11.909,-21.255 -5.057,-20.269 -3.682,-16.378C-2.957,-14.327 -3.777,-12.445 -4.275,-10.527C-4.97,-7.855 -6.52,-5.644 -8.263,-3.59C-8.766,-2.998 -9.706,-2.554 -10.492,-2.466C-12.807,-2.208 -13.225,-1.993 -13.868,0.242C-14.326,1.831 -14.685,3.448 -15.148,5.035C-15.898,7.601 -17.473,9.603 -19.529,11.269C-20.346,11.932 -21.186,12.588 -21.896,13.357C-23.512,15.107 -25.562,16.116 -27.808,16.572C-30.305,17.078 -32.865,17.286 -35.404,17.565C-35.995,17.63 -36.618,17.495 -37.214,17.387C-39.752,16.929 -42.316,16.562 -44.808,15.922C-45.981,15.621 -47.169,14.952 -48.079,14.144C-49.939,12.493 -51.758,10.751 -53.31,8.819C-54.19,7.724 -54.568,6.2 -55.063,4.83C-55.528,3.545 -55.794,2.19 -56.244,0.899C-57.057,-1.439 -57.984,-3.738 -58.786,-6.08C-59.845,-9.17 -60.717,-12.328 -61.882,-15.376C-62.768,-17.695 -63.936,-19.787 -63.098,-22.501C-62.618,-24.057 -63.125,-25.894 -63.028,-27.596C-62.83,-31.027 -62.533,-34.453 -62.259,-37.879C-61.838,-43.164 -61.472,-48.458 -59.618,-53.503C-59.507,-53.805 -59.386,-54.198 -59.487,-54.468C-60.278,-56.586 -59.343,-58.29 -58.38,-60.089C-56.947,-62.766 -55.972,-65.721 -54.309,-68.232C-52.697,-70.665 -51.764,-73.658 -49.027,-75.294C-46.948,-76.537 -44.988,-77.981 -42.891,-79.189C-36.494,-82.873 -29.639,-82.617 -22.682,-81.411C-18.885,-80.753 -16.408,-78.317 -14.295,-75.355C-13.723,-74.554 -13.163,-73.743 -12.545,-72.978C-12.273,-72.641 -11.915,-72.299 -11.523,-72.146C-9.176,-71.23 -6.798,-70.396 -4.452,-69.477C-3.104,-68.949 -1.677,-68.479 -0.532,-67.645C-0.035,-67.282 -0.159,-66.07 0,-65.243" style="fill:white;fill-rule:nonzero;"/>
        </g>
        <g transform="matrix(1,0,0,1,277.051,91.2966)">
            <path d="M0,-32.257C1.705,-32.038 2.772,-31.317 2.729,-29.654C2.65,-26.533 4.174,-23.939 5.254,-21.201C7.184,-16.31 8.518,-11.384 5.945,-6.341C5.345,-5.165 4.318,-4.115 3.271,-3.277C0.526,-1.079 -2.42,0.872 -5.129,3.111C-6.946,4.613 -9.049,4.521 -11.11,4.682C-12.425,4.786 -13.767,4.456 -15.1,4.421C-18.523,4.332 -21.171,3.187 -23.705,0.558C-25.928,-1.75 -27.702,-4.224 -29.39,-6.853C-29.54,-7.086 -29.678,-7.347 -29.885,-7.52C-33.823,-10.821 -35.951,-15.13 -36.936,-20.081C-37.053,-20.669 -37.153,-21.262 -37.269,-21.896C-36.986,-25.787 -34.941,-28.633 -31.776,-30.667C-29.126,-32.368 -26.322,-33.833 -23.569,-35.372C-22.944,-35.721 -22.224,-35.896 -21.591,-36.234C-20.538,-36.797 -19.577,-37.577 -18.475,-37.997C-16.372,-38.799 -14.21,-39.466 -12.037,-40.058M18.577,-24.135C18.002,-25.895 17.038,-27.529 16.246,-29.218C13.787,-34.453 10.263,-38.721 5.173,-41.635C1.825,-43.552 -1.327,-45.817 -3.851,-48.719C-5.263,-50.343 -7.043,-50.905 -8.839,-51.462C-10.199,-51.883 -11.742,-51.817 -13.201,-51.789C-14.751,-51.759 -16.31,-51.597 -17.842,-51.351C-20.931,-50.857 -24.15,-50.659 -27.039,-49.592C-29.39,-48.724 -31.491,-46.941 -33.42,-45.243C-35.158,-43.712 -36.796,-41.914 -37.969,-39.933C-39.721,-36.975 -41,-33.741 -42.531,-30.65C-43.381,-28.933 -44.525,-27.339 -45.198,-25.562C-46.375,-22.451 -47.242,-19.241 -46.813,-15.828C-46.697,-14.902 -46.867,-13.943 -46.81,-13.006C-46.735,-11.783 -46.764,-10.502 -46.392,-9.362C-45.689,-7.209 -44.742,-5.135 -43.878,-3.035C-43.04,-1.001 -42.488,1.238 -41.258,3.003C-39.321,5.782 -36.944,8.26 -34.703,10.822C-34.133,11.472 -33.427,12.042 -32.691,12.501C-30.873,13.635 -29.078,14.852 -27.134,15.72C-24.748,16.786 -22.395,18.146 -19.58,17.801C-18.886,17.716 -18.14,17.812 -17.452,17.971C-15.216,18.486 -12.996,19.069 -10.77,19.626C-10.733,19.475 -10.696,19.324 -10.66,19.173C-7.751,19.335 -4.98,18.708 -2.497,17.269C0.267,15.667 2.772,13.601 5.581,12.094C10.023,9.712 12.523,5.706 14.564,1.489C17.014,-3.571 18.634,-8.962 19.526,-14.573C20.055,-17.904 19.587,-21.044 18.577,-24.135" style="fill:white;fill-rule:nonzero;"/>
        </g>
        <g transform="matrix(1,0,0,1,124.031,99.4691)">
            <path d="M0,-40.537C1.057,-41.857 1.792,-42.941 2.692,-43.866C4.381,-45.601 5.65,-47.835 8.43,-48.273C9.696,-48.473 10.836,-49.409 12.104,-49.671C14.903,-50.249 17.739,-50.676 20.575,-51.047C25.104,-51.64 29.322,-50.456 33.393,-48.591C35.923,-47.432 37.01,-45.465 37.278,-42.683C37.556,-39.804 38.159,-36.966 39.541,-34.279C40.102,-33.189 39.628,-31.471 39.382,-30.082C38.528,-25.245 37.564,-20.428 36.653,-15.601C36.603,-15.337 36.577,-15.03 36.662,-14.786C37.327,-12.867 36.506,-11.213 35.822,-9.503C35.21,-7.971 34.597,-6.414 34.233,-4.812C33.405,-1.169 35.178,0.954 38.989,0.825C41.838,0.728 43.06,1.819 42.663,4.339C42.587,4.816 42.632,5.374 42.811,5.819C44.049,8.903 42.799,11.291 41.059,13.817C39.141,16.602 37.053,17.189 33.723,16.578C30.314,15.953 27.765,14.021 25.018,12.403C23.531,11.527 22.454,9.797 22.377,7.81C22.293,5.609 22.227,3.408 22.171,1.207C22.164,0.945 22.204,0.647 22.326,0.422C23.307,-1.387 23.045,-3.223 22.483,-5.066C21.846,-7.159 21.556,-9.232 22.361,-11.374C22.707,-12.295 22.708,-13.341 23.022,-14.278C23.577,-15.931 24.148,-17.593 24.901,-19.161C26.243,-21.956 26.692,-24.934 26.273,-27.9C26.034,-29.585 25.342,-31.335 23.707,-32.533C21.354,-34.258 19.146,-36.186 16.923,-38.083C14.589,-40.076 12.264,-39.008 10.135,-37.914C7.753,-36.692 6.282,-34.538 5.46,-31.963C4.657,-29.447 3.707,-26.975 3.002,-24.434C2.777,-23.621 3.098,-22.646 3.223,-21.752C3.372,-20.684 3.788,-19.61 3.721,-18.562C3.511,-15.286 2.902,-12.021 2.906,-8.752C2.908,-7.039 3.806,-5.305 4.411,-3.62C5.256,-1.266 6.143,0.862 4.605,3.476C2.679,6.75 0.069,8.831 -3.464,9.891C-4.008,10.054 -4.687,9.97 -5.257,9.821C-11.188,8.266 -14.369,2.082 -12.521,-3.786C-11.838,-5.956 -11.745,-8.316 -11.419,-10.595C-10.538,-16.751 -12.502,-22.771 -12.313,-28.895C-12.296,-29.442 -12.193,-29.988 -12.101,-30.53C-11.543,-33.795 -10.74,-37.042 -10.498,-40.33C-10.345,-42.409 -10.999,-44.499 -12.326,-46.355C-13.264,-47.667 -13.987,-49.261 -14.34,-50.833C-14.873,-53.214 -14.344,-53.907 -12.208,-55.088C-11.645,-55.399 -11.12,-55.81 -10.651,-56.253C-9.396,-57.439 -6.309,-57.726 -4.689,-57.173C-1.429,-56.061 -0.432,-53.42 0.175,-50.504C0.317,-49.825 -0.119,-49.024 -0.295,-48.28C-0.861,-45.879 -1.389,-43.48 0,-40.537" style="fill:white;fill-rule:nonzero;"/>
        </g>
        <g transform="matrix(1,0,0,1,321.479,53.555)">
            <path d="M0,45.344C-0.299,41.175 1.338,37.576 3.366,34.105C3.535,33.816 3.938,33.572 4.277,33.488C8.389,32.471 12.323,33.002 16.004,35.067C16.462,35.325 16.814,36.144 16.845,36.722C16.94,38.525 16.151,40.031 14.562,40.872C12.837,41.785 13.776,43.371 13.512,44.606C13.428,45 14.593,45.903 15.333,46.173C16.399,46.562 17.239,46.936 17.51,48.162C17.589,48.521 18.027,48.988 18.379,49.069C20.469,49.552 22.569,50.192 24.69,50.294C27.878,50.447 31.234,47.706 31.784,44.569C32.281,41.74 31.126,39.21 29.32,37.121C27.295,34.78 24.589,33.428 21.624,32.497C17.704,31.267 13.824,29.899 9.967,28.483C9.251,28.221 8.753,27.41 8.101,26.924C4.979,24.599 2.836,21.683 2.393,17.707C2.369,17.491 2.313,17.246 2.186,17.08C-0.4,13.714 0.685,9.925 1.026,6.269C1.256,3.805 1.871,1.379 2.262,-1.072C2.998,-5.697 6.186,-8.639 9.438,-11.522C13.159,-14.82 17.55,-16.834 22.453,-17.404C24.842,-17.682 27.258,-17.647 29.787,-17.111C33.052,-16.418 35.866,-15.149 38.612,-13.464C39.035,-13.204 39.58,-12.986 39.813,-12.596C42.801,-7.596 45.063,-2.552 42.922,3.569C41.976,6.275 41.885,9.293 40.163,11.751C39.68,12.441 39.067,13.058 38.438,13.623C37.992,14.025 37.353,14.216 36.91,14.621C34.772,16.578 32.549,16.864 29.764,15.808C27.474,14.939 26.046,13.717 25.2,11.436C24.094,8.449 24.683,5.774 27.245,3.761C27.725,3.385 28.203,3.004 28.702,2.655C30.222,1.593 31.075,-1.358 30.166,-2.934C29.414,-4.238 29.786,-6.407 27.656,-6.676C26.088,-6.875 24.459,-6.952 22.897,-6.759C19.775,-6.374 16.857,-5.125 14.915,-2.689C13.796,-1.286 13.286,0.82 13.079,2.673C12.831,4.905 12.954,7.251 13.383,9.458C13.646,10.809 14.566,12.214 15.579,13.196C17.232,14.796 19.083,16.273 21.067,17.432C23.81,19.034 26.633,20.538 30.007,20.586C32.337,20.618 34.652,21.012 36.213,23.128C36.496,23.512 37.02,23.708 37.4,24.03C38.766,25.189 39.879,26.404 40.14,28.378C40.594,31.821 41.603,35.201 41.915,38.649C42.283,42.715 40.81,46.445 38.973,50.056C37.093,53.753 34.256,56.202 30.437,57.746C27.733,58.839 25.238,60.48 22.498,61.448C18.029,63.026 13.64,62.917 9.726,59.708C8.526,58.724 7.287,57.729 5.923,57.011C1.647,54.761 -0.041,51.154 0.055,46.509C0.063,46.122 0.021,45.733 0,45.344" style="fill:white;fill-rule:nonzero;"/>
        </g>
        <g transform="matrix(1,0,0,1,174.934,68.842)">
            <path d="M0,23.926C0.152,21.395 0.458,18.86 0.409,16.333C0.365,14.015 -0.142,11.71 -0.305,9.389C-0.592,5.3 -0.957,1.138 0.223,-2.823C1.016,-5.486 2.537,-7.938 3.774,-10.465C5.841,-14.691 9.802,-16.43 13.849,-18.052C14.566,-18.34 15.346,-18.599 15.927,-19.078C18.327,-21.055 21.363,-21.297 24.088,-21.211C26.848,-21.123 29.727,-20.044 32.25,-18.788C34.202,-17.816 36.144,-17.758 38.13,-17.447C39.487,-17.235 40.845,-17.023 42.189,-16.746C43.492,-16.478 44.807,-16.213 46.063,-15.789C47.515,-15.299 49,-14.791 50.303,-14.012C52.051,-12.967 52.951,-7.846 52.175,-5.997C50.456,-1.899 46.945,0.171 43.173,1.53C40.853,2.365 38.041,3.232 35.573,1.188C33.972,-0.138 33.65,-1.056 34.136,-3.151C34.365,-4.141 34.607,-5.278 34.341,-6.204C33.621,-8.704 31.336,-9.62 28.738,-9.068C25.838,-8.451 22.859,-8.213 19.942,-7.662C19.081,-7.5 18.306,-6.852 17.507,-6.399C15.445,-5.23 13.789,-3.628 13.351,-1.254C13.008,0.612 12.944,2.563 13.015,4.467C13.199,9.482 13.569,14.49 13.776,19.505C13.879,22.012 13.559,24.553 13.853,27.029C14.108,29.185 14.9,31.288 15.562,33.381C16.177,35.325 17.973,35.557 19.608,35.704C22.948,36.004 25.644,34.308 28.335,32.635C30.188,31.482 32.067,30.783 34.422,31.395C35.444,31.66 36.886,30.961 37.931,30.349C39.692,29.316 41.409,28.643 43.454,29.288C45.238,29.851 45.792,30.652 45.82,32.536C45.845,34.277 46.199,35.942 45.494,37.735C44.39,40.541 42.492,42.174 39.684,42.96C38.624,43.257 37.606,43.803 36.533,43.93C34.755,44.139 32.949,44.101 31.155,44.169C29.853,44.217 28.498,44.054 27.262,44.364C25.163,44.891 23.308,45.223 21.216,43.971C19.772,43.106 17.852,42.995 16.124,42.65C14.265,42.279 12.732,41.478 11.362,40.119C10.401,39.165 9.076,38.577 7.91,37.83C3.135,34.77 0.162,30.649 0.17,24.763C0.171,24.486 0.145,24.208 0.131,23.931C0.088,23.929 0.044,23.928 0,23.926" style="fill:white;fill-rule:nonzero;"/>
        </g>
        <g transform="matrix(1,0,0,1,87.343,115.41)">
            <path d="M0,-65.475C1.724,-65.165 3.559,-65.127 5.148,-64.485C7.753,-63.432 9.31,-61.269 9.832,-58.495C10.078,-57.196 10.143,-55.851 10.173,-54.524C10.22,-52.43 10.225,-50.331 10.138,-48.239C10.075,-46.709 9.747,-45.189 9.713,-43.661C9.695,-42.887 9.851,-41.938 10.302,-41.358C11.434,-39.903 11.822,-38.297 11.745,-36.546C11.603,-33.284 11.211,-30.021 11.274,-26.766C11.331,-23.801 11.761,-20.831 12.197,-17.888C12.6,-15.169 13.42,-12.504 13.711,-9.778C14.079,-6.334 12.339,-3.73 9.682,-1.693C9.201,-1.324 8.607,-1.105 8.11,-0.754C7.032,0.005 6.114,0.001 5.202,-1.068C4.942,-1.372 4.329,-1.567 3.918,-1.512C2.794,-1.364 1.653,-1.166 0.591,-0.786C-0.945,-0.235 -1.946,-0.934 -2.634,-2.089C-3.536,-3.604 -4.49,-5.169 -4.943,-6.841C-5.245,-7.957 -4.893,-9.355 -4.518,-10.526C-3.403,-14.007 -1.906,-17.38 -1.004,-20.908C-0.419,-23.194 -0.459,-25.681 -0.495,-28.074C-0.549,-31.745 -0.798,-35.415 -1.046,-39.081C-1.242,-41.994 -1.491,-44.908 -1.881,-47.8C-1.961,-48.393 -2.679,-49.047 -3.268,-49.393C-4.411,-50.065 -5.668,-50.546 -6.884,-51.092C-9.443,-52.239 -10.845,-55.393 -10.434,-58.187C-10.073,-60.647 -8.286,-61.853 -6.792,-63.434C-4.859,-65.48 -2.446,-65.239 0,-65.475" style="fill:white;fill-rule:nonzero;"/>
        </g>
        <g transform="matrix(1,0,0,1,315.232,46.0091)">
            <path d="M0,-5.091C-0.373,1.169 -1.673,6.664 -6.276,10.758C-7.395,11.753 -8.832,12.583 -10.264,12.967C-11.214,13.222 -13.111,12.821 -13.344,12.228C-13.723,11.262 -13.415,9.695 -12.819,8.741C-11.214,6.169 -9.825,3.559 -9.398,0.527C-9.202,-0.867 -9.721,-1.317 -10.958,-0.63C-12.815,0.401 -14.444,0.163 -16.274,-0.744C-19.836,-2.511 -20.571,-3.999 -19.376,-7.927C-18.775,-9.903 -18.119,-11.862 -17.48,-13.827C-17.415,-14.026 -17.346,-14.324 -17.2,-14.383C-14.235,-15.586 -11.982,-18.313 -8.048,-17.493C-5.927,-17.051 -4.726,-16.217 -3.575,-14.694C-2.897,-13.797 -1.652,-13.137 -1.373,-12.167C-0.676,-9.743 -0.385,-7.204 0,-5.091" style="fill:white;fill-rule:nonzero;"/>
        </g>
        <g transform="matrix(1,0,0,1,86.3457,45.4055)">
            <path d="M0,-15.611C2.732,-15.749 6.277,-13.273 6.932,-11.123C7.234,-10.129 7.682,-9.117 7.692,-8.109C7.72,-5.317 6.936,-4.398 4.264,-3.364C1.962,-2.474 -0.268,-1.379 -2.606,-0.604C-5.33,0.298 -8.077,-1.778 -8.291,-4.638C-8.436,-6.577 -9.411,-8.593 -7.985,-10.384C-5.797,-13.133 -3.57,-15.909 0,-15.611" style="fill:white;fill-rule:nonzero;"/>
        </g>
        <g transform="matrix(1,0,0,1,232.792,42.6282)">
            <path d="M0,1.543C0.01,-0.385 1.886,-2.886 3.795,-3.073C4.513,-3.144 5.548,-2.477 6.038,-1.84C6.887,-0.735 6.749,0.652 5.816,1.673C5.01,2.554 4.005,3.326 2.951,3.892C1.469,4.687 -0.01,3.443 0,1.543" style="fill:white;fill-rule:nonzero;"/>
        </g>
        <g transform="matrix(1,0,0,1,37.3169,38.3944)">
            <path d="M0,6.942C-0.767,6.609 -2.058,6.403 -2.173,5.918C-2.367,5.108 -1.962,4.037 -1.525,3.228C-1.12,2.478 -0.388,1.878 0.278,1.301C1.718,0.054 3.466,0 4.252,1.113C5.329,2.636 4.883,5.061 3.262,5.865C2.296,6.345 1.197,6.558 0,6.942" style="fill:white;fill-rule:nonzero;"/>
        </g>
        <g transform="matrix(-0.988269,0.152724,0.152724,0.988269,196.687,101.436)">
            <path d="M0.695,-6.146C-1.01,-5.832 -2.975,-3.296 -2.694,-1.773C-2.544,-0.961 -0.365,0.213 0.695,0.054C2.883,-0.274 4.261,-2.024 3.896,-4.012C3.62,-5.517 2.247,-6.432 0.695,-6.146" style="fill:white;fill-rule:nonzero;"/>
        </g>
        <g transform="matrix(1,0,0,1,62.4898,111.882)">
            <path d="M0,6.343C-1.155,5.837 -2.222,5.641 -2.851,5.01C-3.368,4.491 -3.696,3.358 -3.494,2.679C-3.317,2.082 -2.298,1.378 -1.634,1.36C-0.4,1.328 0.653,0 2.103,1.137C3.767,2.44 4.066,2.963 2.617,4.519C1.916,5.272 0.9,5.732 0,6.343" style="fill:white;fill-rule:nonzero;"/>
        </g>
        <g transform="matrix(1,0,0,1,324.113,117.423)">
            <path d="M0,-5.646C1.125,-5.64 4.081,-3.555 4.352,-2.492C4.448,-2.114 4.386,-1.369 4.202,-1.299C2.901,-0.804 1.492,0.008 0.23,-0.156C-1.117,-0.33 -2.502,-1.267 -2.441,-3.18C-2.395,-4.641 -1.497,-5.654 0,-5.646" style="fill:white;fill-rule:nonzero;"/>
        </g>
        <g transform="matrix(1,0,0,1,222.096,48.7103)">
            <path d="M0,-2.835C-0.068,-0.91 -2.053,0.755 -4.052,0.971C-5.167,1.091 -7,-0.428 -7.174,-1.793C-7.232,-2.249 -6.863,-3.126 -6.546,-3.201C-4.953,-3.574 -3.316,-3.885 -1.688,-3.915C-1.068,-3.926 -0.433,-3.13 0,-2.835" style="fill:white;fill-rule:nonzero;"/>
        </g>
        <g transform="matrix(0.0347094,-0.999397,-0.999397,-0.0347094,132.546,36.5612)">
            <path d="M-3.066,-2.847C-4.649,-2.863 -5.794,-1.559 -5.808,0.277C-5.821,2.039 -4.759,3.15 -3.066,3.146C-1.736,3.142 -0.203,1.418 -0.233,-0.041C-0.266,-1.637 -1.471,-2.831 -3.066,-2.847" style="fill:white;fill-rule:nonzero;"/>
        </g>
        <g transform="matrix(1,0,0,1,197.797,67.8019)">
            <path d="M0,-1.847C-0.525,-1.132 -0.99,-0.362 -1.592,0.281C-2.154,0.881 -2.837,1.38 -3.511,1.861C-4.613,2.648 -5.566,2.35 -6.013,1.112C-6.631,-0.597 -4.845,-4.495 -2.21,-4.151C-0.869,-3.975 -0.126,-3.474 0,-1.847" style="fill:white;fill-rule:nonzero;"/>
        </g>
        <g transform="matrix(1,0,0,1,83.2112,70.7578)">
            <path d="M0,2.144C-0.804,2.996 -1.328,3.991 -2.085,4.221C-2.749,4.423 -3.799,3.932 -4.448,3.443C-5.021,3.011 -5.33,2.184 -5.66,1.487C-6.051,0.66 -6.629,-0.226 -5.567,-1.024C-4.505,-1.822 -3.307,-2.279 -2.272,-1.215C-1.425,-0.344 -0.876,0.816 0,2.144" style="fill:white;fill-rule:nonzero;"/>
        </g>
        <g transform="matrix(1,0,0,1,330.337,36.6237)">
            <path d="M0,-6.117C0.716,-5.56 1.718,-5.144 2.079,-4.413C2.582,-3.391 1.823,-2.535 0.886,-1.967C0.41,-1.679 -0.09,-1.418 -0.518,-1.069C-1.492,-0.275 -2.469,0 -3.516,-0.901C-4.653,-1.878 -4.158,-3.009 -3.541,-3.896C-2.792,-4.973 -1.797,-5.921 0,-6.117" style="fill:white;fill-rule:nonzero;"/>
        </g>
        <g transform="matrix(0.979461,0.201633,0.201633,-0.979461,96.3945,30.6858)">
            <path d="M0.567,-0.008C-1.149,-0.339 -1.975,0.075 -2.269,1.415C-2.674,3.265 -1.333,5.302 0.567,5.567C1.829,5.743 2.722,5.187 2.982,3.858C3.36,1.931 2.361,0.338 0.567,-0.008" style="fill:white;fill-rule:nonzero;"/>
        </g>
        <g transform="matrix(-0.28574,-0.958307,-0.958307,0.28574,132.807,65.8919)">
            <path d="M-2.683,-3.975C-4.809,-3.329 -5.918,-1.461 -5.445,0.215C-5.026,1.7 -3.813,1.83 -2.683,1.674C-1.166,1.464 0.155,-1.078 -0.328,-2.557C-0.752,-3.858 -1.723,-4.137 -2.683,-3.975" style="fill:white;fill-rule:nonzero;"/>
        </g>
        <g transform="matrix(-0.0322712,-0.999479,-0.999479,0.0322712,166.023,91.4542)">
            <path d="M-3.248,-2.244C-4.194,-2.229 -5.588,-0.769 -5.551,0.167C-5.498,1.456 -4.189,3.152 -3.248,3.148C-1.593,3.141 0.083,1.705 0.081,0.295C0.079,-1.063 -1.507,-2.272 -3.248,-2.244" style="fill:white;fill-rule:nonzero;"/>
        </g>
        <g transform="matrix(1,0,0,1,350.25,98.513)">
            <path d="M0,0.123C-0.168,1.431 -1.467,2.18 -2.689,2.628C-3.532,2.937 -4.745,2.657 -5.61,2.252C-5.891,2.121 -5.907,0.471 -5.493,0.016C-4.628,-0.935 -3.454,-1.659 -2.299,-2.276C-1.289,-2.814 -0.007,-1.581 0,0.123" style="fill:white;fill-rule:nonzero;"/>
        </g>
        <g transform="matrix(1,0,0,1,181.926,109.737)">
            <path d="M0,5.147C-0.747,4.773 -1.432,4.429 -2.118,4.086C-1.536,3.012 -1.184,1.668 -0.315,0.932C0.786,0 2.335,0.423 3.578,1.003C4.052,1.225 4.467,2.03 4.499,2.592C4.523,3.014 3.982,3.663 3.533,3.878C2.482,4.381 1.335,4.684 0,5.147" style="fill:white;fill-rule:nonzero;"/>
        </g>
        <g transform="matrix(1,0,0,1,14.6837,111.409)">
            <path d="M0,0.327C-0.035,0.744 -0.003,1.259 -0.131,1.731C-0.501,3.094 -1.62,3.564 -2.626,2.61C-3.468,1.812 -4.227,0.748 -4.577,-0.34C-4.928,-1.428 -4.445,-2.572 -3.129,-2.927C-1.978,-3.237 -0.352,-2.13 -0.081,-0.913C0.002,-0.54 -0.027,-0.142 0,0.327" style="fill:white;fill-rule:nonzero;"/>
        </g>
        <g transform="matrix(1,0,0,1,101.745,112.17)">
            <path d="M0,5.357C-0.225,5.196 -0.947,4.95 -1.096,4.511C-1.339,3.792 -1.225,2.946 -1.225,2.154C-1.225,2.022 -1.048,1.881 -0.936,1.759C0.132,0.593 2.393,0 3.471,0.731C3.812,0.962 4.075,1.653 4.008,2.076C3.789,3.475 1.668,5.289 0,5.357" style="fill:white;fill-rule:nonzero;"/>
        </g>
        <g transform="matrix(1,0,0,1,367.161,72.5254)">
            <path d="M0,-1.634C-0.054,0.208 -2.324,2.009 -4.119,1.541C-4.567,1.424 -5.239,0.909 -5.24,0.576C-5.241,-0.251 -5.16,-1.304 -4.658,-1.85C-4.029,-2.536 -2.98,-2.902 -2.051,-3.232C-0.896,-3.643 0.036,-2.855 0,-1.634" style="fill:white;fill-rule:nonzero;"/>
        </g>
        <g transform="matrix(-0.192623,-0.981273,-0.981273,0.192623,203.64,61.0971)">
            <path d="M-3.291,-3.914C-3.904,-2.673 -4.617,-1.58 -4.991,-0.379C-5.375,0.853 -4.353,2.397 -3.291,2.42C-1.903,2.449 -1.402,1.515 -1.231,0.287C-1.001,-1.37 -1.332,-2.777 -3.291,-3.914" style="fill:white;fill-rule:nonzero;"/>
        </g>
        <g transform="matrix(-0.993265,-0.115864,-0.115864,0.993265,64.1873,111.008)">
            <path d="M-0.353,-4.828C-1.398,-4.87 -2.296,-4.58 -2.478,-3.21C-2.702,-1.534 -1.806,-0.157 -0.353,-0.02C0.774,0.086 1.729,-0.934 1.944,-2.474C2.125,-3.761 1.35,-4.596 -0.353,-4.828" style="fill:white;fill-rule:nonzero;"/>
        </g>
        <g transform="matrix(-0.219243,-0.97567,-0.97567,0.219243,287.375,101.847)">
            <path d="M-2.081,-4.007C-4.18,-3.359 -5.173,-2.104 -4.533,-1.014C-4.016,-0.132 -3.036,0.691 -2.081,1.029C-1.417,1.263 -0.516,-2.026 -1.084,-3.265C-1.275,-3.684 -1.919,-3.894 -2.081,-4.007" style="fill:white;fill-rule:nonzero;"/>
        </g>
        <g transform="matrix(-0.99524,-0.0974502,-0.0974502,0.99524,40.56,50.6707)">
            <path d="M-1.19,-4.881C-2.085,-3.918 -3.243,-3.105 -3.115,-2.72C-2.813,-1.815 -2.03,-0.886 -1.19,-0.397C-0.443,0.038 1.79,-1.453 1.495,-1.938C0.899,-2.921 -0.058,-3.684 -1.19,-4.881" style="fill:white;fill-rule:nonzero;"/>
        </g>
        <g transform="matrix(-0.229427,-0.973326,-0.973326,0.229427,143.483,68.4369)">
            <path d="M-1.613,-2.36C-2.352,-1.192 -2.859,-0.39 -3.367,0.412C-2.766,0.664 -1.932,1.292 -1.613,1.092C-0.936,0.669 -0.448,-0.145 -0.08,-0.896C-0.008,-1.043 -0.833,-1.63 -1.613,-2.36" style="fill:white;fill-rule:nonzero;"/>
        </g>
        <g transform="matrix(0.0387009,-0.999251,-0.999251,-0.0387009,129.334,45.5339)">
            <path d="M-1.326,-1.539C-1.988,-0.662 -2.626,-0.179 -2.631,0.31C-2.634,0.667 -1.846,1.18 -1.326,1.329C-1.082,1.399 -0.328,0.745 -0.353,0.468C-0.404,-0.079 -0.835,-0.591 -1.326,-1.539" style="fill:white;fill-rule:nonzero;"/>
        </g>
        <g transform="matrix(-0.0385592,-0.999256,-0.999256,0.0385592,178.246,107.474)">
            <path d="M-1.19,-1.295C-1.625,-0.661 -2.054,-0.298 -1.991,-0.071C-1.869,0.373 -1.473,0.742 -1.19,1.143C-0.919,0.814 -0.467,0.504 -0.43,0.151C-0.395,-0.19 -0.788,-0.576 -1.19,-1.295" style="fill:white;fill-rule:nonzero;"/>
        </g>
        <g transform="matrix(1,0,0,1,263.421,84.6467)">
            <path d="M0,7.113C-0.939,6.581 -2.592,6.206 -2.988,5.29C-3.604,3.865 -2.128,2.911 -0.965,2.115C0.47,1.132 1.795,0 3.737,1.091C4.793,1.685 5.753,2.378 5.478,3.596C5.276,4.489 4.631,5.526 3.871,5.988C2.883,6.59 1.586,6.686 0,7.113" style="fill:white;fill-rule:nonzero;"/>
        </g>
        <g transform="matrix(-0.27605,-0.961143,-0.961143,0.27605,244.223,66.2492)">
            <path d="M-2.384,-3.908C-3.858,-3.531 -5.344,-1.281 -5.012,0.071C-4.699,1.345 -3.629,1.99 -2.384,1.657C-1.043,1.297 0.036,-1.002 -0.414,-2.662C-0.678,-3.629 -1.284,-4.197 -2.384,-3.908" style="fill:white;fill-rule:nonzero;"/>
        </g>
        <g transform="matrix(1,0,0,1,270.983,81.9844)">
            <path d="M0,-0.033C0.98,-1 1.54,-1.968 2.335,-2.231C3.282,-2.544 4.429,-2.253 5.49,-2.217C5.53,-2.215 5.573,-2.147 5.605,-2.103C6.53,-0.821 5.197,-0.09 4.811,0.828C4.406,1.79 3.49,2.511 2.405,2.022C1.605,1.66 1.006,0.854 0,-0.033" style="fill:white;fill-rule:nonzero;"/>
        </g>
    </g>
</svg>
