<svg width="195" height="163" viewBox="0 0 195 163" fill="none" xmlns="http://www.w3.org/2000/svg">
<g clip-path="url(#clip0_9_642)">
<path d="M125.694 73.9932C123.983 75.6945 122.396 77.2776 120.804 78.8438C120.26 79.379 119.694 80.3029 119.138 80.2973C118.572 80.2973 118.011 79.379 117.461 78.8438C115.863 77.2776 114.277 75.7058 112.543 73.9932H125.688H125.694Z" fill="#EF7825"/>
<path d="M149.99 73.9763H162.908C162.585 74.3143 162.37 74.5453 162.143 74.7707C160.381 76.5228 158.613 78.2692 156.857 80.0326C156.568 80.3255 156.375 80.5058 155.99 80.1114C154.052 78.1453 152.08 76.2073 150.126 74.258C150.069 74.2017 150.052 74.1115 149.984 73.9763H149.99Z" fill="#EF7825"/>
<path d="M168.398 73.9763H181.458C180.727 74.6693 180.155 75.1932 179.594 75.7453C178.149 77.1706 176.705 78.596 175.282 80.0382C174.948 80.3818 174.744 80.4889 174.348 80.0833C172.461 78.1453 170.546 76.2411 168.636 74.3256C168.557 74.2467 168.506 74.1453 168.398 73.982V73.9763Z" fill="#EF7825"/>
<path d="M94.1571 73.9651H107.064C107.092 74.2975 106.826 74.4045 106.668 74.5623C104.888 76.3482 103.081 78.1115 101.313 79.9086C100.894 80.3368 100.645 80.4439 100.157 79.9481C98.2309 77.9763 96.2535 76.0496 94.1514 73.9651H94.1571Z" fill="#EF7825"/>
<path d="M131.388 73.9536H144.29C144.375 74.2522 144.125 74.3424 143.989 74.4776C142.165 76.3029 140.312 78.1113 138.505 79.9535C138.08 80.3873 137.842 80.3873 137.417 79.9535C135.479 77.9817 133.507 76.0494 131.388 73.948V73.9536Z" fill="#EF7825"/>
<path d="M122.238 80.8438C123.909 79.1931 125.484 77.6156 127.082 76.0607C127.626 75.5312 128.125 74.5565 128.748 74.6016C129.337 74.641 129.875 75.5312 130.419 76.0664C131.994 77.6213 133.564 79.1818 135.241 80.8438H122.243H122.238Z" fill="#C22234"/>
<path d="M172.16 80.9113H159.066C159.537 80.4437 159.888 80.0888 160.245 79.7338C161.882 78.1057 163.514 76.4832 165.152 74.8551C165.378 74.6297 165.548 74.3142 165.951 74.7199C167.956 76.748 169.99 78.7479 172.16 80.9057V80.9113Z" fill="#C22234"/>
<path d="M116.458 80.8776H103.336C105.126 79.1311 106.764 77.5368 108.401 75.9424C108.906 75.4523 109.416 74.5904 109.925 74.5847C110.435 74.5847 110.957 75.4354 111.461 75.9255C113.087 77.5311 114.713 79.1424 116.458 80.8776Z" fill="#C22134"/>
<path d="M140.697 80.8437C142.811 78.748 144.856 76.7311 146.879 74.6917C147.185 74.3875 147.327 74.5565 147.53 74.7593C149.536 76.748 151.548 78.7311 153.678 80.8381H140.697V80.8437Z" fill="#C22134"/>
<path d="M177.566 80.8437C179.679 78.7423 181.725 76.7255 183.747 74.6861C184.053 74.3762 184.195 74.5621 184.399 74.7593C186.405 76.748 188.416 78.7311 190.547 80.8381H177.56L177.566 80.8437Z" fill="#C22134"/>
<path d="M32.4887 73.9932C30.7776 75.6945 29.1911 77.2776 27.5989 78.8438C27.055 79.379 26.4884 80.3029 25.9331 80.2973C25.3666 80.2973 24.8056 79.379 24.256 78.8438C22.6582 77.2776 21.0717 75.7058 19.338 73.9932H32.483H32.4887Z" fill="#EF7825"/>
<path d="M56.7843 73.9763H69.7027C69.3798 74.3143 69.1645 74.5453 68.9378 74.7707C67.1757 76.5228 65.4079 78.2692 63.6515 80.0326C63.3625 80.3255 63.1699 80.5058 62.7846 80.1114C60.8468 78.1453 58.8751 76.2073 56.9203 74.258C56.8637 74.2017 56.8467 74.1115 56.7787 73.9763H56.7843Z" fill="#EF7825"/>
<path d="M75.1931 73.9763H88.2531C87.5222 74.6693 86.95 75.1932 86.389 75.7453C84.9442 77.1706 83.4994 78.596 82.0772 80.0382C81.7429 80.3818 81.539 80.4889 81.1424 80.0833C79.2556 78.1453 77.3405 76.2411 75.4311 74.3256C75.3517 74.2467 75.3007 74.1453 75.1931 73.982V73.9763Z" fill="#EF7825"/>
<path d="M0.951883 73.9651H13.859C13.8873 74.2975 13.621 74.4045 13.4623 74.5623C11.6832 76.3482 9.87578 78.1115 8.108 79.9086C7.68872 80.3368 7.43942 80.4439 6.95214 79.9481C5.02571 77.9763 3.04829 76.0496 0.946217 73.9651H0.951883Z" fill="#EF7825"/>
<path d="M38.183 73.9536H51.0844C51.1694 74.2522 50.9201 74.3424 50.7841 74.4776C48.9596 76.3029 47.1069 78.1113 45.2994 79.9535C44.8745 80.3873 44.6365 80.3873 44.2116 79.9535C42.2738 77.9817 40.302 76.0494 38.183 73.948V73.9536Z" fill="#EF7825"/>
<path d="M29.0268 80.8438C30.6982 79.1931 32.2734 77.6156 33.8712 76.0607C34.4151 75.5312 34.9137 74.5565 35.537 74.6016C36.1262 74.641 36.6645 75.5312 37.2084 76.0664C38.7836 77.6213 40.353 79.1818 42.0302 80.8438H29.0324H29.0268Z" fill="#C22234"/>
<path d="M78.9553 80.9113H65.8612C66.3315 80.4437 66.6828 80.0888 67.0397 79.7338C68.6772 78.1057 70.309 76.4832 71.9465 74.8551C72.1731 74.6297 72.3431 74.3142 72.7454 74.7199C74.7511 76.748 76.7852 78.7479 78.9553 80.9057V80.9113Z" fill="#C22234"/>
<path d="M23.2531 80.8776H10.1308C11.9212 79.1311 13.5587 77.5368 15.1961 75.9424C15.7004 75.4523 16.2103 74.5904 16.7203 74.5847C17.2302 74.5847 17.7515 75.4354 18.2558 75.9255C19.8819 77.5311 21.508 79.1424 23.2531 80.8776Z" fill="#C22134"/>
<path d="M47.4922 80.8437C49.6056 78.748 51.651 76.7311 53.6737 74.6917C53.9797 74.3875 54.1213 74.5565 54.3253 74.7593C56.3311 76.748 58.3425 78.7311 60.4729 80.8381H47.4922V80.8437Z" fill="#C22134"/>
<path d="M84.3606 80.8437C86.474 78.7423 88.5194 76.7255 90.5422 74.6861C90.8481 74.3762 90.9898 74.5621 91.1938 74.7593C93.1995 76.748 95.2109 78.7311 97.3413 80.8381H84.3549L84.3606 80.8437Z" fill="#C22134"/>
<path d="M41.1916 157.794H28.3129C28.1599 157.513 28.4262 157.411 28.5622 157.282C30.4093 155.44 32.262 153.597 34.1091 151.761C34.3641 151.507 34.5511 151.175 34.9817 151.609C36.9818 153.631 39.0159 155.631 41.1916 157.794Z" fill="#C22235"/>
<path d="M78.2187 157.789H65.4873C65.5156 157.67 65.5099 157.569 65.5609 157.518C67.5157 155.563 69.4761 153.62 71.4252 151.659C71.7198 151.361 71.9125 151.304 72.2411 151.631C74.2072 153.614 76.196 155.575 78.1734 157.552C78.2074 157.586 78.196 157.665 78.213 157.783L78.2187 157.789Z" fill="#C22235"/>
<path d="M59.9913 157.794H46.9256C47.2939 157.417 47.5545 157.141 47.8208 156.876C49.5376 155.163 51.26 153.456 52.9825 151.744C53.2205 151.507 53.3961 151.225 53.7871 151.614C55.7928 153.637 57.8212 155.637 59.9913 157.794Z" fill="#C22235"/>
<path d="M22.5732 157.778H9.63216C10.1364 157.276 10.533 156.876 10.9353 156.482C12.5275 154.904 14.1196 153.327 15.7004 151.738C15.9894 151.451 16.182 151.248 16.5786 151.648C18.5164 153.614 20.4882 155.552 22.4429 157.507C22.4996 157.564 22.5166 157.654 22.5732 157.783V157.778Z" fill="#C22235"/>
<path d="M92.9446 150.876H105.812C105.88 151.192 105.591 151.287 105.438 151.44C103.636 153.242 101.817 155.028 100.027 156.842C99.6191 157.259 99.3924 157.304 98.9505 156.859C97.0184 154.887 95.0466 152.961 92.9389 150.876H92.9446Z" fill="#EF7825"/>
<path d="M83.7544 157.749C85.8904 155.631 87.9132 153.62 89.9359 151.614C90.1172 151.434 90.2816 151.265 90.5422 151.53C92.5933 153.58 94.65 155.625 96.7861 157.755H83.7544V157.749Z" fill="#C22235"/>
<path d="M56.1158 150.871H68.9889C69.0455 151.192 68.7622 151.288 68.6092 151.445C66.8074 153.248 64.983 155.028 63.1982 156.854C62.7789 157.282 62.5466 157.293 62.1217 156.854C60.1896 154.887 58.2178 152.955 56.1158 150.871Z" fill="#EF7825"/>
<path d="M31.9334 150.916C30.6699 152.166 29.5027 153.327 28.3299 154.471C27.3666 155.411 26.3921 156.341 25.4232 157.271C24.3013 156.459 23.4345 155.383 22.4429 154.437C21.2701 153.316 20.1255 152.172 18.845 150.916H31.9391H31.9334Z" fill="#EF7825"/>
<path d="M74.8021 150.871H87.3749C87.5109 151.107 87.2843 151.197 87.171 151.304C85.3012 153.175 83.4201 155.034 81.5503 156.904C81.2783 157.175 81.097 157.428 80.6721 157.023C78.6493 155.056 76.5926 153.124 74.5472 151.186C74.6322 151.085 74.7171 150.978 74.8021 150.876V150.871Z" fill="#EF7825"/>
<path d="M50.7161 150.91C48.8577 152.758 47.1012 154.499 45.3448 156.245C44.5969 156.985 43.8565 156.991 43.1237 156.262C41.3616 154.515 39.6051 152.769 37.7354 150.91H50.7218H50.7161Z" fill="#EF7825"/>
<path d="M0.45895 150.882H13.6153C12.9751 151.468 12.5048 151.879 12.0572 152.318C10.5047 153.851 8.9579 155.389 7.41676 156.932C7.16179 157.192 6.99181 157.383 6.62352 157.006C4.63477 154.994 2.61768 153.017 0.45895 150.882Z" fill="#EF7825"/>
<path d="M151.287 163C151.213 162.87 151.128 162.746 151.06 162.611C150.913 162.307 150.743 161.963 151.134 161.732C151.434 161.558 151.723 161.761 151.973 161.924C152.375 162.189 152.182 162.487 151.99 162.775C151.939 162.848 151.893 162.921 151.842 163H151.287Z" fill="white"/>
<path d="M111.96 149.947C111.982 150.437 112.101 150.893 112.322 151.349C112.781 152.29 113.076 153.282 112.866 154.358C112.838 154.499 112.798 154.702 112.866 154.792C113.79 155.924 113.982 157.338 114.396 158.662C114.515 159.045 114.702 159.22 115.042 159.332C116.481 159.817 117.507 159.316 118.033 157.918C118.39 156.978 118.753 156.031 119.212 155.147C119.677 154.262 120.345 154.048 121.121 154.375C121.422 154.504 121.631 154.718 121.739 155.017C122 155.727 121.15 157.659 120.419 157.794C119.869 157.896 119.711 158.177 119.592 158.617C118.668 162.048 115.569 162.301 113.24 161.434C112.311 161.084 111.523 160.256 111.229 159.085C110.985 158.121 110.685 157.135 110.294 156.234C109.087 153.468 109.908 150.741 110.226 147.992C110.396 146.538 110.996 145.288 111.773 144.059C112.583 142.792 113.801 142.212 115.144 141.874C115.926 141.676 116.787 141.693 117.609 141.874C118.118 141.981 118.708 142.037 119.002 142.493C119.671 143.541 120.713 143.997 121.796 144.409C122.345 144.617 122.47 144.972 122.436 145.519C122.294 147.597 120.351 148.679 118.453 147.733C117.858 147.44 117.694 146.938 117.716 146.375C117.756 145.299 116.668 145.124 116.215 144.443C116.124 144.307 115.88 144.493 115.705 144.55C113.081 145.333 112.254 147.366 111.954 149.947H111.96Z" fill="white"/>
<path d="M156.301 147.699C156.794 147.699 157.287 147.671 157.775 147.705C158.704 147.772 159.032 148.183 159.021 149.124C159.01 149.975 158.483 150.172 157.758 150.24C157.032 150.307 156.364 150.121 155.718 149.862C155.089 149.609 154.783 149.62 154.738 150.437C154.675 151.586 154.063 152.623 153.984 153.8C153.871 155.507 153.678 157.209 153.701 158.916C153.712 159.749 154.398 160.178 155.106 160.425C155.956 160.718 156.823 160.538 157.639 160.262C158.285 160.048 158.483 157.93 157.894 157.552C157.531 157.321 157.078 157.445 157.106 157.935C157.146 158.656 156.777 159.164 156.205 159.226C155.605 159.293 155.185 158.662 154.908 158.178C154.602 157.642 154.573 157.011 155.032 156.465C156.052 155.248 158.273 155.096 159.503 156.133C159.882 156.454 159.86 156.916 159.945 157.304C160.211 158.482 160.03 159.665 159.633 160.797C159.202 162.02 157.151 162.859 155.741 162.555C154.454 162.279 153.247 161.868 152.137 161.141C151.757 160.893 151.593 160.549 151.497 160.183C150.862 157.789 150.601 155.395 151.434 152.983C151.548 152.662 151.423 152.33 151.355 151.997C151.281 151.626 151.179 151.226 151.372 150.831C151.525 150.527 151.633 150.11 151.344 149.896C151.032 149.665 150.641 149.885 150.364 150.099C149.769 150.555 149.185 150.516 148.579 150.155C147.933 149.767 147.763 149.136 147.717 148.448C147.683 147.902 147.916 147.536 148.414 147.276C149.009 146.967 149.497 147.367 149.995 147.49C151.14 147.772 151.344 147.631 151.327 146.465C151.315 145.665 151.287 144.927 150.822 144.2C150.505 143.705 150.601 143.096 151.094 142.612C151.593 142.122 152.109 141.868 152.828 142.133C154.035 142.567 154.511 143.209 154.409 144.476C154.347 145.265 154.233 146.054 154.103 146.837C154.007 147.429 154.177 147.705 154.817 147.676C155.31 147.66 155.803 147.721 156.29 147.75C156.29 147.733 156.29 147.716 156.29 147.699H156.301Z" fill="white"/>
<path d="M170.415 148.871C172.189 146.719 174.376 146.488 176.778 147.198C177.441 147.395 177.73 147.885 178.013 148.595C178.727 150.364 178.121 152.009 177.945 153.704C177.872 154.403 177.775 155.062 177.475 155.721C177.237 156.245 177.039 157.068 177.968 157.158C178.965 157.254 179.079 157.817 179.175 158.583C179.311 159.71 178.274 160.735 177.169 160.454C174.982 159.896 174.557 158.927 174.937 157.023C175.118 156.127 174.659 155.192 174.982 154.234C175.214 153.547 175.634 152.933 175.685 152.166C175.747 151.271 174.58 149.693 173.515 149.383C172.806 149.175 171.957 149.75 171.543 150.814C170.84 152.623 170.908 154.516 171.362 156.324C171.611 157.316 171.481 157.992 170.789 158.6C170.274 159.045 169.684 159.383 168.948 159C168.138 158.583 167.52 157.682 167.792 156.809C168.325 155.102 168.002 153.417 167.922 151.721C167.888 150.972 168.155 150.279 168.234 149.552C168.302 148.91 168.223 148.364 167.854 147.828C167.52 147.344 167.152 146.73 167.679 146.251C168.211 145.761 168.852 145.226 169.73 145.772C170.41 146.195 170.534 146.764 170.404 147.474C170.33 147.896 170.245 148.319 170.404 148.876L170.415 148.871Z" fill="white"/>
<path d="M139.281 148.842C141.094 146.944 143.389 146.352 145.564 147.164C146.273 147.428 146.584 147.896 146.856 148.634C147.497 150.386 146.953 152.037 146.777 153.733C146.692 154.532 146.505 155.282 146.222 156.014C145.944 156.73 146.301 157.034 146.907 157.231C147.23 157.338 147.768 157.118 147.836 157.62C147.921 158.262 148.188 158.916 147.791 159.58C147.31 160.397 146.732 160.797 145.757 160.42C144.25 159.839 143.525 159.293 143.689 158.228C143.899 156.848 143.44 155.456 143.865 154.076C144.069 153.417 144.516 152.854 144.511 152.093C144.505 151.209 143.287 149.592 142.295 149.355C141.564 149.18 140.884 149.862 140.295 150.933C139.717 151.992 140.102 153.062 139.972 154.121C139.859 155.028 139.915 155.907 140.306 156.792C140.658 157.586 140.097 158.211 139.513 158.685C138.969 159.124 138.329 159.361 137.643 158.916C136.873 158.42 136.38 157.67 136.624 156.825C137.128 155.09 136.85 153.383 136.737 151.665C136.686 150.887 137.06 150.183 137.065 149.406C137.071 148.809 137.031 148.273 136.658 147.766C136.329 147.321 136 146.73 136.488 146.268C136.992 145.783 137.581 145.254 138.442 145.688C139.156 146.048 139.343 146.606 139.27 147.327C139.224 147.795 138.975 148.262 139.27 148.826L139.281 148.842Z" fill="white"/>
<path d="M162.738 147.186C164.126 147.192 164.959 147.806 164.88 149.107C164.795 150.567 165.112 151.958 165.163 153.383C165.22 154.966 165.18 156.538 165.554 158.093C165.718 158.775 165.509 159.361 164.999 159.84C164.693 160.133 162.761 160.352 162.421 160.133C161.871 159.766 161.599 158.696 161.973 157.907C163.067 155.626 162.523 153.259 162.421 150.91C162.404 150.544 162.154 150.454 161.899 150.369C161.016 150.071 160.472 149.564 160.715 148.544C160.897 147.767 161.746 147.181 162.727 147.186H162.738Z" fill="white"/>
<path d="M161.922 146.245C161.208 146.245 160.715 145.597 160.766 144.719C160.8 144.15 161.712 143.254 162.375 143.136C163.197 142.983 163.724 143.395 164.052 144.076C164.426 144.848 164.194 145.316 163.373 145.727C162.908 145.958 162.466 146.234 161.922 146.245Z" fill="white"/>
<path d="M134.283 146.662C134.799 146.736 135.094 147.068 135.094 147.519C135.094 147.902 134.765 148.223 134.363 148.178C133.932 148.127 133.553 147.891 133.507 147.367C133.456 146.775 133.961 146.814 134.283 146.657V146.662Z" fill="white"/>
<path d="M191.113 146.657C191.578 146.724 191.872 147 191.895 147.491C191.918 147.941 191.583 148.2 191.215 148.183C190.785 148.161 190.411 147.93 190.343 147.395C190.269 146.803 190.745 146.809 191.113 146.651V146.657Z" fill="white"/>
<path d="M115.201 146.262C114.951 146.245 114.555 146.302 114.645 145.896C114.764 145.372 115.127 144.978 115.71 144.938C116.118 144.91 116.226 145.282 116.192 145.558C116.13 146.099 115.727 146.296 115.195 146.262H115.201Z" fill="white"/>
<path d="M155.168 151.654C155.117 150.972 155.497 150.645 156.126 150.578C156.341 150.555 156.619 150.668 156.539 150.927C156.375 151.456 156.069 151.924 155.508 152.104C155.123 152.228 155.18 151.885 155.168 151.659V151.654Z" fill="white"/>
<path d="M121.014 160.155C120.883 160.572 120.668 160.854 120.226 160.848C119.881 160.842 119.49 160.797 119.456 160.369C119.41 159.789 119.966 159.834 120.306 159.732C120.64 159.637 120.849 159.907 121.008 160.161L121.014 160.155Z" fill="white"/>
<path d="M172.767 145.102C172.704 145.513 172.489 145.699 172.081 145.699C171.719 145.699 171.481 145.586 171.469 145.198C171.452 144.724 171.758 144.561 172.172 144.555C172.54 144.55 172.71 144.781 172.767 145.102Z" fill="white"/>
<path d="M141.604 150.296C141.859 150.313 142.057 150.499 141.984 150.814C141.904 151.175 141.723 151.519 141.281 151.519C140.958 151.519 140.765 151.248 140.811 150.966C140.867 150.606 141.06 150.279 141.598 150.296H141.604Z" fill="white"/>
<path d="M140.873 144.561C141.304 144.533 141.542 144.719 141.564 145.062C141.593 145.44 141.383 145.676 140.964 145.705C140.55 145.733 140.295 145.564 140.289 145.164C140.278 144.764 140.561 144.595 140.867 144.567L140.873 144.561Z" fill="white"/>
<path d="M161.35 152.319C160.953 152.166 160.772 151.817 160.732 151.423C160.698 151.062 161.016 150.972 161.293 151.011C161.729 151.073 161.882 151.411 161.888 151.8C161.888 152.116 161.707 152.302 161.344 152.319H161.35Z" fill="white"/>
<path d="M181.039 151.964C181.492 152.054 181.747 152.313 181.781 152.69C181.81 152.989 181.521 153.22 181.254 153.192C180.886 153.152 180.586 152.933 180.574 152.493C180.569 152.144 180.835 152.065 181.039 151.969V151.964Z" fill="white"/>
<path d="M148.261 156.189C148.148 156.471 147.984 156.735 147.627 156.657C147.349 156.595 146.97 156.516 147.055 156.104C147.123 155.795 147.253 155.434 147.683 155.462C148.114 155.485 148.148 155.862 148.261 156.189Z" fill="white"/>
<path d="M179.43 156.178C179.317 156.471 179.141 156.735 178.795 156.662C178.523 156.606 178.132 156.516 178.217 156.11C178.28 155.8 178.404 155.434 178.841 155.462C179.26 155.49 179.328 155.845 179.43 156.172V156.178Z" fill="white"/>
<path d="M192.331 157.293C192.286 157.609 192.02 157.823 191.617 157.857C191.255 157.89 191.158 157.626 191.153 157.333C191.147 156.955 191.294 156.696 191.725 156.685C192.082 156.673 192.309 156.803 192.331 157.288V157.293Z" fill="white"/>
<path d="M164.783 143.434C164.46 143.434 164.222 143.327 164.217 142.983C164.205 142.55 164.477 142.319 164.868 142.24C165.208 142.172 165.39 142.386 165.401 142.691C165.418 143.102 165.203 143.372 164.783 143.434Z" fill="white"/>
<path d="M124.277 151.975C124.697 152.042 124.901 152.307 124.946 152.657C124.991 152.989 124.702 153.203 124.442 153.192C124.045 153.175 123.75 152.882 123.75 152.476C123.75 152.183 123.983 151.997 124.277 151.98V151.975Z" fill="white"/>
<path d="M172.546 150.296C172.999 150.29 173.175 150.459 173.141 150.797C173.107 151.164 172.925 151.44 172.54 151.502C172.206 151.552 171.996 151.355 171.996 151.04C171.996 150.628 172.245 150.381 172.546 150.296Z" fill="white"/>
<path d="M110.101 158.899C110.486 158.966 110.679 159.197 110.673 159.586C110.673 159.862 110.611 160.217 110.282 160.189C109.897 160.155 109.665 159.823 109.625 159.434C109.591 159.118 109.767 158.927 110.101 158.904V158.899Z" fill="white"/>
<path d="M135.519 157.254C135.422 157.654 135.133 157.856 134.731 157.856C134.323 157.856 134.391 157.502 134.38 157.248C134.351 156.792 134.64 156.668 135.026 156.702C135.337 156.73 135.524 156.904 135.519 157.254Z" fill="white"/>
<path d="M165.786 160.797C165.475 160.758 165.344 160.572 165.373 160.301C165.429 159.856 165.792 159.755 166.16 159.71C166.387 159.682 166.631 159.8 166.568 160.048C166.478 160.442 166.223 160.741 165.786 160.797Z" fill="white"/>
<path d="M158.375 144.803C158.313 145.124 158.149 145.338 157.769 145.333C157.429 145.327 157.236 145.135 157.248 144.831C157.259 144.488 157.503 144.274 157.854 144.279C158.154 144.285 158.381 144.431 158.375 144.803Z" fill="white"/>
<path d="M120.679 158.426C121.065 158.459 121.269 158.617 121.223 158.944C121.184 159.22 121.036 159.479 120.713 159.485C120.334 159.49 120.187 159.22 120.181 158.893C120.181 158.533 120.493 158.51 120.679 158.426Z" fill="white"/>
<path d="M116.107 146.488C116.362 146.521 116.577 146.657 116.555 146.882C116.526 147.164 116.322 147.4 115.988 147.344C115.784 147.31 115.54 147.22 115.535 146.961C115.529 146.583 115.875 146.589 116.101 146.488H116.107Z" fill="white"/>
<path d="M150.335 147.012C150.024 147.051 149.916 146.871 149.939 146.578C149.961 146.279 150.069 145.997 150.386 145.964C150.686 145.935 150.766 146.212 150.777 146.459C150.788 146.741 150.771 147.034 150.335 147.012Z" fill="white"/>
<path d="M124.3 159.913C124.544 159.986 124.799 160.065 124.776 160.369C124.753 160.628 124.583 160.842 124.311 160.831C124.028 160.82 123.903 160.578 123.903 160.324C123.903 160.087 124.068 159.952 124.306 159.913H124.3Z" fill="white"/>
<path d="M181.13 159.924C181.39 159.969 181.543 160.121 181.538 160.403C181.532 160.645 181.396 160.803 181.152 160.808C180.846 160.814 180.744 160.611 180.744 160.341C180.744 160.087 180.869 159.958 181.13 159.929V159.924Z" fill="white"/>
<path d="M157.899 150.944C157.854 151.265 157.582 151.282 157.355 151.293C157.168 151.299 157.01 151.181 157.038 150.955C157.078 150.64 157.333 150.606 157.576 150.612C157.775 150.612 157.922 150.707 157.899 150.944Z" fill="white"/>
<path d="M143.326 150.843C143.564 150.859 143.672 150.995 143.632 151.197C143.593 151.4 143.502 151.626 143.253 151.62C143.049 151.62 142.958 151.44 142.964 151.248C142.969 151.012 143.1 150.865 143.326 150.843Z" fill="white"/>
<path d="M174.801 151.22C174.744 151.412 174.659 151.637 174.399 151.603C174.2 151.575 174.104 151.378 174.144 151.186C174.178 151.006 174.28 150.848 174.506 150.848C174.755 150.848 174.818 150.989 174.801 151.22Z" fill="white"/>
<path d="M192.048 155.721C192.065 155.952 191.935 156.054 191.725 156.031C191.487 156.009 191.476 155.817 191.487 155.637C191.498 155.451 191.538 155.259 191.782 155.316C191.986 155.361 192.048 155.53 192.042 155.721H192.048Z" fill="white"/>
<path d="M134.941 155.293C135.207 155.349 135.218 155.541 135.23 155.721C135.241 155.946 135.116 156.059 134.895 156.037C134.669 156.008 134.606 155.839 134.623 155.637C134.64 155.423 134.765 155.321 134.941 155.293Z" fill="white"/>
<path d="M140.544 146.578C140.561 146.769 140.425 146.865 140.284 146.91C140.091 146.966 140.006 146.826 139.989 146.662C139.966 146.499 140.012 146.335 140.21 146.33C140.363 146.33 140.499 146.414 140.544 146.578Z" fill="white"/>
<path d="M171.447 146.91C171.26 146.921 171.169 146.814 171.135 146.651C171.101 146.471 171.203 146.341 171.367 146.33C171.52 146.318 171.668 146.414 171.696 146.578C171.724 146.752 171.594 146.848 171.447 146.91Z" fill="white"/>
<path d="M134.363 158.335C133.609 158.076 133.626 157.626 133.638 157.079C133.655 156.375 133.672 155.682 133.779 154.978C134.125 152.747 134.108 150.544 133.122 148.431C132.51 147.124 131.824 145.941 130.17 145.784C128.363 145.609 126.589 145.778 124.986 146.646C123.756 147.316 123.325 149.412 124.09 150.55C124.493 151.153 125.144 151.434 125.785 151.761C127.15 152.46 129.343 151.778 129.949 150.398C130.221 149.778 129.802 148.533 129.252 148.319C128.255 147.93 127.19 148.353 126.912 149.248C126.833 149.507 127.008 149.902 126.521 149.947C126.226 149.975 126 149.947 125.824 149.648C125.615 149.282 125.626 148.967 125.864 148.623C126.481 147.738 127.354 147.277 128.408 147.181C129.887 147.046 130.244 147.299 130.924 148.651C131.399 149.598 131.309 150.617 131.405 151.333C131.479 153.107 131.247 153.265 129.802 152.747C128.419 152.251 127.127 152.544 125.949 153.327C124.243 154.459 124.005 157.012 124.566 158.471C124.889 159.31 125.207 160.369 126.425 160.493C126.878 160.538 127.337 160.606 127.79 160.583C128.952 160.533 130.142 160.488 131.099 159.716C131.513 159.383 131.711 159.603 131.932 159.845C132.266 160.212 132.584 160.578 133.088 160.719C133.796 160.916 134.544 160.561 134.85 159.902C135.167 159.22 134.929 158.521 134.368 158.33L134.363 158.335ZM130.346 157.586C129.824 157.84 129.331 158.138 128.753 158.296C127.428 158.662 126.742 158.166 126.804 156.775C126.912 156.228 126.736 155.423 127.348 155.152C128.221 154.764 129.133 154.245 130.17 154.55C130.827 154.741 130.839 155.372 130.918 155.896C131.014 156.538 131.06 157.231 130.346 157.581V157.586Z" fill="white"/>
<path d="M191.204 158.352C190.337 158.031 190.433 157.468 190.428 156.842C190.416 155.344 190.898 153.885 190.756 152.217C190.756 151.023 190.637 149.659 189.929 148.482C189.408 147.609 189.232 146.482 187.997 146.065C186.614 145.603 185.277 145.699 183.906 145.947C183.062 146.099 182.161 146.2 181.543 146.843C180.688 147.727 180.257 148.831 180.665 150.037C181.096 151.288 182.269 151.902 183.419 152.048C184.614 152.2 185.861 151.862 186.609 150.651C187.056 149.93 186.818 149.276 186.473 148.668C186.167 148.127 185.475 148.099 184.994 148.178C184.376 148.279 183.753 148.657 183.73 149.44C183.713 150.02 183.305 150.065 182.982 149.919C182.552 149.727 182.286 149.321 182.58 148.814C183.22 147.716 184.212 147.231 185.476 147.186C186.722 147.141 187.017 147.383 187.646 148.454C188.365 149.682 188.071 151.028 188.269 152.307C188.348 152.826 187.918 153.164 187.26 152.978C186.682 152.809 186.155 152.488 185.504 152.504C181.866 152.589 180.631 155.423 181.317 158.352C181.6 159.558 182.49 160.465 183.379 160.538C184.637 160.645 186.042 160.803 187.062 160.161C188.218 159.428 188.733 159.862 189.538 160.544C190.19 161.096 191.221 160.763 191.612 160.025C191.963 159.361 191.827 158.578 191.209 158.352H191.204ZM187.164 157.592C186.507 157.98 185.793 158.273 185.045 158.471C184.62 158.583 184.297 158.426 184.031 158.183C183.203 157.417 183.628 155.361 184.677 154.972C185.215 154.769 185.713 154.409 186.376 154.521C187.175 154.358 187.527 154.831 187.685 155.547C187.855 156.313 187.986 157.107 187.164 157.592Z" fill="white"/>
<path d="M16.08 141.124C15.3661 141.259 14.7315 141.175 14.1083 140.966C13.4907 140.764 12.8448 140.775 12.2102 140.702C10.7087 140.521 9.25253 140.127 8.17033 138.91C7.46208 138.11 6.65185 137.4 5.88694 136.645C5.1787 135.941 4.67443 135.147 4.6121 134.11C4.56111 133.22 4.20982 132.426 3.7622 131.654C3.18428 130.668 2.84998 129.586 2.63468 128.465C2.28339 126.623 1.75645 124.837 0.95755 123.136C0.334293 121.818 -0.345623 120.561 0.203976 118.972C0.481608 118.173 0.373955 117.237 0.243637 116.342C-0.0453269 114.37 0.566598 112.443 0.674251 110.488C0.832898 107.637 1.07087 104.781 2.08508 102.066C2.1474 101.897 2.26072 101.671 2.20406 101.536C1.67146 100.24 2.28339 99.1644 2.87265 98.1053C3.66022 96.6912 4.06817 95.0969 5.01438 93.7504C5.58665 92.9335 6.13058 92.0997 6.61219 91.2152C7.0258 90.4547 7.81904 89.7617 8.60661 89.3674C9.89845 88.7195 11.026 87.8125 12.3631 87.2322C13.4737 86.7533 14.5842 86.3646 15.7854 86.235C18.3067 85.9703 20.7601 86.1224 23.2645 86.7139C25.2532 87.1871 26.1768 88.6125 27.3326 89.9307C27.6896 90.3364 28.1202 90.68 28.3242 91.2209C28.3865 91.3955 28.6358 91.604 28.8115 91.6152C30.3413 91.7054 31.4971 92.7532 32.9136 93.1194C33.6729 93.3166 34.0808 94.2405 35.01 94.0828C35.0554 94.0772 35.197 94.3307 35.197 94.4602C35.197 96.9053 34.942 99.2827 33.3839 101.322C32.9873 101.84 32.3923 102.021 31.8201 102.246C30.5282 102.77 29.2647 103.311 27.7916 102.77C27.2476 102.573 26.6017 102.838 25.9785 102.781C24.8679 102.674 23.9954 102.331 23.1908 101.502C22.2729 100.55 22.3239 99.401 22.2616 98.2968C22.2049 97.3334 21.7913 96.3926 20.9981 95.818C20.2955 95.3109 19.4343 94.9278 19.0603 94.0546C18.6864 93.1758 17.9781 93.1138 17.2189 93.3335C14.8392 94.0208 12.6578 95.1081 10.8673 96.8208C9.14487 98.4602 8.13633 100.539 7.43942 102.787C7.0428 104.066 6.73117 105.367 6.44221 106.674C5.97193 108.815 6.43654 110.713 7.39409 112.719C8.57828 115.192 9.51883 117.863 8.66893 120.736C8.34597 121.818 8.56128 122.088 9.60382 122.432C10.3914 122.691 10.4594 123.626 10.4141 124.11C10.2724 125.558 11.1393 126.612 11.5359 127.84C12.0912 129.558 13.0374 131.141 13.0657 133.029C13.0771 133.862 13.8476 134.189 14.5162 134.369C15.6721 134.674 16.8619 134.848 18.0404 135.068C18.3634 135.13 18.6467 134.989 18.93 134.86C19.8762 134.431 20.7148 133.784 21.7687 133.558C22.2049 133.462 22.4712 133.057 22.5676 132.612C23.1342 129.936 24.3693 127.502 25.3382 124.972C25.8085 123.744 26.5224 122.679 27.2816 121.598C28.5508 119.795 32.262 120.184 33.1119 122.251C33.6162 123.485 33.1176 124.589 32.8173 125.733C32.432 127.17 31.5424 128.319 30.6756 129.491C30.3299 129.953 29.9106 130.161 29.3384 130.144C28.3978 130.116 27.7632 130.471 27.5649 131.485C27.3836 132.409 27.004 133.276 26.8057 134.206C26.4941 135.665 25.5422 136.803 24.3467 137.699C23.9047 138.031 23.4684 138.375 23.1002 138.792C22.1879 139.828 20.9867 140.369 19.6722 140.645C18.4711 140.899 17.2585 141.158 16.0744 141.119L16.08 141.124Z" fill="#C22134"/>
<path d="M59.5947 96.6291C60.5635 96.37 61.2435 97.17 62.0707 97.4967C62.694 97.7446 62.7846 98.4376 62.9773 99.0122C63.3115 99.9925 63.4872 100.894 63.0736 101.992C62.6996 102.978 62.5863 104.167 62.9999 105.277C63.1359 105.632 63.2492 105.75 63.5608 105.457C63.8271 105.204 64.2124 105.012 64.3597 104.708C64.8017 103.79 65.6063 103.226 66.2578 102.511C66.6941 102.026 67.1304 101.756 67.731 101.716C68.5922 101.66 69.1588 100.95 70.0144 100.804C71.5102 100.55 72.989 100.184 74.5132 100.1C75.89 100.026 77.2838 99.9699 78.6267 100.319C80.3378 100.77 81.9866 101.395 83.3747 102.545C83.6297 102.753 83.7317 103.046 83.7487 103.356C83.811 105.04 84.3323 106.64 84.6836 108.268C84.7006 108.359 84.7006 108.471 84.7572 108.533C85.8564 109.671 85.1992 110.944 85.0462 112.178C84.8026 114.139 84.236 116.037 83.9583 118.003C83.6637 120.077 84.0377 122.336 82.6268 124.24C82.2132 124.798 82.2019 125.699 82.1396 126.46C82.0262 127.812 83.2274 128.758 84.9272 128.724C85.3012 128.713 85.6695 128.713 86.0208 128.831C86.61 129.017 86.967 129.378 86.9386 130.043C86.899 130.814 87.0236 131.564 87.2389 132.307C87.5279 133.321 87.2673 134.245 86.661 135.085C86.1737 135.755 85.7035 136.437 85.1709 137.068C84.5589 137.795 83.6524 137.812 82.8705 137.626C81.8393 137.383 80.7174 137.44 79.7938 136.792C78.5133 135.896 76.8702 135.457 76.077 133.947C75.482 132.809 75.431 131.541 75.4424 130.302C75.4537 129.541 75.4764 128.758 75.8277 127.998C76.094 127.429 76.128 126.702 75.856 126.105C74.9268 124.065 75.669 122.122 76.0826 120.144C76.2753 119.237 76.5869 118.432 77.0628 117.62C77.8901 116.206 78.0431 114.567 77.8334 112.995C77.7031 112.026 77.2782 111.08 76.3943 110.358C75.1704 109.35 74.0599 108.235 72.7397 107.316C71.3856 106.37 70.1957 106.775 69.0455 107.339C67.6913 107.992 66.8471 109.187 66.3485 110.629C65.8726 112.004 65.1756 113.299 64.949 114.77C64.8584 115.35 64.796 115.857 65.1303 116.341C65.4759 116.837 65.5666 117.401 65.4023 117.925C64.8414 119.722 65.1983 121.592 64.9263 123.417C64.8017 124.251 65.136 125.265 65.5553 126.031C65.9236 126.696 66.1162 127.378 66.3315 128.065C66.5581 128.809 66.2182 129.445 65.8839 130.138C64.9433 132.065 63.4022 133.169 61.4191 133.8C61.0452 133.919 60.6882 133.862 60.3312 133.767C57.0903 132.882 55.2375 129.507 56.2971 126.341C56.7277 125.051 56.7164 123.705 56.96 122.409C57.4019 120.065 56.5124 117.863 56.5747 115.592C56.62 113.857 56.2121 112.133 56.8523 110.358C57.3566 108.956 57.4529 107.35 57.4416 105.835C57.4359 104.792 57.2206 103.66 56.4161 102.798C55.8155 102.156 55.4642 101.367 55.2999 100.511C55.0166 99.0291 55.2602 98.539 56.569 97.846C56.7787 97.7333 57.011 97.6995 57.181 97.4742C57.7759 96.6967 58.5805 96.4489 59.6003 96.6348L59.5947 96.6291Z" fill="#C22134"/>
<path d="M167.979 128.234C167.781 125.744 168.687 123.739 169.803 121.784C169.928 121.57 170.087 121.479 170.302 121.423C172.614 120.854 174.806 121.158 176.897 122.274C177.265 122.471 177.379 122.803 177.384 123.198C177.401 124.2 177.005 125.057 176.138 125.513C175.141 126.037 175.605 126.916 175.503 127.62C175.418 128.178 176.098 128.347 176.569 128.46C177.164 128.606 177.583 128.843 177.696 129.496C177.736 129.733 177.894 129.981 178.166 130.02C179.317 130.178 180.348 130.803 181.566 130.747C183.521 130.657 185.464 129.192 185.628 127.271C185.747 125.857 185.198 124.51 184.206 123.44C183.039 122.184 181.549 121.491 179.94 120.899C177.804 120.116 175.532 119.75 173.469 118.753C173.022 118.539 172.84 118.099 172.466 117.834C170.699 116.55 169.514 114.911 169.282 112.685C169.271 112.595 169.248 112.494 169.191 112.426C167.69 110.55 168.347 108.426 168.546 106.387C168.676 105.029 168.863 103.677 169.174 102.325C169.758 99.8065 171.413 98.1728 173.209 96.5841C175.294 94.7418 177.758 93.6207 180.512 93.3165C181.821 93.17 183.152 93.2207 184.541 93.5081C186.354 93.8799 187.895 94.6066 189.419 95.5137C189.657 95.6545 189.963 95.7728 190.088 95.9869C191.736 98.7474 193.102 101.564 191.793 104.888C191.561 105.485 191.413 106.116 191.504 106.775C191.578 107.316 191.085 107.649 190.971 108.105C190.535 109.908 189.068 110.832 187.663 111.671C186.875 112.144 185.781 112.432 184.767 111.801C184.331 111.53 183.764 111.48 183.328 111.215C181.232 109.942 181.101 106.544 183.073 105.012C183.317 104.826 183.538 104.573 183.81 104.471C184.524 104.201 184.733 103.716 184.745 102.99C184.75 102.398 185.102 101.835 184.648 101.232C184.235 100.691 184.427 99.7953 183.713 99.4178C182.66 98.8657 181.538 99.1192 180.45 99.2882C178.852 99.5418 177.469 100.274 176.319 101.39C175.475 102.206 175.373 103.356 175.254 104.437C175.124 105.654 175.152 106.882 175.373 108.105C175.532 108.961 175.894 109.671 176.58 110.206C177.639 111.029 178.637 111.964 179.787 112.618C181.283 113.468 182.835 114.251 184.671 114.285C185.957 114.308 187.249 114.516 188.099 115.705C188.235 115.896 188.49 115.998 188.682 116.15C189.487 116.787 190.173 117.468 190.269 118.601C190.354 119.632 190.841 120.584 191.056 121.609C191.6 124.195 191.368 126.736 190.394 129.102C189.362 131.598 187.81 133.733 185.034 134.809C183.43 135.428 181.991 136.504 180.302 136.995C178.988 137.378 177.685 137.417 176.28 137.254C174.58 137.057 173.492 136.031 172.296 135.124C171.441 134.476 170.393 134.127 169.645 133.31C168.262 131.806 167.866 130.014 167.985 128.217L167.979 128.234Z" fill="#C22134"/>
<path d="M113.285 112.651C110.872 112.668 109.812 111.339 110.486 109.418C110.838 108.426 110.554 107.525 109.988 106.944C109.438 106.387 108.503 106.184 107.568 106.392C105.88 106.775 104.203 107.226 102.435 107.175C101.851 107.159 101.517 107.756 101.036 108.015C99.7721 108.68 99.1715 109.812 98.7352 111.091C98.5255 111.716 98.7862 112.302 98.7692 112.905C98.7352 114.246 98.9392 115.598 98.9335 116.916C98.9165 118.837 99.2621 120.73 99.1771 122.651C99.0978 124.471 98.6729 126.353 99.8627 128.031C99.9534 128.161 99.9137 128.386 99.9364 128.567C100.157 130.572 101.732 131.598 103.693 131.017C105.019 130.629 106.203 129.986 107.381 129.254C108.311 128.674 109.359 128.24 110.588 128.724C111.268 128.995 111.96 128.533 112.543 128.122C113.506 127.44 114.532 127.153 115.676 127.553C116.492 127.84 117.002 128.291 116.946 129.299C116.889 130.341 117.201 131.372 116.668 132.42C116.283 133.181 115.931 133.981 115.178 134.347C113.07 135.372 110.934 136.392 108.458 135.693C107.846 135.519 107.24 135.654 106.645 135.868C105.478 136.285 104.367 136.448 103.228 135.654C102.412 135.085 101.336 135.214 100.39 134.972C99.3754 134.707 98.4859 134.341 97.772 133.541C97.2167 132.91 96.3781 132.657 95.6926 132.2C93.1769 130.527 91.5961 128.324 91.5564 125.198C91.5337 123.524 91.6867 121.851 91.6924 120.189C91.6981 118.618 91.2334 117.04 91.2108 115.446C91.1881 113.711 91.1428 111.975 91.4204 110.251C91.7037 108.499 92.8426 107.159 93.5735 105.621C94.6953 103.249 96.9277 102.28 99.2225 101.412C99.6531 101.249 100.106 101.074 100.452 100.792C101.755 99.7108 103.393 99.6883 104.888 99.6545C106.481 99.6207 108.146 100.043 109.489 101.023C110.452 101.728 111.518 101.643 112.554 101.716C113.359 101.778 114.141 101.784 114.889 102.128C115.625 102.466 116.436 102.573 117.223 102.663C118.101 102.764 118.787 103.237 119.461 103.677C120.43 104.314 120.838 107.085 120.385 108.184C119.427 110.499 117.354 111.435 115.308 112.375C114.623 112.691 113.744 112.595 113.291 112.646L113.285 112.651Z" fill="#C22134"/>
<path d="M43.067 101.052C43.9169 100.747 44.9255 101.215 45.8207 101.53C47.2655 102.043 48.1097 103.288 48.4214 104.821C48.5687 105.547 48.665 106.285 48.5914 107.012C48.478 108.173 48.4327 109.316 48.5574 110.482C48.648 111.322 48.2401 112.139 48.2967 113.012C48.3251 113.491 48.3421 113.941 48.6537 114.291C49.3336 115.057 49.4469 115.964 49.4809 116.933C49.5432 118.775 49.2769 120.595 49.2203 122.42C49.1693 124.077 49.5376 125.75 49.7472 127.412C49.9285 128.888 50.5235 130.296 50.5914 131.789C50.6764 133.648 49.7812 135.068 48.3421 136.172C48.0304 136.414 47.6338 136.55 47.3108 136.786C46.7499 137.197 46.2626 137.09 45.8717 136.595C45.6451 136.313 45.3844 136.127 45.0955 136.296C44.5175 136.64 43.8546 136.521 43.271 136.713C42.4155 136.989 41.8772 136.628 41.4636 136.02C40.2284 134.195 39.7184 132.426 40.7383 130.15C41.7695 127.845 42.7327 125.395 42.8064 122.792C42.8404 121.626 42.6591 120.437 42.4154 119.288C42.2228 118.375 42.2511 117.479 42.2908 116.578C42.3758 114.595 42.1435 112.634 41.8658 110.685C41.8035 110.268 41.5599 110.02 41.1349 109.863C40.4437 109.609 39.7921 109.26 39.1179 108.956C37.656 108.302 36.8741 106.55 37.1178 104.973C37.3217 103.615 38.3133 102.956 39.1405 102.088C40.2057 100.967 41.5316 101.074 43.0727 101.057L43.067 101.052Z" fill="#C22134"/>
<path d="M166.115 96.3363C165.9 99.525 165.157 102.511 162.67 104.787C162.03 105.373 161.344 105.874 160.455 106.049C159.741 106.19 158.947 106.178 158.613 105.564C158.296 104.978 158.471 104.212 158.925 103.604C159.928 102.252 160.602 100.764 160.874 99.0968C160.999 98.3306 160.608 98.1335 160.075 98.4771C158.341 99.5813 156.947 98.4377 155.673 97.694C154.811 97.1926 155.004 95.9138 155.18 94.8941C155.406 93.5758 155.91 92.3533 156.375 91.1139C156.437 90.9561 156.505 90.8491 156.641 90.7758C157.673 90.2237 158.67 89.6097 159.735 89.1308C160.766 88.6632 163.248 89.4068 163.916 90.3477C164.211 90.7533 164.477 91.142 164.959 91.3448C165.276 91.4801 165.288 91.8406 165.429 92.111C165.486 92.2181 165.526 92.3476 165.526 92.466C165.486 93.7955 166.274 94.9955 166.121 96.3419L166.115 96.3363Z" fill="#C22134"/>
<path d="M42.6987 89.8239C43.9736 89.7732 45.8547 91.1647 46.2966 92.4097C46.5346 93.0801 46.7726 93.7111 46.6593 94.4491C46.4836 95.5759 46.0473 96.3702 44.8008 96.6575C44.1379 96.8097 43.5203 97.2322 42.9197 97.5927C42.1548 98.0491 41.2879 98.1392 40.4494 98.2744C39.2085 98.4716 37.7524 97.266 37.758 96.0266C37.758 95.0801 37.0894 94.1674 37.7354 93.1759C39.0045 91.2266 40.234 89.7957 42.6931 89.8295L42.6987 89.8239Z" fill="#C22134"/>
<path d="M123.512 97.756C123.546 96.68 124.742 95.2828 125.745 95.1307C126.544 95.0124 127.371 96.1279 127.195 97.0856C127.059 97.8237 125.615 99.1363 124.855 99.2152C124.056 99.2997 123.478 98.6743 123.512 97.756Z" fill="#C32235"/>
<path d="M15.0431 98.3307C14.7712 98.2575 14.1933 98.4265 13.9156 97.9476C13.5983 97.4012 13.8703 96.8547 14.2442 96.4434C14.7089 95.9308 15.1111 95.3223 15.7797 95.0294C16.7883 94.5787 17.2925 94.6857 17.6608 95.3787C18.1424 96.2857 17.9328 97.3167 17.1509 97.8068C16.5673 98.173 15.927 98.3476 15.0431 98.3307Z" fill="#C32335"/>
<path d="M102.56 126.065C103.557 126.043 104.888 127.237 104.9 128.167C104.9 128.651 103.778 129.541 103.172 129.53C101.914 129.502 101.036 128.696 101.041 127.575C101.041 126.707 101.67 126.088 102.56 126.065Z" fill="#C32335"/>
<path d="M28.9758 138.527C28.3752 138.375 27.6499 138.414 27.276 137.71C27.0097 137.209 26.9473 136.719 27.3496 136.268C27.8652 135.693 29.7747 135.44 30.4263 135.845C31.2931 136.386 31.3611 136.719 30.7719 137.524C30.2676 138.217 29.6953 138.544 28.9814 138.527H28.9758Z" fill="#C32335"/>
<path d="M168.047 136.268C168.047 135.502 168.965 134.786 169.73 135.124C170.472 135.457 171.277 135.812 171.77 136.55C172.132 137.096 172.036 137.524 171.43 137.806C170.648 138.167 169.905 138.471 169.016 137.952C168.308 137.541 168.058 137.006 168.053 136.262L168.047 136.268Z" fill="#C32335"/>
<path d="M117.665 98.9052C117.637 99.8122 116.453 100.787 115.353 100.866C114.691 100.911 113.71 99.9981 113.58 99.2263C113.523 98.8827 113.58 98.6066 113.937 98.4827C114.787 98.1897 115.654 97.9644 116.555 98.0376C117.116 98.0827 117.541 98.3587 117.665 98.9052Z" fill="#C32335"/>
<path d="M102.718 108.494C103.313 108.511 103.852 108.578 104.005 109.136C104.18 109.778 104.107 110.449 103.512 110.877C103.087 111.181 102.684 111.502 102.288 111.84C101.653 112.37 101.03 112.178 100.786 111.406C100.463 110.404 101.495 108.387 102.724 108.488L102.718 108.494Z" fill="#C32335"/>
<path d="M67.8047 96.8152C66.7678 96.8264 66.1672 96.2687 66.1559 95.2772C66.1445 94.5391 67.0341 93.7223 67.884 93.6941C68.7905 93.6603 69.5158 94.3307 69.5441 95.2321C69.5781 96.156 68.8642 96.7983 67.8047 96.8152Z" fill="#C32335"/>
<path d="M40.404 113.547C40.387 114.263 40.0867 114.68 39.4465 114.905C38.8232 115.125 38.4379 114.854 38.115 114.398C37.8713 114.049 37.6447 113.682 37.4634 113.294C37.2538 112.843 36.8741 112.359 37.4634 111.913C38.0583 111.463 38.6872 111.175 39.3785 111.733C39.9847 112.218 40.302 112.854 40.3984 113.553L40.404 113.547Z" fill="#C32535"/>
<path d="M170.126 93.4744C169.356 93.4744 168.846 92.7815 169.067 92.0434C169.503 90.5843 171.226 89.8745 172.223 90.7252C172.619 91.0632 172.67 91.4294 172.5 91.8688C172.319 92.3251 170.614 93.4744 170.132 93.4744H170.126Z" fill="#C32435"/>
<path d="M48.3421 90.4772C47.3165 90.4885 46.8122 90.0998 46.8179 89.311C46.8292 88.3082 47.7925 87.3618 48.835 87.3392C49.5036 87.3223 50.0362 87.8688 50.0362 88.5787C50.0362 89.6434 49.3053 90.466 48.3477 90.4772H48.3421Z" fill="#C32335"/>
<path d="M95.6642 136.628C95.6076 136.628 95.4546 136.628 95.3016 136.657C94.905 136.73 94.4574 136.871 94.2251 136.426C94.0098 136.014 94.1797 135.586 94.4234 135.214C95.075 134.206 96.3272 133.873 97.3527 134.448C97.7266 134.657 97.9193 134.995 97.9533 135.423C97.9873 135.851 97.6983 136.009 97.3754 136.144C96.8541 136.369 96.4065 136.82 95.6586 136.628H95.6642Z" fill="#C32535"/>
<path d="M87.8848 125.654C87.8962 126.144 87.1029 126.961 86.6043 126.984C85.9188 127.012 84.8366 126.268 84.8139 125.755C84.7686 124.871 85.6071 123.817 86.3834 123.784C87.1483 123.75 87.8735 124.651 87.8905 125.654H87.8848Z" fill="#C32335"/>
<path d="M70.7226 110.719C70.717 111.767 69.8047 112.759 68.8642 112.742C68.2579 112.73 67.5894 112.043 67.6007 111.435C67.6177 110.567 68.6546 109.525 69.5101 109.525C70.2014 109.525 70.7283 110.043 70.7226 110.719Z" fill="#C32235"/>
<path d="M181.827 129.434C181.43 129.327 180.846 129.389 180.62 128.882C180.365 128.308 180.625 127.806 181.118 127.457C181.611 127.108 182.127 126.775 182.648 126.465C183.011 126.251 183.294 126.482 183.543 126.719C183.923 127.079 184.104 127.525 183.934 128.043C183.764 128.572 182.478 129.434 181.827 129.434Z" fill="#C32335"/>
<path d="M2.64601 135.085C2.66301 135.479 2.66301 135.868 2.44203 136.228C2.23239 136.566 1.95476 136.668 1.58647 136.6C0.71958 136.431 -0.169977 135.023 0.0679935 134.166C0.215309 133.648 0.487275 133.158 1.12186 133.214C1.87544 133.282 2.44203 133.676 2.64034 134.448C2.69134 134.651 2.64601 134.871 2.64601 135.085Z" fill="#C32335"/>
<path d="M52.0873 135.507C52.5009 135.536 52.9485 135.541 53.1525 135.93C53.3564 136.319 53.1411 136.696 52.8975 137.023C52.5519 137.485 52.2232 137.947 51.6283 138.161C51.0844 138.352 50.5858 138.409 50.2628 137.857C49.9512 137.327 49.8889 136.741 50.3705 136.257C50.8351 135.789 51.4243 135.536 52.0873 135.502V135.507Z" fill="#C32535"/>
<path d="M193.34 112.471C193.368 113.547 192.025 114.601 190.971 114.336C190.615 114.246 190.343 114.088 190.309 113.688C190.275 113.198 190.241 112.663 190.694 112.353C191.141 112.043 191.651 111.795 192.161 111.615C192.813 111.39 193.312 111.784 193.334 112.471H193.34Z" fill="#C32435"/>
<path d="M29.1457 133.22C29.1288 132.443 29.5934 132.015 30.5112 132.015C31.2082 132.015 31.6898 132.279 31.6898 133.085C31.6898 134.026 31.1515 134.696 30.3299 134.719C29.65 134.736 29.1627 134.122 29.1401 133.22H29.1457Z" fill="#C32837"/>
<path d="M108.339 107.57C108.906 107.496 109.234 107.947 109.665 108.144C109.795 108.206 109.818 108.381 109.744 108.55C109.489 109.142 108.288 109.925 107.608 109.925C107.03 109.925 106.549 109.716 106.401 109.142C106.237 108.505 106.588 108.082 107.183 107.874C107.557 107.744 107.954 107.671 108.339 107.575V107.57Z" fill="#C32335"/>
<path d="M155.831 129.75C156.126 129.767 156.358 129.958 156.29 130.493C156.205 131.175 156.012 131.755 155.287 131.975C154.483 132.223 154.058 131.519 153.525 131.169C153.247 130.989 153.491 130.612 153.74 130.398C154.029 130.15 155.248 129.738 155.831 129.75Z" fill="#C32536"/>
<path d="M18.0121 99.0686C18.4597 99.1813 18.8677 99.4799 18.9527 100.049C19.0207 100.528 18.2161 101.305 17.7005 101.328C17.2019 101.35 16.1933 100.595 16.199 100.201C16.199 99.7052 17.1452 99.0855 18.0178 99.0686H18.0121Z" fill="#C32736"/>
<path d="M194.989 108.871C194.881 109.316 194.456 109.575 193.827 109.542C193.119 109.502 192.875 109.08 192.926 108.432C192.994 107.609 193.657 107.728 194.178 107.722C194.79 107.711 195.068 108.066 194.989 108.871Z" fill="#C32937"/>
<path d="M75.2327 111.863C75.0684 112.409 74.9438 113.085 74.2299 113.08C73.6803 113.08 73.5783 112.488 73.6066 112.037C73.6406 111.463 73.9919 111.063 74.5925 111.04C75.1138 111.018 75.2101 111.429 75.2327 111.868V111.863Z" fill="#C42D38"/>
<path d="M66.1219 98.7024C66.3258 98.7644 66.7848 98.8207 66.7395 99.3616C66.6998 99.8235 66.3372 100.088 65.9179 100.083C65.3683 100.071 65.3796 99.5588 65.357 99.1869C65.3343 98.8489 65.5326 98.601 66.1219 98.7081V98.7024Z" fill="#C4303A"/>
<path d="M93.8624 133.434C93.8284 133.75 93.7038 133.93 93.3298 133.902C92.9219 133.874 92.6726 133.721 92.6783 133.305C92.6839 132.921 93.0012 132.927 93.2845 132.899C93.6811 132.865 93.8454 133.068 93.8624 133.434Z" fill="#C32837"/>
<path d="M158.494 110.545C158.143 109.085 157.174 107.947 156.556 106.629C155.389 104.145 153.497 102.291 151.179 100.9C149.213 99.7222 147.395 98.3701 145.802 96.7364C145.309 96.2293 144.783 95.942 144.137 95.6829C142.618 95.0744 141.117 95.1476 139.592 95.4969C139.247 95.5758 138.93 95.5476 138.595 95.4969C136.726 95.2547 134.918 95.6998 133.19 96.2575C131.558 96.7814 130.408 98.2011 129.003 99.1588C128.13 99.7504 127.547 100.843 126.997 101.801C126.402 102.843 126.187 104.083 125.365 105.029C125.156 105.271 125.003 105.615 124.935 105.931C124.799 106.607 124.396 107.136 124.039 107.688C122.799 109.609 122.13 111.694 122.13 113.981C122.13 114.866 122.243 115.778 122.073 116.629C121.926 117.35 121.966 117.959 122.311 118.561C122.974 119.716 123.286 121.001 123.796 122.212C124.221 123.22 124.402 124.319 124.974 125.277C126 126.995 127.552 128.257 128.816 129.767C129.127 130.139 129.513 130.426 129.909 130.719C130.867 131.44 131.921 131.998 133.003 132.465C134.414 133.079 135.796 133.879 137.456 133.609C137.745 133.558 138.102 133.575 138.357 133.699C139.609 134.308 140.918 134.499 142.323 134.381C143.842 134.482 145.236 133.953 146.658 133.423C148.409 132.77 149.599 131.316 151.191 130.482C153.661 129.181 155.049 126.972 156.182 124.651C157.571 121.812 158.505 118.781 158.981 115.626C159.248 113.857 158.902 112.201 158.494 110.522V110.545ZM151.281 120.505C151.111 120.826 150.941 121.215 150.658 121.395C149.497 122.133 148.698 123.35 147.378 123.857C146.573 124.167 146.08 124.865 145.445 125.372C144.21 126.353 142.828 126.268 141.57 126.341C140.142 126.15 138.839 126.24 137.575 125.913C136.816 125.716 136.131 125.401 135.677 124.713C135.507 124.46 135.32 124.172 135.071 124.026C133.456 123.068 132.759 121.401 131.802 119.936C131.734 119.835 131.671 119.716 131.581 119.643C129.399 117.829 128.227 115.468 127.666 112.742C127.399 111.452 127.575 110.325 128.272 109.181C129.377 107.373 131.094 106.438 132.918 105.598C134.414 104.905 135.876 104.1 137.275 103.288C138.357 102.663 139.507 102.364 140.595 101.846C141.496 101.418 142.21 101.925 142.839 102.477C143.723 103.255 144.624 104.009 145.564 104.731C146.182 105.204 146.624 105.931 147.519 105.981C147.734 105.993 147.955 106.088 148.159 106.055C149.219 105.863 149.553 106.657 149.565 107.345C149.587 109.181 150.471 110.702 151.106 112.33C152.154 115.023 152.777 117.756 151.293 120.516L151.281 120.505Z" fill="#C22134"/>
<path d="M140.771 123.919C140.012 123.857 139.066 123.908 138.816 123.063C138.55 122.173 139.377 121.711 140.029 121.237C140.884 120.623 141.712 120.122 142.794 120.764C143.343 121.091 143.661 121.502 143.661 122.156C143.661 122.775 143.366 123.198 142.822 123.457C142.176 123.761 141.502 123.953 140.777 123.919H140.771Z" fill="#C32235"/>
<path d="M132.402 110.668C132.402 111.525 131.365 112.691 130.589 112.68C129.836 112.668 129.382 112.302 129.36 111.519C129.331 110.719 130.391 109.778 131.383 109.756C131.989 109.744 132.368 110.037 132.402 110.674V110.668Z" fill="#C32435"/>
<path d="M147.094 117.158C147.916 117.164 148.227 117.722 147.831 118.437C147.7 118.674 147.587 118.927 147.44 119.158C147.128 119.649 146.709 120.032 146.086 119.834C145.513 119.654 145.009 119.305 145.02 118.623C145.032 117.97 145.496 117.575 146.046 117.344C146.375 117.204 146.766 117.215 147.1 117.158H147.094Z" fill="#C32435"/>
<path d="M2.39104 25.6391C5.31468 21.1885 10.2781 20.749 14.9922 20.1012C20.9924 19.2843 26.9813 19.7181 32.9419 20.5631C38.7609 21.3857 44.5005 22.6082 50.1665 24.1574C55.6228 25.6504 61.0338 27.2954 66.3655 29.1883C66.5978 29.2672 66.8358 29.3235 67.0681 29.3911C68.0653 29.194 68.8925 29.7573 69.7707 30.039C72.3941 30.8841 75.0401 31.6559 77.6634 32.4953C80.8534 33.5094 84.0886 34.3939 87.2786 35.4079C88.8764 35.915 90.4969 36.3431 92.1117 36.7713C94.7407 37.4699 97.3187 38.3882 99.9874 38.9403C103.104 39.5825 106.118 40.6079 109.195 41.4022C113.931 42.6247 118.742 43.5261 123.512 44.574C127.7 45.4923 131.943 46.2078 136.199 46.788C142.879 47.8472 149.593 48.3655 156.341 47.6556C164.228 46.8275 171.939 45.2275 179.169 41.8416C180.875 41.0416 182.461 40.0051 184.008 38.9403C184.971 38.2755 184.949 38.0051 184.195 37.115C182.863 35.5432 181.096 34.6643 179.198 33.9939C175.056 32.5348 170.733 32.2587 166.404 32.2136C157.078 32.1235 147.865 33.2728 138.697 34.8671C137.547 35.0643 136.425 35.6108 135.207 35.2953C134.368 34.4277 134.612 33.239 134.329 32.208C134.176 31.6615 133.898 31.0193 134.38 30.4503C146.873 27.3123 159.463 24.749 172.404 24.4673C176.217 24.3828 180.002 24.6701 183.691 25.7687C187.81 26.9968 189.759 29.2221 190.207 33.4531C190.564 36.7713 190.365 40.0501 188.943 43.1374C187.368 46.557 184.365 48.4838 181.181 50.1232C175.821 52.8837 170.024 54.264 164.098 55.1597C158.987 55.9315 153.842 56.2358 148.681 56.2076C148.165 56.2076 147.644 56.309 147.128 56.3597C140.884 56.6076 134.708 55.8639 128.544 55.0639C122.413 54.2696 116.362 53.0471 110.299 51.8246C104.877 50.7316 99.6531 48.9683 94.31 47.6275C90.4572 46.6585 86.6383 45.5148 82.8081 44.4557C77.4595 42.974 72.0711 41.6276 66.7338 40.129C59.6683 38.1459 52.5405 36.36 45.3617 34.8953C36.5172 33.0869 27.5479 32.0953 18.4824 33.0531C15.1281 33.408 11.8702 34.0728 8.93523 35.9093C6.66885 37.329 5.52999 39.3121 5.32034 41.9036C5.28635 42.3374 5.40533 42.8219 5.00872 43.1712C2.32305 40.067 1.0822 36.5347 1.00854 32.5122C1.00288 32.0897 1.04254 31.701 1.05387 31.1038C1.23518 29.025 1.29184 27.6109 2.38537 25.6335L2.39104 25.6391Z" fill="#EE7825"/>
<path d="M5.01438 43.1766C4.78207 38.2415 7.22977 35.7627 12.0119 34.0951C17.1679 32.2979 22.5676 32.2698 27.9502 32.4669C32.228 32.6247 36.4718 33.1543 40.7157 33.7627C47.2712 34.7035 53.6171 36.5345 60.0366 38.0499C64.5864 39.126 69.1192 40.3091 73.6236 41.5597C78.1281 42.8048 82.6438 44.016 87.1483 45.2555C90.9105 46.2921 94.6614 47.3794 98.4349 48.3878C101.534 49.216 104.577 50.2638 107.699 50.9624C112.56 52.0497 117.45 53.0581 122.368 53.8581C130.408 55.1651 138.499 56.1003 146.664 56.1736C146.822 56.1736 147.74 56.1736 147.893 56.2355C142.641 57.5257 136.522 58.382 131.19 59.2439C118.43 61.3059 105.568 61.3735 92.6953 61.3453C81.624 61.3228 70.5696 60.9228 59.5437 59.9313C48.5347 58.9454 37.605 57.4243 26.936 54.4497C20.4315 52.6356 14.0856 50.3878 8.52161 46.4216C7.21278 45.4864 6.01159 44.4329 5.00871 43.171L5.01438 43.1766Z" fill="#C22134"/>
<path d="M134.385 30.4558C134.663 32.0839 134.918 33.5205 135.23 35.143C135.757 38.6584 136.21 42.1795 136.624 45.7118C136.675 46.14 136.833 46.6076 136.476 46.9963C135.723 47.1372 134.89 46.9118 134.125 46.8104C131.779 46.5005 129.445 46.0555 127.122 45.6048C120.3 44.2752 113.495 42.8781 106.781 41.0866C103.614 40.2415 100.424 39.4641 97.2564 38.6021C94.0268 37.7232 90.8085 36.8049 87.6016 35.8528C82.8591 34.4501 78.1111 33.0473 73.397 31.5487C71.2779 30.8727 69.1135 30.3093 67.0737 29.4023C67.4874 27.8755 67.8953 26.3544 68.3089 24.8277C68.3826 24.8277 68.4562 24.8277 68.5129 24.8671C69.2986 25.453 70.0238 25.3497 70.6886 24.5573C71.2042 23.9432 71.7255 23.3348 72.2468 22.7263C72.7454 22.146 73.1703 22.1066 73.6689 22.7657C74.3602 23.684 75.0798 24.5798 75.7823 25.4868C76.1336 25.9375 76.3999 25.9432 76.7626 25.5094C77.4538 24.6812 78.1224 23.8305 78.876 23.0587C79.6012 22.3207 79.9128 22.332 80.5644 23.1319C81.2443 23.9657 81.9129 24.8164 82.5475 25.6896C82.8591 26.1178 83.1141 26.1009 83.4711 25.7572C84.2473 25.0023 84.8932 24.1347 85.6128 23.3291C86.3834 22.4728 86.678 22.4897 87.4089 23.3967C88.0208 24.1573 88.5988 24.9404 89.1654 25.7291C89.6413 26.3882 89.9926 26.3093 90.4515 25.7347C91.1031 24.9178 91.7774 24.1235 92.48 23.346C93.1202 22.6362 93.3752 22.6362 93.9644 23.3686C94.616 24.1798 95.2733 24.9967 95.8852 25.8474C96.3101 26.4389 96.6954 26.5234 97.1884 25.8981C97.8116 25.1037 98.4802 24.3488 99.1488 23.5883C99.8797 22.7545 100.078 22.7657 100.758 23.5883C101.466 24.4446 102.14 25.3347 102.815 26.2192C103.166 26.6812 103.427 26.6868 103.772 26.2361C104.469 25.3235 105.325 24.546 106.073 23.6671C106.554 23.1038 106.996 23.1263 107.449 23.6784C108.186 24.5629 108.889 25.4699 109.569 26.3939C109.937 26.9009 110.22 26.9234 110.611 26.4389C111.314 25.5713 112.028 24.715 112.781 23.8925C113.387 23.2277 113.727 23.239 114.3 23.9488C114.912 24.7037 115.518 25.4699 116.09 26.2586C116.776 27.1882 116.815 27.1938 117.597 26.2924C118.215 25.5826 118.81 24.8559 119.427 24.146C120.192 23.2671 120.402 23.2784 121.082 24.1854C121.728 25.0474 122.425 25.8756 123.054 26.7544C123.422 27.2614 123.694 27.2502 124.09 26.7657C124.793 25.9037 125.501 25.0418 126.249 24.2136C126.906 23.4869 127.11 23.4981 127.722 24.2361C128.385 25.0418 129.037 25.8643 129.643 26.7093C130.102 27.346 130.419 27.4248 130.986 26.7713C131.558 26.1122 132.028 25.2896 132.952 24.9967C133.451 26.4671 133.677 28.0051 134.04 29.5037C134.119 29.8304 134.17 30.0896 134.374 30.4614L134.385 30.4558Z" fill="#FFC82B"/>
<path d="M103.319 14.3602C102.633 13.4307 101.999 12.5687 101.359 11.7067C100.656 10.7603 99.4094 10.7208 98.6615 11.6222C98.1289 12.2645 97.5736 12.8898 97.092 13.5659C96.6614 14.1743 96.3781 14.0222 96.0325 13.5039C95.6076 12.8673 95.1373 12.2645 94.6897 11.6391C93.8624 10.4899 92.7122 10.4561 91.8114 11.549C91.2844 12.1912 90.7348 12.8222 90.2306 13.487C89.9076 13.9095 89.6866 13.9264 89.3863 13.4645C88.967 12.8222 88.4911 12.2194 88.0492 11.5997C87.0746 10.2307 86.0151 10.1913 84.9725 11.4758C84.4683 12.0955 83.947 12.6983 83.4654 13.3349C83.1311 13.7743 82.9158 13.7123 82.6325 13.2786C82.1509 12.5574 81.6296 11.8589 81.1027 11.1659C80.3604 10.18 79.2046 10.1406 78.417 11.0701C77.7201 11.887 77.0458 12.7208 76.2979 13.6222C75.6577 12.7659 75.0684 11.9659 74.4678 11.1715C74.2808 10.9237 74.2355 10.7039 74.4168 10.4166C77.0968 6.19698 80.2188 2.42803 84.8479 0.157651C85.4655 -0.146569 85.7771 -0.0564298 86.219 0.450604C88.8481 3.48154 91.8623 6.03361 95.6472 7.53217C100.888 9.61101 105.92 8.83919 110.781 6.28712C113.206 5.01391 115.365 3.36323 117.274 1.40833C117.665 1.00834 117.999 0.895666 118.543 1.03088C119.467 1.26186 120.345 1.58298 121.144 2.09565C125.263 4.72095 127.275 8.84483 129.11 13.1208C128.38 12.5856 128.079 11.4532 126.827 11.7124C126.396 11.8025 126.056 11.8701 125.779 12.2476C125.241 12.9687 124.617 13.6335 124.085 14.3602C123.716 14.856 123.467 14.7771 123.156 14.3264C122.697 13.6673 122.215 13.0307 121.75 12.3828C120.912 11.211 119.796 11.1603 118.889 12.2589C118.334 12.9293 117.767 13.5828 117.235 14.2701C116.917 14.6813 116.719 14.6137 116.458 14.225C116.005 13.5659 115.523 12.9293 115.059 12.2758C114.135 10.9744 113.064 10.9349 112.067 12.1631C111.54 12.811 110.979 13.4307 110.475 14.0898C110.169 14.4898 109.993 14.4616 109.721 14.0616C109.195 13.2842 108.634 12.5293 108.061 11.7856C107.404 10.9293 106.192 10.9124 105.5 11.7349C104.786 12.5856 104.084 13.4419 103.33 14.3546L103.319 14.3602Z" fill="#FFC82B"/>
<path d="M68.7905 23.4135C68.9322 22.4389 69.3345 21.5488 69.6801 20.6417C69.8784 20.4277 69.9634 20.146 70.1051 19.8981C70.802 18.8953 71.5045 17.9094 72.3148 16.9911C72.7681 16.4784 73.1477 16.501 73.5953 17.0305C74.3432 17.915 74.8701 18.9404 75.5727 19.8474C76.23 20.6924 76.3546 20.6981 77.0062 19.8079C77.6011 18.9911 78.2414 18.208 78.8533 17.408C79.5049 16.5573 79.9128 16.5629 80.5588 17.4305C81.2217 18.3206 81.8166 19.2671 82.4512 20.1798C82.8988 20.822 83.1594 20.76 83.5957 20.1967C84.321 19.2615 85.0292 18.315 85.7715 17.3967C86.3664 16.6587 86.7063 16.6362 87.1936 17.4362C87.8112 18.4502 88.5818 19.3516 89.1994 20.3657C89.6923 21.1769 89.698 21.1544 90.3269 20.3882C91.0748 19.4699 91.7547 18.5009 92.5196 17.5939C93.1485 16.8503 93.4092 16.8446 93.9361 17.639C94.548 18.5685 95.2563 19.4305 95.8286 20.3882C96.4178 21.3741 96.5595 21.3516 97.2564 20.3882C97.891 19.515 98.5482 18.6587 99.2338 17.8305C99.8401 17.0981 100.067 17.1488 100.707 17.87C101.5 18.7601 102.016 19.8417 102.747 20.7713C103.166 21.3065 103.438 21.3178 103.852 20.7826C104.509 19.9263 105.143 19.0587 105.801 18.2023C106.532 17.2559 106.934 17.2502 107.642 18.2305C108.271 19.1037 108.855 20.0108 109.472 20.8953C109.92 21.5375 110.197 21.4643 110.628 20.9122C111.353 19.977 112.062 19.0305 112.804 18.1122C113.387 17.3798 113.733 17.3686 114.226 18.1685C114.827 19.1488 115.569 20.0333 116.175 21.0079C116.725 21.8981 116.793 21.8812 117.467 21.0248C118.192 20.0896 118.889 19.1375 119.654 18.2305C120.153 17.639 120.555 17.6953 120.951 18.3319C121.58 19.3347 122.334 20.2474 122.952 21.2614C123.433 22.0445 123.592 22.0333 124.136 21.3065C124.821 20.3882 125.518 19.4699 126.243 18.5854C126.861 17.8362 127.088 17.8756 127.717 18.5854C128.51 19.4756 129.025 20.5516 129.762 21.4868C130.159 21.9882 130.448 22.1121 130.873 21.5319C131.111 21.2051 131.337 20.822 131.819 20.7826C132.079 21.6952 132.34 22.6023 132.601 23.5149C132.283 24.2698 131.671 24.8107 131.15 25.4078C130.533 26.1177 130.181 26.0895 129.558 25.3402C129.133 24.8332 128.753 24.2924 128.334 23.7797C127.541 22.8107 126.606 22.7825 125.762 23.6896C125.241 24.2529 124.753 24.8388 124.204 25.3797C123.745 25.8247 123.365 25.7797 122.963 25.3346C122.442 24.7712 122.022 24.1234 121.518 23.5487C120.702 22.6248 119.892 22.6079 119.036 23.498C118.504 24.0501 117.965 24.5966 117.467 25.1769C117.031 25.6895 116.606 25.6895 116.186 25.1318C115.727 24.5177 115.217 23.9431 114.742 23.3459C114.09 22.5234 113.178 22.4502 112.385 23.1544C111.812 23.667 111.365 24.298 110.855 24.867C110.35 25.436 109.863 25.4417 109.37 24.867C108.894 24.3093 108.469 23.7121 108.01 23.1487C107.296 22.2755 106.271 22.253 105.5 23.098C105.104 23.5375 104.741 24.0051 104.345 24.4445C103.5 25.374 103.126 25.3628 102.361 24.4051C101.993 23.9431 101.647 23.4642 101.268 23.0079C100.514 22.1065 99.5568 22.0727 98.7635 22.9403C98.2479 23.5093 97.704 24.0445 97.194 24.6191C96.7238 25.1487 96.3215 25.0642 95.8909 24.5741C95.3866 23.9994 94.956 23.3572 94.4461 22.7882C93.7038 21.9544 92.9162 21.915 92.0947 22.6642C91.4997 23.2051 90.9955 23.8248 90.4685 24.4276C89.9983 24.9684 89.5676 25.0022 89.12 24.3769C88.6951 23.7853 88.1965 23.2445 87.7432 22.6699C87.0066 21.7403 85.9868 21.7065 85.1652 22.5854C84.7119 23.0699 84.3266 23.6107 83.8677 24.0896C83.2104 24.7769 82.8818 24.7769 82.2472 24.0501C81.7883 23.5262 81.403 22.9403 80.9384 22.4276C80.1451 21.5544 79.2329 21.5544 78.4284 22.4276C77.9354 22.9628 77.4935 23.5544 76.9495 24.0445C76.4283 24.5177 75.958 24.5008 75.5274 23.9431C75.1024 23.391 74.6832 22.8332 74.2412 22.298C73.4876 21.3854 72.5641 21.3516 71.7368 22.2135C71.2552 22.7149 70.768 23.2107 70.2977 23.729C69.5441 24.5515 69.2552 24.4839 68.7735 23.4192L68.7905 23.4135Z" fill="#FFC82B"/>
<path d="M71.4025 16.3151C71.9578 14.8898 72.6717 13.549 73.482 12.0561C74.4225 13.3462 75.2894 14.5349 76.2186 15.8081C77.2555 14.5293 78.2867 13.318 79.2386 12.0504C79.6465 11.504 79.8278 11.5659 80.1791 12.0842C80.9157 13.1828 81.7486 14.2138 82.4625 15.3292C82.8988 16.0109 83.1368 15.8701 83.5447 15.3292C84.3379 14.2757 85.1992 13.2729 86.0037 12.2251C86.3494 11.7744 86.559 11.718 86.9046 12.2307C87.6639 13.3574 88.5081 14.4222 89.2503 15.5602C89.6526 16.1799 89.8623 16.0954 90.2646 15.5715C91.2051 14.3321 92.2023 13.1377 93.2392 11.8476C94.3554 13.3969 95.4093 14.856 96.5028 16.3771C97.517 15.1095 98.4972 13.949 99.4038 12.7321C99.8514 12.1293 100.089 12.0392 100.548 12.7377C101.376 14.0166 102.305 15.2278 103.257 16.5574C104.446 15.0814 105.568 13.6842 106.758 12.2082C107.744 13.5828 108.69 14.8616 109.586 16.1743C109.925 16.6757 110.129 16.6532 110.481 16.1912C111.302 15.1095 112.175 14.0729 113.002 13.0025C113.342 12.5631 113.569 12.3885 113.96 12.9913C114.719 14.1518 115.574 15.256 116.362 16.4053C116.657 16.8278 116.849 16.8841 117.189 16.4391C118.028 15.3349 118.934 14.2757 119.773 13.1659C120.153 12.6645 120.374 12.6476 120.736 13.1772C121.614 14.4673 122.544 15.7292 123.529 17.1039C124.532 15.8588 125.541 14.7264 126.408 13.5039C126.986 12.687 127.235 12.9462 127.666 13.5941C128.414 14.7264 129.048 16.0504 130.079 16.8391C130.992 17.5377 131.071 18.3714 131.366 19.2334C131.32 19.4757 131.224 19.6954 131.071 19.8925C130.504 20.6306 130.17 20.6475 129.654 19.8644C129.212 19.194 128.708 18.5743 128.249 17.9208C127.592 16.9912 126.668 16.963 125.87 17.7912C125.314 18.3714 124.912 19.0757 124.379 19.6728C123.739 20.3883 123.467 20.3883 122.912 19.639C122.453 19.025 121.983 18.4222 121.563 17.7799C120.9 16.7658 119.96 16.7151 119.144 17.6165C118.674 18.1292 118.226 18.6644 117.812 19.2278C117.036 20.2756 116.781 20.27 115.937 19.239C115.495 18.6982 115.195 18.0616 114.736 17.532C113.903 16.563 112.979 16.563 112.22 17.5771C111.761 18.1912 111.268 18.7771 110.781 19.3686C110.186 20.0841 109.903 20.0841 109.342 19.3123C108.872 18.6644 108.481 17.9658 107.959 17.3517C107.149 16.394 106.345 16.3771 105.523 17.3123C105.013 17.8869 104.622 18.5517 104.107 19.1207C103.347 19.9602 103.155 19.9714 102.56 19.0531C102.14 18.4109 101.647 17.8193 101.211 17.194C100.565 16.2701 99.6304 16.2419 98.8372 17.087C98.2932 17.6729 97.8343 18.332 97.3357 18.9574C96.7578 19.6841 96.4801 19.6616 95.8682 18.9348C95.3753 18.3489 94.9616 17.701 94.5367 17.0644C93.8511 16.0335 92.8426 15.9997 92.0437 16.963C91.5111 17.6053 90.9501 18.2306 90.4459 18.8954C90.0606 19.4081 89.681 19.3911 89.2503 18.9236C88.7008 18.332 88.3381 17.6109 87.8452 16.9799C86.8763 15.7518 85.9924 15.7518 85.0915 16.9968C84.6836 17.5602 84.2473 18.1067 83.7657 18.6081C83.1594 19.2447 82.7741 19.2221 82.2529 18.4898C81.7939 17.8362 81.3916 17.1433 80.8647 16.5349C80.1395 15.6954 79.3066 15.6842 78.5643 16.5067C78.0261 17.1039 77.6351 17.8137 77.0742 18.394C76.4056 19.0869 76.0543 19.0757 75.5104 18.27C75.1194 17.6898 74.6718 17.1602 74.2752 16.5856C73.6179 15.6278 73.0117 15.5264 71.9748 16.1518C71.7992 16.2588 71.6518 16.4278 71.4139 16.3264L71.4025 16.3151Z" fill="#FFC82B"/>
<path d="M71.4025 16.3153C72.6377 15.0252 73.5896 15.1097 74.6152 16.5857C74.8305 16.9012 75.0684 17.1998 75.2894 17.5096C75.9731 18.4599 76.687 18.4617 77.4311 17.5153C77.7541 17.104 78.0714 16.6928 78.4 16.2871C79.2159 15.2843 80.3491 15.335 81.1197 16.4111C81.624 17.1209 82.1396 17.8195 82.6212 18.5462C82.9158 18.9857 83.1594 19.0138 83.4824 18.5801C83.9867 17.9153 84.5193 17.273 85.0349 16.6195C85.9868 15.4139 87.0406 15.4252 87.9585 16.6646C88.2701 17.0871 88.5421 17.5265 88.8481 17.9547C89.1484 18.3716 89.4657 18.7829 89.8226 19.2561C90.5592 18.3434 91.2561 17.4815 91.953 16.6195C92.7066 15.6843 93.9304 15.7294 94.6274 16.7153C95.1486 17.4533 95.6926 18.1801 96.1742 18.9406C96.4915 19.4364 96.7124 19.3462 97.0127 18.9519C97.5623 18.2364 98.1233 17.5265 98.6899 16.8223C99.4491 15.8871 100.696 15.9266 101.376 16.8956C101.897 17.6336 102.435 18.3603 102.917 19.1209C103.206 19.5716 103.398 19.611 103.727 19.1716C104.288 18.4223 104.883 17.6956 105.478 16.9688C106.209 16.0731 107.41 16.09 108.073 17.0139C108.719 17.9153 109.359 18.8167 110.084 19.8307C110.826 18.9012 111.501 18.0449 112.181 17.1998C112.968 16.2252 114.113 16.2308 114.844 17.2223C115.501 18.1125 116.141 19.0251 116.838 19.9997C117.609 19.0476 118.317 18.1519 119.042 17.273C119.728 16.4505 120.974 16.4899 121.592 17.3519C122.141 18.1125 122.691 18.873 123.201 19.6617C123.501 20.1237 123.711 20.1124 124.028 19.6843C124.566 18.9575 125.133 18.2589 125.705 17.5547C126.498 16.5745 127.734 16.6421 128.453 17.6843C128.748 18.1125 129.059 18.535 129.354 18.9631C129.654 19.3913 129.943 19.8195 130.266 20.2871C130.788 20.0617 130.935 19.4927 131.354 19.211C131.598 19.7068 131.756 20.2195 131.824 20.7659C131.751 20.8392 131.66 20.9011 131.598 20.98C130.691 22.0955 129.824 22.0429 128.997 20.8223C128.527 20.1293 128.011 19.4702 127.586 18.7547C127.195 18.1068 126.94 17.9998 126.442 18.6984C125.541 19.9659 124.549 21.1659 123.529 22.4786C122.419 20.8786 121.371 19.3744 120.277 17.8026C119.291 19.0646 118.305 20.2364 117.439 21.487C116.861 22.3208 116.566 22.1406 116.118 21.4025C115.467 20.3378 114.685 19.3462 114.033 18.2758C113.608 17.5829 113.365 17.735 112.968 18.2871C112.215 19.3293 111.353 20.2983 110.634 21.3575C110.107 22.1293 109.846 21.9434 109.421 21.2842C108.6 20.0054 107.699 18.7772 106.764 17.4251C105.71 18.7885 104.718 20.0392 103.767 21.3124C103.415 21.7856 103.217 21.9208 102.826 21.3124C102.055 20.1124 101.189 18.9744 100.395 17.7913C100.084 17.3181 99.8797 17.3575 99.5681 17.7744C98.5822 19.0758 97.5793 20.3603 96.5085 21.7462C95.4149 20.1744 94.3667 18.6702 93.2449 17.0533C92.2193 18.3829 91.2108 19.6448 90.2532 20.9462C89.8339 21.5152 89.6186 21.4983 89.2447 20.9011C88.5081 19.7237 87.6752 18.6026 86.916 17.4364C86.5873 16.935 86.3834 16.9406 86.0321 17.4139C85.1878 18.5632 84.287 19.6674 83.4427 20.811C83.0858 21.2899 82.8761 21.2899 82.5532 20.7828C81.8733 19.7293 81.1537 18.704 80.4341 17.6787C79.7315 16.6646 79.7259 16.6702 79.0006 17.6167C78.2357 18.6082 77.4481 19.5829 76.7172 20.5969C76.3206 21.1434 76.1053 21.0589 75.7653 20.5462C75.0004 19.3857 74.1619 18.2702 73.397 17.1097C73.057 16.597 72.8417 16.6308 72.4961 17.0871C71.7482 18.0899 70.9663 19.0645 70.1957 20.0561C69.7481 19.8533 70.0824 19.6054 70.156 19.3744C70.4507 18.2984 70.9096 17.2956 71.3969 16.2928L71.4025 16.3153Z" fill="#C22234"/>
<path d="M68.7905 23.4137C69.3288 24.2869 69.8047 24.1686 70.343 23.3742C70.6943 22.8616 71.1646 22.4334 71.5838 21.9714C72.4621 21.0081 73.5669 21.0362 74.3885 22.0503C74.8248 22.5912 75.2724 23.1264 75.6633 23.701C76.06 24.2925 76.3943 24.4559 76.8929 23.7911C77.2838 23.2616 77.7598 22.794 78.2017 22.3038C79.2499 21.1264 80.2811 21.1771 81.284 22.3827C81.8733 23.0925 82.3039 24.3545 83.1084 24.3376C83.7373 24.3207 84.3549 23.1602 84.9555 22.4897C85.9811 21.3517 87.1029 21.3743 88.0265 22.5742C88.4118 23.07 88.8764 23.5151 89.188 24.0503C89.6866 24.9066 90.0436 24.6475 90.5139 24.039C90.9161 23.5151 91.3921 23.0531 91.8397 22.563C92.7519 21.5602 93.8398 21.5884 94.701 22.6475C95.2053 23.2672 95.7095 23.8869 96.1912 24.5291C96.4688 24.9066 96.6784 24.9122 96.9844 24.5517C97.4717 23.9658 97.9986 23.408 98.5085 22.8334C99.5624 21.6447 100.605 21.6841 101.585 22.9461C101.993 23.47 102.418 23.977 102.792 24.5179C103.155 25.0531 103.466 25.132 103.891 24.5798C104.316 24.0334 104.803 23.5263 105.262 23.008C106.294 21.8419 107.359 21.9038 108.339 23.1207C108.9 23.8193 109.331 25.0193 110.084 25.0643C110.86 25.1151 111.331 23.9094 111.937 23.2559C113.087 22.0221 114.062 22.0672 115.155 23.3911C115.716 24.0672 116.147 25.2728 116.906 25.2503C117.518 25.2334 118.101 24.1179 118.679 23.4756C119.841 22.1855 120.804 22.1968 121.892 23.5432C122.459 24.2418 123.008 24.946 123.609 25.701C124.3 24.9291 124.929 24.2306 125.547 23.532C126.549 22.394 127.626 22.4109 128.561 23.5996C128.991 24.1461 129.433 24.6813 129.83 25.2559C130.193 25.7798 130.465 25.87 130.918 25.3122C131.445 24.6756 131.921 23.977 132.618 23.4982C132.731 23.9939 132.844 24.4897 132.958 24.9855C132.238 25.7855 131.484 26.5573 130.805 27.3854C130.391 27.8925 130.176 27.8305 129.819 27.3291C129.071 26.2812 128.227 25.301 127.473 24.2587C127.127 23.7799 126.935 23.7911 126.566 24.2362C125.615 25.3911 124.623 26.5066 123.552 27.7516C122.595 26.5178 121.643 25.3517 120.759 24.1292C120.385 23.6109 120.175 23.5939 119.779 24.0897C118.997 25.0643 118.13 25.977 117.354 26.9573C116.934 27.4812 116.668 27.5094 116.271 26.946C115.586 25.9826 114.804 25.0869 114.135 24.1123C113.659 23.4137 113.353 23.4531 112.86 24.101C112.169 25.0136 111.342 25.8249 110.645 26.7376C110.146 27.3854 109.863 27.2784 109.444 26.6756C108.809 25.7629 108.05 24.9348 107.432 24.0108C106.889 23.2052 106.537 23.3517 106.016 24.0334C105.296 24.9686 104.469 25.8193 103.71 26.7319C103.381 27.1263 103.189 27.1657 102.854 26.7094C102.078 25.639 101.217 24.6306 100.441 23.5601C100.101 23.0926 99.9024 23.0587 99.5284 23.5263C98.7918 24.4503 97.9419 25.2897 97.2394 26.2362C96.6501 27.0361 96.2875 26.8559 95.8002 26.1686C95.1146 25.2052 94.3554 24.2925 93.6471 23.3461C93.3525 22.9517 93.1429 22.8841 92.7916 23.3179C91.9587 24.3432 91.0521 25.3122 90.2192 26.3319C89.8339 26.7995 89.6016 26.7319 89.2787 26.2869C88.5138 25.2503 87.7035 24.2475 86.9386 23.2109C86.6043 22.7545 86.372 22.7376 85.9981 23.194C85.1595 24.2137 84.253 25.1827 83.4087 26.1967C83.0688 26.6023 82.8761 26.608 82.5645 26.1686C81.8506 25.1827 81.0403 24.2644 80.3661 23.2503C79.8278 22.4447 79.4595 22.7095 78.9949 23.2672C78.2357 24.1742 77.4425 25.0531 76.6946 25.9714C76.3376 26.4108 76.1336 26.4446 75.7823 25.9488C75.0118 24.8728 74.1505 23.8644 73.38 22.794C73.0513 22.3376 72.8474 22.3883 72.5301 22.7714C71.7482 23.7066 70.8983 24.5855 70.1674 25.5545C69.6121 26.2869 69.2381 26.1629 68.8075 25.4869C68.6602 25.2559 68.4732 25.0418 68.3033 24.8221C68.4109 24.332 68.5129 23.8475 68.7962 23.4137H68.7905Z" fill="#4D8D41"/>
<path d="M70.1674 19.3911C70.19 19.6165 70.037 19.8531 70.207 20.0728C70.0767 20.3038 69.969 20.546 69.6857 20.6362C69.7821 20.1967 69.8501 19.746 70.1674 19.3911Z" fill="#CF523E"/>
<path d="M136.476 46.9906C136.023 43.3963 135.842 39.9879 135.371 36.3936C135.326 36.033 135.264 35.7063 135.23 35.1429C137.111 34.9288 138.856 34.5852 140.686 34.2584C149.378 32.7035 158.154 31.8359 166.999 31.9261C170.206 31.9599 173.413 32.2134 176.529 32.9232C179.555 33.6105 182.512 34.5964 184.609 37.1485C185.187 37.8527 185.294 38.3091 184.473 38.9626C181.028 41.7062 176.965 43.3512 172.772 44.6357C166.715 46.4948 160.528 47.7004 154.205 48.1173C149.854 48.4047 145.513 48.2413 141.185 47.7173C139.609 47.5258 138 47.5145 136.476 46.9906Z" fill="#C22134"/>
<path d="M49.5036 40.6077C49.8945 39.0584 51.498 38.1119 53.0505 38.5176C54.5406 38.9063 55.5038 40.4893 55.1582 41.9766C54.8069 43.4977 53.1581 44.5005 51.6226 44.1287C50.0758 43.7569 49.1126 42.1569 49.5036 40.602V40.6077Z" fill="white"/>
<path d="M26.3751 37.1712C26.766 35.6388 28.4092 34.6811 29.9333 35.0924C31.4291 35.498 32.3697 37.0698 32.0241 38.5684C31.6728 40.0782 30.007 41.081 28.4772 40.6979C26.9247 40.3092 25.9785 38.7205 26.3751 37.1656V37.1712Z" fill="white"/>
<path d="M60.9262 40.681C62.4616 41.0641 63.4192 42.6133 63.0622 44.1232C62.694 45.6781 61.0791 46.6471 59.5153 46.2527C57.9572 45.864 56.994 44.2358 57.4133 42.7035C57.8269 41.188 59.385 40.2922 60.9262 40.6753V40.681Z" fill="white"/>
<path d="M18.1424 37.295C18.5447 35.7345 20.1142 34.8162 21.6893 35.2218C23.1908 35.6049 24.1484 37.1654 23.7971 38.664C23.4458 40.1795 21.8026 41.1766 20.2615 40.8048C18.6977 40.4273 17.7402 38.8443 18.1424 37.295Z" fill="white"/>
<path d="M116.827 58.0439C116.413 59.61 114.821 60.5114 113.24 60.0776C111.727 59.6607 110.821 58.0946 111.223 56.5791C111.625 55.0693 113.2 54.1341 114.719 54.5059C116.294 54.8946 117.24 56.489 116.832 58.0439H116.827Z" fill="white"/>
<path d="M75.1704 50.2582C73.6633 49.8807 72.6831 48.292 73.0457 46.7991C73.4196 45.2611 75.0741 44.2752 76.6096 44.6752C78.1451 45.0752 79.0686 46.6076 78.7003 48.1399C78.3207 49.7117 76.7512 50.6526 75.1648 50.2582H75.1704Z" fill="white"/>
<path d="M106.894 52.9738C108.458 53.3682 109.416 54.9963 108.991 56.5287C108.571 58.0216 106.962 58.9512 105.466 58.5624C103.88 58.1512 102.979 56.5963 103.398 55.0132C103.801 53.4921 105.353 52.5907 106.894 52.9794V52.9738Z" fill="white"/>
<path d="M97.857 56.5623C96.3498 56.1961 95.3866 54.63 95.7322 53.1089C96.0835 51.5709 97.7323 50.5624 99.2735 50.9455C100.781 51.323 101.732 52.8891 101.381 54.4102C101.019 55.9708 99.4264 56.9454 97.857 56.5623Z" fill="white"/>
<path d="M41.8942 38.9569C42.2738 37.4245 43.8036 36.4949 45.3447 36.8499C46.9199 37.2161 47.9114 38.8217 47.5148 40.354C47.1239 41.8582 45.5544 42.8103 44.0416 42.4667C42.4551 42.1005 41.5032 40.5399 41.8942 38.9569Z" fill="white"/>
<path d="M37.6957 35.6501C39.2935 36.0163 40.2624 37.5599 39.8771 39.1317C39.5145 40.6247 37.928 41.5937 36.4039 41.2613C34.8684 40.9233 33.8485 39.2782 34.2225 37.7402C34.5907 36.2304 36.1489 35.2896 37.6957 35.6445V35.6501Z" fill="white"/>
<path d="M86.4344 50.1963C86.0434 51.7287 84.5136 52.647 82.9725 52.2752C81.4143 51.8977 80.4171 50.2583 80.8307 48.7428C81.2443 47.2274 82.7968 46.3034 84.3266 46.6753C85.9074 47.0527 86.8367 48.6132 86.4344 50.1963Z" fill="white"/>
<path d="M67.5044 48.2413C65.8669 47.8638 64.932 46.3878 65.323 44.7878C65.7026 43.2498 67.2097 42.3203 68.7622 42.6695C70.3657 43.0301 71.3232 44.5625 70.9379 46.1455C70.5526 47.7061 69.0908 48.6018 67.51 48.2357L67.5044 48.2413Z" fill="white"/>
<path d="M13.8136 36.9346C15.4001 37.3233 16.284 38.7542 15.9044 40.3373C15.5191 41.9655 14.0459 42.8725 12.4255 42.4781C10.8277 42.0894 9.92112 40.5627 10.3404 38.9627C10.7427 37.4247 12.2385 36.5515 13.8136 36.9346Z" fill="white"/>
<path d="M93.7378 52.2976C93.3412 53.892 91.9134 54.7596 90.3212 54.3821C88.6781 53.9934 87.7659 52.523 88.1625 50.923C88.5534 49.3399 90.1003 48.4329 91.7037 48.8442C93.2505 49.2442 94.1288 50.7315 93.7378 52.2976Z" fill="white"/>
</g>
<defs>
<clipPath id="clip0_9_642">
<rect width="195" height="163" fill="white"/>
</clipPath>
</defs>
</svg>
